<?xml version="1.0" encoding="UTF-8"?>
<!-- Generated by Pixelmator Pro 3.2.3 -->
<svg width="400" height="400" viewBox="0 0 400 400" xmlns="http://www.w3.org/2000/svg" xmlns:xlink="http://www.w3.org/1999/xlink">
    <path id="Path" fill="#ea4e52" stroke="none" d="M 315.504913 149.200897 C 297.937469 110.978424 262.009796 84.421417 220.315613 78.840393 C 178.620438 73.259369 136.973145 89.430786 109.970825 121.688049 C 92.177155 142.926941 82.102364 169.56752 81.389069 197.26683 C 62.120914 191.780563 41.395603 195.648666 25.404533 207.717621 C 9.413465 219.784546 0.008152 238.654282 -0 258.687683 C -0 293.957092 28.589907 322.546997 63.858299 322.546997 L 74.961258 322.546997 C 77.203041 322.537842 79.351082 321.643158 80.937653 320.059631 L 198.338974 202.742905 L 219.307831 181.774048 L 219.307831 207.984604 C 219.307831 212.663818 223.101547 216.457535 227.780762 216.457535 C 232.459991 216.457535 236.253693 212.663818 236.253693 207.984604 L 236.253693 161.154709 C 236.198669 156.503006 232.440628 152.744949 227.78891 152.689926 L 181.209702 152.689926 C 180.096954 152.686874 178.995422 152.90799 177.970306 153.342087 C 175.881378 154.177658 174.222458 155.829453 173.378723 157.915329 C 172.107025 161.085419 172.827454 164.706924 175.215973 167.148438 C 176.812729 168.724808 178.964844 169.613373 181.209702 169.619492 L 207.403946 169.619492 L 170.006882 207.083817 L 71.472221 305.602173 L 63.858299 305.602173 C 49.401836 305.585876 35.757507 298.917572 26.861694 287.521149 C 17.998486 276.107391 14.871195 261.25354 18.38061 247.235229 C 21.8941 233.208771 31.692743 221.592255 44.926414 215.764618 C 58.150917 209.929871 73.32679 210.515793 86.063194 217.351196 C 88.123596 218.457825 90.547783 218.675888 92.772247 217.954437 C 94.997726 217.232986 96.831917 215.633179 97.849892 213.527924 C 98.550957 212.115601 98.851563 210.540237 98.718079 208.969971 C 98.718079 206.431656 98.217751 203.09343 98.217751 199.704254 C 97.97319 148.740311 134.103653 104.848175 184.16478 95.292053 C 234.244247 85.762421 283.990509 113.334351 302.449554 160.854111 C 303.830292 164.267731 307.239868 166.41272 310.914337 166.179367 L 315.555878 166.179367 C 354.069763 166.179367 385.291718 197.401337 385.291718 235.915222 C 385.291718 274.430115 354.069763 305.651062 315.555878 305.651062 L 143.795303 305.651062 C 139.116089 305.651062 135.322372 309.445801 135.322372 314.125031 C 135.322372 318.80426 139.116089 322.596954 143.795303 322.596954 L 315.205322 322.596954 C 362.264496 321.519867 399.885742 283.121124 399.999878 236.049728 C 400.078339 188.964066 362.575287 150.415527 315.504913 149.200897 Z"/>
</svg>
