<?xml version="1.0" encoding="UTF-8"?>
<!-- Generated by Pixelmator Pro 3.2.3 -->
<svg width="400" height="400" viewBox="0 0 400 400" xmlns="http://www.w3.org/2000/svg" xmlns:xlink="http://www.w3.org/1999/xlink">
    <linearGradient id="linearGradient1" x1="107.232734" y1="-22.123564" x2="299.87686" y2="357.213578" gradientUnits="userSpaceOnUse">
        <stop offset="1e-05" stop-color="#9478d2" stop-opacity="1"/>
        <stop offset="1" stop-color="#59418d" stop-opacity="1"/>
    </linearGradient>
    <path id="astronomer" fill="url(#linearGradient1)" fill-rule="evenodd" stroke="none" d="M 240.627518 0.10907 C 186.696289 1.855377 136.676437 24.495575 99.776184 63.863861 C 23.603271 145.13298 27.750275 273.221527 109.016731 349.395782 C 137.521988 376.111664 171.799393 392.907013 207.565964 400 L 218.286224 373.195251 C 185.673004 367.746277 154.266174 352.988068 128.385117 328.730804 C 58.514847 263.236389 54.949497 153.109238 120.441177 83.236267 C 152.168457 49.388367 195.176117 29.917664 241.544449 28.417725 C 243.467148 28.354462 245.388504 28.326172 247.305832 28.326172 C 282.279327 28.326172 315.781189 38.700439 344.314728 58.045929 L 355.051147 31.19812 C 322.99939 10.860321 285.925446 0 247.324661 0 C 245.096329 0 242.865295 0.036377 240.627518 0.10907 Z M 261.074402 102.604675 L 233.875198 102.604675 L 232.963638 102.604675 L 232.624344 103.451569 L 161.053543 282.377258 L 160.315689 284.224548 L 162.304367 284.224548 L 191.189331 284.224548 L 192.110291 284.224548 L 192.442856 283.36554 L 210.002991 238.214355 L 287.178986 238.214355 L 304.95993 283.372253 L 305.295197 284.224548 L 306.21344 284.224548 L 336.119019 284.224548 L 338.107697 284.224548 L 337.3685 282.377258 L 291.154999 166.842819 L 290.817017 165.997269 L 289.904144 165.997269 L 260.989594 165.997269 L 259.021118 165.997269 L 259.734711 167.8311 L 276.12616 209.960892 L 221.275299 209.960892 L 262.330627 104.43985 L 263.04422 102.604675 Z"/>
</svg>
