<?xml version="1.0" encoding="UTF-8"?>
<!-- Generated by Pixelmator Pro 3.6.17 -->
<svg width="400" height="400" viewBox="0 0 400 400" xmlns="http://www.w3.org/2000/svg">
    <g id="Group">
        <g id="g1">
            <path id="Path" fill="#ffffff" stroke="none" d="M 185.68187 369.259338 C 159.933975 369.259338 135.58902 366.866089 117.268417 362.409729 C 92.923462 356.550446 81.039818 347.720245 81.039818 335.258942 L 81.039818 215.597275 L 4.456365 215.597275 L 5.364142 203.053421 C 7.592325 172.766647 25.087683 146.193527 51.990925 131.999176 C 57.85022 128.86322 61.976482 123.416534 63.214359 117.062103 C 67.423149 95.60553 81.865074 77.615021 101.836189 68.784821 C 110.253761 65.071167 119.579117 63.173096 128.739426 63.173096 C 130.802567 63.173096 132.865692 63.255615 134.928818 63.420685 C 135.671555 63.503204 136.331757 63.503204 137.074478 63.503204 C 142.933777 63.503204 148.297913 61.192505 152.094086 57.066223 C 166.288422 41.799042 185.186722 32.638733 205.818039 31.07077 L 205.818039 31.07077 L 214.070557 30.905701 L 214.070557 30.988251 C 244.522385 31.648438 271.755737 48.89621 285.454926 76.294617 C 286.445221 78.275238 287.848175 80.173309 289.416138 81.823822 C 291.396759 84.712189 294.037567 88.425842 296.348267 91.726837 C 321.105835 92.552094 343.635223 105.508575 356.839294 126.71756 L 357.169373 127.295227 L 360.05777 139.9216 L 394.058167 173.922012 L 377.470612 190.509598 L 366.74231 179.781311 C 360.222839 214.35939 329.688477 240.354858 293.707458 240.354858 C 292.552094 240.354858 291.396759 240.354858 290.241364 240.272324 L 290.241364 335.42395 C 290.241364 347.802734 278.357758 356.715485 254.012802 362.574768 C 235.774704 366.866089 211.429764 369.259338 185.68187 369.259338 Z"/>
            <path id="path1" fill="#ffffff" stroke="none" d="M 212.255005 35.031982 C 241.881577 35.031982 268.619751 51.537018 281.823822 78.110168 C 283.061676 80.585938 284.712189 82.814117 286.61026 84.712189 C 288.425842 87.518066 291.726837 92.139465 294.285126 95.770569 C 318.877655 95.935638 340.994415 108.89209 353.37323 128.86322 L 356.426636 141.902191 L 388.363953 173.839493 L 377.635651 184.567764 L 363.853943 170.786041 C 361.378174 207.262222 330.926331 236.146057 293.872498 236.146057 C 291.314209 236.146057 288.755951 235.898499 286.280151 235.650925 L 286.280151 335.341431 C 286.280151 345.574585 275.46936 353.166901 253.270065 358.448517 C 235.114502 362.822388 211.182175 365.133087 185.764389 365.133087 C 160.346603 365.133087 136.414276 362.739838 118.258713 358.448517 C 96.059418 353.166901 85.248604 345.574585 85.248604 335.341431 L 85.248604 211.471008 L 8.91273 211.471008 L 9.490406 203.30101 C 11.636064 174.41716 28.223644 149.164429 53.971527 135.63028 C 60.986176 131.916656 65.855171 125.479675 67.340622 117.80484 C 71.301842 97.668671 84.835976 80.750977 103.569221 72.498444 C 111.574173 69.032379 120.156799 67.216827 128.821945 67.216827 C 130.802567 67.216827 132.700638 67.299347 134.598709 67.464417 C 135.423965 67.546936 136.249222 67.546936 137.157013 67.546936 C 144.089127 67.546936 150.608627 64.823608 155.230042 59.789551 C 169.589432 44.35733 189.065399 35.52713 210.109344 34.949463 L 210.274399 42.541779 L 210.109344 34.949463 C 210.852066 35.031982 211.512268 35.031982 212.255005 35.031982 M 218.196823 26.61441 L 209.944305 26.861969 C 209.861771 26.861969 209.861771 26.861969 209.779251 26.861969 L 201.691772 27.109558 L 201.691772 27.522186 C 181.555603 29.915405 163.152466 39.240753 149.205688 54.342896 C 146.152252 57.64389 141.860947 59.459473 137.157013 59.459473 C 136.579315 59.459473 136.001648 59.459473 135.423965 59.376923 C 133.195786 59.211884 131.05014 59.046844 128.821945 59.046844 C 119.083969 59.046844 109.180931 61.109955 100.268204 65.071167 C 79.059212 74.396545 63.709511 93.542389 59.253143 116.319366 C 58.262844 121.518463 54.879307 125.892303 50.092842 128.368042 C 21.869198 143.222595 3.631112 171.03363 1.237879 202.723343 L 0.660202 210.893341 L 0 219.723541 L 8.91273 219.723541 L 76.913551 219.723541 L 76.913551 335.341431 C 76.913551 357.045593 106.540123 364.142792 116.278114 366.453491 C 135.011353 370.909851 159.686401 373.38559 185.68187 373.38559 C 211.759857 373.38559 236.352371 370.909851 255.085617 366.453491 C 264.823608 364.142792 294.450165 357.045593 294.450165 335.341431 L 294.450165 244.39859 C 329.523407 244.068497 359.645142 220.383743 369.135559 187.78627 L 371.776337 190.427078 L 377.635651 196.286362 L 383.494965 190.427078 L 394.223236 179.698776 L 400.08252 173.839493 L 394.223236 167.980194 L 363.936432 137.69342 L 361.460693 126.882599 L 361.130585 125.644714 L 360.387848 124.489349 C 346.853699 102.785217 323.994202 89.251099 298.658966 87.683105 C 296.760864 84.959778 294.780273 82.071381 293.459869 80.173309 L 293.047241 79.513092 L 292.469543 78.935425 C 291.149139 77.532501 289.993805 76.047028 289.251068 74.396545 C 275.46936 46.833099 248.648636 29.007629 218.196823 26.944489 L 218.196823 26.61441 L 218.196823 26.61441 Z"/>
        </g>
        <path id="path2" fill="#2c5967" stroke="none" d="M 25.747885 196.286362 L 73.777588 196.286362 L 73.777588 211.471008 L 8.91273 211.471008 L 9.490406 203.30101 C 11.636064 174.41716 28.223644 149.164429 53.971527 135.63028 C 60.986176 131.916656 65.855171 125.479675 67.340622 117.80484 C 71.301842 97.668671 84.835976 80.750977 103.569221 72.498444 C 113.307198 68.207153 124.035484 66.474121 134.598709 67.464417 C 142.521149 68.207153 150.030945 65.401276 155.230042 59.789551 C 169.589432 44.35733 189.065399 35.52713 210.109344 34.949463 L 210.109344 34.949463 C 210.769562 34.949463 211.512268 34.949463 212.17247 34.949463 C 241.799042 34.949463 268.537262 51.454498 281.741272 78.027649 C 282.979156 80.503418 284.629669 82.731598 286.527771 84.629669 C 280.833496 85.124817 275.221771 86.197632 269.940155 87.848145 C 269.362488 86.857849 268.784821 85.867554 268.207153 84.794708 C 257.561371 63.420685 236.022278 50.134094 212.17247 50.134094 C 211.594803 50.134094 211.01712 50.134094 210.439453 50.134094 C 193.521774 50.546722 177.759445 57.72644 166.205902 70.105225 C 157.78833 79.183014 145.657104 83.721893 133.030746 82.566528 C 125.025787 81.823822 116.938316 83.144226 109.51104 86.362701 C 95.316689 92.634613 85.083557 105.426025 82.030121 120.693207 C 79.636887 132.824432 71.879517 143.140106 60.821125 148.999374 C 42.417988 158.819885 29.626572 176.150208 25.747885 196.286362 M 286.280151 125.644745 L 301.299774 125.644745 L 322.343719 198.762131 L 306.168762 198.762131 L 302.537659 183.412415 L 284.299561 183.412415 L 280.750977 198.762131 L 265.071167 198.762131 L 286.280151 125.644745 Z M 287.187958 170.951096 L 299.731781 170.951096 L 293.459869 143.635254 L 287.187958 170.951096 Z M 223.808548 161.130585 L 210.026825 147.348877 L 199.298538 158.077164 L 231.235825 190.014435 L 263.173096 158.077164 L 252.444809 147.348877 L 239.075714 160.717972 C 241.716537 132.824432 265.318756 111.03775 293.789948 111.03775 C 314.421265 111.03775 332.906952 122.591309 342.314819 140.08667 L 353.37323 129.028259 C 340.829376 108.974609 318.547546 95.935638 293.789948 95.935638 C 256.736145 95.770569 226.284302 124.654419 223.808548 161.130585 M 388.363953 173.839493 L 356.426636 141.902222 L 324.48938 173.839493 L 335.217651 184.567764 L 348.586761 171.198685 C 345.945923 199.092224 322.343719 220.878906 293.872498 220.878906 C 273.24118 220.878906 254.755524 209.325348 245.347641 191.830002 L 234.289246 202.888397 C 246.833084 222.942032 269.114929 235.981033 293.872498 235.981033 C 330.926331 235.981033 361.378174 207.097183 363.853943 170.621002 L 377.635651 184.402725 L 388.363953 173.839493 Z M 271.09552 245.966583 C 275.964508 247.452042 281.081085 248.442337 286.280151 248.9375 L 286.280151 335.258942 C 286.280151 345.492065 275.46936 353.084381 253.270065 358.365997 C 235.114502 362.739838 211.182175 365.050537 185.764389 365.050537 C 160.346603 365.050537 136.414276 362.657318 118.258713 358.365997 C 96.059418 353.084381 85.248604 345.492065 85.248604 335.258942 L 85.248604 173.509384 C 85.248604 163.193726 96.141937 155.848984 118.423767 150.97998 C 136.001648 147.183823 159.933975 145.038177 185.764389 145.038177 C 187.002274 145.038177 188.322678 145.038177 189.560547 145.038177 L 189.560547 160.222824 C 188.322678 160.222824 187.084793 160.222824 185.764389 160.222824 C 131.710342 160.222824 103.816795 169.053024 100.433258 174.004547 L 100.433258 174.912308 C 104.064369 180.441498 135.011353 190.09697 185.764389 190.09697 C 196.245102 190.09697 205.900558 189.684341 214.648239 189.024139 C 216.133698 194.140701 218.031769 199.092224 220.425003 203.713623 C 209.531662 204.703934 197.81308 205.281616 185.764389 205.281616 C 160.346603 205.281616 136.414276 202.888397 118.258713 198.597076 C 111.161545 196.864029 105.219727 194.965958 100.350731 192.737762 L 100.350731 228.058594 C 103.98185 233.587784 134.928818 243.24324 185.68187 243.24324 C 213.822983 243.24324 235.774704 240.272324 250.464203 236.72374 C 256.736145 240.684967 263.585724 243.820923 270.847931 245.966583 C 266.061493 248.112244 260.202179 250.010315 253.187546 251.660828 C 235.031967 256.034668 211.099655 258.345367 185.68187 258.345367 C 160.264084 258.345367 136.331757 255.952148 118.176186 251.660828 C 111.079018 249.927795 105.137199 248.029709 100.268204 245.801529 L 100.268204 281.534973 C 103.899323 287.064148 134.846298 296.719604 185.599335 296.719604 C 236.352371 296.719604 267.381897 287.064148 270.930481 281.534973 L 270.930481 245.966583 Z M 271.09552 299.442963 C 266.309052 301.588623 260.367218 303.569214 253.187546 305.302246 C 235.031967 309.676086 211.099655 311.986816 185.68187 311.986816 C 160.264084 311.986816 136.331757 309.593567 118.176186 305.302246 C 111.079018 303.569214 105.137199 301.671143 100.268204 299.442963 L 100.268204 334.846283 C 103.486694 339.467712 131.545288 350.030945 185.599335 350.030945 C 239.653397 350.030945 267.794525 339.550232 270.930481 334.846283 L 270.930481 299.442963 Z"/>
    </g>
</svg>
