<?xml version="1.0" encoding="UTF-8"?>
<!-- Generated by Pixelmator Pro 3.6.17 -->
<svg width="400" height="400" viewBox="0 0 400 400" xmlns="http://www.w3.org/2000/svg">
    <g id="Group">
        <g id="g1">
            <path id="Path" fill="#ffffff" stroke="none" d="M 88.572861 391.092957 C 77.38694 391.092957 66.201004 390.160828 56.879395 388.296478 C 54.082916 387.364319 51.28643 387.364319 49.422112 386.432159 C 46.625629 385.5 44.761307 385.5 42.896984 384.567841 C 38.236179 382.703491 34.507538 380.839203 31.711056 378.974884 C 23.321608 374.314087 19.592966 367.78894 19.592966 360.331665 L 19.592966 282.030151 C 19.592966 274.572876 23.321608 268.047729 31.711056 263.386932 C 33.575378 262.454773 35.439697 261.522614 37.30402 260.590454 C 39.168343 259.658295 41.032665 258.726135 43.829147 257.793976 C 48.489952 255.929642 53.150753 254.997482 58.743721 254.065323 C 62.472359 253.133179 67.133163 252.201004 72.726135 252.201004 L 72.726135 179.492462 L 19.592966 179.492462 L 20.525126 167.374374 C 22.389448 139.409546 38.236179 115.17337 63.404526 102.123108 C 68.065331 99.32663 71.793968 94.665833 72.726135 89.072876 C 76.454773 69.497498 89.505028 52.718597 108.148247 44.329163 C 115.605522 40.600494 124.927132 38.736176 133.316589 38.736176 C 135.180908 38.736176 137.045227 38.736176 138.909546 38.736176 C 139.841705 38.736176 139.841705 38.736176 140.77388 38.736176 C 145.434677 38.736176 150.095474 36.871857 153.824127 33.143219 C 167.806534 18.228638 188.314072 8.907043 208.821609 8.907043 C 234.922119 8.907043 259.158295 21.957275 273.140686 45.261322 L 281.530151 52.718597 C 282.462311 52.718597 284.32663 52.718597 284.32663 52.718597 C 287.123108 52.718597 289.919617 52.718597 292.716064 53.650757 L 294.580414 53.650757 C 297.376892 53.650757 299.241211 54.582916 301.10553 54.582916 L 302.969849 55.515076 C 305.766327 56.447235 307.630646 57.379395 310.427124 58.311554 C 313.223602 59.243713 316.020111 61.108032 318.816589 62.040192 C 321.613068 63.90451 323.477386 64.83667 325.341736 66.700989 L 326.273865 67.633179 C 328.138184 69.497498 330.002533 70.429657 331.866821 72.293976 L 332.799011 73.226135 C 334.66333 75.090454 336.527618 76.954773 338.391968 78.819092 C 340.256287 80.683411 341.188416 82.547729 343.052765 85.344208 L 343.984924 86.276398 L 345.849243 89.072876 L 345.849243 89.072876 C 347.713562 92.801514 349.577881 97.462311 351.44223 102.123108 L 378.474854 129.155762 L 362.628143 144.070358 L 353.306549 134.748749 C 353.306549 135.680908 352.374359 139.409546 352.374359 139.409546 C 352.374359 140.341705 351.44223 142.206024 351.44223 143.138184 L 349.577881 145.002518 C 348.645752 145.934677 348.645752 147.798996 347.713562 148.731155 L 346.781403 150.595474 C 345.849243 151.527634 345.849243 153.391953 344.917084 154.324127 L 343.984924 156.188431 C 343.052765 157.120605 342.120605 158.984924 341.188416 159.917099 L 340.256287 161.781403 C 339.324127 162.713562 338.391968 164.577896 337.459808 165.51004 L 336.527618 166.442215 C 334.66333 168.306534 333.73114 169.238693 332.799011 170.170853 L 331.866821 171.103012 C 330.002533 172.035172 329.070343 173.899506 328.138184 174.83165 L 327.206024 175.763809 C 325.341736 176.695984 324.409546 177.628143 323.477386 178.560303 L 322.545227 179.492462 C 320.680908 180.424622 319.748749 181.356781 317.884399 182.288956 L 316.020111 183.221115 C 314.155792 184.153259 313.223602 185.085419 312.291443 185.085419 C 311.359283 185.085419 311.359283 185.085419 310.427124 186.017593 L 307.630646 182.288956 L 309.494995 186.949753 C 308.562805 186.949753 307.630646 187.881912 306.698486 187.881912 C 305.766327 187.881912 305.766327 187.881912 304.834167 188.814056 C 304.834167 188.814056 302.037689 189.746231 302.037689 189.746231 L 302.037689 322.113037 L 310.427124 322.113037 L 328.138184 330.502502 L 328.138184 344.484924 L 160.349243 344.484924 L 160.349243 362.195984 C 160.349243 369.653259 156.620605 376.178406 148.231155 380.839203 C 144.502518 383.635681 138.909546 385.5 133.316589 387.364319 C 132.38443 387.364319 130.520111 388.296478 129.587936 388.296478 C 126.791458 389.228638 124.927132 389.228638 122.130653 390.160828 C 110.944717 390.160828 100.690956 391.092957 88.572861 391.092957 Z"/>
            <path id="path1" fill="#ffffff" stroke="none" d="M 209.753769 13.567841 C 234.922119 13.567841 257.293976 26.618103 270.344208 48.0578 L 280.597992 57.379395 C 282.462311 57.379395 283.39447 57.379395 285.258789 57.379395 C 285.258789 57.379395 285.258789 57.379395 285.258789 57.379395 C 285.258789 57.379395 285.258789 57.379395 285.258789 57.379395 C 285.258789 57.379395 285.258789 57.379395 285.258789 57.379395 C 285.258789 57.379395 285.258789 57.379395 285.258789 57.379395 C 288.055267 57.379395 289.919617 57.379395 292.716064 58.311554 C 293.648254 58.311554 293.648254 58.311554 294.580414 58.311554 C 296.444702 58.311554 298.309052 59.243713 300.17337 59.243713 C 301.10553 59.243713 301.10553 59.243713 302.037689 59.243713 C 305.766327 60.175873 307.630646 60.175873 309.494995 61.108032 C 309.494995 61.108032 309.494995 61.108032 309.494995 61.108032 C 312.291443 62.040192 314.155792 62.972351 316.952271 64.83667 C 316.952271 64.83667 316.952271 64.83667 316.952271 64.83667 C 318.816589 65.768829 320.680908 67.633179 322.545227 68.565338 C 322.545227 68.565338 323.477386 69.497498 323.477386 69.497498 C 325.341736 70.429657 327.206024 72.293976 328.138184 74.158295 C 328.138184 74.158295 329.070343 75.090454 329.070343 75.090454 C 330.934662 76.954773 332.799011 78.819092 334.66333 80.683411 C 334.66333 80.683411 334.66333 80.683411 334.66333 80.683411 C 336.527618 82.547729 337.459808 84.412079 338.391968 86.276398 C 338.391968 86.276398 338.391968 86.276398 339.324127 87.208527 L 339.324127 87.208527 C 342.120605 91.869354 344.917084 97.462311 346.781403 103.055267 L 371.017578 127.291443 L 361.695984 136.613068 L 349.577881 125.427124 C 349.577881 125.427124 349.577881 126.359314 349.577881 126.359314 C 349.577881 127.291443 349.577881 129.155762 349.577881 130.087952 C 349.577881 131.020111 349.577881 131.952271 349.577881 132.88443 C 349.577881 133.816589 348.645752 135.680908 348.645752 136.613068 C 348.645752 137.545227 348.645752 138.477386 347.713562 139.409546 C 347.713562 140.341705 346.781403 142.206024 346.781403 143.138184 C 346.781403 144.070358 345.849243 144.070358 345.849243 145.002518 C 344.917084 145.934677 344.917084 147.798996 343.984924 148.731155 C 343.984924 149.663315 343.052765 149.663315 343.052765 150.595474 C 342.120605 151.527634 342.120605 153.391953 341.188416 154.324127 C 341.188416 155.256287 340.256287 155.256287 340.256287 156.188431 C 339.324127 157.120605 338.391968 158.984924 337.459808 159.917099 C 337.459808 159.917099 336.527618 160.849243 336.527618 160.849243 C 335.59549 161.781403 334.66333 162.713562 333.73114 164.577896 C 333.73114 164.577896 332.799011 165.51004 332.799011 165.51004 C 331.866821 166.442215 330.934662 167.374374 330.002533 168.306534 C 330.002533 168.306534 329.070343 169.238693 329.070343 169.238693 C 328.138184 170.170853 327.206024 171.103012 325.341736 172.035172 C 325.341736 172.035172 324.409546 172.967346 324.409546 172.967346 C 323.477386 173.899506 322.545227 174.83165 320.680908 175.763809 C 319.748749 175.763809 319.748749 176.695984 318.816589 176.695984 C 317.884399 177.628143 316.020111 178.560303 315.087921 178.560303 C 314.155792 178.560303 314.155792 179.492462 313.223602 179.492462 C 312.291443 180.424622 310.427124 180.424622 309.494995 181.356781 C 308.562805 181.356781 307.630646 182.288956 307.630646 182.288956 C 306.698486 182.288956 305.766327 183.221115 303.902008 183.221115 C 302.969849 183.221115 302.037689 184.153259 301.10553 184.153259 C 300.17337 184.153259 299.241211 185.085419 298.309052 185.085419 C 297.376892 185.085419 296.444702 185.085419 296.444702 185.085419 L 296.444702 325.841705 L 308.562805 325.841705 L 322.545227 332.366852 L 322.545227 338.891968 L 308.562805 338.891968 L 308.562805 338.891968 L 154.756287 338.891968 L 154.756287 361.263824 C 154.756287 366.856812 151.027634 371.517609 144.502518 376.178406 C 140.77388 378.974884 136.113068 380.839203 130.520111 381.771362 C 129.587936 381.771362 128.655777 382.703491 126.791458 382.703491 C 124.927132 383.635681 122.130653 383.635681 119.334175 384.567841 C 110.012566 385.5 99.758789 386.432159 88.572861 386.432159 C 77.38694 386.432159 67.133163 385.5 57.811558 383.635681 C 55.015076 382.703491 53.150753 382.703491 50.354271 381.771362 C 47.557789 380.839203 45.69347 380.839203 43.829147 379.907043 C 40.100502 378.042694 36.371861 377.110565 33.575378 375.246216 C 27.050251 371.517609 23.321608 365.924622 23.321608 360.331665 L 23.321608 282.030151 C 23.321608 276.437195 27.050251 271.776367 33.575378 267.115601 C 35.439697 266.183411 36.371861 265.251251 38.236179 264.319092 C 40.100502 263.386932 41.964825 262.454773 43.829147 261.522614 C 47.557789 259.658295 52.218594 258.726135 57.811558 257.793976 C 63.404526 256.861816 68.99749 255.929642 75.522614 255.929642 L 75.522614 173.899506 L 25.18593 173.899506 L 26.11809 166.442215 C 27.982412 140.341705 42.896984 117.037689 66.201004 104.919586 C 72.726135 101.190948 77.38694 95.597992 78.319099 89.072876 C 82.047737 70.429657 94.165833 55.515076 110.944717 48.0578 C 118.402008 45.261322 125.859299 43.396973 134.248749 43.396973 C 136.113068 43.396973 137.977386 43.396973 139.841705 43.396973 C 140.77388 43.396973 141.706039 43.396973 141.706039 43.396973 C 148.231155 43.396973 153.824127 40.600494 158.484924 35.939697 C 171.535172 21.957275 190.178391 13.567841 209.753769 13.567841 M 209.753769 4.246246 C 187.381912 4.246246 165.9422 13.567841 151.027634 29.414581 C 148.231155 32.21106 145.434677 33.143219 141.706039 33.143219 C 141.706039 33.143219 140.77388 33.143219 139.841705 33.143219 C 137.977386 33.143219 136.113068 33.143219 133.316589 33.143219 C 123.99498 33.143219 114.67337 35.007538 106.283913 38.736176 C 87.640701 48.0578 73.658295 65.768829 68.99749 87.208527 C 68.065331 90.937195 65.268845 94.665833 61.540199 96.530151 C 35.439697 110.512573 18.660805 136.613068 15.864322 165.51004 L 14.93216 172.967346 L 14 183.221115 L 24.253769 183.221115 L 65.268845 183.221115 L 65.268845 247.540207 C 61.540199 247.540207 58.743721 248.472366 55.015076 249.40451 C 49.422112 250.336685 44.761307 252.201004 40.100502 253.133179 C 37.30402 254.065323 35.439697 254.997482 33.575378 255.929642 C 31.711056 256.861816 29.846735 257.793976 27.982412 258.726135 C 16.796482 266.183411 14 275.505035 14 281.097992 L 14 359.399475 C 14 365.924622 16.796482 374.314087 28.914574 381.771362 C 32.643215 383.635681 36.371861 386.432159 41.032665 387.364319 C 42.896984 388.296478 45.69347 389.228638 48.489952 389.228638 C 51.28643 390.160828 54.082916 390.160828 56.879395 391.092957 C 66.201004 394.821625 77.38694 395.753784 88.572861 395.753784 C 100.690956 395.753784 110.944717 394.821625 121.198494 392.957306 C 123.99498 392.025116 126.791458 392.025116 129.587936 391.092957 C 130.520111 391.092957 132.38443 390.160828 133.316589 390.160828 C 139.841705 388.296478 144.502518 385.5 149.163315 382.703491 C 161.281403 375.246216 163.145721 365.924622 163.145721 360.331665 L 163.145721 347.281403 L 307.630646 347.281403 L 321.613068 347.281403 L 330.934662 347.281403 L 330.934662 337.959778 L 330.934662 331.434662 L 330.934662 325.841705 L 325.341736 323.045227 L 312.291443 315.587952 L 310.427124 314.655762 L 308.562805 314.655762 L 305.766327 314.655762 L 305.766327 190.678391 C 306.698486 190.678391 306.698486 190.678391 307.630646 190.678391 C 308.562805 190.678391 309.494995 189.746231 311.359283 189.746231 L 312.291443 189.746231 L 313.223602 189.746231 C 314.155792 189.746231 314.155792 189.746231 315.087921 188.814056 C 316.020111 187.881912 317.884399 187.881912 318.816589 186.949753 L 319.748749 186.949753 C 320.680908 186.949753 320.680908 186.017593 321.613068 186.017593 C 322.545227 185.085419 324.409546 184.153259 325.341736 183.221115 L 326.273865 183.221115 C 326.273865 183.221115 327.206024 182.288956 327.206024 182.288956 C 328.138184 181.356781 330.002533 180.424622 330.934662 179.492462 L 330.934662 179.492462 C 330.934662 179.492462 331.866821 178.560303 331.866821 178.560303 C 332.799011 177.628143 334.66333 176.695984 335.59549 175.763809 C 336.527618 174.83165 336.527618 174.83165 336.527618 174.83165 C 337.459808 173.899506 339.324127 172.967346 340.256287 171.103012 L 340.256287 171.103012 L 341.188416 170.170853 C 342.120605 169.238693 343.052765 167.374374 343.984924 166.442215 L 344.917084 164.577896 C 345.849243 163.645737 346.781403 161.781403 347.713562 160.849243 C 347.713562 159.917099 348.645752 159.917099 348.645752 158.984924 C 349.577881 158.052765 350.51004 156.188431 350.51004 155.256287 C 350.51004 154.324127 351.44223 154.324127 351.44223 153.391953 C 352.374359 152.459793 352.374359 150.595474 353.306549 149.663315 C 353.306549 148.731155 354.238708 147.798996 354.238708 146.866837 C 354.238708 146.866837 354.238708 145.934677 354.238708 145.934677 L 354.238708 145.934677 L 360.763824 152.459793 L 367.288971 145.934677 L 376.610565 136.613068 L 383.135651 130.087952 L 376.610565 123.562805 L 353.306549 100.258789 C 352.374359 96.530151 350.51004 93.733673 349.577881 90.937195 L 349.577881 90.937195 L 345.849243 84.412079 L 345.849243 84.412079 L 344.917084 83.479889 C 343.984924 81.61557 342.120605 79.751251 340.256287 76.954773 L 340.256287 76.954773 C 338.391968 75.090454 336.527618 72.293976 334.66333 70.429657 L 333.73114 69.497498 C 331.866821 67.633179 330.002533 65.768829 328.138184 64.83667 L 327.206024 63.90451 C 324.409546 62.040192 322.545227 61.108032 320.680908 59.243713 C 317.884399 57.379395 315.087921 56.447235 312.291443 55.515076 L 312.291443 55.515076 L 312.291443 55.515076 C 310.427124 54.582916 307.630646 53.650757 304.834167 52.718597 C 303.902008 52.718597 303.902008 52.718597 302.969849 51.786438 C 300.17337 50.854279 298.309052 50.854279 296.444702 50.854279 L 295.512573 50.854279 C 294.580414 50.854279 294.580414 50.854279 293.648254 50.854279 C 290.851776 50.854279 288.055267 49.922119 285.258789 49.922119 L 285.258789 49.922119 L 284.32663 49.922119 L 284.32663 49.922119 L 284.32663 49.922119 C 284.32663 49.922119 283.39447 49.922119 283.39447 49.922119 L 277.801514 41.532654 C 262.886963 18.228638 237.718597 4.246246 209.753769 4.246246 L 209.753769 4.246246 Z"/>
        </g>
        <g id="g2">
            <path id="path2" fill="#2c5967" stroke="none" d="M 259.158295 51.786438 L 259.158295 51.786438 C 260.090454 50.854279 260.090454 50.854279 261.022614 50.854279 C 261.022614 50.854279 261.954773 50.854279 261.954773 50.854279 L 261.954773 50.854279 C 262.886963 50.854279 263.819092 49.922119 263.819092 49.922119 C 263.819092 49.922119 264.751251 49.922119 264.751251 49.922119 L 264.751251 49.922119 L 264.751251 49.922119 C 265.683411 49.922119 265.683411 49.922119 266.615601 48.98996 C 266.615601 48.98996 267.54776 48.98996 267.54776 48.98996 L 267.54776 48.98996 L 267.54776 48.98996 C 267.54776 48.98996 268.479889 48.98996 268.479889 48.98996 C 258.226135 26.618103 234.922119 13.567841 209.753769 13.567841 C 190.178391 13.567841 171.535172 21.957275 157.552765 35.939697 C 152.891953 40.600494 146.366837 43.396973 138.909546 42.464813 C 129.587936 41.532654 119.334175 43.396973 110.944717 47.125641 C 94.165833 55.515076 82.047737 70.429657 78.319099 89.072876 C 77.38694 95.597992 72.726135 102.123108 66.201004 104.919586 C 42.896984 117.037689 27.982412 140.341705 26.11809 166.442215 L 25.18593 173.899506 L 65.268845 173.899506 L 65.268845 159.917099 L 40.100502 159.917099 C 43.829147 141.273865 55.015076 125.427124 71.793968 117.037689 C 82.047737 111.444733 88.572861 102.123108 91.369347 90.937195 C 94.165833 77.886932 103.487442 65.768829 116.537689 60.175873 C 123.062813 57.379395 130.520111 56.447235 137.977386 56.447235 C 149.163315 57.379395 160.349243 53.650757 167.806534 45.261322 C 178.992462 34.075378 193.907028 26.618103 209.753769 26.618103 C 229.329147 26.618103 246.108032 35.939697 256.361816 51.786438 C 257.293976 51.786438 257.293976 51.786438 259.158295 51.786438 C 258.226135 51.786438 258.226135 51.786438 259.158295 51.786438 Z"/>
            <path id="path3" fill="#2c5967" stroke="none" d="M 89.505028 244.743713 L 89.505028 142.206024 C 119.334175 126.359314 150.095474 118.902008 180.856781 117.969849 L 180.856781 117.969849 L 189.246231 109.580414 L 194.839188 103.987427 C 153.824127 102.123108 112.809052 112.376892 73.658295 134.748749 L 77.38694 140.341705 L 77.38694 140.341705 L 73.658295 134.748749 L 61.540199 141.273865 L 65.268845 146.866837 L 75.522614 145.934677 L 75.522614 243.811569 C 80.183418 244.743713 83.912064 244.743713 89.505028 244.743713 C 88.572861 244.743713 89.505028 244.743713 89.505028 244.743713 Z"/>
            <path id="path4" fill="#2c5967" stroke="none" d="M 296.444702 194.407028 C 295.512573 194.407028 294.580414 194.407028 293.648254 194.407028 C 293.648254 194.407028 292.716064 194.407028 292.716064 194.407028 L 292.716064 194.407028 L 292.716064 194.407028 C 291.783905 194.407028 291.783905 194.407028 290.851776 194.407028 C 289.919617 194.407028 288.987427 194.407028 288.055267 194.407028 C 288.055267 194.407028 288.055267 194.407028 287.123108 194.407028 L 287.123108 194.407028 L 287.123108 194.407028 C 286.190948 194.407028 285.258789 194.407028 284.32663 194.407028 L 284.32663 323.977386 L 270.344208 323.977386 L 270.344208 213.982407 L 194.839188 213.982407 L 194.839188 324.909546 L 180.856781 324.909546 L 180.856781 213.982407 L 103.487442 213.982407 L 103.487442 245.675873 C 108.148247 245.675873 112.809052 246.608047 117.469856 247.540207 L 117.469856 227.964828 L 165.9422 227.964828 L 165.9422 252.201004 L 137.977386 252.201004 C 142.638199 254.065323 146.366837 255.929642 150.095474 257.793976 C 154.756287 260.590454 157.552765 263.386932 160.349243 266.183411 L 166.874374 266.183411 L 166.874374 288.555267 L 166.874374 288.555267 L 166.874374 302.537689 L 166.874374 302.537689 L 166.874374 324.909546 L 166.874374 324.909546 L 166.874374 338.891968 L 310.427124 338.891968 L 310.427124 338.891968 L 324.409546 338.891968 L 324.409546 332.366852 L 310.427124 325.841705 L 298.309052 325.841705 L 296.444702 194.407028 C 296.444702 194.407028 296.444702 194.407028 296.444702 194.407028 L 296.444702 194.407028 Z M 255.429642 287.623108 L 206.957291 287.623108 L 206.957291 265.251251 L 255.429642 265.251251 L 255.429642 287.623108 Z M 255.429642 227.964828 L 255.429642 252.201004 L 206.957291 252.201004 L 206.957291 227.964828 L 255.429642 227.964828 Z M 206.957291 301.60553 L 255.429642 301.60553 L 255.429642 323.977386 L 206.957291 323.977386 L 206.957291 301.60553 Z"/>
            <path id="path5" fill="#2c5967" stroke="none" d="M 178.992462 147.798996 L 103.487442 147.798996 L 103.487442 200 L 178.992462 200 L 178.992462 147.798996 Z M 165.010056 186.017593 L 116.537689 186.017593 L 116.537689 161.781403 L 165.010056 161.781403 L 165.010056 186.017593 Z"/>
            <path id="path6" fill="#2c5967" stroke="none" d="M 192.974884 200 L 268.479889 200 L 268.479889 192.542725 C 261.954773 190.678391 256.361816 188.814056 250.768845 186.017593 L 206.025131 186.017593 L 206.025131 161.781403 L 223.736176 161.781403 C 223.736176 161.781403 222.804016 160.849243 222.804016 160.849243 L 222.804016 160.849243 C 222.804016 160.849243 222.804016 159.917099 221.871857 159.917099 L 219.075378 152.459793 L 219.075378 152.459793 C 218.143219 151.527634 218.143219 149.663315 217.211044 148.731155 L 192.974884 148.731155 L 192.974884 200 Z"/>
            <path id="path7" fill="#2c5967" stroke="none" d="M 292.716064 84.412079 L 278.733673 84.412079 L 259.158295 150.595474 L 273.140686 150.595474 L 275.937195 136.613068 L 293.648254 136.613068 L 296.444702 150.595474 L 312.291443 150.595474 L 292.716064 84.412079 Z M 286.190948 100.258789 L 291.783905 125.427124 L 280.597992 125.427124 L 286.190948 100.258789 Z"/>
            <path id="path8" fill="#2c5967" stroke="none" d="M 349.577881 125.427124 L 361.695984 137.545227 L 371.017578 128.223633 L 342.120605 99.32663 L 313.223602 128.223633 L 322.545227 137.545227 L 334.66333 125.427124 C 331.866821 150.595474 310.427124 171.103012 285.258789 171.103012 C 266.61557 171.103012 249.83667 160.849243 241.447235 145.002518 L 231.193466 155.256287 C 242.379395 173.899506 262.886932 185.085419 285.258789 185.085419 C 319.748749 184.153259 347.713562 158.052765 349.577881 125.427124 Z"/>
            <path id="path9" fill="#2c5967" stroke="none" d="M 200.432159 113.309052 L 229.329147 142.206024 L 258.226135 113.309052 L 248.904526 103.987427 L 235.854263 116.10553 C 238.650757 90.937195 260.090454 70.429657 285.258789 70.429657 C 303.902008 70.429657 320.680908 80.683411 329.070343 96.530151 L 340.256287 87.208527 C 329.070343 68.565338 308.562805 57.379395 286.190948 57.379395 C 252.633163 57.379395 224.66835 83.479889 222.804016 117.037689 L 209.753769 103.987427 L 200.432159 113.309052 Z"/>
            <path id="path10" fill="#2c5967" stroke="none" d="M 154.756287 281.097992 L 154.756287 280.165833 C 154.756287 279.233673 154.756287 279.233673 154.756287 278.301514 C 154.756287 277.369324 153.824127 275.505035 152.891953 274.572876 C 152.891953 273.640686 151.959808 273.640686 151.959808 272.708527 C 150.095474 269.912048 147.298996 268.047729 144.502518 266.183411 C 142.638199 265.251251 141.706039 264.319092 139.841705 263.386932 C 138.909546 263.386932 137.977386 262.454773 137.045227 262.454773 C 133.316589 260.590454 128.655777 259.658295 123.99498 258.726135 C 123.062813 258.726135 121.198494 257.793976 120.266327 257.793976 C 110.944717 255.929642 100.690956 254.997482 89.505028 254.997482 C 78.319099 254.997482 68.065331 255.929642 58.743721 257.793976 C 53.150753 258.726135 48.489952 259.658295 44.761307 261.522614 C 42.896984 262.454773 41.032665 263.386932 39.168343 263.386932 C 37.30402 264.319092 35.439697 265.251251 34.507538 266.183411 C 27.982412 269.912048 24.253769 275.505035 24.253769 281.097992 L 24.253769 359.399475 C 24.253769 364.992462 27.982412 369.653259 34.507538 374.314087 C 37.30402 376.178406 41.032665 378.042694 44.761307 378.974884 C 46.625629 379.907043 49.422112 379.907043 51.28643 380.839203 C 53.150753 381.771362 55.947235 381.771362 58.743721 382.703491 C 67.133163 385.5 77.38694 386.432159 88.572861 386.432159 C 99.758789 386.432159 110.012566 385.5 119.334175 383.635681 C 122.130653 382.703491 123.99498 382.703491 126.791458 381.771362 C 127.723618 381.771362 128.655777 380.839203 130.520111 380.839203 C 136.113068 378.974884 140.77388 377.110565 144.502518 375.246216 C 151.027634 371.517609 154.756287 365.924622 154.756287 360.331665 L 154.756287 281.097992 Z M 37.30402 281.097992 C 37.30402 280.165833 39.168343 279.233673 41.032665 277.369324 C 43.829147 276.437195 46.625629 274.572876 51.28643 273.640686 C 55.947235 271.776367 61.540199 270.844238 68.065331 269.912048 C 74.590454 268.979889 82.047737 268.047729 90.437187 268.047729 C 98.826637 268.047729 106.283913 268.979889 112.809052 269.912048 C 119.334175 270.844238 123.99498 271.776367 129.587936 273.640686 C 133.316589 274.572876 137.045227 276.437195 139.841705 278.301514 C 141.706039 279.233673 143.570343 281.097992 143.570343 282.030151 C 143.570343 282.962311 142.638199 283.89447 139.841705 285.758789 C 137.045227 287.623108 134.248749 288.555267 129.587936 290.419617 C 124.927132 292.283905 119.334175 293.216064 112.809052 294.148254 C 105.351761 295.080414 97.89447 296.012573 90.437187 296.012573 C 82.047737 296.012573 74.590454 295.080414 68.065331 294.148254 C 61.540199 293.216064 56.879395 292.283905 51.28643 290.419617 C 47.557789 289.487427 43.829147 287.623108 41.032665 285.758789 C 38.236179 283.89447 37.30402 282.030151 37.30402 281.097992 L 37.30402 281.097992 Z M 35.439697 297.876892 C 41.964825 300.67337 49.422112 303.469849 59.67588 305.334167 C 68.99749 307.198486 78.319099 308.130646 88.572861 308.130646 L 95.097992 308.130646 L 100.690956 308.130646 L 109.080399 307.198486 C 111.876884 307.198486 113.741203 306.266357 116.537689 306.266357 L 124.927132 304.402008 L 127.723618 303.469849 C 128.655777 303.469849 130.520111 302.537689 131.452271 302.537689 L 136.113068 300.67337 L 139.841705 298.809052 L 140.77388 298.809052 L 142.638199 297.876892 L 142.638199 321.180908 C 142.638199 322.113037 141.706039 323.045227 138.909546 324.909546 C 136.113068 326.773865 133.316589 327.706055 128.655777 329.570374 C 123.99498 331.434662 118.402008 332.366852 111.876884 333.298981 C 104.419594 334.231171 96.962311 335.16333 89.505028 335.16333 C 81.115578 335.16333 73.658295 334.231171 67.133163 333.298981 C 60.60804 332.366852 55.947235 331.434662 50.354271 329.570374 C 46.625629 328.638184 42.896984 326.773865 40.100502 324.909546 C 38.236179 323.977386 36.371861 322.113037 36.371861 321.180908 L 36.371861 297.876892 Z M 127.723618 367.78894 C 123.062813 369.653259 117.469856 370.585419 110.944717 371.517609 C 103.487442 372.449738 96.030151 373.381897 88.572861 373.381897 C 80.183418 373.381897 72.726135 372.449738 66.201004 371.517609 C 59.67588 370.585419 55.015076 369.653259 49.422112 367.78894 C 45.69347 366.856812 41.964825 364.992462 39.168343 363.128143 C 37.30402 362.195984 35.439697 360.331665 35.439697 359.399475 L 35.439697 337.027649 C 41.964825 339.824127 49.422112 342.620605 59.67588 344.484924 C 68.99749 346.349243 78.319099 347.281403 88.572861 347.281403 L 95.097992 347.281403 C 104.419594 347.281403 112.809052 346.349243 121.198494 345.417084 C 129.587936 343.552765 136.113068 341.688446 141.706039 338.891968 L 141.706039 360.331665 C 141.706039 361.263824 140.77388 362.195984 137.977386 364.060303 C 135.180908 364.992462 131.452271 365.924622 127.723618 367.78894 Z"/>
        </g>
    </g>
</svg>
