<?xml version="1.0" encoding="UTF-8"?>

<svg width="400" height="400" viewBox="0 0 400 400" xmlns="http://www.w3.org/2000/svg">
    <path id="Path" fill="#b3b3b3" stroke="none" d="M 36.888885 182 L 36.888885 178.888885 C 36.888885 172.506927 42.062481 167.333328 48.44445 167.333328 L 142.222214 167.333328 C 148.604187 167.333328 153.777771 172.506927 153.777771 178.888885 L 153.777771 182 C 153.777771 188.381958 148.604187 193.555557 142.222214 193.555557 L 48.44445 193.555557 C 42.062481 193.555557 36.888885 188.381958 36.888885 182 Z"/>
    <path id="path1" fill="#a3a3a3" stroke="none" d="M 3e-06 235.111115 L 3e-06 232 C 3e-06 225.618042 5.173601 220.444443 11.555547 220.444443 L 105.333328 220.444443 C 111.715302 220.444443 116.888893 225.618042 116.888893 232 L 116.888893 235.111115 C 116.888893 241.493073 111.715302 246.666672 105.333328 246.666672 L 11.555547 246.666672 C 5.173601 246.666672 3e-06 241.493073 3e-06 235.111115 Z"/>
    <path id="path2" fill="#7a7a7a" stroke="none" d="M 36.888893 288.222229 L 36.888893 285.111115 C 36.888893 278.729156 42.062492 273.555542 48.444439 273.555542 L 142.222229 273.555542 C 148.604187 273.555542 153.777786 278.729156 153.777786 285.111115 L 153.777786 288.222229 C 153.777786 294.604187 148.604187 299.777771 142.222229 299.777771 L 48.444439 299.777771 C 42.062492 299.777771 36.888893 294.604187 36.888893 288.222229 Z"/>
    <linearGradient id="linearGradient1" x1="239.777778" y1="48.222222" x2="239.777778" y2="368" gradientUnits="userSpaceOnUse">
        <stop offset="0.18" stop-color="#5ea0ef" stop-opacity="1"/>
        <stop offset="1" stop-color="#0078d4" stop-opacity="1"/>
    </linearGradient>
    <path id="path3" fill="url(#linearGradient1)" stroke="none" d="M 400 244.444443 C 399.279572 208.783066 372.857147 178.881561 337.555542 173.777786 C 335.982849 123.523865 294.268585 83.890381 243.999985 84.888885 C 204.182388 84.709747 168.57164 109.637268 155.111115 147.111115 C 112.592842 152.729416 80.622673 188.672211 80 231.555557 C 81.688942 279.950256 121.803955 318.089172 170.222214 317.333313 L 178.222229 317.333313 L 324.444458 317.333313 L 328.222229 317.333313 C 367.842682 316.261597 399.536987 284.076721 400 244.444443 Z"/>
</svg>
