<svg xmlns="http://www.w3.org/2000/svg" xmlns:xlink="http://www.w3.org/1999/xlink" version="1.1" viewBox="-0.08 -0.07 536.09 400.14">
<g id="surface1">
<path style=" stroke:none;fill-rule:nonzero;fill:rgb(85.09804%,37.254903%,37.254903%);fill-opacity:1;" d="M 64.855469 -0.0351562 C 64.972656 -0.0351562 65.089844 -0.0351562 65.210938 -0.0351562 C 65.605469 -0.0351562 66 -0.0351562 66.398438 -0.0351562 C 66.683594 -0.0351562 66.972656 -0.0351562 67.261719 -0.0351562 C 68.054688 -0.0351562 68.851562 -0.0351562 69.648438 -0.0351562 C 70.515625 -0.0351562 71.382812 -0.0351562 72.25 -0.0351562 C 73.777344 -0.0390625 75.304688 -0.0390625 76.832031 -0.0390625 C 78.476562 -0.0351562 80.125 -0.0351562 81.773438 -0.0390625 C 81.929688 -0.0390625 81.929688 -0.0390625 82.089844 -0.0390625 C 82.621094 -0.0390625 83.15625 -0.0390625 83.6875 -0.0390625 C 87.585938 -0.0390625 91.480469 -0.0390625 95.375 -0.0390625 C 99.324219 -0.0390625 103.273438 -0.0390625 107.226562 -0.0390625 C 107.476562 -0.0390625 107.726562 -0.0390625 107.980469 -0.0429688 C 108.996094 -0.0429688 110.007812 -0.0429688 111.023438 -0.0429688 C 113.882812 -0.0429688 116.746094 -0.0429688 119.605469 -0.0429688 C 119.800781 -0.0429688 119.800781 -0.0429688 120.003906 -0.0429688 C 127.460938 -0.046875 134.921875 -0.046875 142.382812 -0.046875 C 143.523438 -0.046875 144.664062 -0.046875 145.804688 -0.046875 C 146.089844 -0.046875 146.375 -0.046875 146.660156 -0.046875 C 153.074219 -0.046875 159.484375 -0.046875 165.898438 -0.046875 C 167.328125 -0.046875 168.757812 -0.046875 170.1875 -0.046875 C 170.332031 -0.046875 170.472656 -0.046875 170.621094 -0.046875 C 171.480469 -0.046875 172.34375 -0.046875 173.207031 -0.046875 C 173.636719 -0.046875 174.070312 -0.046875 174.5 -0.046875 C 181.214844 -0.046875 187.929688 -0.0507812 194.644531 -0.0507812 C 194.789062 -0.0507812 194.9375 -0.0507812 195.085938 -0.0507812 C 204.410156 -0.0507812 213.734375 -0.0507812 223.058594 -0.0507812 C 223.515625 -0.0507812 223.976562 -0.0507812 224.433594 -0.0507812 C 227.65625 -0.0507812 230.878906 -0.0507812 234.097656 -0.0507812 C 235.023438 -0.0507812 235.945312 -0.0507812 236.871094 -0.0507812 C 237.640625 -0.0507812 238.410156 -0.0507812 239.179688 -0.0507812 C 253.734375 -0.0507812 268.289062 -0.0507812 282.84375 -0.0546875 C 282.996094 -0.0546875 283.152344 -0.0546875 283.308594 -0.0546875 C 288.097656 -0.0546875 292.882812 -0.0546875 297.671875 -0.0546875 C 302.585938 -0.0585938 307.496094 -0.0585938 312.410156 -0.0585938 C 312.5625 -0.0585938 312.714844 -0.0585938 312.867188 -0.0585938 C 322.339844 -0.0625 331.8125 -0.0625 341.28125 -0.0625 C 341.429688 -0.0625 341.574219 -0.0625 341.726562 -0.0625 C 348.148438 -0.0625 354.570312 -0.0625 360.992188 -0.0625 C 363.578125 -0.0625 366.160156 -0.0625 368.746094 -0.0625 C 369.171875 -0.0625 369.601562 -0.0625 370.03125 -0.0625 C 376.585938 -0.0625 383.140625 -0.0625 389.695312 -0.0625 C 389.835938 -0.0625 389.976562 -0.0625 390.125 -0.0664062 C 392.398438 -0.0664062 394.671875 -0.0664062 396.949219 -0.0664062 C 403.40625 -0.0664062 409.863281 -0.0703125 416.320312 -0.0703125 C 416.449219 -0.0703125 416.582031 -0.0703125 416.714844 -0.0703125 C 419.574219 -0.0703125 422.429688 -0.0664062 425.285156 -0.0664062 C 426.425781 -0.0664062 427.5625 -0.0664062 428.703125 -0.0664062 C 428.828125 -0.0664062 428.953125 -0.0664062 429.082031 -0.0664062 C 433.023438 -0.0664062 436.96875 -0.0664062 440.914062 -0.0703125 C 444.796875 -0.0703125 448.679688 -0.0703125 452.5625 -0.0703125 C 453.09375 -0.0703125 453.625 -0.0703125 454.15625 -0.0664062 C 454.261719 -0.0664062 454.363281 -0.0664062 454.472656 -0.0664062 C 456.113281 -0.0664062 457.757812 -0.0664062 459.398438 -0.0703125 C 461.003906 -0.0703125 462.609375 -0.0703125 464.214844 -0.0703125 C 465.070312 -0.0664062 465.925781 -0.0664062 466.78125 -0.0703125 C 467.558594 -0.0703125 468.332031 -0.0703125 469.109375 -0.0703125 C 469.386719 -0.0703125 469.664062 -0.0703125 469.945312 -0.0703125 C 471.886719 -0.078125 473.496094 0.0195312 474.996094 1.410156 C 475.109375 1.53125 475.222656 1.652344 475.339844 1.773438 C 475.40625 1.84375 475.472656 1.914062 475.542969 1.984375 C 476.507812 3.015625 476.851562 4.285156 476.878906 5.675781 C 476.886719 5.828125 476.890625 5.980469 476.894531 6.136719 C 476.816406 7.550781 476.074219 8.800781 475.363281 9.988281 C 475.226562 10.21875 475.089844 10.453125 474.953125 10.6875 C 474.8125 10.925781 474.667969 11.167969 474.527344 11.40625 C 474.085938 12.152344 473.65625 12.90625 473.226562 13.65625 C 473.054688 13.953125 472.886719 14.25 472.714844 14.542969 C 472.589844 14.765625 472.589844 14.765625 472.460938 14.988281 C 470.839844 17.800781 469.222656 20.609375 467.601562 23.421875 C 467.476562 23.640625 467.476562 23.640625 467.347656 23.863281 C 467.175781 24.160156 467.007812 24.457031 466.835938 24.75 C 466.410156 25.496094 465.980469 26.238281 465.554688 26.980469 C 464.730469 28.410156 463.910156 29.835938 463.078125 31.257812 C 462.339844 32.523438 461.609375 33.792969 460.886719 35.070312 C 460.179688 36.308594 459.46875 37.542969 458.75 38.773438 C 458.03125 40 457.328125 41.234375 456.625 42.472656 C 456.222656 43.179688 455.820312 43.882812 455.398438 44.578125 C 455.335938 44.683594 455.269531 44.792969 455.203125 44.902344 C 455.085938 45.097656 454.964844 45.289062 454.84375 45.480469 C 454.5625 45.917969 454.5625 45.917969 454.503906 46.421875 C 454.65625 46.792969 454.863281 47 455.148438 47.285156 C 455.261719 47.402344 455.375 47.515625 455.496094 47.636719 C 455.621094 47.761719 455.75 47.890625 455.882812 48.019531 C 456.019531 48.15625 456.15625 48.292969 456.289062 48.429688 C 456.667969 48.808594 457.046875 49.1875 457.421875 49.5625 C 457.835938 49.972656 458.242188 50.382812 458.652344 50.792969 C 459.371094 51.515625 460.089844 52.234375 460.808594 52.953125 C 461.878906 54.023438 462.949219 55.09375 464.019531 56.164062 C 465.816406 57.964844 467.613281 59.765625 469.414062 61.5625 C 471.195312 63.34375 472.980469 65.128906 474.761719 66.910156 C 474.871094 67.023438 474.980469 67.132812 475.097656 67.246094 C 475.65625 67.8125 476.21875 68.375 476.78125 68.9375 C 477.925781 70.082031 479.066406 71.226562 480.210938 72.371094 C 480.324219 72.484375 480.441406 72.597656 480.558594 72.714844 C 483.285156 75.445312 486.007812 78.171875 488.734375 80.902344 C 488.855469 81.019531 488.972656 81.140625 489.097656 81.261719 C 490.0625 82.230469 491.03125 83.195312 491.996094 84.164062 C 494.78125 86.949219 497.566406 89.734375 500.347656 92.519531 C 500.46875 92.640625 500.585938 92.757812 500.710938 92.882812 C 503.429688 95.605469 506.152344 98.328125 508.871094 101.050781 C 508.984375 101.164062 509.097656 101.277344 509.21875 101.398438 C 510.359375 102.539062 511.5 103.679688 512.640625 104.824219 C 515.089844 107.277344 517.542969 109.734375 520 112.1875 C 521.789062 113.976562 523.574219 115.765625 525.363281 117.554688 C 526.425781 118.621094 527.492188 119.683594 528.554688 120.75 C 529.265625 121.457031 529.972656 122.167969 530.683594 122.878906 C 531.085938 123.285156 531.492188 123.6875 531.898438 124.09375 C 532.265625 124.460938 532.632812 124.828125 533 125.199219 C 533.195312 125.394531 533.390625 125.589844 533.589844 125.785156 C 533.703125 125.898438 533.820312 126.015625 533.9375 126.136719 C 534.039062 126.234375 534.136719 126.335938 534.238281 126.4375 C 534.511719 126.746094 534.710938 127.058594 534.910156 127.414062 C 534.980469 127.542969 534.980469 127.542969 535.054688 127.671875 C 536.160156 129.804688 536.261719 132.0625 535.613281 134.339844 C 534.984375 136.121094 533.761719 137.363281 532.453125 138.667969 C 532.265625 138.855469 532.082031 139.039062 531.898438 139.226562 C 531.390625 139.734375 530.882812 140.242188 530.375 140.753906 C 529.816406 141.308594 529.265625 141.863281 528.710938 142.421875 C 527.667969 143.464844 526.628906 144.503906 525.585938 145.546875 C 524.597656 146.539062 523.609375 147.527344 522.621094 148.519531 C 522.554688 148.585938 522.488281 148.652344 522.417969 148.722656 C 522.078125 149.0625 521.738281 149.40625 521.394531 149.746094 C 518.90625 152.242188 516.414062 154.738281 513.921875 157.234375 C 511.398438 159.761719 508.871094 162.292969 506.347656 164.824219 C 506.269531 164.902344 506.1875 164.984375 506.105469 165.066406 C 505.378906 165.796875 504.648438 166.527344 503.917969 167.257812 C 502.089844 169.089844 500.261719 170.921875 498.429688 172.757812 C 498.347656 172.839844 498.261719 172.925781 498.175781 173.011719 C 494.042969 177.152344 489.910156 181.292969 485.773438 185.433594 C 485.59375 185.617188 485.414062 185.796875 485.230469 185.980469 C 485.140625 186.070312 485.050781 186.160156 484.960938 186.253906 C 483.777344 187.4375 482.59375 188.625 481.40625 189.808594 C 481.273438 189.945312 481.273438 189.945312 481.132812 190.085938 C 476.941406 194.28125 472.75 198.480469 468.5625 202.679688 C 468.105469 203.136719 467.648438 203.59375 467.191406 204.054688 C 465.8125 205.433594 464.433594 206.8125 463.058594 208.195312 C 458.855469 212.402344 454.65625 216.613281 450.453125 220.820312 C 450.316406 220.960938 450.316406 220.960938 450.171875 221.105469 C 444.113281 227.175781 438.054688 233.242188 431.996094 239.3125 C 431.898438 239.410156 431.800781 239.507812 431.699219 239.605469 C 428.460938 242.851562 425.21875 246.097656 421.980469 249.34375 C 412.179688 259.160156 402.378906 268.980469 384.878906 286.511719 C 381.636719 289.757812 378.398438 293.003906 375.160156 296.25 C 375.0625 296.347656 374.964844 296.445312 374.867188 296.546875 C 368.8125 302.613281 362.753906 308.679688 356.699219 314.746094 C 356.558594 314.886719 356.558594 314.886719 356.414062 315.03125 C 352.21875 319.234375 348.019531 323.441406 343.820312 327.648438 C 342.441406 329.027344 341.066406 330.40625 339.6875 331.785156 C 339.230469 332.242188 338.777344 332.703125 338.320312 333.160156 C 334.128906 337.355469 329.9375 341.554688 325.746094 345.753906 C 325.65625 345.847656 325.566406 345.9375 325.472656 346.03125 C 324.289062 347.214844 323.105469 348.402344 321.921875 349.585938 C 321.832031 349.675781 321.742188 349.765625 321.648438 349.859375 C 321.46875 350.039062 321.289062 350.222656 321.109375 350.402344 C 316.980469 354.539062 312.851562 358.675781 308.722656 362.808594 C 308.640625 362.894531 308.554688 362.976562 308.46875 363.0625 C 306.644531 364.894531 304.816406 366.722656 302.988281 368.550781 C 302.261719 369.28125 301.535156 370.011719 300.804688 370.738281 C 300.6875 370.859375 300.6875 370.859375 300.566406 370.980469 C 298.042969 373.507812 295.519531 376.035156 293 378.5625 C 290.515625 381.046875 288.035156 383.535156 285.550781 386.019531 C 285.210938 386.359375 284.871094 386.699219 284.53125 387.042969 C 284.464844 387.109375 284.398438 387.175781 284.332031 387.242188 C 283.34375 388.230469 282.359375 389.21875 281.371094 390.207031 C 280.28125 391.300781 279.191406 392.394531 278.101562 393.484375 C 277.554688 394.03125 277.007812 394.578125 276.460938 395.128906 C 275.964844 395.625 275.46875 396.121094 274.972656 396.617188 C 274.792969 396.796875 274.617188 396.972656 274.4375 397.152344 C 274.199219 397.394531 273.957031 397.636719 273.714844 397.878906 C 273.609375 397.980469 273.609375 397.980469 273.507812 398.089844 C 272.8125 398.773438 272.023438 399.171875 271.125 399.546875 C 270.992188 399.605469 270.859375 399.660156 270.722656 399.71875 C 269.765625 400.058594 268.78125 400.039062 267.777344 400.050781 C 267.625 400.054688 267.476562 400.0625 267.320312 400.066406 C 266.179688 400.078125 265.335938 399.828125 264.320312 399.316406 C 264.191406 399.257812 264.058594 399.195312 263.925781 399.132812 C 262.535156 398.394531 261.40625 396.964844 260.296875 395.851562 C 260.113281 395.667969 259.929688 395.484375 259.746094 395.300781 C 259.238281 394.792969 258.730469 394.285156 258.226562 393.777344 C 257.671875 393.222656 257.117188 392.667969 256.566406 392.113281 C 255.589844 391.140625 254.617188 390.164062 253.644531 389.1875 C 252.59375 388.136719 251.542969 387.085938 250.492188 386.035156 C 250.425781 385.96875 250.359375 385.898438 250.292969 385.832031 C 250.019531 385.558594 249.75 385.289062 249.476562 385.015625 C 246.925781 382.460938 244.371094 379.902344 241.820312 377.347656 C 239.300781 374.824219 236.785156 372.304688 234.265625 369.78125 C 234.105469 369.621094 233.945312 369.460938 233.785156 369.300781 C 233.136719 368.652344 232.492188 368.003906 231.84375 367.355469 C 224.085938 359.585938 216.332031 351.820312 208.574219 344.050781 C 205.941406 341.410156 203.304688 338.773438 200.671875 336.132812 C 200.582031 336.042969 200.492188 335.953125 200.398438 335.859375 C 199.582031 335.042969 198.765625 334.222656 197.949219 333.40625 C 188.722656 324.164062 179.496094 314.925781 160.703125 296.097656 C 159.828125 295.21875 158.949219 294.339844 158.070312 293.460938 C 157.777344 293.167969 157.484375 292.875 157.191406 292.582031 C 155.332031 290.714844 153.46875 288.851562 151.609375 286.988281 C 151.117188 286.496094 150.625 286.003906 150.132812 285.511719 C 140.855469 276.214844 131.578125 266.921875 122.296875 257.628906 C 122.199219 257.53125 122.101562 257.433594 122.003906 257.332031 C 118.851562 254.175781 115.699219 251.019531 112.546875 247.863281 C 109.515625 244.828125 106.480469 241.789062 103.445312 238.75 C 103.347656 238.652344 103.253906 238.554688 103.152344 238.457031 C 97.113281 232.40625 91.074219 226.359375 85.035156 220.308594 C 84.941406 220.214844 84.847656 220.121094 84.753906 220.027344 C 80.65625 215.925781 76.5625 211.820312 72.46875 207.71875 C 70.820312 206.070312 69.171875 204.417969 67.527344 202.769531 C 67.253906 202.496094 66.980469 202.222656 66.707031 201.949219 C 62.527344 197.761719 58.347656 193.574219 54.167969 189.390625 C 54.03125 189.253906 54.03125 189.253906 53.894531 189.117188 C 52.445312 187.664062 50.992188 186.210938 49.542969 184.757812 C 45.425781 180.636719 41.308594 176.511719 37.195312 172.390625 C 37.109375 172.304688 37.027344 172.222656 36.941406 172.136719 C 35.121094 170.3125 33.296875 168.488281 31.476562 166.664062 C 30.75 165.933594 30.027344 165.207031 29.300781 164.480469 C 29.179688 164.359375 29.179688 164.359375 29.058594 164.238281 C 26.546875 161.71875 24.03125 159.203125 21.515625 156.683594 C 19.039062 154.207031 16.5625 151.726562 14.089844 149.246094 C 13.75 148.90625 13.414062 148.566406 13.074219 148.226562 C 13.007812 148.160156 12.941406 148.09375 12.871094 148.027344 C 11.761719 146.914062 10.652344 145.800781 9.539062 144.691406 C 8.578125 143.730469 7.621094 142.769531 6.660156 141.804688 C 6.117188 141.257812 5.570312 140.710938 5.023438 140.167969 C 4.527344 139.671875 4.035156 139.175781 3.542969 138.679688 C 3.363281 138.503906 3.1875 138.324219 3.007812 138.148438 C 1.117188 136.265625 -0.0585938 134.367188 -0.078125 131.632812 C -0.0625 130.457031 0.0820312 129.457031 0.546875 128.371094 C 0.582031 128.273438 0.621094 128.171875 0.660156 128.070312 C 1.261719 126.664062 2.648438 125.5625 3.707031 124.503906 C 3.84375 124.367188 3.980469 124.230469 4.117188 124.09375 C 4.492188 123.71875 4.867188 123.34375 5.238281 122.96875 C 5.648438 122.5625 6.054688 122.152344 6.460938 121.746094 C 7.175781 121.03125 7.886719 120.316406 8.601562 119.601562 C 9.664062 118.539062 10.722656 117.476562 11.785156 116.414062 C 13.570312 114.625 15.355469 112.835938 17.140625 111.050781 C 18.90625 109.28125 20.675781 107.511719 22.441406 105.738281 C 22.605469 105.574219 22.605469 105.574219 22.773438 105.40625 C 23.332031 104.847656 23.890625 104.289062 24.449219 103.730469 C 28.402344 99.769531 32.351562 95.8125 36.304688 91.851562 C 40.144531 88.007812 43.984375 84.160156 47.824219 80.316406 C 48.003906 80.136719 48.003906 80.136719 48.183594 79.957031 C 49.371094 78.765625 50.5625 77.574219 51.75 76.382812 C 54.171875 73.957031 56.59375 71.53125 59.015625 69.105469 C 59.125 68.996094 59.238281 68.882812 59.351562 68.769531 C 66.785156 61.324219 74.21875 53.878906 81.652344 46.433594 C 81.546875 46.210938 81.4375 45.992188 81.328125 45.773438 C 81.265625 45.652344 81.207031 45.53125 81.144531 45.402344 C 80.960938 45.046875 80.769531 44.695312 80.566406 44.351562 C 80.492188 44.226562 80.417969 44.101562 80.34375 43.976562 C 80.269531 43.84375 80.191406 43.714844 80.113281 43.582031 C 79.390625 42.351562 78.679688 41.117188 77.972656 39.878906 C 77.296875 38.691406 76.617188 37.503906 75.929688 36.328125 C 75.242188 35.152344 74.566406 33.972656 73.890625 32.792969 C 72.542969 30.417969 71.179688 28.050781 69.804688 25.691406 C 69.019531 24.351562 68.25 23.003906 67.480469 21.65625 C 66.617188 20.132812 65.742188 18.617188 64.867188 17.101562 C 64.613281 16.660156 64.359375 16.214844 64.105469 15.773438 C 64.019531 15.628906 63.933594 15.480469 63.847656 15.328125 C 63.679688 15.035156 63.507812 14.738281 63.339844 14.445312 C 62.902344 13.6875 62.464844 12.929688 62.023438 12.175781 C 60.480469 9.519531 60.480469 9.519531 59.859375 8.277344 C 59.816406 8.191406 59.773438 8.105469 59.730469 8.019531 C 59.136719 6.796875 59.097656 5.269531 59.390625 3.949219 C 59.519531 3.613281 59.664062 3.3125 59.84375 3.003906 C 59.902344 2.898438 59.960938 2.792969 60.023438 2.683594 C 60.753906 1.484375 61.808594 0.582031 63.136719 0.125 C 63.726562 -0.015625 64.25 -0.0390625 64.855469 -0.0351562 Z M 64.855469 -0.0351562 "/>
<path style=" stroke:none;fill-rule:nonzero;fill:rgb(99.607843%,99.607843%,99.607843%);fill-opacity:1;" d="M 269.363281 30.574219 C 270.4375 31.175781 270.953125 32.265625 271.492188 33.320312 C 271.617188 33.5625 271.742188 33.800781 271.867188 34.039062 C 271.953125 34.199219 272.039062 34.363281 272.125 34.523438 C 272.53125 35.300781 272.960938 36.0625 273.394531 36.820312 C 273.996094 37.878906 274.582031 38.941406 275.15625 40.011719 C 275.796875 41.207031 276.453125 42.386719 277.121094 43.566406 C 277.71875 44.621094 278.304688 45.679688 278.886719 46.738281 C 278.933594 46.824219 278.980469 46.90625 279.027344 46.992188 C 279.074219 47.078125 279.121094 47.160156 279.167969 47.246094 C 279.257812 47.414062 279.351562 47.585938 279.445312 47.753906 C 279.515625 47.878906 279.515625 47.878906 279.585938 48.007812 C 280.058594 48.871094 280.539062 49.734375 281.019531 50.597656 C 281.726562 51.875 282.433594 53.15625 283.140625 54.4375 C 283.8125 55.664062 284.492188 56.886719 285.175781 58.109375 C 285.953125 59.496094 286.722656 60.886719 287.488281 62.28125 C 288.101562 63.394531 288.714844 64.507812 289.332031 65.621094 C 290.039062 66.894531 290.746094 68.167969 291.445312 69.445312 C 292.414062 71.203125 293.386719 72.957031 294.359375 74.710938 C 294.660156 75.253906 294.960938 75.796875 295.261719 76.339844 C 295.371094 76.535156 295.476562 76.726562 295.585938 76.921875 C 298.601562 82.359375 301.617188 87.800781 304.636719 93.238281 C 304.71875 93.390625 304.804688 93.542969 304.890625 93.699219 C 305.0625 94.007812 305.230469 94.316406 305.402344 94.625 C 305.828125 95.386719 306.25 96.152344 306.675781 96.917969 C 307.601562 98.585938 308.523438 100.253906 309.441406 101.921875 C 310.351562 103.578125 311.269531 105.230469 312.1875 106.882812 C 312.613281 107.652344 313.035156 108.417969 313.460938 109.183594 C 313.632812 109.492188 313.800781 109.796875 313.972656 110.105469 C 314.3125 110.71875 314.65625 111.335938 314.996094 111.949219 C 315.078125 112.101562 315.164062 112.253906 315.25 112.410156 C 315.421875 112.71875 315.59375 113.023438 315.761719 113.332031 C 316.1875 114.097656 316.609375 114.863281 317.035156 115.628906 C 317.960938 117.292969 318.882812 118.960938 319.800781 120.632812 C 320.796875 122.441406 321.796875 124.246094 322.800781 126.050781 C 323.894531 128.019531 324.984375 129.992188 326.074219 131.96875 C 327.066406 133.777344 328.066406 135.582031 329.070312 137.386719 C 330.164062 139.355469 331.257812 141.328125 332.34375 143.300781 C 333.253906 144.957031 334.171875 146.609375 335.085938 148.261719 C 335.511719 149.03125 335.9375 149.796875 336.363281 150.5625 C 336.535156 150.871094 336.703125 151.179688 336.875 151.484375 C 339.261719 155.785156 341.644531 160.089844 344.03125 164.390625 C 344.117188 164.542969 344.199219 164.695312 344.285156 164.851562 C 344.457031 165.160156 344.628906 165.464844 344.796875 165.773438 C 345.222656 166.539062 345.644531 167.304688 346.070312 168.066406 C 346.996094 169.734375 347.917969 171.402344 348.835938 173.074219 C 349.578125 174.417969 350.320312 175.761719 351.066406 177.101562 C 351.644531 178.144531 352.222656 179.191406 352.796875 180.238281 C 353.597656 181.691406 354.402344 183.144531 355.214844 184.59375 C 356.550781 186.984375 357.878906 189.382812 359.199219 191.78125 C 360.109375 193.4375 361.023438 195.089844 361.941406 196.742188 C 362.367188 197.511719 362.792969 198.277344 363.21875 199.042969 C 363.386719 199.351562 363.558594 199.660156 363.730469 199.964844 C 364.75 201.808594 365.773438 203.652344 366.796875 205.496094 C 366.878906 205.648438 366.964844 205.800781 367.050781 205.957031 C 367.222656 206.265625 367.394531 206.574219 367.5625 206.878906 C 367.988281 207.644531 368.410156 208.410156 368.835938 209.175781 C 369.761719 210.839844 370.683594 212.507812 371.601562 214.179688 C 372.34375 215.523438 373.085938 216.867188 373.832031 218.207031 C 374.5 219.417969 375.167969 220.628906 375.835938 221.84375 C 376.578125 223.195312 377.328125 224.542969 378.085938 225.886719 C 379.261719 227.976562 379.261719 227.976562 379.097656 229.15625 C 378.820312 230.066406 378.386719 230.882812 377.539062 231.355469 C 376.828125 231.699219 376.164062 231.691406 375.386719 231.683594 C 375.234375 231.683594 375.082031 231.683594 374.921875 231.6875 C 374.410156 231.6875 373.894531 231.6875 373.382812 231.683594 C 373.011719 231.683594 372.636719 231.6875 372.265625 231.6875 C 371.449219 231.6875 370.636719 231.6875 369.824219 231.6875 C 368.605469 231.6875 367.386719 231.6875 366.167969 231.6875 C 364.089844 231.691406 362.015625 231.691406 359.9375 231.691406 C 357.832031 231.691406 355.730469 231.691406 353.625 231.691406 C 353.425781 231.691406 353.425781 231.691406 353.222656 231.691406 C 352.679688 231.691406 352.140625 231.691406 351.597656 231.691406 C 346.101562 231.699219 340.605469 231.699219 335.113281 231.699219 C 334.351562 231.699219 333.59375 231.699219 332.832031 231.695312 C 332.683594 231.695312 332.53125 231.695312 332.375 231.695312 C 329.035156 231.695312 325.691406 231.699219 322.351562 231.699219 C 321.585938 231.699219 320.824219 231.699219 320.0625 231.699219 C 319.753906 231.699219 319.449219 231.699219 319.144531 231.699219 C 318.992188 231.699219 318.839844 231.699219 318.683594 231.699219 C 318.375 231.699219 318.070312 231.699219 317.761719 231.699219 C 309.050781 231.703125 300.34375 231.703125 291.632812 231.703125 C 291.46875 231.703125 291.308594 231.703125 291.144531 231.703125 C 289.34375 231.703125 287.542969 231.703125 285.746094 231.703125 C 285.5 231.703125 285.5 231.703125 285.253906 231.703125 C 283.902344 231.699219 283.902344 231.699219 283.28125 231.699219 C 272.890625 231.699219 262.5 231.703125 252.105469 231.707031 C 249.488281 231.707031 246.867188 231.710938 244.25 231.710938 C 244.089844 231.710938 243.929688 231.710938 243.761719 231.710938 C 238.792969 231.714844 233.828125 231.714844 228.859375 231.714844 C 228.703125 231.714844 228.546875 231.714844 228.386719 231.714844 C 224.964844 231.714844 221.542969 231.714844 218.121094 231.714844 C 216.894531 231.714844 215.671875 231.714844 214.445312 231.714844 C 214.140625 231.714844 213.835938 231.714844 213.53125 231.714844 C 208.675781 231.714844 203.816406 231.714844 198.957031 231.71875 C 193.929688 231.722656 188.902344 231.722656 183.875 231.71875 C 183.335938 231.71875 182.796875 231.71875 182.257812 231.71875 C 182.125 231.71875 181.992188 231.71875 181.855469 231.71875 C 179.757812 231.714844 177.65625 231.71875 175.558594 231.71875 C 173.496094 231.722656 171.433594 231.722656 169.371094 231.71875 C 168.160156 231.71875 166.949219 231.71875 165.738281 231.722656 C 164.9375 231.722656 164.132812 231.722656 163.332031 231.71875 C 162.875 231.71875 162.417969 231.71875 161.964844 231.71875 C 161.472656 231.722656 160.984375 231.722656 160.496094 231.71875 C 160.285156 231.71875 160.285156 231.71875 160.070312 231.722656 C 159.09375 231.707031 158.445312 231.457031 157.71875 230.796875 C 156.980469 229.847656 156.789062 228.980469 156.902344 227.792969 C 157.199219 226.800781 157.714844 225.90625 158.230469 225.015625 C 158.390625 224.738281 158.546875 224.460938 158.707031 224.183594 C 158.789062 224.039062 158.875 223.890625 158.960938 223.742188 C 159.410156 222.945312 159.851562 222.140625 160.292969 221.339844 C 160.476562 221 160.664062 220.664062 160.847656 220.324219 C 160.894531 220.242188 160.941406 220.160156 160.988281 220.074219 C 161.71875 218.746094 162.453125 217.417969 163.191406 216.09375 C 163.445312 215.632812 163.703125 215.167969 163.960938 214.707031 C 164.78125 213.222656 165.605469 211.738281 166.433594 210.257812 C 167.214844 208.867188 167.988281 207.46875 168.757812 206.070312 C 169.625 204.492188 170.496094 202.917969 171.371094 201.34375 C 171.710938 200.730469 172.050781 200.117188 172.390625 199.503906 C 172.558594 199.199219 172.730469 198.890625 172.902344 198.585938 C 173.332031 197.808594 173.761719 197.035156 174.1875 196.257812 C 174.992188 194.808594 175.796875 193.359375 176.617188 191.917969 C 177.292969 190.726562 177.945312 189.523438 178.59375 188.320312 C 179.160156 187.265625 179.746094 186.222656 180.335938 185.179688 C 180.933594 184.128906 181.519531 183.070312 182.101562 182.007812 C 182.148438 181.925781 182.195312 181.839844 182.242188 181.753906 C 182.3125 181.628906 182.3125 181.628906 182.382812 181.5 C 182.472656 181.332031 182.566406 181.164062 182.660156 180.996094 C 182.707031 180.910156 182.75 180.828125 182.796875 180.742188 C 183.277344 179.871094 183.757812 179 184.242188 178.132812 C 184.324219 177.980469 184.410156 177.828125 184.496094 177.675781 C 184.832031 177.066406 185.171875 176.457031 185.507812 175.851562 C 185.761719 175.394531 186.015625 174.9375 186.269531 174.480469 C 186.351562 174.328125 186.4375 174.175781 186.523438 174.019531 C 187.199219 172.804688 187.867188 171.585938 188.539062 170.371094 C 189.242188 169.089844 189.953125 167.808594 190.667969 166.535156 C 191.273438 165.453125 191.875 164.367188 192.472656 163.28125 C 193.90625 160.671875 195.351562 158.066406 196.804688 155.46875 C 197.644531 153.96875 198.476562 152.464844 199.3125 150.960938 C 199.738281 150.191406 200.164062 149.421875 200.589844 148.652344 C 200.675781 148.5 200.761719 148.347656 200.847656 148.191406 C 201.269531 147.425781 201.695312 146.660156 202.121094 145.894531 C 203 144.3125 203.875 142.726562 204.75 141.140625 C 205.707031 139.402344 206.667969 137.664062 207.628906 135.929688 C 208.054688 135.164062 208.480469 134.394531 208.90625 133.628906 C 209.078125 133.320312 209.246094 133.015625 209.417969 132.707031 C 209.5 132.554688 209.585938 132.402344 209.671875 132.246094 C 210.441406 130.863281 210.441406 130.863281 210.695312 130.402344 C 210.867188 130.09375 211.035156 129.789062 211.207031 129.480469 C 211.632812 128.714844 212.054688 127.949219 212.480469 127.1875 C 213.359375 125.601562 214.234375 124.019531 215.109375 122.429688 C 216.066406 120.691406 217.027344 118.957031 217.992188 117.21875 C 218.332031 116.605469 218.671875 115.996094 219.011719 115.382812 C 219.265625 114.921875 219.523438 114.460938 219.777344 114 C 220.121094 113.382812 220.460938 112.761719 220.804688 112.144531 C 221.625 110.660156 222.449219 109.179688 223.28125 107.699219 C 224.058594 106.304688 224.832031 104.90625 225.601562 103.507812 C 226.46875 101.929688 227.339844 100.355469 228.214844 98.785156 C 228.640625 98.015625 229.066406 97.25 229.492188 96.484375 C 229.660156 96.175781 229.832031 95.867188 230 95.5625 C 230.128906 95.332031 230.128906 95.332031 230.257812 95.101562 C 241.246094 75.28125 241.246094 75.28125 241.503906 74.820312 C 241.671875 74.511719 241.84375 74.207031 242.015625 73.898438 C 242.4375 73.132812 242.863281 72.367188 243.289062 71.605469 C 243.457031 71.300781 243.625 70.996094 243.796875 70.691406 C 243.921875 70.464844 243.921875 70.464844 244.050781 70.230469 C 244.492188 69.429688 244.9375 68.628906 245.378906 67.828125 C 245.421875 67.742188 245.46875 67.660156 245.515625 67.574219 C 245.609375 67.40625 245.703125 67.234375 245.792969 67.066406 C 245.839844 66.984375 245.886719 66.902344 245.933594 66.816406 C 245.980469 66.730469 246.023438 66.648438 246.070312 66.5625 C 246.75 65.328125 247.441406 64.097656 248.136719 62.875 C 248.738281 61.808594 249.316406 60.734375 249.898438 59.65625 C 250.4375 58.648438 251 57.65625 251.570312 56.664062 C 252.085938 55.769531 252.578125 54.867188 253.066406 53.960938 C 253.707031 52.761719 254.367188 51.574219 255.039062 50.390625 C 255.640625 49.328125 256.234375 48.257812 256.820312 47.183594 C 257.472656 45.996094 258.128906 44.8125 258.796875 43.632812 C 259.457031 42.46875 260.105469 41.304688 260.75 40.132812 C 260.816406 40.007812 260.816406 40.007812 260.886719 39.882812 C 261.308594 39.117188 261.730469 38.347656 262.152344 37.582031 C 264.027344 34.15625 264.027344 34.15625 264.890625 32.640625 C 264.949219 32.535156 265.003906 32.433594 265.0625 32.328125 C 266.007812 30.679688 267.503906 29.730469 269.363281 30.574219 Z M 269.363281 30.574219 "/>
<path style=" stroke:none;fill-rule:nonzero;fill:rgb(85.09804%,37.254903%,37.254903%);fill-opacity:1;" d="M 247.636719 159.488281 C 247.824219 159.488281 248.007812 159.488281 248.191406 159.488281 C 248.699219 159.484375 249.203125 159.484375 249.710938 159.484375 C 250.257812 159.484375 250.804688 159.484375 251.347656 159.480469 C 252.667969 159.480469 253.984375 159.476562 255.304688 159.476562 C 255.925781 159.476562 256.546875 159.476562 257.167969 159.472656 C 259.238281 159.472656 261.304688 159.46875 263.375 159.46875 C 263.910156 159.46875 264.445312 159.46875 264.984375 159.46875 C 265.117188 159.46875 265.25 159.46875 265.386719 159.46875 C 267.542969 159.464844 269.699219 159.464844 271.859375 159.457031 C 274.078125 159.453125 276.292969 159.453125 278.511719 159.453125 C 279.757812 159.449219 281 159.449219 282.246094 159.445312 C 283.304688 159.445312 284.363281 159.441406 285.421875 159.445312 C 285.964844 159.445312 286.503906 159.445312 287.042969 159.441406 C 291.207031 159.421875 291.207031 159.421875 292.945312 160.054688 C 293.199219 160.144531 293.199219 160.144531 293.457031 160.238281 C 296.058594 161.226562 297.886719 163.101562 299.214844 165.515625 C 299.316406 165.699219 299.316406 165.699219 299.421875 165.886719 C 300.574219 168.179688 300.664062 171.175781 299.933594 173.613281 C 299.441406 175.078125 298.777344 176.363281 297.984375 177.683594 C 297.507812 178.472656 297.050781 179.269531 296.59375 180.070312 C 295.925781 181.230469 295.257812 182.386719 294.582031 183.542969 C 293.574219 185.269531 292.578125 187 291.582031 188.734375 C 290.507812 190.601562 289.433594 192.46875 288.347656 194.328125 C 287.421875 195.917969 286.503906 197.515625 285.585938 199.113281 C 284.511719 200.980469 283.433594 202.847656 282.351562 204.707031 C 281.769531 205.703125 281.191406 206.699219 280.617188 207.699219 C 280.535156 207.84375 280.449219 207.992188 280.363281 208.140625 C 279.964844 208.832031 279.570312 209.519531 279.175781 210.210938 C 279.039062 210.449219 278.898438 210.691406 278.761719 210.929688 C 278.589844 211.230469 278.421875 211.527344 278.25 211.828125 C 276.359375 215.121094 274.28125 217.375 270.488281 218.40625 C 267.617188 219.046875 264.605469 218.574219 262.117188 217.003906 C 261.746094 216.742188 261.398438 216.46875 261.046875 216.183594 C 260.953125 216.109375 260.855469 216.035156 260.757812 215.957031 C 259.035156 214.566406 258.023438 212.425781 256.941406 210.542969 C 256.851562 210.386719 256.761719 210.230469 256.671875 210.070312 C 256.125 209.121094 255.582031 208.171875 255.042969 207.222656 C 254.472656 206.21875 253.894531 205.222656 253.3125 204.226562 C 252.609375 203.027344 251.917969 201.820312 251.234375 200.613281 C 250.558594 199.425781 249.878906 198.242188 249.1875 197.0625 C 248.453125 195.804688 247.726562 194.539062 247.003906 193.269531 C 246.375 192.164062 245.742188 191.0625 245.097656 189.960938 C 244.414062 188.789062 243.734375 187.609375 243.0625 186.429688 C 242.355469 185.1875 241.644531 183.945312 240.933594 182.707031 C 240.847656 182.5625 240.765625 182.417969 240.679688 182.269531 C 240.25 181.519531 239.816406 180.773438 239.382812 180.023438 C 238.957031 179.28125 238.527344 178.539062 238.101562 177.796875 C 237.894531 177.433594 237.679688 177.070312 237.464844 176.707031 C 236.722656 175.425781 236.183594 174.195312 235.828125 172.753906 C 235.796875 172.621094 235.761719 172.488281 235.726562 172.351562 C 235.152344 169.671875 235.792969 166.984375 237.207031 164.671875 C 237.621094 164.054688 238.070312 163.480469 238.554688 162.921875 C 238.625 162.839844 238.695312 162.753906 238.769531 162.667969 C 241.0625 160.148438 244.398438 159.488281 247.636719 159.488281 Z M 247.636719 159.488281 "/>
<path style=" stroke:none;fill-rule:nonzero;fill:rgb(99.607843%,99.607843%,99.607843%);fill-opacity:1;" d="M 366.109375 30.265625 C 366.425781 30.265625 366.738281 30.261719 367.054688 30.261719 C 367.90625 30.261719 368.757812 30.261719 369.609375 30.261719 C 370.5 30.261719 371.394531 30.261719 372.285156 30.261719 C 373.878906 30.261719 375.472656 30.261719 377.070312 30.265625 C 378.511719 30.265625 379.957031 30.265625 381.398438 30.265625 C 383.078125 30.261719 384.757812 30.261719 386.4375 30.261719 C 387.324219 30.261719 388.210938 30.261719 389.097656 30.261719 C 389.933594 30.261719 390.769531 30.261719 391.601562 30.265625 C 391.910156 30.265625 392.214844 30.265625 392.519531 30.261719 C 395.285156 30.253906 397.71875 30.570312 399.792969 32.585938 C 401.375 34.3125 402.097656 36.289062 402.042969 38.605469 C 401.933594 40.6875 400.710938 42.503906 399.675781 44.246094 C 399.207031 45.042969 398.746094 45.84375 398.285156 46.644531 C 397.617188 47.804688 396.949219 48.964844 396.273438 50.121094 C 395.613281 51.253906 394.953125 52.394531 394.296875 53.535156 C 393.644531 54.671875 392.984375 55.8125 392.320312 56.949219 C 391.402344 58.523438 390.492188 60.105469 389.582031 61.683594 C 389.320312 62.144531 389.054688 62.601562 388.792969 63.058594 C 388.703125 63.210938 388.617188 63.363281 388.527344 63.519531 C 388.355469 63.820312 388.183594 64.117188 388.007812 64.417969 C 387.617188 65.09375 387.230469 65.769531 386.84375 66.449219 C 386.777344 66.566406 386.710938 66.683594 386.640625 66.804688 C 386.519531 67.019531 386.398438 67.230469 386.277344 67.445312 C 385.179688 69.367188 383.867188 70.691406 381.824219 71.558594 C 381.714844 71.609375 381.605469 71.660156 381.492188 71.710938 C 379.855469 72.328125 377.882812 72.113281 376.285156 71.5 C 373.296875 70.125 371.984375 67.425781 370.460938 64.667969 C 369.992188 63.820312 369.507812 62.980469 369.019531 62.144531 C 368.859375 61.875 368.703125 61.601562 368.542969 61.328125 C 368.460938 61.191406 368.382812 61.058594 368.300781 60.917969 C 367.113281 58.882812 365.949219 56.839844 364.785156 54.792969 C 363.875 53.199219 362.957031 51.605469 362.039062 50.011719 C 361.785156 49.570312 361.53125 49.128906 361.277344 48.6875 C 361.191406 48.539062 361.105469 48.394531 361.019531 48.242188 C 360.851562 47.945312 360.679688 47.652344 360.511719 47.359375 C 360.074219 46.597656 359.632812 45.835938 359.191406 45.078125 C 355.746094 39.148438 355.746094 39.148438 356.578125 35.789062 C 357.371094 33.558594 358.914062 31.976562 360.992188 30.9375 C 361.164062 30.867188 361.339844 30.796875 361.515625 30.726562 C 361.601562 30.691406 361.691406 30.65625 361.785156 30.617188 C 363.179688 30.152344 364.660156 30.261719 366.109375 30.265625 Z M 366.109375 30.265625 "/>
<path style=" stroke:none;fill-rule:nonzero;fill:rgb(99.607843%,99.607843%,99.607843%);fill-opacity:1;" d="M 143.777344 30.265625 C 144.089844 30.265625 144.40625 30.261719 144.71875 30.261719 C 145.570312 30.261719 146.421875 30.261719 147.273438 30.261719 C 148.167969 30.261719 149.058594 30.261719 149.953125 30.261719 C 151.546875 30.261719 153.140625 30.261719 154.734375 30.265625 C 156.179688 30.265625 157.621094 30.265625 159.066406 30.265625 C 160.742188 30.261719 162.421875 30.261719 164.101562 30.261719 C 164.988281 30.261719 165.878906 30.261719 166.765625 30.261719 C 167.601562 30.261719 168.433594 30.261719 169.269531 30.265625 C 169.574219 30.265625 169.882812 30.265625 170.1875 30.261719 C 172.953125 30.253906 175.382812 30.570312 177.460938 32.585938 C 179.039062 34.3125 179.761719 36.289062 179.707031 38.605469 C 179.597656 40.6875 178.378906 42.503906 177.34375 44.246094 C 176.871094 45.042969 176.410156 45.84375 175.953125 46.644531 C 175.285156 47.804688 174.617188 48.964844 173.941406 50.121094 C 173.277344 51.253906 172.621094 52.394531 171.964844 53.535156 C 171.308594 54.671875 170.652344 55.8125 169.988281 56.949219 C 169.070312 58.523438 168.15625 60.105469 167.25 61.683594 C 166.984375 62.144531 166.722656 62.601562 166.457031 63.058594 C 166.371094 63.210938 166.285156 63.363281 166.195312 63.519531 C 166.019531 63.820312 165.847656 64.117188 165.675781 64.417969 C 165.285156 65.09375 164.898438 65.769531 164.511719 66.449219 C 164.445312 66.566406 164.378906 66.683594 164.308594 66.804688 C 164.1875 67.019531 164.066406 67.230469 163.945312 67.445312 C 162.84375 69.367188 161.535156 70.691406 159.492188 71.558594 C 159.382812 71.609375 159.269531 71.660156 159.15625 71.710938 C 157.519531 72.328125 155.550781 72.113281 153.953125 71.5 C 150.960938 70.125 149.648438 67.425781 148.128906 64.667969 C 147.660156 63.820312 147.175781 62.980469 146.6875 62.144531 C 146.527344 61.875 146.367188 61.601562 146.207031 61.328125 C 146.128906 61.191406 146.050781 61.058594 145.96875 60.917969 C 144.78125 58.882812 143.617188 56.839844 142.449219 54.792969 C 141.539062 53.199219 140.625 51.605469 139.707031 50.011719 C 139.453125 49.570312 139.195312 49.128906 138.941406 48.6875 C 138.859375 48.539062 138.773438 48.394531 138.6875 48.242188 C 138.515625 47.945312 138.347656 47.652344 138.175781 47.359375 C 137.738281 46.597656 137.300781 45.835938 136.859375 45.078125 C 133.414062 39.148438 133.414062 39.148438 134.246094 35.789062 C 135.035156 33.558594 136.578125 31.976562 138.660156 30.9375 C 138.832031 30.867188 139.003906 30.796875 139.179688 30.726562 C 139.269531 30.691406 139.359375 30.65625 139.449219 30.617188 C 140.847656 30.152344 142.324219 30.261719 143.777344 30.265625 Z M 143.777344 30.265625 "/>
</g>
</svg>