<?xml version="1.0" encoding="UTF-8"?>
<!-- Generated by Pixelmator Pro 3.6.17 -->
<svg width="400" height="400" viewBox="0 0 400 400" xmlns="http://www.w3.org/2000/svg">
    <g id="surface1">
        <g id="Group">
            <clipPath id="clipPath1">
                <path d="M 3.303147 168.070369 L 372.969477 168.070369 L 372.969477 305.276751 L 3.303147 305.276751 Z"/>
            </clipPath>
            <g id="g1" clip-path="url(#clipPath1)">
                <clipPath id="clipPath2">
                    <path d="M 3.485831 168.302749 L 372.949346 168.302749 L 372.949346 305.091381 L 3.485831 305.091381 Z M 3.485831 168.302749"/>
                </clipPath>
                <g id="g2" clip-path="url(#clipPath2)">
                    <path id="Path" fill="#373535" fill-rule="evenodd" stroke="none" d="M 3.485831 220.117828 C 36.531475 236.697739 66.74015 217.604584 104.820343 228.334564 C 133.769028 236.493561 169.021667 246.553268 216.855301 239.630081 C 264.688934 232.705551 305.595367 211.937347 325.113007 174.805496 C 331.196625 158.229599 355.948975 178.57872 355.948975 178.57872 C 355.948975 178.57872 337.908966 171.028244 338.328033 174.593246 C 338.749817 178.159622 365.393463 190.539154 365.393463 190.539154 C 365.393463 190.539154 341.263062 182.985977 342.735291 188.653198 C 344.202118 194.312378 372.946655 216.971893 372.946655 216.971893 C 372.946655 216.971893 340.424866 192.215546 337.700745 195.573715 C 334.972534 198.927826 351.545776 212.567337 351.545776 212.567337 C 351.545776 212.567337 324.061218 195.573715 314.409882 200.58139 C 307.467896 204.186707 342.942139 227.464127 342.942139 227.464127 C 342.942139 227.464127 319.864868 209.839172 314.409882 214.450592 C 308.953522 219.068726 340.424866 256.831909 340.424866 256.831909 C 340.424866 256.831909 304.757172 218.227844 301.190796 220.117828 C 297.628479 222.005112 311.054382 240.464249 311.054382 240.464249 C 311.054382 240.464249 293.429413 221.16423 288.604431 224.5224 C 283.780762 227.876511 313.778534 278.019226 313.778534 278.019226 C 313.778534 278.019226 281.260803 226.623245 267.838898 235.225525 C 288.924103 281.486206 281.05661 288.096405 281.05661 288.096405 C 281.05661 288.096405 278.364716 240.900818 252.101212 242.150055 C 238.883499 242.780029 258.394409 277.395966 258.394409 277.395966 C 258.394409 277.395966 240.438995 245.775528 228.478561 246.405502 C 250.520187 288.124603 242.660751 305.09137 242.660751 305.09137 C 242.660751 305.09137 246.303696 269.461304 216.408005 249.637405 C 227.735748 259.701141 209.300781 305.09137 209.300781 305.09137 C 209.300781 305.09137 225.522049 238.211594 197.343048 250.964554 C 192.891464 252.978104 197.027374 284.323181 197.027374 284.323181 C 197.027374 284.323181 191.360138 248.447266 182.869385 250.334549 C 177.912735 251.432007 151.39267 300.058167 151.39267 300.058167 C 151.39267 300.058167 173.111908 247.504288 166.501694 249.707245 C 161.688766 251.309769 152.653976 272.992737 152.653976 272.992737 C 152.653976 272.992737 157.061234 251.590515 152.653976 250.334549 C 148.24942 249.07457 123.701271 272.992737 123.701271 272.992737 C 123.701271 272.992737 141.956238 251.590515 138.802246 247.187286 C 134.036346 240.509918 128.447021 240.199631 121.811295 242.784073 C 112.158592 246.542526 99.1558 264.182251 99.1558 264.182251 C 99.1558 264.182251 112.120987 246.320877 109.857582 239.632767 C 106.217339 228.886658 68.944443 260.401001 68.944443 260.401001 C 68.944443 260.401001 90.975327 239.632767 85.93808 235.229553 C 80.904861 230.822296 53.565407 232.184372 45.024933 232.160187 C 19.850821 232.079605 11.127661 226.175949 3.485831 220.121857"/>
                </g>
            </g>
        </g>
        <path id="path1" fill="#bbe6fb" fill-rule="evenodd" stroke="none" d="M 318.790253 168.434387 C 321.729309 201.575409 267.915466 233.117935 198.605713 238.880539 C 129.297302 244.645828 70.726952 222.445694 67.794609 189.307373 C 64.859581 156.159637 118.669403 124.619812 187.98317 118.854492 C 257.291595 113.095917 315.861938 135.289337 318.790253 168.434387"/>
        <path id="path2" fill="#cdf0fe" stroke="none" d="M 198.894516 126.732758 C 159.197021 128.23587 130.710419 135.236938 107.772842 145.068314 C 106.498085 150.254654 105.804955 155.639801 105.804955 161.172699 C 105.804955 202.032104 142.44249 235.15567 187.636627 235.15567 C 232.832092 235.15567 269.469635 202.032104 269.469635 161.172699 C 269.469635 151.2621 267.297577 141.812225 263.387329 133.173706 C 245.65892 128.661682 224.338623 125.76828 198.894516 126.732758"/>
        <path id="path3" fill="#ffffff" fill-rule="evenodd" stroke="none" d="M 187.736008 119.023743 C 173.093094 118.126465 147.867935 125.764252 126.83242 133.384583 C 123.548134 141.120453 121.856964 149.439285 121.858307 157.842758 C 121.858307 193.380157 154.080536 222.18779 188.165863 222.18779 C 222.028214 222.18779 251.983002 193.334473 254.469391 157.842758 C 255.27803 146.286636 251.300629 135.395477 245.774429 126.007385 C 223.963867 122.166992 200.819412 119.81897 187.736008 119.023743"/>
        <path id="path4" fill="#373535" fill-rule="evenodd" stroke="none" d="M 150.174316 153.17894 C 151.968918 149.200195 154.68634 147.253799 157.323166 143.921143 C 157.030334 143.13266 156.390945 140.548218 156.390945 139.654938 C 156.390945 135.684265 159.657761 132.41745 163.627121 132.41745 C 164.543213 132.41745 165.447235 132.593414 166.296173 132.931915 C 179.931656 122.506836 197.784973 119.368988 214.158035 124.519043 C 198.492874 122.346985 180.837006 127.897369 168.826889 137.587677 C 169.192261 138.454071 170.210449 140.928375 170.210449 141.925079 C 170.210449 145.919937 167.623322 146.891113 163.627121 146.891113 C 162.71907 146.891113 161.854004 146.715149 161.05072 146.412918 C 158.337341 150.055847 155.014099 156.993805 153.38472 161.333893 C 160.027161 167.272461 166.027527 169.427063 173.84668 172.351349 C 173.82518 171.979263 174.113968 171.63002 174.113968 171.253906 C 174.113968 159.20079 184.723068 149.408386 196.776184 149.408386 C 207.406784 149.41243 216.485901 157.083801 218.265732 167.565292 C 223.650879 164.135941 228.861389 161.509857 232.834763 156.426941 C 231.909271 155.3013 230.905853 152.09761 230.905853 150.520615 C 230.905853 146.919327 233.873123 143.956085 237.474411 143.956085 L 237.477097 143.956085 C 237.991562 143.956085 238.484543 144.02594 238.962753 144.138779 C 240.987045 139.982697 242.502243 135.598297 243.47612 131.079559 C 224.630112 117.123047 188.165863 119.023743 188.165863 119.023743 C 188.165863 119.023743 159.154037 117.509888 139.508804 127.084686 C 140.821167 136.553345 144.598434 145.561295 150.174316 153.174911"/>
        <path id="path5" fill="#373535" fill-rule="evenodd" stroke="none" d="M 161.111176 208.200394 C 164.356506 199.227386 172.346252 192.275986 179.907471 186.164139 C 178.799286 184.650284 177.14035 180.898544 176.451248 179.124084 C 167.345276 176.348907 159.156723 171.16658 152.750702 164.125198 L 152.596222 164.724304 C 151.438339 169.945557 151.161621 175.322647 151.77951 180.633911 C 156.268707 181.488235 159.520752 185.406525 159.53418 189.976318 C 159.53418 192.732697 157.116302 196.735626 155.239761 198.473816 C 157.28154 202.874344 158.671814 205.000732 161.111176 208.200394 M 240.241531 147.744095 C 241.308075 148.676315 242.194626 149.784515 242.874329 151.024353 C 244.640732 154.191757 241.103912 157.093216 237.477097 157.093216 C 237.115768 157.086487 236.755768 157.050217 236.401138 156.983063 C 232.313599 163.368942 225.158005 171.556137 218.800354 175.678604 C 228.547073 177.2771 237.737686 181.180634 245.059814 187.213226 C 250.385864 177.67067 254.469391 163.886108 254.469391 152.178207 C 254.469391 143.265656 250.537659 136.736023 244.599075 131.945953 C 244.28476 136.718567 241.736588 143.39325 240.24826 147.744095"/>
        <path id="path6" fill="#373535" fill-rule="evenodd" stroke="none" d="M 217.342896 178.459183 C 214.278931 187.194412 206.033966 193.044342 196.776184 193.049713 C 191.889389 193.052383 187.143631 191.406891 183.308624 188.379181 C 175.658722 194.33522 168.724792 204.796539 165.197388 213.8703 C 166.781097 215.574905 167.882584 216.975922 169.657013 218.485748 C 175.008591 219.878723 182.375046 218.485748 188.165863 218.485748 C 211.458069 218.485748 232.087921 208.122482 243.915359 189.952133 C 236.051895 184.506546 226.772629 179.321548 217.342896 178.459183 M 160.537613 215.725357 C 156.664978 211.874222 153.982468 204.190735 151.469238 199.364395 C 150.992371 199.442307 150.510132 199.483948 150.026566 199.487976 C 144.767685 199.487976 139.261642 195.076691 140.508179 189.976318 C 141.198624 187.150085 143.147705 185.305786 146.323181 183.763718 C 145.597824 177.913803 145.404388 169.504974 146.75975 163.41864 C 147.150635 161.679123 147.974045 160.862411 148.519424 159.208847 C 142.721893 150.724792 138.976883 139.587799 138.976883 128.538086 C 138.976883 128.133789 138.994324 127.736176 139.005081 127.334534 C 129.208649 132.248199 121.862335 139.989441 121.862335 152.178207 C 121.862335 179.138855 137.386444 205.581024 160.4879 215.946991 L 160.537613 215.729385"/>
        <path id="path7" fill="#1287b1" fill-rule="evenodd" stroke="none" d="M 149.575226 156.328903 C 151.345642 152.406555 153.588898 148.716614 156.256622 145.339645 C 155.951706 144.529663 155.79454 143.671326 155.791855 142.804901 C 155.791855 138.838257 159.062698 135.567413 163.029358 135.567413 C 163.944122 135.567413 164.849487 135.743378 165.697083 136.084564 C 178.099442 126.599762 194.065475 123.096527 209.299438 126.517822 C 210.732712 126.845581 212.153885 127.228424 213.558929 127.671692 C 197.895126 125.500977 181.710129 130.301788 169.700012 139.992096 C 170.076126 140.88269 170.269547 141.840454 170.269547 142.804901 C 170.250748 146.794403 167.021545 150.022263 163.032043 150.042419 C 162.150864 150.041077 161.276398 149.879868 160.452972 149.562866 C 157.712708 153.238037 155.504395 157.281265 153.895157 161.572998 C 159.597321 167.719772 166.602432 172.581039 174.416199 175.50264 C 174.398743 175.129211 174.359787 174.76384 174.359787 174.379669 C 174.349045 162.335968 184.103836 152.563721 196.147537 152.554306 C 206.792908 152.544922 215.889481 160.223007 217.666626 170.719284 C 223.082672 167.249634 227.867386 162.882675 231.813889 157.803787 C 230.846741 156.643219 230.316147 155.181747 230.310791 153.671906 C 230.332275 150.051819 233.263275 147.123505 236.882034 147.106049 C 237.393814 147.106049 237.885437 147.179916 238.367691 147.29274 C 240.390625 143.135345 241.905838 138.749603 242.877014 134.229492 C 224.031021 120.277008 187.570801 122.18042 187.570801 122.18042 C 187.570801 122.18042 158.554947 120.667908 138.913742 130.242706 C 140.223419 139.710022 144.003372 148.715256 149.575226 156.328903"/>
        <path id="path8" fill="#1287b1" fill-rule="evenodd" stroke="none" d="M 162.110565 210.353638 C 165.386795 201.289291 171.075516 193.290161 178.562866 187.21994 C 177.449295 185.695328 176.537231 184.032364 175.852158 182.271347 C 166.747513 179.49617 158.558975 174.316559 152.151596 167.276505 C 152.105927 167.476639 152.046829 167.674103 152.00116 167.874252 C 150.841919 173.095505 150.565216 178.47261 151.184448 183.785202 C 155.672302 184.639542 158.922989 188.555145 158.939117 193.123596 C 158.937775 195.776535 157.826889 198.308594 155.87648 200.107224 C 157.589142 203.731339 159.67926 207.164734 162.110565 210.350952 M 241.261063 148.817368 C 242.648666 150.049133 243.443878 151.815521 243.450592 153.674591 C 243.431793 157.294708 240.502121 160.224365 236.883377 160.243164 C 236.520691 160.235107 236.158005 160.197495 235.802032 160.130325 C 231.714493 166.520233 226.306503 171.960464 219.940781 176.086975 C 229.335571 177.559174 238.162155 181.525848 245.500412 187.571884 C 251.003754 177.717682 253.887756 166.615616 253.874329 155.329498 C 253.874329 146.416946 249.938553 139.887329 243.999985 135.095917 C 243.700439 139.770477 242.778961 144.384598 241.261063 148.817368"/>
        <path id="path9" fill="#1287b1" fill-rule="evenodd" stroke="none" d="M 216.747833 181.613144 C 213.681168 190.345703 205.436218 196.192947 196.181122 196.199661 C 191.294327 196.202347 186.548569 194.556854 182.713562 191.529129 C 175.06366 197.485168 169.291656 205.602509 165.76828 214.680283 C 167.351974 216.38356 169.037781 217.992783 170.812241 219.499924 C 176.28334 220.921097 181.914307 221.63974 187.566757 221.635712 C 210.858963 221.635712 231.338379 209.612167 243.165817 191.440475 C 235.302353 185.992203 226.178909 182.475525 216.745163 181.609131 M 160.51207 215.620575 C 156.643478 211.774811 153.392776 207.355469 150.871475 202.518372 C 150.393265 202.59494 149.911041 202.635239 149.42746 202.637939 L 149.414032 202.637939 C 144.173965 202.615097 139.933273 198.373077 139.909103 193.134338 C 139.909103 189.491394 142.000565 186.153397 145.280807 184.573715 C 144.320374 176.797546 145.104843 168.909912 147.572418 161.478973 C 141.569366 152.704773 138.364349 142.319977 138.377777 131.688049 C 138.377777 131.283722 138.399261 130.886139 138.405991 130.488525 C 128.610886 135.398163 121.26458 143.143402 121.26458 155.329498 C 121.26458 182.288818 137.360916 205.472214 160.46373 215.838196 Z M 160.51207 215.620575"/>
        <g id="g3">
            <clipPath id="clipPath3">
                <path d="M 152.545187 132.995047 L 237.826341 132.995047 L 237.826341 218.276216 L 152.545187 218.276216 Z"/>
            </clipPath>
            <g id="g4" clip-path="url(#clipPath3)">
                <clipPath id="clipPath4">
                    <path d="M 152.617716 133.008476 L 237.671862 133.008476 L 237.671862 217.988753 L 152.617716 217.988753 Z M 152.617716 133.008476"/>
                </clipPath>
                <g id="g5" clip-path="url(#clipPath4)">
                    <path id="path10" fill="#ffffff" fill-rule="evenodd" stroke="none" d="M 217.512146 175.984879 L 237.670517 171.175995 L 217.438278 170.144363 L 233.90535 157.560669 L 215.216507 164.259521 L 227.917084 146.658737 L 210.37674 158.318268 L 216.512772 137.717957 L 204.46637 154.69548 L 204.188324 133.240875 L 196.265747 152.354187 L 189.658234 133.008484 L 190.014191 155.790237 L 178.595108 135.373962 L 184.772781 157.056946 L 166.250504 143.58667 L 180.759109 161.82016 L 157.763763 153.361633 L 175.912598 166.790237 L 152.637863 167.504852 L 176.433792 173.647598 L 152.616379 178.800354 L 176.130219 180.503616 L 156.302292 193.197464 L 176.718567 185.794739 L 162.553848 203.736725 L 180.45285 189.300659 L 174.005173 213.370605 L 187.824677 193.781784 L 185.88768 216.91951 L 193.731003 195.947128 L 200.408371 217.988754 L 202.031036 195.879974 L 211.940308 214.747452 L 206.086349 193.166565 L 224.231171 207.221146 L 212.517899 189.300659 L 232.426422 197.055328 L 217.201874 182.095383 L 237.618149 183.700592 Z M 217.512146 175.984879"/>
                </g>
            </g>
        </g>
        <path id="path11" fill="#373535" stroke="none" d="M 253.835358 98.160187 C 253.835358 98.160187 250.353622 103.748138 244.793869 108.24942 C 245.723404 109.071503 246.631439 109.911041 247.51799 110.772095 C 252.005844 103.691742 253.835358 98.160187 253.835358 98.160187"/>
        <path id="path12" fill="#373535" stroke="none" d="M 5.459086 209.812317 C 43.423763 189.349014 66.702538 162.670441 107.772842 145.068314 C 108.649994 141.497925 109.809235 138.028259 111.234428 134.672791 C 79.681152 147.905273 45.101501 170.167206 5.459086 209.812317"/>
        <path id="path13" fill="#373535" stroke="none" d="M 356.243164 147.920044 C 372.399933 138.478241 384.77948 115.404999 384.77948 115.404999 C 384.77948 115.404999 353.308105 147.920044 331.490814 143.096375 C 351.209961 127.573639 360.858612 100.7164 360.858612 100.7164 C 360.858612 100.7164 335.816132 139.368835 320.159058 140.999542 C 338.203094 125.05368 345.753601 102.391449 345.753601 102.391449 C 345.753601 102.391449 325.196289 132.606842 309.250397 134.705017 C 330.649933 115.404999 331.490814 103.23233 331.490814 103.23233 C 331.490814 103.23233 306.048065 138.979309 294.125214 133.012512 C 308.388 117.485718 313.865845 100.297302 313.865845 100.297302 C 313.865845 100.297302 289.109467 133.868164 282.397186 128.411835 C 277.779053 127.569611 289.947693 112.465942 289.947693 112.465942 C 289.947693 112.465942 274.842682 125.890503 270.646332 122.533722 C 278.200867 117.918243 291.203613 95.264099 291.203613 95.264099 C 291.203613 95.264099 266.028198 124.211426 259.734985 120.854645 L 271.886169 96.203033 C 271.886169 96.203033 264.077759 112.024017 252.55658 116.153198 C 256.95578 121.330139 260.612152 127.044373 263.387329 133.173706 C 304.093597 143.532959 325.830292 162.431351 334.840912 162.815521 C 374.289917 164.495941 399.046265 126.309631 399.046265 126.309631 C 399.046265 126.309631 374.289917 154.843246 356.243164 147.920044"/>
        <path id="path14" fill="#373535" stroke="none" d="M 243.374023 116.662292 C 244.957733 114.636658 246.326523 112.652649 247.519333 110.772095 C 246.632782 109.911041 245.724747 109.07016 244.793869 108.24942 C 239.788864 112.299377 233.102081 115.469482 225.745026 112.88504 C 222.099396 111.603577 230.282562 102.331024 230.282562 102.331024 C 230.282562 102.331024 219.873611 112.465942 212.739532 111.205963 C 205.606812 109.945984 213.157288 96.939148 213.157288 96.939148 C 213.157288 96.939148 200.569565 116.662292 198.053635 115.820068 C 195.54039 114.981873 199.313614 101.976379 199.313614 101.976379 C 199.313614 101.976379 190.080017 117.080048 185.046799 116.243195 C 180.192245 115.43454 184.700241 101.74939 185.026642 100.778198 C 184.676056 101.815216 179.452103 117.038422 175.395447 115.824097 C 171.199097 114.566803 170.360886 104.911407 170.360886 104.911407 C 170.360886 104.911407 169.228516 118.013611 163.229507 119.178223 L 163.222794 119.178223 C 146.642868 122.403412 129.442383 127.036346 111.234428 134.672791 C 109.809235 138.028259 108.649994 141.497925 107.772842 145.068314 C 130.710419 135.236938 159.197021 128.23587 198.894516 126.732758 C 224.338623 125.76828 245.65892 128.661682 263.387329 133.173706 C 260.612152 127.044373 256.95578 121.330139 252.55658 116.153198 C 249.702148 117.176758 246.62204 117.493774 243.374023 116.662292"/>
        <path id="path15" fill="#373535" fill-rule="evenodd" stroke="none" d="M -0.001283 217.619354 C 33.045704 234.199265 63.254375 215.106094 101.333229 225.834763 C 130.281921 233.995087 165.535889 244.054794 213.369522 237.131607 C 261.201843 230.207077 302.108246 209.438873 321.627228 172.305679 C 327.709503 155.729797 352.463196 176.080246 352.463196 176.080246 C 352.463196 176.080246 334.423157 168.52977 334.840912 172.094788 C 335.264038 175.661163 361.907684 188.04068 361.907684 188.04068 C 361.907684 188.04068 337.777313 180.48616 339.248169 186.153397 C 340.71637 191.813904 369.460846 214.472092 369.460846 214.472092 C 369.460846 214.472092 336.939087 189.715729 334.214966 193.073883 C 331.486786 196.429367 348.058655 210.068863 348.058655 210.068863 C 348.058655 210.068863 320.575439 193.073883 310.92276 198.082916 C 303.982117 201.688248 339.45639 224.965668 339.45639 224.965668 C 339.45639 224.965668 316.379089 207.340698 310.92276 211.952133 C 305.4664 216.570267 336.939087 254.33345 336.939087 254.33345 C 336.939087 254.33345 301.271423 215.729385 297.705048 217.619354 C 294.1427 219.506653 307.568634 237.965775 307.568634 237.965775 C 307.568634 237.965775 289.943665 218.664413 285.11731 222.022568 C 280.295013 225.378052 310.292755 275.520752 310.292755 275.520752 C 310.292755 275.520752 277.775024 224.124786 264.353119 232.727051 C 285.438354 278.987732 277.570862 285.597931 277.570862 285.597931 C 277.570862 285.597931 274.877594 238.401001 248.615448 239.651566 C 235.39772 240.28157 254.90863 274.897491 254.90863 274.897491 C 254.90863 274.897491 236.953217 243.277039 224.991455 243.907043 C 247.034424 285.62616 239.174988 302.592896 239.174988 302.592896 C 239.174988 302.592896 242.817917 266.96283 212.922211 247.138931 C 224.249969 257.202667 205.815002 302.592896 205.815002 302.592896 C 205.815002 302.592896 222.034927 235.71312 193.857269 248.46608 C 189.404343 250.478287 193.540268 281.824707 193.540268 281.824707 C 193.540268 281.824707 187.873032 245.948807 179.383591 247.83609 C 174.426956 248.933533 147.906891 297.559692 147.906891 297.559692 C 147.906891 297.559692 169.626144 245.005829 163.01593 247.208786 C 158.203003 248.809952 149.16687 270.494263 149.16687 270.494263 C 149.16687 270.494263 153.574127 249.092041 149.16687 247.83609 C 144.763641 246.574753 120.2155 270.494263 120.2155 270.494263 C 120.2155 270.494263 138.470459 249.092041 135.316483 244.688812 C 130.550583 238.011444 124.959908 237.701157 118.325523 240.285599 C 108.672829 244.044052 95.670029 261.682434 95.670029 261.682434 C 95.670029 261.682434 108.633873 243.822418 106.370468 237.134308 C 102.731567 226.388184 65.457329 257.902527 65.457329 257.902527 C 65.457329 257.902527 87.489548 237.134308 82.452309 232.731079 C 77.419098 228.323822 50.078297 229.685898 41.539165 229.661728 C 16.363705 229.581116 7.641891 223.677475 -0.001283 217.623383"/>
        <g id="g6">
            <clipPath id="clipPath5">
                <path d="M 6.398027 98.951361 L 400.135679 98.951361 L 400.135679 214.149703 L 6.398027 214.149703 Z"/>
            </clipPath>
            <g id="g7" clip-path="url(#clipPath5)">
                <clipPath id="clipPath6">
                    <path d="M 6.412803 99.28986 L 400.001357 99.28986 L 400.001357 213.839404 L 6.412803 213.839404 Z M 6.412803 99.28986"/>
                </clipPath>
                <g id="g8" clip-path="url(#clipPath6)">
                    <path id="path16" fill="#373535" fill-rule="evenodd" stroke="none" d="M 164.183212 123.205353 C 170.182236 122.04071 171.315964 108.938538 171.315964 108.938538 C 171.315964 108.938538 172.152802 118.593933 176.349167 119.851196 C 180.548203 121.107147 186.000519 104.746185 186.000519 104.746185 C 186.000519 104.746185 180.967316 119.432098 186.000519 120.270294 C 191.03508 121.107147 200.267334 106.00351 200.267334 106.00351 C 200.267334 106.00351 196.49411 119.008972 199.007339 119.847198 C 201.524628 120.68808 214.112366 100.966248 214.112366 100.966248 C 214.112366 100.966248 206.561859 113.971741 213.693253 115.233063 C 220.82869 116.493042 231.236282 106.358124 231.236282 106.358124 C 231.236282 106.358124 223.053116 115.630676 226.698746 116.91214 C 242.229568 122.367157 254.789093 102.187286 254.789093 102.187286 C 254.789093 102.187286 251.878235 111.036713 244.327744 120.68808 C 260.688721 124.880371 272.839874 100.230133 272.839874 100.230133 L 260.688721 124.880371 C 266.983246 128.238556 292.157349 99.289856 292.157349 99.289856 C 292.157349 99.289856 279.154541 121.945343 271.601379 126.559479 C 275.796387 129.917633 290.901398 116.493042 290.901398 116.493042 C 290.901398 116.493042 278.732758 131.59671 283.350922 132.438934 C 290.063202 137.893951 314.81958 104.324432 314.81958 104.324432 C 314.81958 104.324432 309.343079 121.512817 295.078949 137.039612 C 307.00174 143.005035 332.444519 107.25946 332.444519 107.25946 C 332.444519 107.25946 331.603668 119.432098 310.205444 138.732147 C 326.149994 136.633942 346.707336 106.418579 346.707336 106.418579 C 346.707336 106.418579 339.15683 129.08078 321.114105 145.026672 C 336.769867 143.395935 361.812347 104.742157 361.812347 104.742157 C 361.812347 104.742157 352.163635 131.600739 332.444519 147.123505 C 354.261841 151.947159 385.734528 119.432098 385.734528 119.432098 C 385.734528 119.432098 373.353638 142.505371 357.196869 151.947159 C 375.244965 158.870346 400 130.336731 400 130.336731 C 400 130.336731 375.244965 168.521698 335.79599 166.842621 C 322.859009 166.290543 283.716278 127.580353 199.848221 130.759857 C 89.073257 134.954865 65.580902 181.947632 6.412803 213.839401 C 68.93235 151.315826 118.862831 132.019836 164.176514 123.205353 Z M 164.183212 123.205353"/>
                </g>
            </g>
        </g>
    </g>
</svg>
