<?xml version="1.0" encoding="UTF-8"?>

<svg width="400" height="400" viewBox="0 0 400 400" xmlns="http://www.w3.org/2000/svg">
    <g id="Group">
        <g id="g1">
            <path id="Shape-2" fill="#669df6" fill-rule="evenodd" stroke="none" d="M 226.800018 215.200012 L 226.800018 128 L 173.199982 128 L 173.199982 215.200012 L 97.799988 258.799988 L 124.599983 305.200012 L 200 261.600006 L 275.400024 305.200012 L 302.200043 258.799988 L 226.800018 215.200012 Z"/>
            <path id="Path" fill="#4285f4" fill-rule="evenodd" stroke="none" d="M 226.800018 215.200012 L 226.800018 128 L 200 128 L 200 230.400009 L 111.199997 282 L 124.599983 305.200012 L 200 261.600006 L 275.400024 305.200012 L 302.200043 258.799988 L 226.800018 215.200012 Z"/>
            <path id="path1" fill="#aecbfa" fill-rule="evenodd" stroke="none" d="M 173 15.399994 L 132.400009 39.799988 L 132.400009 114.399994 L 200 151 L 200 88.800018 L 173 76.399994 L 173 15.399994 Z"/>
            <path id="path2" fill="#669df6" fill-rule="evenodd" stroke="none" d="M 227 76.399994 L 200 88.800018 L 200 151 L 267.600006 114.399994 L 267.600006 39.799988 L 227 15.399994 L 227 76.399994 Z"/>
            <path id="path3" fill="#669df6" fill-rule="evenodd" stroke="none" d="M 322.799988 301.600006 L 321.200012 329.399994 L 375.200012 360 L 331.600006 384.000031 L 266.800018 346.600006 L 269 270 L 334.399994 230 L 400 267.600006 L 400 317.400024 L 346.199982 286.400024 Z"/>
            <path id="path4" fill="#669df6" fill-rule="evenodd" stroke="none" d="M 77.199997 301.600006 L 53.799992 286.400024 L -1.1e-05 317.400024 L -1.1e-05 267.600006 L 64.599991 230.200012 L 130 270.200012 L 132.199997 346.800018 L 68.399994 384.600006 L 24.799992 360 L 78.799995 328.800018 Z"/>
            <path id="path5" fill="#aecbfa" fill-rule="evenodd" stroke="none" d="M 400 317.400024 L 399.000031 267.600006 L 334.399994 230.400009 L 269 270.600006 L 322.799988 301.600006 L 346 286.400024 L 400 317.400024 Z"/>
            <path id="path6" fill="#aecbfa" fill-rule="evenodd" stroke="none" d="M -1.1e-05 317.400024 L 53.999989 286.400024 L 77.199997 301.600006 L 131 270.600006 L 65.599991 230.400009 L 0.999987 267.600006 L -1.1e-05 317.400024 Z"/>
        </g>
    </g>
</svg>
