<?xml version="1.0" encoding="UTF-8"?>
<!-- Generated by Pixelmator Pro 3.6.17 -->
<svg width="400" height="400" viewBox="0 0 400 400" xmlns="http://www.w3.org/2000/svg">
    <g id="Group">
        <path id="Path" fill="#aecbfa" stroke="none" d="M 80.003418 120.00296 L 160.001007 120.00296 L 160.001007 40.005371 L 20.005224 40.005371 C 8.959863 40.005371 0.005827 48.959412 0.005827 60.004791 L 0.005827 379.995117 C 0.077341 385.075043 2.079465 389.937317 5.605659 393.594727 L 80.003418 319.996948 Z"/>
        <path id="path1" fill="#4285f4" stroke="none" d="M 279.997375 319.996948 L 354.395142 394.394684 C 358.115234 390.538727 360.132599 385.351288 359.994995 379.995117 L 359.994995 239.999329 L 279.997375 239.999329 Z"/>
        <path id="path2" fill="#669df6" stroke="none" d="M 394.193909 5.606415 L 319.996185 80.004181 L 319.996185 80.004181 L 319.996185 160.001755 L 399.993744 160.001755 L 399.993744 20.005981 C 400.078186 14.621002 397.987183 9.429565 394.193909 5.606415 Z"/>
        <path id="path3" fill="#aecbfa" stroke="none" d="M 319.996185 80.004181 L 394.393921 5.606415 C 390.537994 1.886292 385.350555 -0.131012 379.994354 0.006592 L 239.998581 0.006592 L 239.998581 80.004181 Z"/>
        <path id="path4" fill="#669df6" stroke="none" d="M 0.005827 399.994507 L 80.003418 319.996948 L 279.997375 319.996948 L 359.994995 399.994507 L 0.005827 399.994507 Z"/>
    </g>
</svg>
