<?xml version="1.0" encoding="UTF-8"?>
<!-- Generated by Pixelmator Pro 3.2.3 -->
<svg width="400" height="400" viewBox="0 0 400 400" xmlns="http://www.w3.org/2000/svg" xmlns:xlink="http://www.w3.org/1999/xlink">
    <g id="Group">
        <path id="Path" fill="#ff6492" stroke="none" d="M 399.686127 113.765686 L 199.719498 0.10498 L 199.719498 78.740417 L 399.686127 191.912994 L 399.686127 113.765686 Z"/>
        <path id="path1" fill="#141446" stroke="none" d="M 399.718994 191.94487 L 339.7547 226.219009 L 199.751373 146.800568 L 119.745193 192.01062 L 59.749027 160.216949 L 199.784241 78.774292 L 399.718994 191.94487 Z"/>
        <path id="path2" fill="#a14474" stroke="none" d="M 119.745193 191.976761 L 59.749027 160.216949 L 59.749027 226.187134 L 119.745193 191.976761 Z"/>
        <path id="path3" fill="#141446" stroke="none" d="M -0.281006 338.672333 L 199.719498 226.219009 L 399.718994 338.672333 L 199.719498 452.301147 L -0.281006 338.672333 Z"/>
        <path id="path4" fill="#ff6492" stroke="none" d="M 399.686127 260.624634 L 199.686615 145.559341 L 199.686615 226.219009 L 399.686127 338.640472 L 399.686127 260.624634 Z"/>
        <path id="path5" fill="#7a77ff" stroke="none" d="M 59.716156 226.187134 L 59.716156 160.183075 L 199.751373 78.740417 L 199.751373 0.10498 L -0.281006 113.765686 L -0.281006 338.606598 L 199.719498 226.187134 L 199.719498 145.527466 L 59.716156 226.187134 Z"/>
    </g>
</svg>
