<?xml version="1.0" encoding="UTF-8"?>
<svg width="400" height="400" viewBox="0 0 400 400" xmlns="http://www.w3.org/2000/svg">
    <g id="Group">
        <path id="Path" fill="#ff6492" stroke="none" d="M 376.783875 100.643127 L 199.719437 0 L 199.719437 69.629333 L 376.783875 169.84024 L 376.783875 100.643127 Z"/>
        <path id="path1" fill="#141446" stroke="none" d="M 376.812988 169.868469 L 323.7164 200.217178 L 199.747665 129.894531 L 128.904602 169.926682 L 75.779793 141.774353 L 199.776764 69.659302 L 376.812988 169.868469 Z"/>
        <path id="path2" fill="#a14474" stroke="none" d="M 128.904602 169.896698 L 75.779793 141.774353 L 75.779793 200.188965 L 128.904602 169.896698 Z"/>
        <path id="path3" fill="#141446" stroke="none" d="M 22.625 299.791229 L 199.719437 200.217178 L 376.812988 299.791229 L 199.719437 400.406128 L 22.625 299.791229 Z"/>
        <path id="path4" fill="#ff6492" stroke="none" d="M 376.783875 230.682327 L 199.690323 128.795471 L 199.690323 200.217178 L 376.783875 299.763 L 376.783875 230.682327 Z"/>
        <path id="path5" fill="#7a77ff" stroke="none" d="M 75.750687 200.188965 L 75.750687 141.744354 L 199.747665 69.629333 L 199.747665 0 L 22.625 100.643127 L 22.625 299.733032 L 199.719437 200.188965 L 199.719437 128.767242 L 75.750687 200.188965 Z"/>
    </g>
</svg>
