<?xml version="1.0" encoding="UTF-8"?>
<!-- Generated by Pixelmator Pro 3.2.3 -->
<svg width="400" height="400" viewBox="0 0 400 400" xmlns="http://www.w3.org/2000/svg" xmlns:xlink="http://www.w3.org/1999/xlink">
    <g id="Dagster-copy">
        <path id="Path" fill="#4f43dd" stroke="none" d="M 133.70459 384.282318 C 133.759979 391.165771 138.119125 397.276978 144.609222 399.572083 C 146.717804 400.315399 148.958649 400.608398 151.1875 400.431152 C 235.845505 394.386871 315.821991 334.441345 341.364624 240.863403 C 342.697998 235.470215 346.757599 232.775421 352.120941 232.775421 C 357.861176 233.015961 362.346466 237.817749 362.195679 243.560013 C 362.195679 264.422028 335.378906 318.974335 297.005707 350.620941 C 293.021393 353.930664 290.790283 358.895203 290.960754 364.073181 C 291.13913 372.801422 298.352203 379.735535 307.080658 379.570953 C 310.458649 379.570953 315.821991 377.556183 322.54834 371.48114 C 349.365112 347.242523 400.480011 279.237946 400.480011 204.476501 C 400.480011 94.89801 315.792389 0.460999 197.531555 0.460999 C 92.042282 0.460999 0.628081 86.659912 0.628081 186.312897 C 0.628081 252.302704 53.07634 302.112915 122.266655 302.112915 C 175.367142 302.112915 224.437408 264.422028 237.890106 212.566299 C 239.223709 207.173111 243.223846 204.476501 248.616821 204.476501 C 254.350037 204.731522 258.826508 209.524261 258.691772 215.262909 C 258.691772 238.819702 214.362473 321.048798 124.281647 321.048798 C 102.798607 321.048798 75.9226 314.973755 57.076702 304.187378 C 54.55508 302.973816 51.812592 302.28833 49.016747 302.172607 C 44.679085 301.960999 40.459656 303.623077 37.430729 306.735657 C 34.367668 309.795776 32.723663 313.9953 32.897064 318.321442 C 33.069782 323.908142 36.118378 329.006561 40.957016 331.804443 C 65.847656 345.998199 95.390648 353.346497 125.644867 353.346497 C 200.909775 353.346497 269.44809 302.172607 289.62738 226.760071 C 290.960754 221.366867 294.990723 218.670273 300.354095 218.670273 C 306.08728 218.925278 310.563538 223.718033 310.429016 229.454865 C 310.429016 260.421448 255.343399 360.103363 149.172516 368.162415 C 140.68573 368.858704 134.050262 375.772919 133.70459 384.282318 Z"/>
        <path id="path1" fill="#ffffff" stroke="none" d="M 238.89772 126.396332 C 253.387634 126.307709 267.640625 130.308289 279.908264 137.953156 C 281.152802 131.167358 281.8638 124.264008 281.982483 117.329895 C 281.982483 85.355927 257.595306 56.731476 227.933853 56.731476 C 204.880295 56.731476 190.4496 75.844574 190.4496 99.46109 C 190.331131 112.233307 194.805573 124.589539 203.07283 134.308868 C 214.244003 128.973541 226.48201 126.278748 238.89772 126.396332 Z"/>
        <path id="path2" fill="#352d8e" stroke="none" d="M 308.354797 242.138458 C 312.444 228.062256 314.281067 218.285049 314.281067 211.944153 C 313.997803 206.250732 309.312683 201.774475 303.613586 201.750977 C 298.363739 201.877579 293.860138 205.529099 292.64975 210.640167 C 291.553497 215.262909 289.15329 227.796387 286.782684 235.737885 C 287.760681 232.775421 288.67923 229.751465 289.449677 226.669647 C 290.812683 221.276443 294.872253 218.58165 300.235626 218.58165 C 305.968597 218.83847 310.445068 223.62941 310.310333 229.368042 C 310.179443 233.705032 309.482239 238.00946 308.236115 242.167404 L 308.325195 242.138458 Z M 365.54425 227.47084 C 365.368835 223.383438 362.871857 219.757233 359.116333 218.134933 C 355.361023 216.512634 351.008911 217.181808 347.913269 219.854904 C 345.931061 221.459106 344.543671 223.681854 343.972168 226.166855 C 342.816467 230.908966 340.386627 243.61969 337.986633 251.561188 L 338.105103 251.561188 C 339.260803 248.034439 340.357025 244.449829 341.246155 240.805527 C 342.579529 235.412338 346.63913 232.715744 352.002502 232.715744 C 357.742706 232.956284 362.227997 237.758072 362.077209 243.50032 C 362.002594 246.851624 361.545258 250.181229 360.714203 253.427643 C 364.062592 241.664612 365.514648 233.18959 365.514648 227.47084 Z"/>
        <path id="path3" fill="#163b36" stroke="none" d="M 238.89772 126.427063 C 246.106277 126.3909 253.285233 127.347626 260.232666 129.270172 C 267.639069 119.00824 266.883514 104.970032 258.418457 95.563568 C 249.953369 86.157135 236.072479 83.928955 225.089172 90.215607 L 236.141891 108.409943 L 215.429306 99.46109 C 209.665573 108.701141 210.039948 120.503967 216.377457 129.360596 C 223.726181 127.374756 231.311844 126.367371 238.89772 126.427063 Z"/>
        <path id="path4" fill="#352d8e" stroke="none" d="M 79.537727 243.413513 C 88.260307 243.404465 95.32486 236.327484 95.316498 227.602875 C 95.308357 218.881882 88.23069 211.817551 79.508118 211.824783 C 70.785316 211.824783 63.714203 218.896347 63.714203 227.619141 C 63.714203 236.341949 70.785316 243.413513 79.508118 243.413513 Z M 79.537727 180.297546 C 88.260307 180.288498 95.32486 173.211517 95.316498 164.488708 C 95.308357 155.765915 88.23069 148.701584 79.508118 148.708817 C 70.785316 148.708817 63.714203 155.78038 63.714203 164.503189 C 63.714203 173.225983 70.785316 180.297546 79.508118 180.297546 Z M 48.009365 211.88446 C 56.731937 211.88446 63.803051 204.812897 63.803051 196.090103 C 63.803051 187.36731 56.731937 180.297546 48.009365 180.297546 C 39.286789 180.297546 32.215679 187.36731 32.215679 196.090103 C 32.215679 204.812897 39.286789 211.88446 48.009365 211.88446 Z"/>
        <path id="path5" fill="#352d8e" stroke="none" d="M 118.977524 302.141846 L 122.118584 302.141846 C 175.218826 302.141846 224.289108 264.422028 237.742035 212.566299 C 239.075409 207.202042 243.075775 204.505447 248.46875 204.505447 C 254.218918 204.698959 258.726593 209.511612 258.543701 215.262909 C 258.336151 220.773651 257.062012 226.195786 254.898941 231.263443 C 255.268341 230.675659 255.595245 230.06073 255.876709 229.425919 C 259.875031 220.298004 261.943146 210.441223 261.951294 200.475922 C 261.951294 184.978165 251.165344 174.873611 235.727051 174.873611 C 208.791809 174.873611 203.398834 198.401474 192.049744 223.558884 C 180.256195 249.663971 158.595459 277.903198 104.013527 277.903198 C 47.268524 277.903198 -11.017165 238.168625 3.205992 157.361084 L 3.620836 154.635544 C 1.546616 165.065659 0.480003 175.674805 0.480003 186.312897 C 0.628081 251.353195 51.446579 300.600952 118.977524 302.141846 Z"/>
    </g>
</svg>
