<?xml version="1.0" encoding="UTF-8"?>
<!-- Generated by Pixelmator Pro 3.6.17 -->
<svg width="400" height="400" viewBox="0 0 400 400" xmlns="http://www.w3.org/2000/svg">
    <g id="Group">
        <g id="g1">
            <path id="Path" fill="#669df6" fill-rule="evenodd" stroke="none" d="M 235.800003 60.799988 L 230.400009 42 L 202.199997 40.599976 L 167.800003 59.799988 L 198.199997 89.799988 L 197.800003 124.399994 L 218.200012 124.599976 L 218.600006 90 L 303.399994 141.199982 L 303.200012 162.599991 L 338.600006 163.199997 L 338.600006 122.199982 L 235.800003 60.799988 Z"/>
            <path id="path1" fill="#aecbfa" fill-rule="evenodd" stroke="none" d="M 202.199997 40.599976 L 202.199997 40.599976 L 202 40.599976 L 173.600006 47.599976 L 167.800003 59.799988 L 62.599991 118.399994 L 61.999992 159.400009 L 97.599998 160 L 97.999992 138.600006 L 184.199997 89.600006 L 183.800003 124.200012 L 201.000015 124.399994 L 202.199997 40.599976 Z"/>
            <path id="path2" fill="#669df6" fill-rule="evenodd" stroke="none" d="M 202.199997 40.599976 L 202.199997 40.599976 L 202 40.599976 L 133.799988 0 L 98.999985 18.999969 L 167.800003 59.799988 L 202.199997 40.599976 L 202.199997 40.599976 Z"/>
            <path id="path3" fill="#669df6" fill-rule="evenodd" stroke="none" d="M 301.800018 261.200012 L 215.800003 310.200012 L 216.199997 275.800018 L 181.800018 275.400024 L 181.399994 309.799988 L 197.800003 359.399994 L 226.200012 357.000031 L 232.000015 340 L 337.399994 281.399994 L 338 239.600006 L 302.200043 239.200012 L 301.800018 261.200012 Z"/>
            <path id="path4" fill="#669df6" fill-rule="evenodd" stroke="none" d="M 197.800003 359.399994 L 197.800003 359.399994 L 197.800003 359.399994 L 128.599991 398.200012 L 127.599998 398.200012 L 94.399994 378.400024 L 164.199997 339.199982 L 197.800003 359.399994 L 197.800003 359.399994 Z"/>
            <path id="path5" fill="#4285f4" fill-rule="evenodd" stroke="none" d="M 235.800003 60.799988 L 305.600006 21.600006 L 272.400024 1.799988 L 271.399994 1.799988 L 202.199997 40.599976 L 235.800003 60.799988 Z"/>
            <path id="path6" fill="#4285f4" fill-rule="evenodd" stroke="none" d="M 232.199997 340.200012 L 301 381 L 267.200012 400 L 266.200012 400 L 197.800003 359.399994 L 197.800003 359.399994 L 197.800003 359.399994 L 197.800003 359.399994 L 232.199997 340.200012 Z"/>
            <path id="path7" fill="#aecbfa" fill-rule="evenodd" stroke="none" d="M 197.800003 359.199982 L 164.199997 339.199982 L 61.399994 277.800018 L 61.399994 237.800003 L 96.599998 237.800003 L 96.400002 258.600037 L 181.399994 309.799988 L 181.800018 275.400024 L 198.999985 275.600006 L 197.800003 359.199982 Z"/>
            <path id="Oval" fill="#aecbfa" stroke="none" d="M 345.200012 200.800003 C 345.200012 213.392075 334.992096 223.600006 322.399994 223.600006 C 309.807922 223.600006 299.600006 213.392075 299.600006 200.800003 C 299.600006 188.207916 309.807922 177.999985 322.399994 177.999985 C 334.992096 177.999985 345.200012 188.207916 345.200012 200.800003 Z"/>
            <path id="path8" fill="#aecbfa" stroke="none" d="M 100.399994 197.600006 C 100.399994 210.192093 90.192085 220.400024 77.599991 220.400024 C 65.007904 220.400024 54.799992 210.192093 54.799992 197.600006 C 54.799992 185.007904 65.007904 174.800003 77.599991 174.800003 C 90.192085 174.800003 100.399994 185.007904 100.399994 197.600006 Z"/>
            <path id="path9" fill="#aecbfa" stroke="none" d="M 224 159.800003 C 224 172.392105 213.792084 182.599991 201.199997 182.599991 C 188.60791 182.599991 178.399994 172.392105 178.399994 159.800003 C 178.399994 147.207901 188.60791 137 201.199997 137 C 213.792084 137 224 147.207901 224 159.800003 Z"/>
            <path id="path10" fill="#aecbfa" stroke="none" d="M 222.199997 240 C 222.199997 252.592087 211.992096 262.800018 199.399994 262.800018 C 186.807892 262.800018 176.600006 252.592087 176.600006 240 C 176.600006 227.407928 186.807892 217.199997 199.399994 217.199997 C 211.992096 217.199997 222.199997 227.407928 222.199997 240 Z"/>
        </g>
    </g>
</svg>
