<?xml version="1.0" encoding="UTF-8"?>
<!-- Generated by Pixelmator Pro 3.6.17 -->
<svg width="400" height="400" viewBox="0 0 400 400" xmlns="http://www.w3.org/2000/svg">
    <g id="Group">
        <path id="Path" fill="#4285f4" stroke="none" d="M 400 215.200348 L 315.416779 299.988892 L 293.655029 278.021851 L 341.284424 230.597794 L 184.846497 230.597794 L 184.846497 199.802917 L 341.284424 199.802917 L 293.655029 152.173492 L 315.416779 130.411804 L 400 215.200348 Z"/>
        <path id="path1" fill="#aecbfa" stroke="none" d="M 195.316757 48.292145 L 201.475708 54.451141 L 201.475708 73.749237 L 195.316757 79.908203 C 151.631424 81.916565 114.786049 113.112885 105.601036 155.868896 L 102.932137 166.339157 L 92.256584 167.365646 C 59.071167 169.28978 32.590988 195.769958 30.666847 228.955383 C 30.463335 231.757446 30.463335 234.570572 30.666847 237.372665 L 5.415053 258.518463 C 1.638983 248.83226 -0.310027 238.530365 -0.333324 228.134201 C 1.300172 183.187302 34.340736 145.598267 78.706841 138.213165 C 94.098877 86.215668 141.114624 49.960571 195.316757 48.292145 Z"/>
        <path id="path2" fill="#4285f4" stroke="none" d="M 241.303757 308.816772 L 84.660522 308.816772 L 132.289917 356.446167 L 110.528206 378.207855 L 25.739668 293.419312 L 110.528206 208.630768 L 132.289917 230.597794 L 84.660522 278.021851 L 241.303757 278.021851 L 241.303757 308.816772 Z"/>
        <path id="path3" fill="#669df6" stroke="none" d="M 295.092133 104.338806 L 272.509247 124.868713 C 256.770966 96.834015 227.455231 79.135406 195.316757 78.265808 L 195.316757 48.292145 C 235.880219 49.02124 273.364746 70.077362 295.092133 104.338806 Z"/>
    </g>
</svg>
