<?xml version="1.0" encoding="UTF-8"?>
<svg width="400" height="400" viewBox="0 0 400 400" xmlns="http://www.w3.org/2000/svg">
    <g id="Layer2">
        <path id="Path" fill="none" stroke="#000000" stroke-width="2.053861" stroke-linecap="round" stroke-dasharray="2.053861 8.215444" stroke-dashoffset="0" d="M 289.16571 257.664185 C 332.981415 314.405487 358.011078 357.810425 349.412292 365.396057"/>
        <path id="path1" fill="none" stroke="#000000" stroke-width="2.053861" stroke-linecap="round" stroke-dasharray="2.053861 8.215444" stroke-dashoffset="0" d="M 89.201805 50.38855 C 107.138824 62.46524 132.551971 84.537384 161.579849 113.373627"/>
        <path id="path2" fill="none" stroke="#000000" stroke-width="2.053861" stroke-linecap="round" stroke-dasharray="2.053861 8.215444" stroke-dashoffset="0" d="M 349.439636 41.21463 C 357.46344 49.238373 331.502625 93.546997 289.193054 148.782166"/>
        <path id="path3" fill="none" stroke="#000000" stroke-width="2.053861" stroke-linecap="round" stroke-dasharray="2.053861 8.215444" stroke-dashoffset="0" d="M 156.541046 298.549713 C 110.260696 343.707275 71.648132 372.488708 63.43269 365.396057"/>
        <path id="path4" fill="none" stroke="#000000" stroke-width="2.053861" stroke-linecap="round" stroke-dasharray="2.053861 8.215444" stroke-dashoffset="0" d="M 206.299255 0.87677 C 216.869797 0.87677 226.153244 51.018402 231.246811 110.087433"/>
        <path id="path5" fill="none" stroke="#000000" stroke-width="2.053861" stroke-linecap="round" stroke-dasharray="2.053861 8.215444" stroke-dashoffset="0" d="M 230.370483 297.372162 C 225.140015 349.40332 216.349472 399.35318 206.408768 399.35318"/>
        <path id="path6" fill="#f3971f" stroke="none" d="M 206.299255 100.447998 C 225.753143 100.514679 244.820877 105.882813 261.452271 115.975159 C 270.511749 121.329742 278.694824 128.044281 285.71521 135.883911 C 293.14917 144.462708 298.916626 154.353683 302.721161 165.048752 C 307.172699 177.268326 309.380646 190.191406 309.238739 203.195786 C 309.074453 231.347377 300.265676 254.779653 282.812408 273.492615 C 263.405701 294.724955 237.901316 305.61498 206.299255 306.162689 C 197.005478 306.131409 187.754791 304.89801 178.777512 302.493134 C 158.878601 296.92865 140.974335 285.815674 127.157158 270.452881 C 119.706856 261.891296 113.929123 252.007828 110.123802 241.315445 C 105.647736 229.101654 103.429993 216.175705 103.578835 203.168396 C 103.578835 173.757111 113.428233 149.28422 133.127029 129.749725 C 152.825851 110.21524 177.216593 100.447998 206.299255 100.447998 Z M 206.299255 113.264069 C 192.900772 113.032257 179.62413 115.841125 167.467606 121.479523 C 156.672211 126.436005 147.189651 133.855072 139.781555 143.1409 C 133.007935 151.817093 127.67292 161.525589 123.980515 171.894943 C 120.377647 181.900497 118.524902 192.451813 118.503548 203.086243 C 118.503548 228.882731 126.764638 250.361552 143.286819 267.522705 C 159.808965 284.683858 180.803986 293.264435 206.271881 293.264435 C 223.066055 293.590118 239.589584 289.00238 253.81192 280.064941 C 266.890625 271.934998 277.452515 260.3302 284.318604 246.545959 C 290.945374 233.021988 294.347992 218.146286 294.259247 203.086243 C 294.259247 176.924622 285.998179 155.445801 269.476044 138.64978 C 252.953857 121.85378 231.894928 113.391876 206.299255 113.264069 Z"/>
        <path id="path7" fill="#000000" stroke="none" d="M 59.763134 32.780121 C 62.413532 32.465668 65.063217 33.372437 66.965309 35.24472 C 68.737289 37.171326 69.672874 39.722015 69.566902 42.337402 C 69.639656 44.883789 68.647156 47.345123 66.828423 49.128845 C 64.956703 50.984619 62.39661 51.976929 59.763134 51.86731 C 55.874664 51.85849 52.372253 49.514191 50.88179 45.922729 C 49.391331 42.331238 50.204693 38.195892 52.944302 35.436432 C 54.755848 33.651947 57.221802 32.691315 59.763134 32.780121 Z"/>
        <path id="path8" fill="#000000" stroke="none" d="M 349.959961 365.9711 C 347.978882 367.368286 345.470886 367.791321 343.141174 367.121246 C 340.987091 366.661652 338.885773 365.982605 336.870026 365.094818 C 332.931427 363.32074 329.132446 361.251892 325.505341 358.905823 C 318.270691 354.283966 311.27832 349.293335 304.555969 343.953735 C 291.082611 333.383179 278.32132 322.045868 265.779053 310.325195 C 240.721985 287.048096 217.061462 262.346985 194.058243 237.070816 C 171.055008 211.794617 149.037598 185.614746 127.951302 158.695465 C 117.490313 145.167369 107.376188 131.374552 97.608925 117.317017 C 87.774612 103.26416 78.794441 88.632507 70.717064 73.501312 C 70.384315 72.888794 70.61113 72.122498 71.223671 71.789764 C 71.836212 71.457062 72.602486 71.683868 72.935226 72.296387 L 72.935226 72.296387 C 77.207245 79.662903 81.780502 86.810333 86.463326 93.903015 C 91.146111 100.995667 96.102753 107.924011 101.086807 114.825012 C 111.000099 128.517426 121.433701 142.209808 132.004242 155.464066 C 153.090576 182.19165 175.327042 208.015518 197.946869 233.510773 C 220.566757 259.006042 244.199814 283.625 268.627075 307.449768 C 280.868073 319.280029 293.437744 330.781647 306.500275 341.653412 C 312.99881 347.115967 319.771637 352.243561 326.792419 357.016296 C 330.298187 359.375641 333.957611 361.498138 337.746338 363.369537 C 339.605164 364.274017 341.55011 364.989624 343.55191 365.505554 C 345.372864 366.132477 347.377838 365.921967 349.02887 364.930511 L 349.02887 364.930511 C 349.335571 364.638367 349.817535 364.638367 350.124268 364.930511 C 350.354156 365.266052 350.282135 365.722717 349.959961 365.9711 Z"/>
        <path id="path9" fill="#000000" stroke="none" d="M 349.193176 41.488464 C 347.287567 40.375702 344.978149 40.194183 342.922119 40.995544 C 340.738892 41.608734 338.62735 42.453308 336.623566 43.514954 C 332.549774 45.627899 328.624664 48.01593 324.875458 50.662384 C 317.317291 55.892883 310.142487 61.616333 303.131897 67.668365 C 289.083557 79.608154 275.582825 92.314697 262.43811 105.158173 C 236.25824 131.173737 210.872513 158.010849 186.609558 185.833801 C 162.346619 213.656784 138.521835 241.890518 116.257973 271.329193 C 105.030228 285.952698 94.158455 300.877441 84.108231 316.322449 C 79.096809 324.044952 74.194901 331.84964 69.950287 339.982941 C 67.792091 344.014282 65.907417 348.186188 64.308983 352.470398 C 63.532516 354.58255 62.963894 356.765411 62.611137 358.988007 C 62.088394 361.069824 62.564129 363.276367 63.898228 364.957886 L 63.898228 364.957886 C 64.138161 365.211304 64.138161 365.608093 63.898228 365.861572 C 63.663307 366.094788 63.284225 366.094788 63.049305 365.861572 C 62.07682 364.98053 61.438374 363.79071 61.241898 362.493256 C 61.006432 361.284515 60.960217 360.04657 61.104965 358.823669 C 61.334663 356.459259 61.821342 354.126923 62.556355 351.86792 C 64.007416 347.416107 65.764221 343.069824 67.814232 338.860138 C 71.873985 330.501221 76.361916 322.357147 81.260185 314.460266 C 91.036583 298.659241 101.634499 283.433289 112.56105 268.453796 C 123.487564 253.474304 135.043961 238.987732 146.737289 224.638107 C 158.430603 210.288452 170.370392 196.103119 182.720932 182.301178 C 195.071457 168.499237 207.558975 154.916367 220.347672 141.443024 C 233.136368 127.969696 246.198944 114.907166 259.699646 102.200623 C 273.200317 89.494049 287.084442 77.06134 301.434052 65.47757 C 308.656097 59.625122 316.169098 54.141174 323.944366 49.046692 C 327.841919 46.483246 331.913879 44.195618 336.130646 42.2005 C 338.265259 41.210388 340.494873 40.439667 342.785156 39.900146 C 345.148041 39.120087 347.739532 39.484497 349.795654 40.885986 C 349.943481 40.951141 350.034668 41.101898 350.02356 41.263062 C 350.012512 41.424194 349.901703 41.561188 349.746338 41.605499 C 349.591064 41.649872 349.424591 41.592102 349.330139 41.46109 Z"/>
        <path id="path10" fill="#000000" stroke="none" d="M 206.299255 1.698334 C 204.280075 1.881989 202.367065 2.685486 200.822281 3.998657 C 199.287735 5.403442 197.935349 6.995026 196.796722 8.736267 C 194.450607 12.305511 192.512405 16.126801 191.018524 20.128296 C 187.936981 28.145935 185.465347 36.384827 183.624634 44.774689 C 179.779663 61.664429 176.917694 78.763 175.053177 95.984253 C 171.161102 130.467865 169.332214 165.153152 169.576202 199.854843 C 169.576202 217.216812 170.050878 234.560527 171.000229 251.885986 C 171.876526 269.220581 173.218399 286.527771 175.217468 303.752808 C 177.005615 321.006897 179.748322 338.148712 183.432922 355.099335 C 185.301086 363.553619 187.772003 371.863342 190.826843 379.964752 C 192.325256 383.992859 194.233994 387.856171 196.522858 391.493774 C 197.097946 392.424835 197.809937 393.219025 198.412415 394.067932 C 199.109436 394.874451 199.84993 395.642365 200.630569 396.368256 C 201.460693 397.043304 202.382782 397.596588 203.369049 398.011353 C 203.818878 398.25296 204.297287 398.436981 204.793076 398.559052 C 205.371979 398.533447 205.932831 398.763794 206.326614 399.188904 L 206.326614 399.188904 L 206.326614 399.188904 L 206.326614 399.188904 C 205.805176 399.499207 205.172073 399.559479 204.60141 399.35318 C 204.038422 399.267487 203.492905 399.091766 202.985672 398.832886 C 201.937225 398.377991 200.95224 397.788849 200.055511 397.080261 C 199.214493 396.344116 198.418884 395.557617 197.67305 394.725159 C 196.988434 393.848846 196.221664 393.027313 195.619186 392.123596 C 193.161926 388.466949 191.087967 384.566833 189.430191 380.485046 C 186.085907 372.390472 183.340027 364.06134 181.214752 355.564911 C 176.955719 338.619843 173.646118 321.450256 171.301468 304.136169 C 168.891586 286.856384 167.166367 269.494415 165.824509 252.105072 C 164.482635 234.715714 164.071869 217.244186 163.962311 199.800079 C 163.852798 182.355942 164.455261 164.884445 165.468491 147.467697 C 166.48175 130.050964 167.933136 112.634216 170.342972 95.436554 C 172.592392 78.09198 175.847519 60.892731 180.091965 43.92572 C 182.26683 35.411407 185.077103 27.072174 188.499115 18.978149 C 190.20491 14.880066 192.363434 10.985504 194.93457 7.367004 C 196.260101 5.515991 197.825577 3.849182 199.589981 2.41037 C 201.476242 0.942108 203.774002 0.099579 206.162323 0.000488 C 206.375214 -0.007294 206.581772 0.073914 206.732407 0.224548 C 206.883041 0.375214 206.964233 0.581726 206.956497 0.794647 C 206.97229 1.223236 206.644943 1.586884 206.217102 1.61618 Z"/>
        <path id="path11" fill="#f29720" stroke="none" d="M 59.735725 30.561951 C 63.004303 30.17807 66.272255 31.284149 68.635788 33.574249 C 70.821442 35.956177 71.973648 39.107452 71.839806 42.337402 C 71.927094 45.484863 70.707825 48.528046 68.471489 50.744537 C 66.14489 53.018066 62.986416 54.235901 59.735725 54.112885 C 53.232334 54.112885 47.960247 48.84082 47.960247 42.337402 C 47.960247 35.833984 53.232334 30.561951 59.735725 30.561951 Z"/>
    </g>
</svg>
