<?xml version="1.0" encoding="UTF-8"?>
<!-- Generated by Pixelmator Pro 3.2.3 -->
<svg width="400" height="400" viewBox="0 0 400 400" xmlns="http://www.w3.org/2000/svg" xmlns:xlink="http://www.w3.org/1999/xlink">
    <path id="Path" fill="#3d75ff" stroke="none" d="M 48.881771 399.428436 C 47.776005 399.44931 46.675137 399.275635 45.629768 398.91391 C 43.539356 398.177368 41.725143 396.819244 40.430351 395.019745 C 37.863613 391.184326 37.931522 386.161835 40.601749 382.396942 L 114.845108 281.836548 L 47.897453 210.439407 C 46.032963 208.449234 44.993145 205.826996 44.987919 203.100281 L 44.987919 10.773407 C 44.987267 4.934753 49.676735 0.17868 55.514408 0.097717 C 56.204899 0.03241 56.899635 0.03241 57.589802 0.097717 C 59.558437 0.567841 61.355675 1.594269 62.767673 3.028137 L 154.063385 95.75708 L 191.613083 6.58017 C 193.209213 2.636353 197.051147 0.066376 201.30542 0.097717 C 205.602463 0.146027 209.446365 2.781311 211.040207 6.772125 L 247.712662 99.09494 L 276.597076 69.761932 C 278.015289 68.309784 279.819397 67.292511 281.796173 66.8302 C 283.86145 66.721832 285.929016 66.998688 287.894043 67.643799 L 333.744995 87.605682 C 335.114532 88.184204 336.312683 89.060455 337.318237 90.173065 C 338.336182 91.27655 339.096527 92.591583 339.543488 94.02417 L 359.120453 153.719193 C 359.66861 155.364624 359.829559 157.114517 359.591248 158.831772 C 358.884094 164.044907 354.431335 167.929947 349.171509 167.926025 L 346.796417 167.668762 L 294.376831 156.991776 L 294.376831 243.516403 C 294.378784 244.907181 294.094757 246.283585 293.542358 247.56076 C 293.036652 248.86795 292.264221 250.055008 291.274353 251.048798 L 193.388763 350.49527 C 192.23175 351.673187 190.807999 352.553345 189.237976 353.062653 L 52.091007 399.53421 C 51.018867 399.876343 49.900043 400.050049 48.774689 400.048737 Z M 77.680656 367.891083 L 167.285904 337.572144 L 129.479599 297.520355 Z M 75.134491 208.428329 L 177.94101 317.995483 L 190.992447 174.387589 Z M 199.443878 313.930237 L 269.301056 242.896103 L 211.190063 183.865768 L 199.422318 313.930237 Z M 217.416245 160.073685 L 273.66568 217.200027 L 273.66568 102.946014 L 217.39502 160.073685 Z M 66.169525 189.000549 L 182.198883 154.681641 L 65.912918 36.726746 L 66.191071 189.000549 Z M 170.495453 112.382416 L 202.546356 144.989288 L 231.751373 115.399048 L 201.198334 38.716919 Z M 294.80484 134.783722 L 333.852051 142.743164 L 321.100342 104.829132 L 294.483917 93.147888 L 294.783295 134.783722 Z"/>
</svg>
