<?xml version="1.0" encoding="UTF-8"?>
<!-- Generated by Pixelmator Pro 3.2.3 -->
<svg width="400" height="400" viewBox="0 0 400 400" xmlns="http://www.w3.org/2000/svg" xmlns:xlink="http://www.w3.org/1999/xlink">
    <g id="Group">
        <path id="Path" fill="#c6d300" stroke="none" d="M 400.390015 311.54895 L 355.578705 311.54895 L 355.578705 355.981964 L 400.390015 355.981964 L 400.390015 311.54895 Z"/>
        <path id="path1" fill="#59c1d5" stroke="none" d="M 355.556946 89.477692 L 355.556946 45.046021 L 310.745636 45.046021 L 310.745636 311.570709 L 355.556946 311.570709 L 355.556946 178.297485 L 400.390015 178.297485 L 400.390015 133.887573 L 355.556946 133.887573 L 355.556946 89.477692 Z M 222.81778 89.477692 L 222.81778 355.981964 L 267.629089 355.981964 L 267.629089 45.046021 L 222.81778 45.046021 L 222.81778 89.477692 Z M 134.867493 89.477692 L 134.867493 133.887573 L 45.223095 133.887573 L 45.223095 178.297485 L 134.867493 178.297485 L 134.867493 311.570709 L 45.223095 311.570709 L 45.223095 355.981964 L 179.678802 355.981964 L 179.678802 45.046021 L 134.867493 45.046021 L 134.867493 89.477692 Z M 45.223095 222.729156 L 45.223095 178.31926 L 0.390015 178.31926 L 0.390015 311.570709 L 45.223095 311.570709 L 45.223095 222.729156 Z"/>
    </g>
</svg>
