<?xml version="1.0" encoding="UTF-8"?>
<svg version="1.1" xmlns="http://www.w3.org/2000/svg" width="400" height="400">
<path d="M0 0 C0.06969602 11.17064371 0.12291057 22.34123517 0.15543652 33.51205254 C0.17105209 38.69984527 0.19221499 43.88748856 0.22631836 49.07519531 C0.25905873 54.08727602 0.27688387 59.09921353 0.28463173 64.11139297 C0.29014898 66.01783627 0.30092249 67.92427227 0.31719017 69.83065414 C0.43722456 84.48824368 0.02354896 95.65186295 -10.62890625 106.6875 C-18.5013009 113.99366673 -27.28422753 116.12031345 -37.75 116.2109375 C-39.55599993 116.23666996 -41.36198931 116.26315096 -43.16796875 116.2902832 C-44.11849121 116.30354645 -45.06901367 116.31680969 -46.04833984 116.33047485 C-116.37705941 117.39136817 -200.12491058 124.67976428 -252.51660156 177.46142578 C-260.93211755 186.18996129 -267.71673655 195.6520081 -274 206 C-274.66 205.67 -275.32 205.34 -276 205 C-275.08481897 150.54925679 -272.21722052 93.21722052 -231.42578125 52.42578125 C-221.97717544 43.68915829 -211.3232203 37.02958584 -200 31 C-199.37802734 30.6685498 -198.75605469 30.33709961 -198.11523438 29.99560547 C-139.59691296 -0.59351709 -64.40638355 -0.13688878 0 0 Z " fill="#5174EA" transform="translate(337,24)"/>
<path d="M0 0 C1.91772444 0.00188503 3.83544907 0.00359534 5.75317383 0.00512695 C10.40576624 0.00921766 15.05834983 0.01566745 19.7109375 0.0234375 C19.80387101 11.06366507 19.87482074 22.10379863 19.91818619 33.14433861 C19.93900597 38.27165989 19.96722064 43.39871232 20.01269531 48.52587891 C20.05635374 53.47961675 20.08011674 58.433097 20.09044647 63.38701248 C20.09780208 65.27114539 20.11216545 67.15526518 20.13385773 69.03928757 C20.28270665 82.51045312 19.59332826 93.81163371 9.7109375 104.0234375 C0.2632666 111.88461272 -8.92796248 113.41485379 -20.9826355 113.50479126 C-24.72886145 113.53775749 -28.47359541 113.62990588 -32.21875 113.72265625 C-33.01967575 113.74224899 -33.8206015 113.76184174 -34.64579773 113.7820282 C-76.70647035 114.91715649 -119.41365623 118.80737103 -159.2890625 133.0234375 C-160.04477539 133.29269043 -160.80048828 133.56194336 -161.57910156 133.83935547 C-183.94176691 141.93129584 -204.71897255 152.84222132 -222.2890625 169.0234375 C-222.79920898 169.48443848 -223.30935547 169.94543945 -223.83496094 170.42041016 C-233.37228338 179.11406964 -241.63847071 189.35811176 -247.2890625 201.0234375 C-248.2790625 201.0234375 -249.2690625 201.0234375 -250.2890625 201.0234375 C-249.40163816 148.22414048 -247.0141683 90.76627146 -207.08666992 51.4050293 C-164.9047508 11.39477389 -99.66009289 4.78940639 -44.2890625 1.0234375 C-43.03125977 0.93666748 -43.03125977 0.93666748 -41.74804688 0.84814453 C-27.83886896 -0.05397113 -13.93111496 -0.02397471 0 0 Z " fill="#6DD4D5" transform="translate(311.2890625,173.9765625)"/>
<path d="M0 0 C1.22103928 0.00007553 2.44207855 0.00015106 3.70011902 0.00022888 C5.0189357 0.00539017 6.33775238 0.01055145 7.6965332 0.01586914 C9.05988005 0.01773459 10.42322756 0.01915789 11.78657532 0.02015686 C15.37209936 0.02397207 18.9575828 0.03379384 22.54309082 0.04486084 C26.20295665 0.05509638 29.86282905 0.05965907 33.52270508 0.06469727 C40.70176003 0.07541701 47.88078155 0.09248146 55.05981445 0.11352539 C55.05981445 0.44352539 55.05981445 0.77352539 55.05981445 1.11352539 C53.91544922 1.12810791 52.77108398 1.14269043 51.59204102 1.15771484 C9.40980375 1.73441429 -32.32723978 3.70238564 -73.45581055 13.84399414 C-77.95041606 14.93516558 -82.33939512 15.65674835 -86.94018555 16.11352539 C-86.61018555 15.45352539 -86.28018555 14.79352539 -85.94018555 14.11352539 C-85.28018555 14.11352539 -84.62018555 14.11352539 -83.94018555 14.11352539 C-83.94018555 13.45352539 -83.94018555 12.79352539 -83.94018555 12.11352539 C-81.63018555 12.11352539 -79.32018555 12.11352539 -76.94018555 12.11352539 C-76.94018555 11.45352539 -76.94018555 10.79352539 -76.94018555 10.11352539 C-73.97018555 10.11352539 -71.00018555 10.11352539 -67.94018555 10.11352539 C-67.94018555 9.45352539 -67.94018555 8.79352539 -67.94018555 8.11352539 C-67.12751221 8.0278833 -66.31483887 7.94224121 -65.47753906 7.85400391 C-61.81875714 7.46587583 -58.16072981 7.07104273 -54.50268555 6.67602539 C-53.22329102 6.54131836 -51.94389648 6.40661133 -50.62573242 6.26782227 C-49.41079102 6.13569336 -48.19584961 6.00356445 -46.9440918 5.86743164 C-45.25521851 5.68676147 -45.25521851 5.68676147 -43.53222656 5.50244141 C-41.01598682 5.38744591 -41.01598682 5.38744591 -39.94018555 4.11352539 C-37.91218765 3.88819229 -35.88343681 3.66585354 -33.8503418 3.49243164 C-31.70729075 3.25130312 -31.70729075 3.25130312 -29.94018555 1.11352539 C-27.83300781 0.90234375 -27.83300781 0.90234375 -25.2565918 0.95336914 C-24.32911133 0.96432617 -23.40163086 0.9752832 -22.44604492 0.98657227 C-21.47473633 1.0078418 -20.50342773 1.02911133 -19.50268555 1.05102539 C-17.58739669 1.08547762 -15.672024 1.11561362 -13.7565918 1.14086914 C-12.47957397 1.1678186 -12.47957397 1.1678186 -11.17675781 1.1953125 C-7.34194805 1.05508095 -3.95853864 -0.00816194 0 0 Z " fill="#90A4E7" transform="translate(252.940185546875,138.886474609375)"/>
<path d="M0 0 C13.53 0 27.06 0 41 0 C41.08021762 21.22201667 41.08021762 21.22201667 41.09765625 30.27734375 C41.10960565 36.45299726 41.12373284 42.62859138 41.15087891 48.80419922 C41.17263053 53.78383408 41.18457356 58.76340524 41.18975449 63.74308395 C41.19344606 65.64165626 41.20065478 67.54022514 41.21146011 69.43877029 C41.22600579 72.10069528 41.22797665 74.76235799 41.22705078 77.42431641 C41.23424133 78.20690826 41.24143188 78.98950012 41.24884033 79.79580688 C41.23211442 84.24820705 40.65515979 87.86294597 39 92 C38.67 92 38.34 92 38 92 C37.875 85.375 37.875 85.375 39 82 C39.11972619 79.40005141 39.18527241 76.82483265 39.20532227 74.22387695 C39.21522186 73.43339966 39.22512146 72.64292236 39.23532104 71.82849121 C39.26691393 69.21511838 39.29168474 66.60172737 39.31640625 63.98828125 C39.33697769 62.17652412 39.35797421 60.36477177 39.37937927 58.55302429 C39.43458035 53.78388336 39.48399831 49.01469926 39.53222656 44.2454834 C39.59128677 38.52354966 39.65750396 32.80169485 39.72252655 27.07982635 C39.82051138 18.3865991 39.90938432 9.69332127 40 1 C26.8 1 13.6 1 0 1 C0 0.67 0 0.34 0 0 Z " fill="#C3EEEE" transform="translate(290,174)"/>
<path d="M0 0 C0.33 0 0.66 0 1 0 C0.85761163 2.04190981 0.71092972 4.08352045 0.5625 6.125 C0.48128906 7.26195312 0.40007812 8.39890625 0.31640625 9.5703125 C0 13 0 13 -0.5 15.6171875 C-1.13873835 19.93865162 -1.23219619 24.1918505 -1.31640625 28.5546875 C-1.33718735 29.45623566 -1.35796844 30.35778381 -1.37937927 31.28665161 C-1.4444458 34.1493614 -1.50355914 37.01215819 -1.5625 39.875 C-1.60572607 41.82292544 -1.64934164 43.77084229 -1.69335938 45.71875 C-1.80008289 50.47907889 -1.90146964 55.23949476 -2 60 C-2.33 60 -2.66 60 -3 60 C-3 65.28 -3 70.56 -3 76 C-3.99 76 -4.98 76 -6 76 C-5.71384483 58.97455816 -5.23828671 42.01500673 -3.5625 25.0625 C-3.37917114 23.18389282 -3.37917114 23.18389282 -3.19213867 21.26733398 C-2.44621445 14.10617068 -1.41276397 7.06021355 0 0 Z " fill="#879EE7" transform="translate(67,153)"/>
<path d="M0 0 C0.33 0 0.66 0 1 0 C1.7250697 13.74508544 2.32917512 27.27882304 1 41 C1.66 41 2.32 41 3 41 C3.1546875 40.0409375 3.1546875 40.0409375 3.3125 39.0625 C3.539375 38.381875 3.76625 37.70125 4 37 C5.485 36.505 5.485 36.505 7 36 C5.43358249 40.30764815 3.31663844 44.06171464 1 48 C0.01 48 -0.98 48 -2 48 C-1.87988782 43.41410916 -1.75556738 38.82835654 -1.62768555 34.24267578 C-1.58491942 32.68932025 -1.54321662 31.13593499 -1.50268555 29.58251953 C-1.24382491 19.69468218 -0.80609957 9.86111985 0 0 Z " fill="#97D8D8" transform="translate(63,327)"/>
<path d="M0 0 C0 0.33 0 0.66 0 1 C-0.67651611 1.08975098 -1.35303223 1.17950195 -2.05004883 1.27197266 C-16.68294593 3.24563796 -31.05951411 5.67184888 -45.4152832 9.15673828 C-47.01762817 9.53741455 -47.01762817 9.53741455 -48.65234375 9.92578125 C-49.59070068 10.15692627 -50.52905762 10.38807129 -51.49584961 10.6262207 C-54.03780572 11.00564303 -55.5894443 10.82071243 -58 10 C-50.81209621 5.20806414 -41.72720205 4.54990096 -33.30786133 3.64648438 C-29.53244001 3.28127317 -29.53244001 3.28127317 -26 2 C-23.31123981 1.60004327 -20.63682247 1.24683025 -17.9375 0.9375 C-16.78809937 0.80335693 -16.78809937 0.80335693 -15.61547852 0.66650391 C-10.37691661 0.08339249 -5.27416279 -0.19178774 0 0 Z " fill="#B6E8E8" transform="translate(225,290)"/>
<path d="M0 0 C1.35476979 0.00373811 2.70954232 0.0065813 4.0643158 0.00857544 C7.60049123 0.01614918 11.13649789 0.03574246 14.67260742 0.0579834 C18.29278278 0.07857807 21.91298586 0.08760605 25.53320312 0.09765625 C32.61465166 0.11899542 39.69598659 0.15305405 46.77734375 0.1953125 C46.77734375 0.5253125 46.77734375 0.8553125 46.77734375 1.1953125 C45.52300537 1.22036865 44.26866699 1.2454248 42.97631836 1.27124023 C38.25163292 1.36654612 33.52705325 1.46644811 28.80249023 1.56762695 C26.77094016 1.61051648 24.73936456 1.65221596 22.70776367 1.69262695 C12.07700134 1.90487535 1.48422097 2.15944284 -9.11914062 2.99023438 C-13.82140633 3.30095678 -18.51287476 3.28343731 -23.22265625 3.1953125 C-23.22265625 2.8653125 -23.22265625 2.5353125 -23.22265625 2.1953125 C-15.41124641 0.05854256 -8.06932757 -0.06467855 0 0 Z " fill="#A8B9F0" transform="translate(261.22265625,138.8046875)"/>
<path d="M0 0 C1.32 0.99 2.64 1.98 4 3 C3.33613281 3.65226563 2.67226562 4.30453125 1.98828125 4.9765625 C-2.57350463 9.49173159 -7.02110378 13.96006479 -11 19 C-11.66 18.67 -12.32 18.34 -13 18 C-13 17.34 -13 16.68 -13 16 C-12.01 16 -11.02 16 -10 16 C-10.66 14.02 -11.32 12.04 -12 10 C-8.50912907 5.9957657 -6.35048061 4.37328935 -1 4 C-0.67 2.68 -0.34 1.36 0 0 Z " fill="#5977EB" transform="translate(86,193)"/>
<path d="M0 0 C0 3.38654556 -0.69618467 4.56022401 -2.375 7.4375 C-4.26822823 10.70686184 -4.26822823 10.70686184 -6.015625 14.0546875 C-7.01958504 16.03870377 -8.12353554 17.85015887 -9.375 19.6875 C-9.77460937 20.28949219 -10.17421875 20.89148438 -10.5859375 21.51171875 C-12.30187644 23.31772078 -13.57577643 23.61315581 -16 24 C-12.60992092 14.82198102 -6.66012853 7.06499956 0 0 Z " fill="#9EE0DE" transform="translate(99,231)"/>
<path d="M0 0 C0 0.33 0 0.66 0 1 C-1.15786011 1.12846313 -1.15786011 1.12846313 -2.33911133 1.25952148 C-5.83062624 1.64881107 -9.32155937 2.04309525 -12.8125 2.4375 C-14.63491211 2.63956055 -14.63491211 2.63956055 -16.49414062 2.84570312 C-17.65751953 2.97783203 -18.82089844 3.10996094 -20.01953125 3.24609375 C-21.62985229 3.42676392 -21.62985229 3.42676392 -23.27270508 3.61108398 C-26.08618224 3.92920961 -26.08618224 3.92920961 -29 5 C-30.97654185 5.11953769 -32.95738456 5.17526196 -34.9375 5.1875 C-36.49791016 5.20876953 -36.49791016 5.20876953 -38.08984375 5.23046875 C-40.99888976 5.00008793 -42.4839323 4.36395398 -45 3 C-41.00324399 2.56250939 -37.00547134 2.13590669 -33.0065918 1.71826172 C-30.99795808 1.50637753 -28.99017097 1.28651504 -26.98242188 1.06640625 C-17.92623378 0.127246 -9.0995239 -0.17635686 0 0 Z " fill="#97ACE9" transform="translate(277,26)"/>
<path d="M0 0 C4.51617599 -0.07654536 8.59085217 -0.10228696 13 1 C12.67 1.99 12.34 2.98 12 4 C9.48828125 5.16796875 9.48828125 5.16796875 6.3125 6.1875 C5.27738281 6.53167969 4.24226562 6.87585938 3.17578125 7.23046875 C-0.01042557 8.00252624 -2.73605818 8.14191051 -6 8 C-5.3125 6.0625 -5.3125 6.0625 -4 4 C-1.375 3.25 -1.375 3.25 1 3 C0.67 2.01 0.34 1.02 0 0 Z " fill="#5471E1" transform="translate(154,152)"/>
<path d="M0 0 C0.33 0 0.66 0 1 0 C1 15.18 1 30.36 1 46 C0.01 46 -0.98 46 -2 46 C-1.88023956 41.377478 -1.75592371 36.75510709 -1.62768555 32.1328125 C-1.58481714 30.56578762 -1.54311699 28.99873027 -1.50268555 27.43164062 C-1.26508815 18.25627434 -0.90881245 9.13941945 0 0 Z " fill="#B5C6F5" transform="translate(63,183)"/>
<path d="M0 0 C-0.99 0 -1.98 0 -3 0 C-3 0.66 -3 1.32 -3 2 C-10.88712509 4.79685287 -18.72749607 6.72730709 -27 8 C-23.6522955 4.6522955 -19.05344283 3.78569531 -14.625 2.3125 C-13.6659375 1.97927734 -12.706875 1.64605469 -11.71875 1.30273438 C-10.79320312 0.99271484 -9.86765625 0.68269531 -8.9140625 0.36328125 C-7.6448999 -0.06537231 -7.6448999 -0.06537231 -6.35009766 -0.50268555 C-3.82958714 -1.03606181 -2.40953641 -0.83294762 0 0 Z " fill="#99ABE7" transform="translate(179,41)"/>
<path d="M0 0 C0.33 0 0.66 0 1 0 C1.02689216 1.47906892 1.04634621 2.95827483 1.0625 4.4375 C1.07410156 5.26121094 1.08570312 6.08492187 1.09765625 6.93359375 C1 9 1 9 0 10 C-0.3692053 11.92028007 -0.68304063 13.85127132 -0.97265625 15.78515625 C-1.14990234 16.95498047 -1.32714844 18.12480469 -1.50976562 19.33007812 C-1.69216797 20.56177734 -1.87457031 21.79347656 -2.0625 23.0625 C-2.24876953 24.29806641 -2.43503906 25.53363281 -2.62695312 26.80664062 C-3.08831562 29.87056079 -3.5458219 32.935008 -4 36 C-4.33 36 -4.66 36 -5 36 C-5.25989803 29.05820745 -4.2627059 22.57746888 -3.0625 15.75 C-2.88009766 14.67492187 -2.69769531 13.59984375 -2.50976562 12.4921875 C-1.05135768 3.98569171 -1.05135768 3.98569171 0 0 Z " fill="#5974D6" transform="translate(70,144)"/>
<path d="M0 0 C0 0.99 0 1.98 0 3 C-2.58067563 3.69918305 -5.16372847 4.38461049 -7.75 5.0625 C-8.47960937 5.26166016 -9.20921875 5.46082031 -9.9609375 5.66601562 C-13.71031044 6.63744407 -16.30274238 7.15449387 -20 6 C-17.41958904 4.99183944 -14.83613056 3.9932889 -12.25 3 C-11.15558594 2.57074219 -11.15558594 2.57074219 -10.0390625 2.1328125 C-9.33007812 1.86210937 -8.62109375 1.59140625 -7.890625 1.3125 C-7.24125977 1.06113281 -6.59189453 0.80976563 -5.92285156 0.55078125 C-4 0 -4 0 0 0 Z " fill="#9FDFDE" transform="translate(168,192)"/>
<path d="M0 0 C0 0.33 0 0.66 0 1 C-1.98 1 -3.96 1 -6 1 C-6 1.66 -6 2.32 -6 3 C-6.99 3.33 -7.98 3.66 -9 4 C-9.33 3.34 -9.66 2.68 -10 2 C-10.969375 2.33 -11.93875 2.66 -12.9375 3 C-17.29766837 4.26873752 -21.49554566 4.18385528 -26 4 C-18.32872157 -0.34832366 -8.56558526 -1.88442876 0 0 Z " fill="#97DEDC" transform="translate(208,184)"/>
<path d="M0 0 C1.46534385 3.80989402 0.55203911 6.3241179 -1 10 C-1.99 10.495 -1.99 10.495 -3 11 C-3.68729254 13.11846285 -3.68729254 13.11846285 -4.125 15.5625 C-4.29257813 16.38878906 -4.46015625 17.21507812 -4.6328125 18.06640625 C-4.75398438 18.70449219 -4.87515625 19.34257812 -5 20 C-5.66 20 -6.32 20 -7 20 C-6.49205798 13.26976824 -4.85929655 7.13939524 -2 1 C-1.34 0.67 -0.68 0.34 0 0 Z " fill="#889DE6" transform="translate(78,120)"/>
<path d="M0 0 C2.64 0.33 5.28 0.66 8 1 C5.35420684 3.64579316 3.61210731 3.97754399 -0.09448242 4.11352539 C-1.95617065 4.10567017 -1.95617065 4.10567017 -3.85546875 4.09765625 C-4.84792351 4.09553383 -4.84792351 4.09553383 -5.86042786 4.09336853 C-7.96949828 4.08777996 -10.07846177 4.07522965 -12.1875 4.0625 C-13.61913909 4.05748352 -15.05077985 4.05292087 -16.48242188 4.04882812 C-19.98831588 4.0378143 -23.4941475 4.02055755 -27 4 C-27 3.67 -27 3.34 -27 3 C-18.09 3 -9.18 3 0 3 C0 2.01 0 1.02 0 0 Z " fill="#7CCFD1" transform="translate(304,282)"/>
<path d="M0 0 C0.33 0 0.66 0 1 0 C1.02505615 0.89831543 1.0501123 1.79663086 1.07592773 2.72216797 C1.17098693 6.05074869 1.27022421 9.37914994 1.37231445 12.70751953 C1.41566231 14.1488762 1.45733752 15.59028418 1.49731445 17.03173828 C1.55502088 19.10204541 1.61871371 21.17209432 1.68359375 23.2421875 C1.72025146 24.4885498 1.75690918 25.73491211 1.79467773 27.01904297 C1.80289479 29.92636942 1.80289479 29.92636942 3 32 C2.67 32.66 2.34 33.32 2 34 C1.01 34 0.02 34 -1 34 C-0.67 22.78 -0.34 11.56 0 0 Z " fill="#CAF3F5" transform="translate(62,341)"/>
<path d="M0 0 C-0.33 0.66 -0.66 1.32 -1 2 C-3.80078125 2.37890625 -3.80078125 2.37890625 -7.3125 2.5625 C-11.76191289 2.75900745 -11.76191289 2.75900745 -16.12109375 3.5546875 C-18.47238074 4.11195718 -20.36199102 3.87856001 -22.75 3.5625 C-23.94882813 3.40974609 -23.94882813 3.40974609 -25.171875 3.25390625 C-25.77515625 3.17011719 -26.3784375 3.08632812 -27 3 C-27 2.67 -27 2.34 -27 2 C-24.00051609 1.66134859 -21.00055074 1.32894927 -18 1 C-17.16082031 0.90460938 -16.32164062 0.80921875 -15.45703125 0.7109375 C-10.26859055 0.14785091 -5.21873039 -0.09664316 0 0 Z " fill="#B2E8E8" transform="translate(252,177)"/>
<path d="M0 0 C0.66 0.33 1.32 0.66 2 1 C-2 5 -6 9 -10 13 C-10 11.68 -10 10.36 -10 9 C-9.34 9 -8.68 9 -8 9 C-7.9175 8.4225 -7.835 7.845 -7.75 7.25 C-6.7766189 4.3298567 -5.32386725 2.98212207 -3 1 C-2.01 0.67 -1.02 0.34 0 0 Z " fill="#A0E0E1" transform="translate(85,344)"/>
<path d="M0 0 C1.32 0.66 2.64 1.32 4 2 C2.69144447 3.83615081 1.37805538 5.66885789 0.0625 7.5 C-0.66839844 8.5209375 -1.39929688 9.541875 -2.15234375 10.59375 C-2.76207031 11.3878125 -3.37179688 12.181875 -4 13 C-4.33 13 -4.66 13 -5 13 C-5.33 10.69 -5.66 8.38 -6 6 C-4.02 6.99 -4.02 6.99 -2 8 C-2.061875 6.576875 -2.061875 6.576875 -2.125 5.125 C-2 2 -2 2 0 0 Z " fill="#7B94E5" transform="translate(70,212)"/>
<path d="M0 0 C0 0.66 0 1.32 0 2 C-0.66 2 -1.32 2 -2 2 C-2.433125 3.175625 -2.433125 3.175625 -2.875 4.375 C-4 7 -4 7 -6 9 C-7.98 8.34 -9.96 7.68 -12 7 C-9.20232475 3.70861735 -4.40323273 0 0 0 Z " fill="#9ADCDE" transform="translate(135,205)"/>
<path d="M0 0 C2.29160319 -0.02692484 4.58329546 -0.04636124 6.875 -0.0625 C8.15117187 -0.07410156 9.42734375 -0.08570313 10.7421875 -0.09765625 C14 0 14 0 16 1 C16 1.66 16 2.32 16 3 C10.72 3 5.44 3 0 3 C0 2.01 0 1.02 0 0 Z " fill="#7A90E1" transform="translate(222,140)"/>
<path d="M0 0 C0.33 0 0.66 0 1 0 C1.05421223 3.04190863 1.09377548 6.08283999 1.125 9.125 C1.15013672 10.40890625 1.15013672 10.40890625 1.17578125 11.71875 C1.21306681 16.56587293 0.89580643 20.44707905 -1 25 C-1.33 25 -1.66 25 -2 25 C-2.125 18.375 -2.125 18.375 -1 15 C-0.77281504 12.43365139 -0.58391816 9.88321893 -0.4375 7.3125 C-0.39431641 6.61060547 -0.35113281 5.90871094 -0.30664062 5.18554688 C-0.2008264 3.45724794 -0.09993419 1.7286489 0 0 Z " fill="#B7E6E8" transform="translate(330,241)"/>
<path d="M0 0 C1.32 0.99 2.64 1.98 4 3 C2.8572081 4.16964602 1.71068285 5.33564556 0.5625 6.5 C-0.07558594 7.1496875 -0.71367188 7.799375 -1.37109375 8.46875 C-3 10 -3 10 -4 10 C-4 8.35 -4 6.7 -4 5 C-3.01 4.67 -2.02 4.34 -1 4 C-0.26676204 1.98491642 -0.26676204 1.98491642 0 0 Z " fill="#728CE7" transform="translate(86,193)"/>
<path d="M0 0 C2.31 0 4.62 0 7 0 C4.63746991 2.36253009 2.68772729 3.037848 -0.4375 4.1875 C-1.40558594 4.55230469 -2.37367188 4.91710937 -3.37109375 5.29296875 C-6 6 -6 6 -9 5 C-8.34 5 -7.68 5 -7 5 C-6.67 4.01 -6.34 3.02 -6 2 C-4.02 2 -2.04 2 0 2 C0 1.34 0 0.68 0 0 Z " fill="#ACE5E5" transform="translate(147,305)"/>
<path d="M0 0 C0.66 0.33 1.32 0.66 2 1 C-4.92938497 9.81548975 -4.92938497 9.81548975 -11 11 C-7.6189962 6.86378916 -4.33409466 3.18683431 0 0 Z " fill="#A6E2E3" transform="translate(114,217)"/>
<path d="M0 0 C-6.24309927 2.77471079 -11.19796625 3.37634203 -18 3 C-15.03837914 1.37522189 -12.30733073 0.48304114 -9 -0.1875 C-8.154375 -0.36667969 -7.30875 -0.54585937 -6.4375 -0.73046875 C-3.96978589 -1.00334098 -2.34150494 -0.76424119 0 0 Z " fill="#A0B2E8" transform="translate(205,35)"/>
<path d="M0 0 C0.99 0 1.98 0 3 0 C1.62071723 3.39460785 0.35343571 4.72525168 -2.9375 6.3125 C-3.62714844 6.65925781 -4.31679688 7.00601563 -5.02734375 7.36328125 C-7 8 -7 8 -10 7 C-9.34 7 -8.68 7 -8 7 C-8 6.34 -8 5.68 -8 5 C-7.01 5 -6.02 5 -5 5 C-5 4.34 -5 3.68 -5 3 C-3.35 3 -1.7 3 0 3 C0 2.01 0 1.02 0 0 Z " fill="#879DE2" transform="translate(322,130)"/>
<path d="M0 0 C-0.33 0.66 -0.66 1.32 -1 2 C-5.28769786 3.29930238 -9.56510345 3.07516774 -14 3 C-9.7368213 0.15788087 -5.03577274 -2.0143091 0 0 Z " fill="#A7E3E3" transform="translate(182,189)"/>
<path d="M0 0 C2.64 0 5.28 0 8 0 C5.39457984 1.73694677 3.41657225 2.69100448 0.5 3.6875 C-0.2734375 3.95949219 -1.046875 4.23148438 -1.84375 4.51171875 C-4 5 -4 5 -7 4 C-6.34 4 -5.68 4 -5 4 C-5 3.34 -5 2.68 -5 2 C-3.35 2 -1.7 2 0 2 C0 1.34 0 0.68 0 0 Z " fill="#9EACEB" transform="translate(158,155)"/>
<path d="M0 0 C0.99 0.33 1.98 0.66 3 1 C-1.43076923 6.78461538 -1.43076923 6.78461538 -4.3125 7.875 C-4.869375 7.91625 -5.42625 7.9575 -6 8 C-5.1875 5.5625 -5.1875 5.5625 -4 3 C-3.01 2.67 -2.02 2.34 -1 2 C-0.67 1.34 -0.34 0.68 0 0 Z " fill="#87D9DA" transform="translate(89,247)"/>
<path d="M0 0 C0.66 0.66 1.32 1.32 2 2 C1.76236269 6.39629018 -0.14143559 8.77258856 -3 12 C-2.68950274 10.56206608 -2.3765224 9.1246682 -2.0625 7.6875 C-1.88847656 6.88699219 -1.71445313 6.08648437 -1.53515625 5.26171875 C-1 3 -1 3 0 0 Z " fill="#A8E3E2" transform="translate(75,270)"/>
<path d="M0 0 C0.66 0.33 1.32 0.66 2 1 C-0.73152399 5.72763768 -2.93126149 7.92642516 -8 10 C-6.34908222 5.70761377 -3.26245434 3.1206085 0 0 Z " fill="#A7B9EC" transform="translate(107,75)"/>
<path d="M0 0 C1.32 0 2.64 0 4 0 C2.73058503 3.91402949 1.48832306 5.79072873 -2 8 C-2.33 7.01 -2.66 6.02 -3 5 C-2.01 5 -1.02 5 0 5 C0 3.35 0 1.7 0 0 Z " fill="#7F95E0" transform="translate(76,204)"/>
<path d="M0 0 C0.66 0.33 1.32 0.66 2 1 C-0.88341534 5.21422242 -3.04303419 6.76075855 -8 8 C-5.58443874 4.80800833 -3.31996462 2.25283313 0 0 Z " fill="#90A2E6" transform="translate(117,67)"/>
<path d="M0 0 C-0.33 0.66 -0.66 1.32 -1 2 C-3.32156597 2.40729228 -5.6568787 2.74438677 -8 3 C-8.33 2.34 -8.66 1.68 -9 1 C-5.57367167 -0.61798838 -3.61944899 -1.34053666 0 0 Z " fill="#9BDDDE" transform="translate(176,298)"/>
<path d="M0 0 C-3.20380017 2.13586678 -4.01939967 2.23132175 -7.6875 2.125 C-8.89986328 2.09792969 -8.89986328 2.09792969 -10.13671875 2.0703125 C-11.05904297 2.03550781 -11.05904297 2.03550781 -12 2 C-7.66032699 -0.21504143 -4.80574417 -1.54470348 0 0 Z " fill="#B8E9E9" transform="translate(194,186)"/>
<path d="M0 0 C1.65 0.33 3.3 0.66 5 1 C2.63707344 3.52588702 1.33537489 4.88820837 -2 6 C-2 4.68 -2 3.36 -2 2 C-1.34 2 -0.68 2 0 2 C0 1.34 0 0.68 0 0 Z " fill="#9BDFDF" transform="translate(99,329)"/>
<path d="M0 0 C1.65 0 3.3 0 5 0 C3.71937515 1.7074998 2.38232443 3.37373596 1 5 C0.34 5 -0.32 5 -1 5 C-0.67 3.35 -0.34 1.7 0 0 Z " fill="#8399E2" transform="translate(92,189)"/>
<path d="M0 0 C-5.14285714 4.42857143 -5.14285714 4.42857143 -9 5 C-7.35234966 0.05704899 -4.76872479 -0.25776891 0 0 Z " fill="#AEE2E3" transform="translate(120,320)"/>
<path d="M0 0 C2.64 0.33 5.28 0.66 8 1 C5.4345406 3.5654594 3.52313332 3.54046087 0 4 C0 2.68 0 1.36 0 0 Z " fill="#9CDFDD" transform="translate(304,282)"/>
<path d="M0 0 C2.66666667 0.66666667 5.33333333 1.33333333 8 2 C0.57142857 4.42857143 0.57142857 4.42857143 -3 3 C-2.01 2.67 -1.02 2.34 0 2 C0 1.34 0 0.68 0 0 Z " fill="#A3B4EE" transform="translate(169,151)"/>
<path d="M0 0 C0.99 0.33 1.98 0.66 3 1 C0.37801226 3.15377564 -1.64404172 4.40072174 -5 5 C-5 4.01 -5 3.02 -5 2 C-3.35 2 -1.7 2 0 2 C0 1.34 0 0.68 0 0 Z " fill="#B2E6E5" transform="translate(129,313)"/>
</svg>
