<?xml version="1.0" encoding="UTF-8"?>
<!-- Generated by Pixelmator Pro 3.2.3 -->
<svg width="400" height="400" viewBox="0 0 400 400" xmlns="http://www.w3.org/2000/svg" xmlns:xlink="http://www.w3.org/1999/xlink">
    <g id="Group">
        <path id="Path-copy-2" fill="#5072eb" stroke="#5072eb" stroke-width="8.816122" stroke-linecap="round" stroke-linejoin="round" d="M 40.997601 217.105484 C 44.264591 154.960205 57.869804 109.128265 85.718262 76.819824 C 114.773552 43.11142 160.008194 23.354401 227.612869 15.961456 L 227.615509 15.961182 C 256.148438 12.823181 284.777039 10.947327 315.823883 8.912994 C 329.37207 8.025269 343.38089 7.107391 358.042969 6.041229 C 359.248596 22.948792 360.090515 41.068787 359.992218 57.171783 C 359.884216 74.886475 358.6297 89.508881 355.804138 97.514801 C 350.216461 113.347229 332.953613 127.461853 311.899841 132.807495 L 311.887054 132.811035 C 294.729553 137.22171 272.545532 137.563354 248.395111 137.935394 C 243.48143 138.010773 238.486221 138.087921 233.435471 138.200317 C 204.024887 138.856689 173.000961 140.753448 147.807556 151.652832 C 113.653465 166.42865 93.952957 180.2854 69.712372 197.335342 C 61.017162 203.451508 51.737751 209.978104 40.997601 217.105484 Z"/>
        <path id="Path-copy" fill="#6dd4d5" stroke="#6dd4d5" stroke-width="8.816122" stroke-linecap="round" stroke-linejoin="round" d="M 38.58498 393.520081 C 41.814987 331.387085 55.400631 285.563568 83.234756 253.259964 C 112.27903 219.552414 157.513229 199.795471 225.118347 192.402267 L 225.120987 192.40184 C 253.653931 189.264175 282.282074 187.388092 313.328949 185.35379 C 326.877533 184.466003 340.886353 183.548248 355.548462 182.481934 C 356.753632 199.389496 357.595581 217.509705 357.497284 233.61235 C 357.389252 251.327469 356.135162 265.949463 353.309601 273.955383 C 347.721497 289.787811 330.459076 303.902863 309.404877 309.248535 L 309.39209 309.251587 C 292.235046 313.66275 270.051025 314.004364 245.900589 314.375977 C 240.986481 314.451782 235.991699 314.528503 230.940948 314.641327 C 201.530365 315.297699 170.505981 317.194489 145.313049 328.093384 C 111.190681 342.85556 91.576134 356.660309 67.417137 373.663086 C 58.697155 379.800415 49.385082 386.353882 38.58498 393.520081 Z"/>
    </g>
</svg>
