<?xml version="1.0" encoding="UTF-8"?>

<svg width="400" height="400" viewBox="0 0 400 400" xmlns="http://www.w3.org/2000/svg">
    <g id="Group">
        <path id="Path" fill="none" stroke="none" d="M -2.3e-05 1 L 412 1 L 412 413.000031 L -2.3e-05 413.000031 Z"/>
        <g id="g1">
            <path id="path1" fill="#aecbfa" fill-rule="evenodd" stroke="none" d="M 326.51001 252.319992 L 116.801994 373.447998 L 96.613991 338.839996 L 306.527985 217.505997 L 326.51001 252.319992 Z"/>
            <path id="path2" fill="#aecbfa" fill-rule="evenodd" stroke="none" d="M 115.977997 333.895996 L 115.977997 91.639984 L 154.499985 91.639984 L 154.499985 304.850006 L 115.977997 333.895996 Z"/>
            <path id="path3" fill="#aecbfa" fill-rule="evenodd" stroke="none" d="M 155.736008 159.413986 L 150.37999 110.797974 L 360.294037 231.720001 L 340.312042 266.328003 L 155.736008 159.413986 Z"/>
            <path id="path4" fill="#4285f4" fill-rule="evenodd" stroke="none" d="M 255.234024 171.155991 L 150.37999 110.797974 L 155.736008 159.413986 L 186.841995 177.130005 C 209.422897 185.182587 234.391205 183.001633 255.234024 171.155991 Z"/>
            <path id="path5" fill="#aecbfa" fill-rule="evenodd" stroke="none" d="M 126.277992 130.573975 L 126.277992 130.573975 C 108.65284 100.046265 113.73407 61.48584 138.665741 36.565948 C 163.597412 11.646118 202.160263 6.58316 232.679626 24.222778 C 263.198975 41.862427 278.061737 77.804382 268.914093 111.847137 C 259.766449 145.889862 228.890335 169.541367 193.639999 169.507996 C 165.869446 169.397507 140.236237 154.581955 126.277992 130.573975 Z M 226.600006 72.893982 C 219.841934 61.188629 207.362137 53.967621 193.845993 53.941956 C 183.812225 53.887146 174.170578 57.834686 167.056229 64.91037 C 159.941849 71.986053 155.941849 81.606079 155.942001 91.639984 C 154.895142 105.811096 161.86232 119.377411 173.98999 126.782532 C 186.117615 134.187683 201.368378 134.187683 213.496033 126.782532 C 225.623672 119.377411 232.590851 105.811096 231.543991 91.639984 C 231.587616 85.063446 229.881287 78.593628 226.600006 72.893982 Z"/>
            <path id="path6" fill="#4285f4" fill-rule="evenodd" stroke="none" d="M 115.977997 226.363983 L 115.977997 333.895996 L 154.499985 304.850006 L 154.499985 271.272003 C 149.216309 251.192139 135.019806 234.642166 115.977997 226.363983 Z"/>
            <path id="path7" fill="#4285f4" fill-rule="evenodd" stroke="none" d="M 233.39801 306.085999 L 326.51001 252.319992 L 280.984039 231.720001 L 255.234024 248.199997 C 240.881836 264.439758 233.096619 285.44519 233.39801 307.116028 Z"/>
            <path id="path8" fill="#aecbfa" fill-rule="evenodd" stroke="none" d="M 10.505979 345.02002 L 10.505979 345.02002 C 0.141483 327.163422 -2.686012 305.914703 2.64827 285.969116 C 7.982561 266.023499 21.039511 249.02298 38.933987 238.724014 C 56.719925 228.295197 77.957916 225.473373 97.849991 230.895996 C 131.982178 239.892822 155.79332 270.723633 155.870667 306.021545 C 155.948013 341.319489 132.272232 372.254395 98.179794 381.400696 C 64.087349 390.547028 28.106844 375.61673 10.505979 345.02002 Z M 110.416 287.134033 C 105.654388 278.125946 97.377686 271.489685 87.549988 268.799988 C 72.773209 264.778717 57.032131 270.096313 47.721146 282.254822 C 38.410164 294.413361 37.379765 310.996368 45.113987 324.21402 L 45.113987 324.21402 C 55.580883 342.246643 78.684341 348.379913 96.716995 337.912994 C 114.749634 327.446106 120.882904 304.342651 110.416 286.309998 Z"/>
            <path id="path9" fill="#aecbfa" fill-rule="evenodd" stroke="none" d="M 253.998001 338.016022 L 253.998001 338.016022 C 240.209457 313.964752 240.209457 284.405273 253.998001 260.354004 C 275.527802 223.203506 323.016388 210.411057 360.294037 231.720001 C 397.466827 253.245819 410.186951 300.808014 388.722046 338.016022 C 374.793121 362.036682 349.127075 376.822723 321.360016 376.822723 C 293.592987 376.822723 267.92691 362.036682 253.998001 338.016022 Z M 354.114044 280.130005 C 350.685303 274.490204 345.951782 269.756714 340.312042 266.328003 C 322.148407 256.053101 299.099091 262.297546 288.606018 280.336029 C 281.996857 292.032959 281.996857 306.337036 288.606018 318.033997 C 297.179901 332.893555 314.705597 340.090088 331.248016 335.544006 C 340.897217 332.984375 349.127197 326.682159 354.114044 318.033997 C 360.719421 306.262665 360.719421 291.901337 354.114044 280.130005 Z"/>
            <path id="path10" fill="#669df6" fill-rule="evenodd" stroke="none" d="M 154.293991 292.48999 C 154.293991 292.48999 106.089996 333.690002 96.613991 338.839996 L 155.529999 304.850006 C 155.424179 300.705139 155.011063 296.573792 154.293991 292.48999 Z"/>
            <path id="path11" fill="#669df6" fill-rule="evenodd" stroke="none" d="M 167.889984 165.800003 C 167.889984 165.800003 155.736008 98.231995 155.736008 91.639984 L 155.736008 159.413986 C 159.604721 161.643524 163.673843 163.505676 167.889984 164.975998 Z"/>
            <path id="path12" fill="#669df6" fill-rule="evenodd" stroke="none" d="M 273.980011 237.281998 C 273.980011 237.281998 330.836029 260.972015 340.312042 266.328003 L 281.396027 232.543991 C 278.733521 233.803284 276.241638 235.39534 273.980011 237.281998 Z"/>
        </g>
    </g>
</svg>
