<?xml version="1.0" encoding="UTF-8"?>

<svg width="400" height="400" viewBox="0 0 400 400" xmlns="http://www.w3.org/2000/svg">
    <g id="Group">
        <g id="g1">
            <path id="Path" fill="#4285f4" fill-rule="evenodd" stroke="none" d="M 292.799988 262.600006 L 307.600006 237.599991 L 378.200012 237.599991 L 400 200 L 356.399994 125 L 295 125 L 273.800018 87.799988 L 250.000015 87.799988 L 250.000015 62.600006 L 288.800018 62.600006 L 310 99.999969 L 341.799988 99.999969 L 298 24.999969 L 212.600006 24.999969 L 212.600006 125 L 247.199997 125 L 261.800018 150 L 212.600006 150 L 212.600006 200 L 257.800018 200 L 278.799988 162.599991 L 335 162.599991 L 349.400024 187.600006 L 293.400024 187.600006 L 272.400024 225 L 212.600006 225 L 212.600006 312.599976 L 280.600037 312.599976 L 266.200012 337.600006 L 212.600006 337.600006 L 212.600006 375 L 298 375 L 363.600037 262.600006 L 321.800018 262.600006 L 307.200012 287.599976 L 250.000015 287.599976 L 250.000015 262.600006 L 292.799988 262.600006 Z"/>
            <path id="path1" fill="#669df6" fill-rule="evenodd" stroke="none" d="M 107.200005 262.600006 L 92.399986 237.599991 L 21.799992 237.599991 L -1.1e-05 200 L 43.599991 125 L 105 125 L 126.199997 87.799988 L 149.999985 87.799988 L 149.999985 62.600006 L 111.199997 62.600006 L 90 99.999969 L 58.199986 99.999969 L 101.999992 24.999969 L 187.600006 24.999969 L 187.600006 125 L 152.800003 125 L 138.199997 150 L 187.600006 150 L 187.600006 200 L 142.199997 200 L 121.200012 162.599991 L 64.999992 162.599991 L 50.599995 187.600006 L 106.599991 187.600006 L 127.600006 225 L 187.600006 225 L 187.600006 312.599976 L 119.399994 312.599976 L 133.799988 337.600006 L 187.600006 337.600006 L 187.600006 375 L 101.999992 375 L 36.39999 262.600006 L 78.199997 262.600006 L 92.799995 287.599976 L 149.999985 287.599976 L 149.999985 262.600006 L 107.200005 262.600006 Z"/>
        </g>
    </g>
</svg>
