<?xml version="1.0" encoding="UTF-8"?>
<!-- Generated by Pixelmator Pro 3.6.17 -->
<svg width="400" height="400" viewBox="0 0 400 400" xmlns="http://www.w3.org/2000/svg">
    <g id="Group">
        <g id="g1">
            <path id="Path" fill="#aecbfa" fill-rule="evenodd" stroke="none" d="M 94.603294 176.60614 L 94.603294 229.207962 C 102.894325 243.500977 114.657822 255.470856 128.804474 264.009155 L 128.804474 176.60614 Z"/>
            <path id="path1" fill="#669df6" fill-rule="evenodd" stroke="none" d="M 157.805511 128.204437 L 157.805511 278.809692 C 165.166672 279.749695 172.586685 280.150787 180.006256 280.009735 C 186.666641 280.426819 193.346603 280.426819 200.006958 280.009735 L 200.006958 128.204437 Z"/>
            <path id="path2" fill="#aecbfa" fill-rule="evenodd" stroke="none" d="M 232.808121 197.206848 L 232.808121 263.009155 C 247.030655 253.937424 258.727203 241.415222 266.809296 226.607895 L 266.809296 197.206848 Z"/>
            <path id="path3" fill="#4285f4" fill-rule="evenodd" stroke="none" d="M 314.810944 286.409973 L 286.409973 314.810944 C 284.797424 316.39093 283.888672 318.553558 283.888672 320.811157 C 283.888672 323.068787 284.797424 325.231384 286.409973 326.811371 L 357.212433 397.6138 C 360.483643 400.841766 365.741608 400.841766 369.012848 397.6138 L 397.613831 369.012848 C 400.841797 365.741608 400.841797 360.483643 397.613831 357.212433 L 326.811371 286.409973 C 325.231415 284.797394 323.068817 283.888672 320.811188 283.888672 C 318.553558 283.888672 316.390961 284.797394 314.810944 286.409973"/>
            <path id="path4" fill="#669df6" fill-rule="evenodd" stroke="none" d="M 180.006256 0 C 80.591553 0 5e-06 80.591553 5e-06 180.006256 C 5e-06 279.42099 80.591553 360.012512 180.006256 360.012512 C 279.42099 360.012512 360.012543 279.42099 360.012543 180.006256 C 360.012543 80.591553 279.42099 0 180.006256 0 M 180.006256 313.810913 C 106.270653 313.700439 46.564976 253.875381 46.601799 180.139709 C 46.638622 106.403992 106.404007 46.63858 180.139709 46.601776 C 253.875397 46.564972 313.700439 106.27066 313.810944 180.006256 C 313.864105 215.509735 299.783936 249.574402 274.679169 274.679169 C 249.574402 299.783936 215.50975 313.864105 180.006256 313.810913"/>
        </g>
    </g>
</svg>
