<?xml version="1.0" encoding="UTF-8"?>
<!-- Generated by Pixelmator Pro 3.6.17 -->
<svg width="800" height="800" viewBox="0 0 800 800" xmlns="http://www.w3.org/2000/svg">
    <g id="Group">
        <path id="Path" fill="#d2e3fc" stroke="none" d="M 396.989197 1 C 356.976807 1 326.96756 31.009277 326.96756 71.021606 C 326.96756 84.35907 330.301941 97.696533 340.304993 111.033936 L 370.31427 81.024719 C 370.31427 77.690369 370.31427 74.355957 370.31427 71.021606 C 370.31427 54.349792 383.651733 41.012329 400.323547 41.012329 C 416.995361 41.012329 430.332794 54.349792 430.332794 71.021606 C 430.332794 87.69342 416.995361 101.030823 400.323547 101.030823 C 396.989197 101.030823 393.654816 101.030823 390.320465 101.030823 L 360.311188 127.705811 C 393.654816 147.711975 437.001556 141.043213 457.00769 107.699585 C 477.013916 74.355957 470.345184 31.009277 437.001556 11.003113 C 426.998444 4.334351 413.661011 1 396.989197 1 Z"/>
        <path id="path1" fill="#5e97f6" stroke="none" d="M 370.31427 204.396118 C 370.31427 181.055603 363.645569 157.715088 350.308105 137.708862 L 310.295746 177.721191 C 313.630127 187.724304 316.964478 194.393066 316.964478 204.396118 C 316.964478 221.067993 310.295746 234.405457 300.292664 244.408447 L 320.298828 297.75827 C 353.642456 277.752136 370.31427 241.074097 370.31427 204.396118 Z"/>
        <path id="path2" fill="#5e97f6" stroke="none" d="M 263.614655 261.080322 L 263.614655 261.080322 C 233.605408 261.080322 206.930496 237.739746 206.930496 207.730469 C 206.930496 177.721191 230.271042 151.046326 260.280304 151.046326 C 270.283386 151.046326 283.62085 154.380676 293.623932 161.049438 L 333.636292 124.371399 C 310.295746 104.365234 286.9552 94.362183 260.280304 94.362183 C 200.261765 94.362183 150.246323 144.377625 150.246323 204.396118 C 150.246323 264.414673 196.927414 314.430115 260.280304 314.430115 C 266.949036 314.430115 276.952118 314.430115 283.62085 311.095764 L 263.614655 261.080322 Z"/>
        <path id="path3" fill="#4285f4" stroke="none" d="M 400.323547 304.427032 C 376.983002 304.427032 353.642456 307.761383 330.301941 314.430115 L 360.311188 387.786102 C 373.648651 387.786102 386.986084 384.451752 400.323547 384.451752 C 493.685699 384.451752 567.041687 461.14209 567.041687 551.169861 C 567.041687 644.531982 490.351318 717.888062 400.323547 717.888062 C 306.961365 717.888062 233.605408 641.197693 233.605408 551.169861 C 233.605408 487.816986 266.949036 431.132813 323.633179 404.457916 L 293.623932 331.101898 C 170.252502 391.120453 120.237053 541.166809 180.255585 661.203857 C 240.274124 784.575317 390.320465 834.590759 510.357544 774.572266 C 633.728943 714.55365 683.744385 564.507324 623.725891 444.470276 C 580.37915 361.111206 493.685699 304.427032 400.323547 304.427032 Z"/>
    </g>
</svg>
