<?xml version="1.0" encoding="UTF-8"?>

<svg width="400" height="400" viewBox="0 0 400 400" xmlns="http://www.w3.org/2000/svg">
    <g id="Group">
        <g id="g1">
            <path id="Path" fill="#669df6" fill-rule="evenodd" stroke="none" d="M 284.408173 88.954437 L 199.993103 38.745422 C 187.587585 30.963837 178.638397 18.721344 174.988632 4.539307 C 174.988632 4.539307 178.189194 -1.861816 182.589981 0.538605 C 186.990784 2.939026 252.602509 41.745972 287.608795 62.549683 C 300.211029 69.951019 292.409637 102.556885 292.409637 102.556885 C 292.444305 96.896973 289.371979 91.674072 284.408173 88.954437 Z"/>
            <path id="path1" fill="#aecbfa" fill-rule="evenodd" stroke="none" d="M 309.812744 213.776764 C 310.076416 216.404709 308.838745 218.957382 306.612213 220.37796 L 286.608582 233.980377 L 286.608582 74.951935 C 286.608582 69.550964 290.009216 63.749908 285.408417 60.949402 L 303.811676 74.551849 C 308.326477 77.299591 311.00415 82.27243 310.812958 87.554199 Z"/>
            <path id="path2" fill="#669df6" fill-rule="evenodd" stroke="none" d="M 199.993103 231.980026 C 198.570251 231.983978 197.178101 231.566345 195.992386 230.779816 L 126.779999 189.572433 L 126.779999 207.575653 L 199.993103 251.183472 L 205.794128 239.781403 C 205.794128 239.781403 201.393341 231.980026 199.993103 231.980026 Z"/>
            <path id="path3" fill="#669df6" fill-rule="evenodd" stroke="none" d="M 203.993805 267.98645 C 201.572083 269.604553 198.414124 269.604553 195.992386 267.98645 L 126.779999 226.779099 L 126.779999 239.981445 C 126.789597 242.805679 128.217545 245.436111 130.580658 246.982712 L 196.192429 286.989868 C 198.532684 288.390381 201.453522 288.390381 203.793777 286.989868 C 205.606125 283.726196 206.952759 280.224976 207.794495 276.588013 L 203.993805 268.786621 Z"/>
            <path id="path4" fill="#aecbfa" fill-rule="evenodd" stroke="none" d="M 199.993103 214.576889 L 273.206207 170.969116 L 273.206207 162.367569 C 273.243103 159.584869 271.79483 156.993256 269.405548 155.566345 L 203.793777 115.559174 C 201.453522 114.158691 198.532684 114.158691 196.192429 115.559174 L 130.580658 155.566345 C 128.2491 157.048538 126.820473 159.605042 126.779999 162.367569 L 126.779999 170.969116 L 199.993103 214.576889 Z"/>
            <path id="path5" fill="#669df6" fill-rule="evenodd" stroke="none" d="M 199.993103 196.5737 L 130.580658 155.566345 C 128.2491 157.048538 126.820473 159.605042 126.779999 162.367569 L 126.779999 170.969116 L 199.993103 214.576889 L 205.594086 203.374893 L 199.993103 196.5737 Z"/>
            <path id="path6" fill="#4285f4" fill-rule="evenodd" stroke="none" d="M 199.993103 231.980026 L 199.993103 251.983612 L 273.206207 208.375793 L 273.206207 190.372574 L 203.993805 230.779816 C 202.733643 231.392868 201.382645 231.798172 199.993103 231.980026 Z"/>
            <path id="path7" fill="#4285f4" fill-rule="evenodd" stroke="none" d="M 203.993805 267.98645 C 202.808105 268.77301 201.415955 269.190613 199.993103 269.186707 C 199.993103 274.787689 199.993103 287.189911 199.993103 287.189911 C 201.449478 287.166382 202.883133 286.825012 204.193848 286.189728 L 269.805573 246.182571 C 272.258362 244.720291 273.716217 242.034775 273.606293 239.18132 L 273.606293 225.978958 L 203.993805 267.98645 Z"/>
            <path id="path8" fill="#4285f4" fill-rule="evenodd" stroke="none" d="M 269.405548 155.566345 L 199.993103 196.5737 L 199.993103 214.576889 L 273.206207 170.969116 L 273.206207 162.367569 C 273.243103 159.584869 271.79483 156.993256 269.405548 155.566345 Z"/>
            <path id="path9" fill="#669df6" fill-rule="evenodd" stroke="none" d="M 115.577995 310.594116 L 198.592865 360.00293 C 211.835938 367.84375 221.139008 380.926178 224.197433 396.009369 C 224.459473 397.44455 223.829605 398.895996 222.602432 399.684906 C 221.375244 400.473816 219.793274 400.444244 218.596436 399.610016 L 109.576912 334.998474 C 98.975014 328.597321 108.176666 297.391754 108.176666 297.391754 C 108.162331 302.78479 110.969704 307.792511 115.577995 310.594116 Z"/>
            <path id="path10" fill="#aecbfa" fill-rule="evenodd" stroke="none" d="M 90.173454 314.594788 L 90.173454 183.371323 C 90.279724 180.680389 91.700287 178.213074 93.974121 176.770142 L 113.977699 164.968018 L 113.977699 323.19635 C 113.977699 328.597321 113.977699 336.99884 118.178452 339.799316 L 96.974663 326.596954 C 92.893585 323.937592 90.357658 319.462433 90.173454 314.594788 Z"/>
            <path id="path11" fill="#669df6" fill-rule="evenodd" stroke="none" d="M 163.186508 69.150879 C 158.595764 66.547211 152.974609 66.547211 148.383865 69.150879 L 64.368828 119.959991 C 51.819679 127.384583 36.751995 129.268066 22.761381 125.160889 C 21.321875 124.343445 20.432528 122.815613 20.432528 121.160187 C 20.432528 119.504791 21.321875 117.976959 22.761381 117.159485 C 26.362022 115.359161 149.184021 42.346069 149.184021 42.346069 C 153.784836 39.545593 163.986664 70.151062 163.986664 70.151062 Z"/>
            <path id="path12" fill="#aecbfa" fill-rule="evenodd" stroke="none" d="M 162.986465 41.545929 L 269.405548 104.55722 C 271.747986 105.764618 273.271759 108.126434 273.406219 110.758301 L 273.406219 134.362549 L 139.982361 55.148376 C 135.391617 52.544708 129.770462 52.544708 125.179718 55.148376 L 148.783936 41.345917 C 153.278732 38.651947 158.891754 38.651947 163.386551 41.345917 Z"/>
            <path id="path13" fill="#669df6" fill-rule="evenodd" stroke="none" d="M 236.399612 329.797546 C 240.968246 332.483765 246.633652 332.483765 251.202271 329.797546 L 335.217285 279.988617 C 347.903198 272.517242 363.139404 270.7034 377.224854 274.987732 C 378.696869 275.680695 379.636383 277.161407 379.636383 278.788391 C 379.636383 280.415405 378.696869 281.896118 377.224854 282.58905 L 250.602142 357.602478 C 246.20137 360.403015 235.7995 329.597473 235.7995 329.597473 Z"/>
            <path id="path14" fill="#aecbfa" fill-rule="evenodd" stroke="none" d="M 130.180618 294.991302 C 128.329529 293.241516 127.130066 290.913147 126.779999 288.390137 L 126.779999 265.185974 L 260.003845 343.800049 C 264.472809 346.585724 270.137482 346.585724 274.606445 343.800049 L 251.002228 357.802551 C 246.471298 360.623779 240.730515 360.623779 236.199585 357.802551 Z"/>
            <path id="path15" fill="#669df6" fill-rule="evenodd" stroke="none" d="M 85.172554 156.166458 C 80.595947 158.902679 77.787399 163.836609 77.771225 169.168777 L 77.771225 269.186707 C 77.732506 284.351074 71.435524 298.826904 60.368107 309.193817 C 59.321053 310.131042 57.824455 310.373413 56.535095 309.814697 C 55.245731 309.255981 54.399212 307.99823 54.367035 306.593384 L 54.367035 155.366318 C 54.367035 149.765289 85.172554 155.366318 85.172554 155.366318 Z"/>
            <path id="path16" fill="#aecbfa" fill-rule="evenodd" stroke="none" d="M 155.385132 90.354675 C 157.588638 88.979584 160.382904 88.979584 162.586395 90.354675 L 182.589981 102.156799 L 60.968224 173.369522 C 56.359924 176.171097 53.552551 181.178848 53.566895 186.571884 L 53.566895 158.766907 C 53.527344 153.419189 56.45414 148.489868 61.168255 145.96463 Z"/>
            <path id="path17" fill="#669df6" fill-rule="evenodd" stroke="none" d="M 323.415192 228.779449 L 323.415192 128.761536 C 323.435547 113.714325 329.488098 99.303497 340.218201 88.754395 C 340.218201 88.754395 346.819397 86.553986 346.419312 92.955139 C 346.019226 99.356262 346.419312 240.381531 346.419312 240.381531 C 340.218201 247.782867 314.213531 240.381531 314.213531 240.381531 C 318.971954 238.223923 322.397949 233.90419 323.415192 228.779449 Z"/>
            <path id="path18" fill="#aecbfa" fill-rule="evenodd" stroke="none" d="M 340.018158 252.18364 L 245.201202 309.193817 C 242.93573 310.604492 240.065323 310.604492 237.799866 309.193817 L 217.796295 297.791809 L 340.018158 224.378677 C 344.626465 221.577103 347.433838 216.569351 347.419495 211.176315 L 347.419495 239.981445 C 347.019409 244.58226 340.018158 252.18364 340.018158 252.18364 Z"/>
        </g>
    </g>
</svg>
