<?xml version="1.0" encoding="UTF-8"?>

<svg width="400" height="400" viewBox="0 0 400 400" xmlns="http://www.w3.org/2000/svg">
    <g id="g10">
        <path id="path66" fill="#000000" fill-rule="evenodd" stroke="none" d="M 44.544384 237.473663 C 42.906055 241.932877 41.265526 246.393692 39.62719 250.855362 C 35.569847 254.870529 31.512768 258.892822 27.454325 262.910156 C 23.018141 267.304993 22.064064 267.274841 23.106064 273.491272 C 24.329681 280.79541 27.841652 288.322571 34.306786 294.804688 C 41.103912 301.618225 55.375584 311.261169 65.645241 306.715668 C 64.690887 310.166565 63.423721 313.784821 61.81086 317.32251 C 54.924435 332.421722 71.707153 335.379272 83.452164 338.555969 C 93.213142 341.195221 117.168259 348.228455 120.62516 335.399536 C 122.179688 329.627167 122.421005 326.525269 121.867401 321.013916 C 124.904945 314.234314 125.874908 313.153442 128.388977 309.422607 C 131.839035 304.305695 131.591141 302.358093 130.836487 296.008301 C 130.69046 294.784424 130.512711 293.44986 130.306976 292.047363 C 141.930634 293.796082 153.10643 293.774994 164.497528 292.361816 C 161.038956 294.376801 157.570557 296.141693 152.996323 298.493622 C 142.139648 304.074249 152.370392 320.538666 157.049561 327.748871 C 166.86969 342.881744 175.674683 353.293304 192.263474 344.316559 C 197.836151 341.30011 198.26622 338.087006 201.744217 332.893951 C 203.665237 331.84021 213.565933 323.420074 219.453888 318.663391 C 221.685532 321.340729 225.957123 321.833771 232.435104 322.30191 C 235.694794 322.538849 248.477982 322.458038 251.866409 322.479706 C 262.031952 322.543518 268.132782 321.488373 268.927979 310.409546 C 269.304657 305.155975 269.079193 304.038635 266.494446 299.446289 C 266.338348 293.650909 266.183807 287.854431 266.029327 282.060394 C 265.852386 275.532532 264.606049 271.528351 262.044556 265.429688 C 259.715118 259.891266 258.410431 255.164185 255.690674 249.793091 C 256.063995 247.687439 256.359833 245.514664 256.560883 243.244415 C 260.016968 246.573105 263.47226 249.904297 266.928619 253.233826 C 273.516724 259.579834 278.960724 264.763 289.006012 264.288544 C 299.467438 263.795471 311.443878 255.553955 314.510986 245.472763 C 315.533539 242.10762 316.55307 238.743286 317.575653 235.379532 C 333.351959 238.361176 351.789459 237.678574 365.526184 230.349472 C 385.729095 219.567322 395.181885 197.889847 397.505341 174.958923 C 399.384979 156.408859 395.766724 125.214722 386.922577 108.289032 C 384.322235 103.31189 372.578857 97.014099 367.430756 102.230957 C 363.552307 106.162292 360.888062 112.151337 356.700623 115.72934 C 353.457397 118.500641 349.439758 119.872711 345.919281 121.32309 C 343.193756 113.965271 339.276642 108.246307 334.480255 102.531738 C 330.666168 97.990051 327.072571 95.726685 322.042786 92.577087 C 312.10376 86.353027 304.391205 78.495789 295.347626 71.040161 C 267.981293 48.475708 244.480606 49.167664 210.383194 63.519043 C 194.116013 70.366852 186.269745 79.659668 176.292114 93.006592 C 170.262787 93.321045 166.120239 94.4888 159.746887 100.113556 C 155.042236 104.265381 150.662201 108.536926 146.422699 112.962738 C 114.549828 118.042358 94.755318 124.116058 73.813637 142.681488 C 65.29187 150.236557 59.097107 158.608734 54.265099 168.020187 C 49.779339 172.977371 45.319317 178.058624 39.396553 180.33905 C 35.226891 181.942581 35.304413 181.938492 33.835358 178.016724 C 38.793102 174.291107 38.714748 167.277847 39.173569 160.930237 C 42.301224 161.079239 43.473621 164.587372 45.600365 167.27182 C 46.855206 161.658615 47.582741 152.941269 41.675323 149.881821 C 42.63596 147.314056 43.722889 144.726044 44.718327 141.894226 C 36.004833 143.40683 6.131593 163.542358 22.070908 178.899582 C 23.120035 183.163727 23.94619 186.101303 25.332243 188.984329 C 28.97925 196.568985 37.179691 197.868759 44.325527 195.081863 C 42.367245 204.060242 41.970329 213.829163 43.149021 227.542572 C 43.431705 230.8302 43.906147 234.147156 44.544384 237.473663"/>
        <path id="path68" fill="#000000" stroke="none" d="M 46.437473 238.167786 C 45.779781 239.959778 45.119076 241.755081 44.460571 243.547913 L 40.674397 242.159653 C 41.332916 240.366852 41.993893 238.571548 42.651302 236.779556 L 46.437473 238.167786 Z M 44.460571 243.547913 C 43.480747 246.21373 42.499275 248.883102 41.52 251.549484 L 37.734116 250.16124 C 38.713108 247.494873 39.694572 244.825195 40.674397 242.159653 L 44.460571 243.547913 Z M 41.52 251.549484 L 41.046383 252.282501 L 39.62719 250.855362 L 41.52 251.549484 Z M 41.046383 252.282501 C 38.897186 254.410049 36.745522 256.541443 34.595493 258.670654 L 31.756828 255.816376 C 33.906857 253.68718 36.058247 251.555771 38.207718 249.428223 L 41.046383 252.282501 Z M 34.595493 258.670654 C 32.689266 260.559082 30.780567 262.449707 28.873524 264.337341 L 26.034855 261.483032 C 27.941902 259.595428 29.850327 257.704803 31.756828 255.816376 L 34.595493 258.670654 Z M 28.873524 264.337341 C 28.001621 265.19989 27.705788 265.485046 27.443363 265.738159 L 24.65127 262.820068 C 25.233633 262.259583 25.876528 261.640015 26.034855 261.483032 L 28.873524 264.337341 Z M 27.443363 265.738159 C 24.860819 268.224304 24.349951 268.717346 25.093653 273.159546 L 21.118202 273.822723 C 20.021963 267.277863 20.786758 266.540192 24.65127 262.820068 L 27.443363 265.738159 Z M 25.093653 273.159546 C 25.693266 276.736176 26.882641 280.385651 28.749428 283.937866 L 25.168438 285.815338 C 23.108255 281.895782 21.789864 277.833221 21.118202 273.822723 L 25.093653 273.159546 Z M 28.749428 283.937866 C 30.482542 287.237274 32.789524 290.432312 35.733921 293.385193 L 32.879368 296.224152 C 29.61202 292.947205 27.066717 289.428406 25.168438 285.815338 L 28.749428 283.937866 Z M 35.733921 293.385193 C 39.501194 297.162048 45.651031 301.841766 52.051525 304.273682 L 50.632053 308.044464 C 43.637428 305.386597 36.957539 300.311371 32.879368 296.224152 L 35.733921 293.385193 Z M 52.051525 304.273682 C 56.503876 305.965698 61.041405 306.548035 64.833054 304.869995 L 66.45742 308.561401 C 61.566242 310.726196 55.988071 310.080261 50.632053 308.044464 L 52.051525 304.273682 Z M 64.833054 304.869995 L 68.728516 303.14563 L 67.593384 307.252289 L 65.645241 306.715668 L 64.833054 304.869995 Z M 67.593384 307.252289 C 67.087166 309.084015 66.494675 310.962311 65.813698 312.846069 L 62.012192 311.473175 C 62.658104 309.684998 63.219368 307.908325 63.69709 306.179321 L 67.593384 307.252289 Z M 65.813698 312.846069 C 65.17765 314.603302 64.458061 316.384338 63.64888 318.158813 L 59.973106 316.486237 C 60.72393 314.839142 61.403263 313.155884 62.012192 311.473175 L 65.813698 312.846069 Z M 63.64888 318.158813 C 60.237717 325.637726 63.812683 329.575958 69.3536 332.103424 L 67.68103 335.779205 C 60.099655 332.321747 55.22876 326.890137 59.973106 316.486237 L 63.64888 318.158813 Z M 69.3536 332.103424 C 72.894341 333.717651 77.179047 334.833618 81.160797 335.870972 L 80.151382 339.767242 C 75.967758 338.677856 71.466377 337.504639 67.68103 335.779205 L 69.3536 332.103424 Z M 81.160797 335.870972 C 82.212936 336.143524 83.232475 336.40976 83.964668 336.607819 L 82.939644 340.504089 C 81.861214 340.212097 81.00547 339.988586 80.151382 339.767242 L 81.160797 335.870972 Z M 83.964668 336.607819 C 88.766258 337.905945 97.067505 340.286591 104.529442 340.759674 L 104.276329 344.797302 C 96.457207 344.301758 87.896561 341.844421 82.939644 340.504089 L 83.964668 336.607819 Z M 104.529442 340.759674 C 111.273155 341.186737 117.285484 340.050751 118.676758 334.887024 L 122.573318 335.912048 C 120.508484 343.575043 112.811508 345.338562 104.276329 344.797302 L 104.529442 340.759674 Z M 118.676758 334.887024 C 119.413055 332.151642 119.840103 330.038879 120.017891 327.943909 L 124.055511 328.274536 C 123.862923 330.550537 123.390144 332.876709 122.573318 335.912048 L 118.676758 334.887024 Z M 120.017891 327.943909 C 120.196487 325.838806 120.123344 323.795044 119.864227 321.203186 L 123.870605 320.824371 C 124.162621 323.742462 124.247261 326.008087 124.055511 328.274536 L 120.017891 327.943909 Z M 119.864227 321.203186 L 120.021721 320.193787 L 121.867401 321.013916 L 119.864227 321.203186 Z M 120.021721 320.193787 C 122.73793 314.130249 123.857452 312.492737 125.834373 309.597351 L 129.162247 311.869263 C 127.334641 314.545776 126.299492 316.061401 123.713112 321.833771 L 120.021721 320.193787 Z M 125.834373 309.597351 C 126.036255 309.301514 126.208832 309.049805 126.717209 308.295105 L 130.06073 310.550049 C 129.932526 310.740997 129.51178 311.356781 129.162247 311.869263 L 125.834373 309.597351 Z M 126.717209 308.295105 C 128.258591 306.008423 128.967499 304.481018 129.194305 302.901855 L 133.185379 303.45462 C 132.860779 305.715576 131.966965 307.721252 130.06073 310.550049 L 126.717209 308.295105 Z M 129.194305 302.901855 C 129.430984 301.243256 129.192673 299.263336 128.833298 296.237305 L 132.839676 295.779022 C 133.234131 299.101715 133.497375 301.2742 133.185379 303.45462 L 129.194305 302.901855 Z M 128.833298 296.237305 C 128.734665 295.410339 128.65303 294.75647 128.596344 294.329437 L 132.587387 293.824829 C 132.708466 294.732361 132.791748 295.373077 132.839676 295.779022 L 128.833298 296.237305 Z M 128.596344 294.329437 C 128.551407 293.98703 128.451157 293.29837 128.311447 292.339355 L 132.302505 291.755371 C 132.3647 292.184875 132.458649 292.854889 132.587387 293.824829 L 128.596344 294.329437 Z M 128.311447 292.339355 L 127.917816 289.646423 L 130.606659 290.051849 L 130.306976 292.047363 L 128.311447 292.339355 Z M 130.606659 290.051849 C 136.317688 290.910583 141.92215 291.335449 147.497299 291.371887 L 147.481689 295.409515 C 141.718063 295.372253 135.919403 294.932068 130.007309 294.042908 L 130.606659 290.051849 Z M 147.497299 291.371887 C 153.089432 291.407471 158.651443 291.054382 164.260574 290.358643 L 164.734177 294.365295 C 158.954132 295.081879 153.229141 295.445923 147.481689 295.409515 L 147.497299 291.371887 Z M 164.260574 290.358643 L 165.506943 294.112732 L 164.497528 292.361816 L 164.260574 290.358643 Z M 165.506943 294.112732 C 162.248062 296.011292 158.995224 297.683899 154.845016 299.816101 L 153.000137 296.219513 C 157.096115 294.115234 160.305939 292.464294 163.488129 290.610931 L 165.506943 294.112732 Z M 154.845016 299.816101 C 154.542343 299.971436 154.231705 300.131409 153.918884 300.291901 L 152.073746 296.695313 C 152.386826 296.53479 152.697464 296.374817 153.000137 296.219513 L 154.845016 299.816101 Z M 153.918884 300.291901 C 149.653641 302.48468 149.614716 307.088501 151.121033 311.910339 L 147.272964 313.109314 C 145.208954 306.503113 145.483978 300.083191 152.073746 296.695313 L 153.918884 300.291901 Z M 151.121033 311.910339 C 152.830048 317.383057 156.459244 323.142029 158.737473 326.652649 L 155.361359 328.845398 C 152.961243 325.146851 149.133438 319.066345 147.272964 313.109314 L 151.121033 311.910339 Z M 158.737473 326.652649 C 163.50592 334.001984 168.003204 340.189636 173.167465 343.354553 L 171.069489 346.792847 C 165.229721 343.21402 160.410873 336.627808 155.361359 328.845398 L 158.737473 326.652649 Z M 173.167465 343.354553 C 178.04686 346.34552 183.752396 346.622711 191.309128 342.533875 L 193.217819 346.099243 C 184.187378 350.986603 177.193588 350.546936 171.069489 346.792847 L 173.167465 343.354553 Z M 191.309128 342.533875 C 194.880264 340.601074 196.078934 338.502258 197.693176 335.673737 L 201.210632 337.661316 C 199.260284 341.077972 197.812042 343.612305 193.217819 346.099243 L 191.309128 342.533875 Z M 197.693176 335.673737 C 198.33551 334.548462 199.040604 333.315521 200.072464 331.77417 L 203.415985 334.013489 C 202.589813 335.247253 201.868317 336.51001 201.210632 337.661316 L 197.693176 335.673737 Z M 200.072464 331.77417 L 200.774277 331.119781 L 201.744217 332.893951 L 200.072464 331.77417 Z M 200.774277 331.119781 C 201.952957 330.472778 206.98848 326.313232 211.885681 322.266296 L 214.457275 325.373688 C 209.39325 329.55896 204.183777 333.862 202.713913 334.668182 L 200.774277 331.119781 Z M 211.885681 322.266296 C 214.40686 320.183655 216.894073 318.128418 218.184525 317.086426 L 220.723526 320.240356 C 218.361496 322.149048 216.417999 323.753967 214.457275 325.373688 L 211.885681 322.266296 Z M 218.184525 317.086426 L 219.731125 315.837036 L 221.007858 317.369934 L 219.453888 318.663391 L 218.184525 317.086426 Z M 221.007858 317.369934 C 221.812927 318.335785 223.086411 318.932922 224.817047 319.347382 L 223.88681 323.274902 C 221.305893 322.657715 219.32515 321.666138 217.900223 319.957123 L 221.007858 317.369934 Z M 224.817047 319.347382 C 226.804092 319.822632 229.414551 320.055725 232.577271 320.283081 L 232.292969 324.320709 C 228.97821 324.081573 226.211044 323.830933 223.88681 323.274902 L 224.817047 319.347382 Z M 232.577271 320.283081 C 235.057373 320.462524 242.980347 320.458679 248.096664 320.457031 L 248.096664 324.494659 C 242.8694 324.497131 234.775513 324.500977 232.292969 324.320709 L 232.577271 320.283081 Z M 248.096664 320.457031 C 249.719406 320.456238 251.067368 320.456238 251.874054 320.460876 L 251.857635 324.498505 C 251.052322 324.493835 249.710648 324.494659 248.095581 324.494659 L 248.095581 320.457031 Z M 251.874054 320.460876 C 256.641724 320.490448 260.42157 320.278442 262.917297 318.864441 L 264.904877 322.381897 C 261.611206 324.247864 257.255005 324.531921 251.858734 324.498505 L 251.875198 320.460876 Z M 262.917297 318.864441 C 265.197693 317.572357 266.568146 315.027069 266.909149 310.267365 L 270.946777 310.551697 C 270.493988 316.868927 268.414642 320.393494 264.904877 322.381897 L 262.917297 318.864441 Z M 266.909149 310.267365 C 267.083649 307.822327 267.125031 306.363953 266.850006 305.114075 L 270.793121 304.245728 C 271.182098 306.014709 271.147034 307.744537 270.946777 310.551697 L 266.909149 310.267365 Z M 266.850006 305.114075 C 266.575287 303.862244 265.927704 302.564636 264.727905 300.432434 L 268.260956 298.460205 C 269.644592 300.91864 270.404724 302.478638 270.793121 304.245728 L 266.850006 305.114075 Z M 264.727905 300.432434 L 264.475647 299.493713 L 266.494446 299.446289 L 264.727905 300.432434 Z M 264.475647 299.493713 C 264.397858 296.59668 264.318665 293.69751 264.242523 290.800476 L 268.280426 290.705688 C 268.356293 293.602722 268.43576 296.502197 268.513245 299.3992 L 264.475647 299.493713 Z M 264.242523 290.800476 C 264.165833 287.903473 264.08667 285.003967 264.010498 282.107788 L 268.048126 282.013031 C 268.124298 284.90921 268.20343 287.808685 268.280426 290.705688 L 264.242523 290.800476 Z M 264.010498 282.107788 C 263.926697 278.997131 263.590332 276.500854 262.975342 274.073639 L 266.887268 273.095184 C 267.579163 275.824524 267.955841 278.597198 268.048126 282.013031 L 264.010498 282.107788 Z M 262.975342 274.073639 C 262.354919 271.628326 261.431 269.182465 260.183258 266.210938 L 263.905579 264.648743 C 265.217957 267.773926 266.199432 270.382263 266.887268 273.095184 L 262.975342 274.073639 Z M 260.183258 266.210938 C 259.299561 264.109955 258.54245 262.06842 257.800964 260.067383 L 261.587097 258.679138 C 262.293854 260.586212 263.015045 262.532166 263.905579 264.648743 L 260.183258 266.210938 Z M 261.587097 258.671478 L 261.587097 258.679138 L 259.694061 259.373291 L 261.587097 258.671478 Z M 257.800964 260.075348 C 256.647217 256.963318 255.527405 253.944122 253.884399 250.700058 L 257.496643 248.886414 C 259.221252 252.290985 260.38681 255.432617 261.587097 258.671478 L 257.800964 260.075348 Z M 253.884399 250.700058 L 253.702774 249.44603 L 255.690674 249.793091 L 253.884399 250.700058 Z M 253.702774 249.44603 C 253.901642 248.32019 254.068466 247.275177 254.195023 246.328506 L 258.186096 246.833344 C 258.021454 248.06546 257.851318 249.161972 257.678253 250.140137 L 253.702774 249.44603 Z M 254.195023 246.328506 C 254.309265 245.468933 254.425659 244.392685 254.542084 243.078949 L 258.579712 243.409851 C 258.495056 244.364746 258.361694 245.51413 258.186096 246.833344 L 254.195023 246.328506 Z M 254.542084 243.078949 L 254.917892 238.857254 L 257.957092 241.785492 L 256.560883 243.244415 L 254.542084 243.078949 Z M 257.957092 241.785492 C 259.93396 243.689255 261.912537 245.596313 263.889435 247.501175 L 261.097076 250.419006 C 259.120178 248.514404 257.141907 246.607361 255.164978 244.703323 L 257.957092 241.785492 Z M 263.889435 247.501175 L 268.324554 251.774643 L 265.53244 254.692734 L 261.097076 250.419006 L 263.889435 247.501175 Z M 268.324554 251.774643 C 271.525879 254.859009 274.450287 257.661255 277.696014 259.575989 L 275.645935 263.0625 C 272.012054 260.918488 268.917847 257.954651 265.53244 254.692734 L 268.324554 251.774643 Z M 277.696014 259.575989 C 280.817352 261.417847 284.337799 262.485596 288.911255 262.26947 L 289.1008 266.307373 C 283.62973 266.565948 279.403351 265.279327 275.645935 263.0625 L 277.696014 259.575989 Z M 288.911255 262.26947 C 293.846527 262.037415 299.177032 259.919189 303.608276 256.650208 L 306.006226 259.898926 C 300.959198 263.622101 294.830414 266.036987 289.1008 266.307373 L 288.911255 262.26947 Z M 303.608276 256.650208 C 307.837128 253.531021 311.208557 249.392609 312.578186 244.889038 L 316.443481 246.056763 C 314.807373 251.434708 310.888611 256.296844 306.006226 259.898926 L 303.608276 256.650208 Z M 312.578186 244.889038 C 313.050415 243.334518 313.523254 241.778366 313.994629 240.22467 L 317.859711 241.392395 C 317.388519 242.946091 316.915466 244.502258 316.443481 246.056763 L 312.578186 244.889038 Z M 313.994629 240.22467 C 314.542755 238.415405 315.093903 236.603958 315.643127 234.795517 L 319.508179 235.963516 C 318.959229 237.771698 318.408112 239.58342 317.859711 241.392395 L 313.994629 240.22467 Z M 315.643127 234.795517 L 316.169312 233.064056 L 317.945984 233.400146 L 317.575653 235.379532 L 315.643127 234.795517 Z M 317.945984 233.400146 C 326.121521 234.945358 335.024536 235.48497 343.580536 234.58815 L 343.974976 238.594833 C 335.029175 239.532745 325.733337 238.969833 317.205292 237.358612 L 317.945984 233.400146 Z M 343.580536 234.58815 C 351.097534 233.800095 358.347473 231.891663 364.579498 228.566788 L 366.472534 232.132172 C 359.777069 235.704941 352.013 237.751694 343.974976 238.594833 L 343.580536 234.58815 Z M 364.579498 228.566788 C 373.707703 223.695053 380.563202 216.499359 385.499237 207.948868 L 389.001129 209.952332 C 383.697083 219.139435 376.316803 226.878586 366.472534 232.132172 L 364.579498 228.566788 Z M 385.499237 207.948868 L 385.499237 207.940659 L 387.250183 208.950058 L 385.499237 207.948318 Z M 385.499237 207.940659 C 391.139648 198.170898 394.299072 186.643387 395.501831 174.768829 L 399.508484 175.147659 C 398.247375 187.5961 394.928802 199.692276 389.001129 209.959457 L 385.499237 207.940659 Z M 395.501831 174.768829 C 396.481659 165.091675 395.939026 151.893768 393.913086 139.129517 L 397.888794 138.498932 C 399.966522 151.589462 400.519592 165.163147 399.508484 175.147659 L 395.501831 174.768829 Z M 393.913086 139.129517 C 392.126556 127.870483 389.187653 116.981995 385.131927 109.219574 L 388.713226 107.357697 C 392.969147 115.503632 396.037659 126.830902 397.888794 138.498932 L 393.913086 139.129517 Z M 385.131927 109.219574 C 384.814453 108.610901 384.286591 107.946899 383.608673 107.27774 L 386.431976 104.390594 C 387.405487 105.352844 388.194366 106.362823 388.713226 107.357697 L 385.131927 109.219574 Z M 383.608673 107.27774 C 381.877716 105.570068 379.306122 103.95285 376.642792 103.03656 L 377.951874 99.219452 C 381.18689 100.332092 384.317535 102.304352 386.431976 104.390594 L 383.608673 107.27774 Z M 376.642792 103.03656 C 374.171997 102.18631 371.682037 101.951843 369.903748 102.881256 L 368.04187 99.300262 C 370.910919 97.800812 374.524567 98.040771 377.951874 99.219452 L 376.642792 103.03656 Z M 369.903748 102.881256 C 369.531189 103.07547 369.183319 103.328552 368.874298 103.642212 L 365.987152 100.818878 C 366.605408 100.192413 367.297089 99.688446 368.04187 99.300262 L 369.903748 102.881256 Z M 368.874298 103.642212 C 367.223389 105.315582 365.774597 107.431366 364.32254 109.552643 L 360.994659 107.280762 C 362.56311 104.988556 364.12915 102.702667 365.987152 100.818878 L 368.874298 103.642212 Z M 364.32254 109.552643 C 362.412476 112.34259 360.493622 115.144775 358.009705 117.266876 L 355.391571 114.190735 C 357.492004 112.39624 359.247589 109.832306 360.994659 107.280762 L 364.32254 109.552643 Z M 358.009705 117.266876 C 354.969147 119.865051 351.444061 121.279022 348.17041 122.591949 L 346.671783 118.838654 C 349.648743 117.645172 352.853943 116.358551 355.391571 114.190735 L 358.009705 117.266876 Z M 348.17041 122.591949 C 347.599548 122.820374 347.039612 123.045532 346.684082 123.191589 L 345.15451 119.453583 C 345.781769 119.195831 346.228271 119.016418 346.671783 118.838654 L 348.17041 122.591949 Z M 346.684082 123.191589 L 344.756226 123.985931 L 344.026184 122.016693 L 345.919281 121.322571 L 346.684082 123.191589 Z M 344.026184 122.016693 C 342.720947 118.491577 341.11908 115.342804 339.264893 112.382813 L 342.687561 110.238281 C 344.6716 113.404816 346.393738 116.797089 347.812378 120.628448 L 344.026184 122.016693 Z M 339.264893 112.382813 C 337.391235 109.391296 335.266968 106.604431 332.934235 103.824646 L 336.026245 101.237427 C 338.487762 104.170898 340.723785 107.10379 342.687561 110.238281 L 339.264893 112.382813 Z M 332.934235 103.824646 C 331.13208 101.678436 329.383362 100.071106 327.495209 98.63327 L 329.939423 95.431061 C 332.057678 97.044495 334.015137 98.842834 336.026245 101.237427 L 332.934235 103.824646 Z M 327.495209 98.63327 C 325.610626 97.197327 323.469086 95.851837 320.970367 94.287994 L 323.114868 90.865326 C 325.644836 92.449188 327.816498 93.813538 329.939423 95.431061 L 327.495209 98.63327 Z M 320.970367 94.287994 C 313.930817 89.880035 308.030518 84.70401 302.011047 79.423035 L 304.660431 76.379456 C 310.553101 81.549194 316.329315 86.615723 323.114868 90.865326 L 320.970367 94.287994 Z M 302.011047 79.423035 C 299.476715 77.200958 296.919891 74.95752 294.061523 72.600983 L 296.633392 69.477966 C 299.278656 71.65921 301.982574 74.030579 304.660431 76.379456 L 302.011047 79.423035 Z M 294.061523 72.600983 C 280.728027 61.607086 268.379578 56.280365 255.262787 55.454193 L 255.515869 51.416565 C 269.514191 52.297791 282.602539 57.909363 296.633392 69.477966 L 294.061523 72.600983 Z M 255.262787 55.454193 C 242.048737 54.622559 227.928543 58.323273 211.164429 65.379822 L 209.601974 61.657471 C 226.933105 54.362335 241.614578 50.542206 255.515869 51.416565 L 255.262787 55.454193 Z M 211.164429 65.379822 C 203.263672 68.704681 197.416779 72.616577 192.343445 77.308075 L 189.614914 74.34198 C 195.024628 69.339081 201.237198 65.177948 209.601974 61.657471 L 211.164429 65.379822 Z M 192.343445 77.308075 C 187.231781 82.035126 182.836945 87.619598 177.908798 94.212677 L 174.675415 91.799408 C 179.723251 85.046387 184.24411 79.309082 189.614914 74.34198 L 192.343445 77.308075 Z M 177.908798 94.212677 L 177.33876 94.97583 L 176.394547 95.024841 L 176.292114 93.006012 L 177.908798 94.212677 Z M 176.394547 95.024841 C 173.586838 95.170898 171.235764 95.510254 168.897827 96.44516 L 167.399185 92.691589 C 170.230179 91.559479 172.967209 91.154053 176.189667 90.987213 L 176.394547 95.024841 Z M 168.897827 96.44516 C 166.524017 97.393738 164.077316 98.981659 161.080048 101.627228 L 158.413696 98.598999 C 161.787598 95.621216 164.602982 93.809753 167.399185 92.691589 L 168.897827 96.44516 Z M 161.080048 101.627228 C 158.771713 103.663849 156.522263 105.750336 154.313873 107.886383 L 151.50618 104.983887 C 153.722214 102.840149 156.017685 100.712585 158.413696 98.598999 L 161.080048 101.627228 Z M 154.313873 107.886383 L 154.306198 107.894592 L 152.910034 106.435669 L 154.313873 107.886932 Z M 154.306198 107.894592 C 152.118927 110.009827 149.982895 112.165314 147.881622 114.358917 L 144.963776 111.566528 C 147.099838 109.336517 149.276978 107.139923 151.51413 104.976746 L 154.306198 107.894592 Z M 147.881622 114.358917 L 146.738007 114.950562 L 146.422699 112.962738 L 147.881622 114.358917 Z M 146.738007 114.950562 C 130.956177 117.465485 118.16671 120.2258 106.744118 124.650177 L 105.293404 120.879639 C 116.97187 116.356628 130.01799 113.538788 146.107422 110.974884 L 146.738007 114.950562 Z M 106.744118 124.650177 C 95.419846 129.03653 85.425774 135.083099 75.146805 144.195724 L 72.480438 141.16748 C 83.141525 131.715485 93.519936 125.439911 105.293404 120.879639 L 106.744118 124.650177 Z M 75.146805 144.195724 C 70.981812 147.887924 67.389847 151.774078 64.256721 155.876892 L 61.054562 153.432663 C 64.355331 149.109329 68.124504 145.028732 72.480438 141.16748 L 75.146805 144.195724 Z M 64.256721 155.876892 C 61.122219 159.981354 58.428726 164.327423 56.063404 168.935089 L 52.466793 167.10556 C 54.932106 162.303131 57.754604 157.754639 61.054562 153.432663 L 64.256721 155.876892 Z M 56.063404 168.935089 L 55.763737 169.368973 L 54.265099 168.020187 L 56.063404 168.935089 Z M 55.763737 169.368973 C 53.467705 171.905762 51.176342 174.477371 48.718697 176.689575 L 46.021378 173.676987 C 48.3941 171.540085 50.577824 169.090118 52.766472 166.671661 L 55.763737 169.368973 Z M 48.718697 176.689575 C 46.142456 179.008865 43.349533 180.981125 40.121624 182.224472 L 38.671204 178.453644 C 41.364681 177.41629 43.766441 175.706726 46.021378 173.676987 L 48.718697 176.689575 Z M 40.121624 182.224472 L 40.113953 182.224472 L 39.396553 180.33905 L 40.121624 182.224472 Z M 40.113953 182.224472 C 37.523464 183.219894 36.257122 183.718979 34.822308 183.11116 L 36.384487 179.388535 C 36.44968 179.415909 37.100529 179.060104 38.678867 178.453644 L 40.113953 182.224472 Z M 34.822308 183.11116 L 34.814358 183.102921 L 35.603264 181.249557 L 34.822308 183.11087 Z M 34.814358 183.102921 C 33.301212 182.460861 32.87883 181.217804 31.942274 178.718231 L 35.728447 177.314392 C 36.260132 178.735214 36.249451 179.335663 36.392159 179.39621 L 34.814358 183.102921 Z M 31.942274 178.718231 L 31.415798 177.312195 L 32.628731 176.39975 L 33.835358 178.016464 L 31.942274 178.718231 Z M 32.628731 176.39975 C 36.338749 173.612045 36.690468 168.06044 37.02821 162.713455 L 41.06583 162.966568 C 40.671391 169.218857 40.259132 175.712479 35.041996 179.632874 L 32.628731 176.39975 Z M 37.02821 162.713455 C 37.071762 162.013885 37.116684 161.318359 37.154758 160.787796 L 41.192394 161.072098 C 41.139523 161.802673 41.102272 162.386688 41.06583 162.966568 L 37.02821 162.713455 Z M 37.154758 160.787796 L 37.298306 158.818024 L 39.268356 158.911133 L 39.173569 160.929962 L 37.154758 160.787796 Z M 39.268356 158.911133 C 42.598709 159.069458 44.115974 161.419174 45.752663 163.953522 L 42.360943 166.130936 C 41.315113 164.511246 40.344597 163.008743 39.0788 162.948746 L 39.268356 158.911133 Z M 45.752663 163.953522 C 46.209293 164.661087 46.679897 165.389435 47.177608 166.017517 L 44.02338 168.525574 C 43.396095 167.733368 42.871269 166.921204 42.360943 166.130936 L 45.752663 163.953522 Z M 47.57206 167.70546 L 46.648663 171.837021 L 44.02338 168.525574 L 45.600365 167.271561 L 47.57206 167.70546 Z M 43.628941 166.837372 C 44.31073 163.788361 44.833374 159.790131 44.094875 156.517334 L 48.022388 155.633636 C 48.924694 159.631027 48.346172 164.242523 47.57206 167.70546 L 43.628941 166.837372 Z M 44.094875 156.517334 C 43.625919 154.436295 42.621178 152.647339 40.753017 151.679825 L 42.597893 148.083252 C 45.686642 149.683502 47.306355 152.45726 48.022388 155.633636 L 44.094875 156.517334 Z M 40.753017 151.679825 L 39.156593 150.852875 L 39.782238 149.179764 L 41.675323 149.881531 L 40.753017 151.679825 Z M 39.782238 149.179764 C 40.080532 148.382095 40.514702 147.274872 40.960922 146.137299 L 44.714489 147.604965 C 44.365242 148.495499 44.014893 149.390945 43.568398 150.583588 L 39.782238 149.179764 Z M 40.960922 146.137299 C 41.555885 144.618668 42.167004 143.061127 42.80991 141.231628 L 46.627026 142.556274 C 46.052334 144.190781 45.373825 145.920898 44.714489 147.604965 L 40.960922 146.137299 Z M 44.379215 139.906097 L 47.766003 139.318481 L 46.627026 142.556274 L 44.718327 141.893951 L 44.379215 139.906097 Z M 45.057716 143.881836 C 41.148289 144.560318 32.538609 149.39151 26.288776 155.878235 L 23.37067 153.086166 C 30.188898 146.009338 39.873177 140.68811 44.379215 139.906097 L 45.057716 143.881836 Z M 26.288776 155.878235 C 24.023714 158.229355 22.10351 160.768616 20.890856 163.356369 L 17.232061 161.668411 C 18.661396 158.618317 20.838806 155.714432 23.37067 153.086166 L 26.288776 155.878235 Z M 20.890856 163.356369 C 19.733801 165.824127 19.205681 168.349991 19.631355 170.802124 L 15.655632 171.480652 C 15.078745 168.15741 15.744931 164.84021 17.232061 161.668411 L 20.890856 163.356369 Z M 19.631355 170.802124 C 20.017311 173.029678 21.2138 175.269287 23.467098 177.440109 L 20.674721 180.358215 C 17.753878 177.543396 16.185947 174.540924 15.655632 171.480652 L 19.631355 170.802124 Z M 23.467098 177.440109 L 24.026995 178.417755 L 22.070908 178.899307 L 23.467098 177.440109 Z M 24.026995 178.417755 C 24.539503 180.503403 24.999147 182.266632 25.499056 183.860062 L 21.650982 185.059021 C 21.129988 183.398773 20.65007 181.557739 20.115097 179.3806 L 24.026995 178.417755 Z M 25.499056 183.860062 C 25.977331 185.384445 26.499153 186.754883 27.153831 188.116837 L 23.510649 189.851303 C 22.779823 188.331024 22.193626 186.78746 21.650982 185.059021 L 25.499056 183.860062 Z M 27.153831 188.116837 C 28.605892 191.137115 30.903286 192.975937 33.551037 193.826202 L 32.321114 197.674271 C 28.660954 196.498871 25.49522 193.97905 23.510649 189.851303 L 27.153831 188.116837 Z M 33.551037 193.826202 C 36.64006 194.817795 40.234211 194.514023 43.591675 193.204941 L 45.059357 196.958511 C 40.861771 198.5952 36.307514 198.954056 32.321114 197.674271 L 33.551037 193.826202 Z M 43.591675 193.204941 L 47.097626 191.837524 L 46.296951 195.507278 L 44.325527 195.081589 L 43.591675 193.204941 Z M 46.296951 195.507278 C 45.345882 199.870316 44.772015 204.442917 44.579453 209.607193 L 40.541817 209.465851 C 40.742882 204.07338 41.34853 199.269333 42.354103 194.656189 L 46.296951 195.507278 Z M 44.579453 209.607193 C 44.387711 214.773117 44.58329 220.568771 45.16811 227.376862 L 41.130211 227.707764 C 40.53717 220.803238 40.341305 214.85556 40.541817 209.465851 L 44.579453 209.607193 Z M 45.16811 227.376862 C 45.317127 229.10997 45.495724 230.70639 45.700615 232.166122 L 41.709553 232.70192 C 41.455635 230.890472 41.260056 229.220917 41.130211 227.707764 L 45.16811 227.376862 Z M 45.700615 232.166122 C 45.926605 233.774887 46.202991 235.421158 46.52375 237.094543 L 42.565289 237.852234 C 42.240696 236.160461 41.953346 234.442703 41.709553 232.70192 L 45.700615 232.166122 Z M 46.52375 237.094543 L 46.437473 238.167526 L 44.544384 237.473389"/>
        <path id="path70" fill="#ffff00" fill-rule="evenodd" stroke="#1f1917" stroke-width="0.591674" d="M 147.530716 116.178009 L 120.949493 120.497772 L 96.694153 131.129852 L 76.093483 144.088623 L 56.489902 168.011673 L 45.414921 179.741089 L 34.706436 183.688019 L 31.874075 176.765717 L 36.826328 169.617432 L 37.939007 159.536514 L 41.256218 159.670166 L 44.88076 162.976135 L 43.903133 152.707336 L 39.885506 150.012192 L 40.007401 146.098907 L 30.490213 151.482864 L 21.872038 161.650909 L 20.075378 170.738602 L 23.760471 178.015915 L 27.197929 190.378891 L 34.188728 193.688965 L 41.542744 193.327942 L 48.515446 189.276337 L 43.864235 212.867157 L 48.515446 239.115829 L 43.395279 251.23584 L 26.624889 269.305176 L 29.606535 280.100464 L 37.550854 292.610291 L 52.531162 303.152496 L 60.476856 304.239685 L 69.310875 304.539368 L 63.799538 327.16568 L 84.067947 335.472656 L 109.320358 338.795105 L 117.958527 333.147064 L 118.623337 317.862976 L 128.259399 301.914063 L 128.92395 289.287872 L 152.18248 290.949463 L 173.779404 288.955597 L 152.18248 301.914063 L 155.837448 317.530457 L 169.459915 338.795105 L 182.750931 344.443939 L 193.382996 340.124451 L 197.702759 331.485474 L 219.964218 314.540283 L 224.283707 318.195251 L 259.171387 319.523804 L 266.149017 313.875732 L 266.813568 303.90741 L 264.487946 299.58847 L 262.826355 272.675262 L 251.197189 249.416702 L 253.190277 239.115829 L 260.168457 242.770782 L 279.772034 261.045837 L 289.407288 261.709839 L 300.039612 257.39035 L 310.672791 249.416702 L 315.988525 232.138443 L 347.221527 234.131805 L 366.160583 226.821884 L 381.444641 212.534882 L 392.409271 191.934219 L 395.067963 167.679398 L 392.741516 139.436584 L 386.76123 114.184967 L 380.779877 106.210541 L 372.473938 103.551849 L 357.853851 119.500702 L 344.563629 124.152496 L 332.934235 104.881134 L 321.305115 94.24884 L 314.991455 90.261597 L 289.739838 69.328674 L 269.471466 58.364075 L 249.203049 56.702484 L 225.613052 60.689667 L 205.01239 68.331879 L 190.725113 79.960999 L 179.428253 93.58432 L 167.799133 96.906738 L 147.530716 116.178009 Z"/>
        <path id="path72" fill="#ffffcc" fill-rule="evenodd" stroke="none" d="M 70.438339 176.145294 C 47.669033 202.701584 52.72702 234.910553 59.037388 266.465698 C 55.669773 257.957092 52.301346 249.44931 48.934006 240.940704 C 47.693138 233.141022 46.452259 225.341324 45.211391 217.541656 C 45.565571 209.564728 45.920303 201.588104 46.275307 193.61145 C 49.465691 185.989532 52.656342 178.36763 55.846733 170.744888 C 60.632992 163.654938 65.419243 156.564178 70.205505 149.473389 C 77.650185 143.269318 85.095154 137.065216 92.539818 130.86142 C 100.693695 127.493774 108.848114 124.125397 117.001984 120.757751 C 126.573677 119.516876 136.14592 118.276306 145.71846 117.0354 C 136.854843 127.138794 127.992332 137.243286 119.128738 147.346664 C 97.779716 154.271164 85.189095 158.934723 70.438339 176.145294"/>
        <path id="path74" fill="#ffffcc" fill-rule="evenodd" stroke="none" d="M 177.625275 95.231934 C 161.796112 110.675201 153.149979 122.322418 143.076736 140.404907 C 135.871185 153.340347 127.788811 165.798141 120.213463 178.552246 C 116.381569 185.008057 116.019691 190.421616 114.874428 197.865738 C 111.152084 193.434235 107.429741 189.002945 103.707115 184.571701 C 105.479965 179.253494 107.25251 173.935547 109.025352 168.618149 C 115.0522 157.805069 121.07933 146.991669 127.105637 136.179352 C 139.868546 123.593414 152.631439 111.00827 165.394348 98.422577 C 169.470856 97.358673 173.547943 96.295593 177.625275 95.231934"/>
        <path id="path76" fill="#ffffcc" fill-rule="evenodd" stroke="none" d="M 255.796906 56.944061 C 243.119492 61.697479 222.065216 63.262909 220.60466 77.813965 C 219.564285 88.147461 221.383682 93.339722 227.612442 104.272522 C 212.228088 88.35318 208.423279 90.816864 178.688385 95.763916 C 182.942673 89.736755 187.196976 83.7099 191.451294 77.68277 C 198.895981 73.074585 206.341751 68.465271 213.786438 63.856812 C 223.358139 61.729492 232.930649 59.602509 242.502869 57.475189 C 246.934158 57.297974 251.365677 57.121033 255.796906 56.944061"/>
        <path id="path78" fill="#cccc00" fill-rule="evenodd" stroke="none" d="M 290.779358 253.768814 C 295.000275 256.37381 294.909576 258.261414 294.203705 260.047424 C 297.533264 258.714752 300.861938 257.38324 304.191498 256.052246 C 306.348633 253.156052 308.504974 250.260681 310.661835 247.363663 C 312.262878 243.237274 313.863983 239.11116 315.465057 234.984253 C 313.419098 233.446167 311.374023 231.907806 309.32782 230.368912 C 300.386719 231.510376 291.445007 232.651779 282.503876 233.793228 C 281.838257 235.600845 281.172089 237.408478 280.505859 239.215256 C 280.696808 241.783844 280.887177 244.351593 281.077271 246.920166 C 281.933044 248.442093 282.789612 249.964828 283.645294 251.485916 C 284.977692 252.152115 286.309235 252.818298 287.640228 253.483643 C 288.687714 253.579239 289.733582 253.67485 290.779358 253.768814"/>
        <path id="path80" fill="#cccc00" fill-rule="evenodd" stroke="none" d="M 288.282318 207.895432 C 274.836761 211.776932 274.941681 212.846054 270.970886 226.185287 C 276.212708 217.775299 280.093628 213.531128 288.282318 207.895432"/>
        <path id="path82" fill="#cccc00" fill-rule="evenodd" stroke="none" d="M 377.686432 108.071014 C 375.296448 109.175171 372.969482 109.706879 371.475464 111.893585 C 368.258545 116.599884 365.502045 120.558899 360.182434 123.862915 C 357.50351 125.527588 354.732208 126.605469 351.891083 127.490509 C 349.534515 128.223541 348.11972 127.569153 346.113495 129.010223 C 347.30368 129.218109 348.493317 129.4263 349.683563 129.635315 C 352.307465 129.635315 354.931091 129.635315 357.554718 129.635315 C 360.78949 127.637329 364.023682 125.639587 367.257629 123.642456 C 369.160797 121.64444 371.062439 119.647552 372.964813 117.649536 C 374.538513 114.456696 376.112488 111.263031 377.686432 108.071014"/>
        <path id="path84" fill="#cccc00" fill-rule="evenodd" stroke="none" d="M 163.50592 137.910004 C 158.215637 152.384369 153.594284 164.792526 145.580109 177.897827 C 155.848938 166.834625 162.073303 157.431396 167.954437 144.923233 C 170.238693 140.064972 170.670395 134.363251 177.033615 136.483673 C 177.319336 141.335144 178.345154 146.18576 178.630859 151.037216 C 182.069138 126.390991 191.764114 116.0849 214.301407 106.520325 C 207.928024 107.282104 201.554657 108.042236 195.182114 108.803223 C 189.18924 110.135559 183.196609 111.466553 177.20372 112.798096 C 174.254654 117.078949 171.305603 121.359558 168.357361 125.639587 C 166.739853 129.729828 165.123169 133.820313 163.50592 137.910004"/>
        <path id="path86" fill="#cccc00" fill-rule="evenodd" stroke="none" d="M 207.167099 137.339386 C 212.027039 160.215012 219.024658 182.168304 222.064682 205.406845 C 224.039078 220.506866 224.254959 227.761459 216.65715 240.788422 C 208.354263 240.251801 203.199295 241.188324 195.168167 243.819641 C 163.195282 254.300766 144.858871 269.710571 123.315643 238.660843 C 130.192764 241.901093 137.070679 245.142136 143.94725 248.384018 C 148.849945 247.420349 153.752609 246.456696 158.655273 245.493042 C 167.311264 240.451492 175.967514 235.410477 184.623749 230.368912 C 191.377319 229.03656 198.131165 227.705566 204.884201 226.374023 C 207.072281 217.242523 209.259567 208.110474 211.447693 198.979248 C 209.830429 186.897873 208.212921 174.817581 206.596481 162.737015 C 206.406952 157.03009 206.216583 151.322906 206.025635 145.615173 C 206.406952 142.856232 206.78743 140.098114 207.167099 137.339386"/>
        <path id="path88" fill="#cccc00" fill-rule="evenodd" stroke="none" d="M 262.243164 278.881531 C 259.557343 297.4664 268.426971 307.457458 264.755035 312.589142 C 263.714691 314.042603 262.305359 316.577759 260.732239 317.272675 C 255.112106 319.755249 247.386108 316.80838 246.833328 318.262085 C 240.65033 318.262085 234.467896 318.262085 228.284088 318.262085 C 225.811935 317.2146 223.338684 316.168518 220.864883 315.12265 C 224.669662 310.651672 228.474991 306.180725 232.2798 301.710571 C 235.988998 293.625153 239.69902 285.53894 243.409042 277.454407 C 245.787521 269.274231 248.16571 261.094055 250.542511 252.913071 C 251.779556 252.913071 253.016342 252.913071 254.252533 252.913071 C 256.916718 261.569305 259.579803 270.225281 262.243164 278.881531"/>
        <path id="path90" fill="#cccc00" fill-rule="evenodd" stroke="none" d="M 231.066879 224.852936 C 232.573456 233.291687 235.189957 235.296509 239.159378 243.46492 C 236.51712 256.79071 232.272964 272.63855 227.165115 284.396179 C 225.011246 289.354706 223.272675 292.08844 219.474991 295.92038 C 213.063538 302.394806 206.581696 308.034912 199.309875 313.646484 C 194.076569 317.681091 190.423248 315.657654 183.965256 314.743011 C 181.218887 319.721832 180.460114 322.48764 175.405426 325.015137 C 167.631195 328.9021 160.674118 320.525513 154.572464 315.598755 C 158.977432 322.479126 163.38237 329.359253 167.78653 336.239685 C 170.831161 339.093109 173.875015 341.946838 176.918839 344.801147 C 179.486603 345.180786 182.055176 345.561279 184.623749 345.942566 C 188.048065 343.849243 191.472107 341.75647 194.896408 339.664001 C 196.704041 336.239685 198.511642 332.815338 200.318451 329.391296 C 204.123245 326.537598 207.928864 323.684143 211.732834 320.829834 C 216.394714 316.83493 221.055801 312.839783 225.716339 308.84491 C 228.665405 304.658783 231.613617 300.473816 234.562683 296.288513 C 237.225204 291.342285 239.889374 286.395508 242.55249 281.44928 C 245.976776 271.176636 249.401077 260.903137 252.826233 250.630188 C 253.111099 246.729263 253.39682 242.829666 253.681702 238.930374 C 249.401077 237.027176 245.121063 235.124771 240.840469 233.222382 C 237.701279 230.273331 234.206299 227.801163 231.066879 224.852936"/>
        <path id="path92" fill="#cccc00" fill-rule="evenodd" stroke="none" d="M 128.691925 284.302734 C 143.094818 284.302734 158.304932 283.503967 171.496536 277.454407 C 175.229828 271.85376 178.914368 267.28006 183.48233 262.330261 C 179.324982 270.182007 178.021378 274.620117 176.918839 283.447266 C 175.491425 285.53894 174.065109 287.632294 172.637985 289.725037 C 161.79364 290.010742 150.950378 290.295624 140.106033 290.581329 C 136.586395 290.200317 133.066483 289.819824 129.547394 289.43988 C 129.167191 289.058868 128.786713 288.678375 128.406235 288.298462 C 128.501556 286.966095 128.597153 285.634552 128.691925 284.302734"/>
        <path id="path94" fill="#cccc00" fill-rule="evenodd" stroke="none" d="M 126.693932 274.314941 C 126.321419 270.938843 125.948601 267.561371 125.575783 264.183624 C 123.115143 278.994934 123.706802 288.920532 116.890236 302.188293 C 111.798004 308.088593 105.528709 313.457214 98.348091 316.330109 C 98.954285 319.967834 99.135353 322.24054 98.783646 324.907745 C 97.518661 334.501068 78.327332 330.263214 70.433693 329.881104 C 83.099625 333.142395 95.765556 336.402649 108.430389 339.664001 C 111.284126 338.522552 114.137566 337.381104 116.991852 336.239685 C 117.943192 330.72287 118.894249 325.2052 119.845573 319.688416 C 122.508659 314.742157 125.172844 309.79541 127.835365 304.849976 C 128.310638 301.805359 128.786713 298.761475 129.262512 295.717926 C 128.406235 288.583618 127.550514 281.44928 126.693932 274.314941"/>
        <path id="path96" fill="#cccc00" fill-rule="evenodd" stroke="none" d="M 105.291214 190.703491 C 104.892952 197.905182 104.427834 200.907928 107.603676 207.268707 C 111.641327 215.353561 116.599869 222.948883 120.98703 230.939499 C 121.462006 225.612228 121.937271 220.285538 122.413345 214.959091 C 116.706154 206.873428 110.998962 198.788055 105.291214 190.703491"/>
        <path id="path98" fill="#cccc00" fill-rule="evenodd" stroke="none" d="M 46.711658 245.106247 C 45.47628 247.735641 44.240883 250.365585 43.005489 252.994705 C 46.405697 264.446869 49.427616 271.701447 55.902069 281.706238 C 54.774593 285.760254 53.930637 287.533661 51.336311 290.837708 C 45.638432 289.960876 40.579082 289.707794 34.80587 289.725037 C 41.180065 294.671021 47.553432 299.617249 53.92598 304.56427 C 57.064323 303.993439 60.203751 303.422852 63.342911 302.85199 C 66.481514 299.71283 69.620682 296.574219 72.760109 293.435059 C 68.288322 286.490845 63.818169 279.546906 59.348015 272.602936 C 55.135628 263.437439 50.923237 254.271179 46.711658 245.106247"/>
        <path id="path100" fill="#cccc00" fill-rule="evenodd" stroke="none" d="M 377.728333 104.28183 C 381.609283 121.745514 386.615234 137.858765 386.15094 155.744308 C 385.580872 177.686646 381.304138 205.403564 360.973572 218.635681 C 338.205872 233.453842 311.479462 226.445236 286.498779 220.096252 C 296.67749 224.281265 306.855621 228.465698 317.03302 232.651779 C 326.545532 233.127609 336.058075 233.602859 345.569794 234.078934 C 352.038757 232.175705 358.506592 230.273331 364.974762 228.37175 C 370.016266 224.185913 375.058136 220.000641 380.098877 215.815384 C 383.903656 207.825592 387.708435 199.834702 391.513794 191.844925 C 392.940369 182.617264 394.367523 173.390427 395.793854 164.164429 C 394.652405 155.126877 393.510956 146.090973 392.369507 137.054535 C 390.277008 128.112579 388.183716 119.170624 386.091766 110.230347 C 383.304291 108.247131 380.516632 106.26474 377.728333 104.28183"/>
        <path id="path102" fill="#cccc00" fill-rule="evenodd" stroke="none" d="M 37.954613 156.329681 C 27.61813 163.056961 23.558594 166.010651 24.691528 178.478577 C 25.721207 182.212692 26.751438 185.947632 27.781933 189.681473 C 29.240849 190.669235 30.70059 191.656189 32.159779 192.643936 C 33.962738 193.24411 35.765697 193.845093 37.568661 194.446091 C 40.830536 193.673355 44.09269 192.900894 47.355381 192.128143 C 49.029335 186.934311 50.703548 181.740707 52.377495 176.54686 C 47.741341 178.821777 43.10574 181.096985 38.470142 183.371933 C 37.396915 183.371933 36.323952 183.371933 35.250725 183.371933 C 34.048748 181.52623 32.846767 179.680527 31.644804 177.834839 C 33.104534 175.68866 34.563721 173.542465 36.02346 171.396271 C 36.795918 167.31839 37.568661 163.240219 38.341122 159.163132 C 39.328068 159.463654 40.315834 159.763306 41.302776 160.063828 C 42.504761 161.00882 43.706738 161.952774 44.908699 162.896988 C 44.736958 160.750793 44.565483 158.604614 44.393181 156.45842 C 43.577717 155.084976 42.762508 153.711548 41.946499 152.337799 C 41.131035 151.650513 40.315834 150.964325 39.499825 150.277069 C 38.984844 152.295074 38.470142 154.3125 37.954613 156.329681"/>
        <path id="path104" fill="#cccc00" fill-rule="evenodd" stroke="none" d="M 269.850281 58.082214 C 279.022858 66.600128 290.282501 74.004547 297.619507 84.415009 C 300.459015 88.445526 303.614594 90.506195 297.57132 96.197815 C 303.956177 94.374023 306.328369 94.572052 311.439209 95.191681 C 320.736725 96.316681 329.45105 109.533203 330.007111 119.004639 C 329.897522 119.890533 327.42453 121.900818 320.235748 123.885406 C 320.092987 124.161804 316.178619 123.34964 316.275909 123.614502 C 317.022858 125.658783 318.021301 125.971893 319.54541 126.928436 C 319.876312 129.201996 320.089142 132.707672 321.63736 135.193237 C 326.161224 135.114044 330.581482 135.606323 335.011383 136.483673 C 336.502075 138.956116 336.276947 141.428284 336.152832 143.902863 C 337.864868 143.617981 339.577148 143.332306 341.289185 143.04715 C 340.81311 139.14621 340.338135 135.246887 339.862854 131.347321 C 341.383942 128.778748 342.905853 126.210175 344.428345 123.642456 C 342.239685 118.696198 340.052155 113.749969 337.864868 108.803223 C 333.679047 104.808319 329.493774 100.813141 325.308502 96.817413 C 324.906372 96.798218 324.50177 96.777161 324.09967 96.757721 C 319.392578 93.868347 314.68631 90.980652 309.980011 88.092133 C 302.30307 81.811371 294.626068 75.529755 286.949097 69.248688 C 281.249054 65.526367 275.549805 61.804016 269.850281 58.082214"/>
        <path id="path106" fill="#cccc00" fill-rule="evenodd" stroke="none" d="M 285.303131 128.392792 C 284.819366 129.239227 284.088531 130.591888 283.152283 131.528381 C 286.973236 135.142822 288.858368 137.562927 290.220276 142.674622 C 285.900818 144.819153 281.582123 146.963699 277.262665 149.108551 C 273.607697 152.611984 269.952698 156.116013 266.298035 159.619522 C 261.487671 157.03009 260.288696 155.041412 257.960938 150.104782 C 255.250168 150.822189 252.68158 151.51329 250.4431 150.691803 C 251.863388 150.702774 252.736145 150.347733 254.154785 149.470367 C 256.480927 147.053818 258.806549 144.637543 261.132141 142.221008 C 265.240448 139.109772 269.348724 135.998596 273.456207 132.887909 C 276.144501 132.011322 278.833313 131.135345 281.521576 130.259583 C 282.547974 129.837189 284.275635 128.81604 285.303131 128.392792"/>
        <path id="path108" fill="#cccc00" fill-rule="evenodd" stroke="none" d="M 297.225891 141.283112 C 283.483734 148.682281 270.321716 156.123978 263.295319 170.176514 C 263.295319 152.339478 281.204681 144.487701 297.225891 141.283112"/>
        <path id="path110" fill="#cccc00" fill-rule="evenodd" stroke="none" d="M 260.566742 106.19574 C 250.363129 113.153107 243.147446 127.193298 244.054382 140.877136 C 240.730347 129.02887 241.908234 117.832764 252.114014 109.648834 C 253.836456 108.811707 255.55777 107.974579 257.279114 107.137756 C 258.375641 106.823822 259.471313 106.510162 260.566742 106.19574"/>
        <g id="g112"/>
        <g id="g124">
            <clipPath id="clipPath1">
                <path d="M -189.725527 -189.259525 L -216.30677 -184.939728 L -240.562107 -174.307666 L -261.162763 -161.34889 L -280.766347 -137.425873 L -291.841343 -125.696427 L -302.549805 -121.749516 L -305.382175 -128.671811 L -300.429929 -135.820083 L -299.317245 -145.901023 L -296.00002 -145.767347 L -292.37549 -142.461401 L -293.35313 -152.730236 L -297.370731 -155.42537 L -297.248865 -159.33861 L -306.766036 -153.954652 L -315.384216 -143.786605 L -317.180874 -134.698911 L -313.495774 -127.421598 L -310.058316 -115.05867 L -303.067521 -111.748592 L -295.713515 -112.109585 L -288.740798 -116.161191 L -293.392021 -92.570354 L -288.740798 -66.321711 L -293.860977 -54.201706 L -310.631367 -36.132355 L -307.649715 -25.337051 L -299.705403 -12.827241 L -284.725095 -2.285051 L -276.779401 -1.197856 L -267.945379 -0.898174 L -273.456703 21.728145 L -253.188312 30.03514 L -227.935903 33.357558 L -219.297705 27.709542 L -218.632898 12.425448 L -208.996847 -3.523454 L -208.332319 -16.149659 L -185.073773 -14.488059 L -163.476856 -16.481923 L -185.073773 -3.523454 L -181.418812 12.092904 L -167.796346 33.357558 L -154.505305 39.006411 L -143.873272 34.686921 L -139.553475 26.047914 L -117.292029 9.10275 L -112.97254 12.757712 L -78.084875 14.086238 L -71.107245 8.438222 L -70.442661 -1.530121 L -72.768314 -5.849052 L -74.429886 -32.762279 L -86.059061 -56.020825 L -84.065979 -66.321711 L -77.087776 -62.666749 L -57.48422 -44.391692 L -47.848923 -43.727694 L -37.216638 -48.047183 L -26.58346 -56.020825 L -21.26768 -73.29909 L 9.96526 -71.305729 L 28.904344 -78.615651 L 44.188438 -92.902646 L 55.153015 -113.503302 L 57.811742 -137.758109 L 55.485251 -166.000979 L 49.504999 -191.252551 L 43.523631 -199.227002 L 35.217725 -201.885673 L 20.597601 -185.936827 L 7.30737 -181.285018 L -4.322014 -200.556393 L -15.951119 -211.188678 L -22.26478 -215.175904 L -47.516407 -236.108851 L -67.784771 -247.073428 L -88.053204 -248.735056 L -111.643204 -244.747831 L -132.24386 -237.105672 L -146.531134 -225.476567 L -157.828003 -211.853262 L -169.457136 -208.530789"/>
            </clipPath>
            <g id="g126" clip-path="url(#clipPath1)">
                <g id="g132"/>
            </g>
        </g>
        <path id="path136" fill="#000000" fill-rule="evenodd" stroke="none" d="M 280.071198 211.824326 C 282.180115 210.676575 286.008759 209.098251 288.117676 207.9505 C 285.948181 208.317017 282.058777 209.114395 279.889282 209.480087 C 274.094452 210.458542 273.412903 211.85144 272.513641 217.556976 C 272.0896 220.243607 271.505859 223.576996 271.081848 226.264465 C 272.217804 223.226105 273.584412 219.694702 274.908295 216.79686 C 276.309143 213.732193 277.098022 213.443207 280.071198 211.824326 Z M 172.551147 64.883484 C 177.105118 58.052612 179.727112 55.830566 186.734879 51.503113 C 177.219345 53.795319 175.405426 55.55719 172.551147 64.883484 Z M 171.052505 79.932251 C 179.021484 63.912079 185.05545 58.013184 201.739563 50.14502 C 182.868179 54.770477 177.320969 58.059753 171.052505 79.932251 Z M 0.399483 163.318008 C 2.14821 155.296173 3.778048 152.270126 8.724012 145.685028 C 0.700799 151.290298 -0.345044 153.592651 0.399483 163.318008 Z M 179.022842 297.578979 C 178.781525 295.632477 178.539093 293.684326 178.296127 291.737579 C 177.858948 288.210785 177.876221 285.344757 178.157257 281.794708 C 178.428177 278.358887 178.697708 274.923065 178.967789 271.48642 C 177.966873 274.978943 175.966675 278.471466 174.966599 281.963989 C 174.56665 283.361816 174.235229 284.492279 174.045654 285.537323 C 159.113297 288.588257 144.289658 288.779205 129.353455 286.114471 C 128.400742 280.585052 127.240677 274.822815 126.267715 270.692871 C 125.972694 275.319153 126.162796 288.108337 126.138687 295.268982 C 126.120079 300.817566 125.886414 302.716949 123.025833 307.436371 C 120.347153 311.855316 119.212555 312.857605 115.463089 320.322815 C 115.774536 325.032928 115.780556 328.14798 114.529015 332.618958 C 112.447189 340.050751 91.452072 334.292328 85.912819 332.775909 C 79.092117 330.909119 64.990555 328.134003 68.536766 319.040863 C 71.658119 311.038452 73.635849 302.601349 75.160782 291.402832 C 62.66441 273.401154 51.042122 248.73027 48.812656 226.872299 C 47.081188 209.89946 48.120182 199.45285 51.79295 189.071167 C 57.612442 172.62236 65.753159 158.383575 78.817383 146.917969 C 96.438583 131.456085 112.911499 125.245148 138.703003 121.319855 C 132.501114 128.262421 126.364693 135.604645 119.6763 143.476654 C 112.905472 151.447266 108.881531 159.496811 104.58313 168.213547 C 98.643936 180.253586 98.771034 184.834946 106.644684 195.404282 C 113.429482 204.513031 117.092117 208.614471 120.054314 217.526031 C 117.607628 222.569244 116.718468 226.830383 115.895607 233.717072 C 124.203163 242.797089 130.376007 249.019791 138.441956 250.936981 C 146.353668 252.817459 152.961243 252.452606 160.038864 248.834915 C 175.760132 240.796906 190.306015 230.419327 208.039795 229.990097 C 216.244064 209.819473 215.414902 192.966904 211.475616 173.451782 C 208.78595 160.124359 207.70752 147.50499 206.870407 133.917572 C 203.544174 147.91037 202.920456 160.215836 205.387405 174.15358 C 208.362762 190.951111 210.675201 209.508835 202.399445 224.271118 C 186.364532 225.49884 172.621796 235.254333 158.168533 242.739563 C 152.359726 245.749435 146.311493 246.041992 139.880875 244.277084 C 133.912079 242.637924 129.884598 238.689606 123.454529 231.273407 C 123.354256 223.827911 125.033974 220.391266 128.452805 213.648926 C 133.946335 202.82048 140.010437 192.740921 146.664032 182.085312 C 138.515915 191.921066 130.796768 200.136856 124.383934 210.024368 C 121.93261 203.040161 118.428307 199.494766 112.621948 191.631256 C 106.950653 183.951263 106.356506 180.587494 110.596848 171.700058 C 114.860458 162.768219 118.476509 154.917313 125.733566 147.081757 C 138.272675 133.540924 149.759094 118.470215 163.471664 105.135071 C 170.916641 97.89447 173.939377 98.144562 183.815414 96.647583 C 192.740921 95.294922 201.456879 93.586517 210.56015 91.471527 C 201.755737 92.292206 193.245743 92.59433 184.674973 92.806915 C 184.585663 92.809387 184.498016 92.812378 184.409256 92.812378 C 192.841995 82.042847 197.735916 76.041992 211.431503 70.091309 C 245.151474 55.445953 266.57663 53.862152 293.064728 76.128265 C 299.929504 81.898987 305.925385 87.501282 312.886627 92.480133 C 310.362976 92.695984 308.188019 93.148468 305.311279 94.278442 C 308.812317 93.61142 312.855408 94.272949 316.488403 94.936951 C 317.508759 95.59848 318.556274 96.24353 319.630859 96.877136 C 324.543701 99.771942 327.332794 101.37085 330.656006 106.001495 C 334.168793 110.894867 337.096252 115.784424 339.677124 121.173859 C 337.985931 120.569855 336.568085 120.05899 335.304199 119.683167 C 334.373962 119.256958 333.362122 118.975067 332.289154 118.871796 C 330.163757 118.66745 328.130157 119.190125 326.435944 120.23291 C 326.367737 120.264679 326.30011 120.295654 326.231049 120.329041 C 323.513184 121.6521 319.302429 123.160889 316.484619 123.618317 C 317.921082 124.11441 321.099945 124.30014 322.599426 123.706818 C 322.800446 123.626801 323.004791 123.566284 323.214325 123.5159 C 322.538055 124.666656 322.096191 125.97406 321.960327 127.385864 C 321.780365 129.257874 322.160828 131.054535 322.965881 132.614502 C 322.968628 132.619965 322.971344 132.625427 322.974121 132.630981 C 323.228882 133.229462 323.582214 133.782227 323.971191 134.179962 C 322.682373 134.653595 321.368378 135.196259 320.01358 135.784912 C 326.296814 134.827545 331.962646 134.662903 338.096039 135.471252 C 338.500641 137.404602 338.908234 139.453003 339.285706 141.537018 C 338.525543 141.597534 337.767609 141.65506 337.008301 141.714783 C 336.94693 141.720245 336.884735 141.725739 336.823364 141.731232 C 333.921722 139.411896 330.688599 139.801727 326.271881 140.809753 C 312.840332 143.872742 315.996765 151.410019 309.816772 162.766083 C 316.23288 154.922852 315.757599 146.717163 326.213013 144.240891 C 328.649506 143.664001 330.308136 142.942505 331.957153 143.190399 C 328.988922 144.683578 326.420898 147.158173 325.403015 150.031906 C 322.533112 158.135925 324.315247 164.964279 321.162659 172.53334 C 325.068268 165.767151 325.303558 159.163132 328.795532 152.044418 C 330.049561 149.486786 334.704346 145.39328 337.56192 145.330292 C 338.346161 145.313873 339.128723 145.296875 339.913818 145.279892 C 340.602448 149.784851 341.021027 154.256607 340.753906 157.966629 C 340.267151 164.73584 338.508301 174.783615 337.455627 178.627838 C 340.993042 174.080734 342.604279 164.449341 344.157959 157.670013 C 345.776306 150.609634 345.367889 142.138275 343.951416 134.554443 C 342.007935 124.148102 352.724884 125.840637 358.946808 120.936615 C 363.520233 117.330719 366.668152 111.573914 370.861633 107.495758 C 375.021423 103.451813 381.568481 109.394318 383.203766 113.348145 C 390.298401 130.509674 393.530151 157.51001 391.656494 174.809906 C 389.553894 194.222565 380.176392 215.414902 363.054291 224.972626 C 341.227539 237.154831 315.491333 229.712051 293.805939 222.40625 C 289.17749 220.847076 285.958893 218.574341 281.890045 216.01123 C 282.998047 220.999374 283.501251 226.278702 282.027557 231.260544 C 279.687958 239.164307 275.90976 252.096512 286.641479 254.481842 C 290.725708 255.389343 292.577698 255.258118 298.34433 252.282776 C 293.676941 253.337921 291.324219 253.079346 288.116577 252.486847 C 285.209717 251.951309 283.668335 250.103989 282.85614 247.926849 C 283.871552 248.6604 285.527985 249.059525 288.358185 249.741302 C 296.313995 251.658508 303.895386 247.829605 305.377838 242.311966 C 306.242584 239.089005 306.095245 237.396149 307.927002 233.004333 C 309.572113 233.511368 311.275116 233.975662 313.020569 234.397522 C 312.036102 237.609802 311.049957 240.825928 310.064667 244.038223 C 307.507599 252.378922 297.546112 259.104858 288.749603 258.950317 C 280.618195 258.805969 275.463257 253.712357 269.850006 248.71875 C 265.982513 245.277451 262.260956 241.985184 258.571747 238.72467 C 248.451935 235.531815 240.340271 231.800171 230.947983 224.846893 C 237.631699 232.702469 242.166534 237.050735 251.488098 240.959351 C 250.131653 254.787796 245.325928 264.870087 241.228622 278.104401 C 239.374969 284.08963 224.734604 308.066956 220.677521 310.405151 C 217.784363 312.071411 199.664581 327.334412 196.255081 329.347198 C 193.716644 332.719482 191.488266 337.377533 187.671967 339.394714 C 176.041748 345.544281 168.568298 333.769165 162.309143 323.823273 C 159.45871 319.292572 151.546432 306.243164 158.444641 302.587402 C 164.967041 299.132111 168.619507 296.664612 175.273926 292.296082 C 176.251572 294.077972 177.930176 295.797119 179.023407 297.577606 Z M 219.454727 318.663391 C 213.566742 323.420074 203.665237 331.84021 201.744217 332.894806 C 198.265671 338.087006 197.836151 341.30011 192.263474 344.316559 C 175.674149 353.293304 166.86969 342.882568 157.049561 327.748871 C 152.370392 320.537842 142.139648 304.074249 152.996323 298.493042 C 157.570557 296.141693 161.037598 294.379272 164.49588 292.365112 C 153.10643 293.77829 141.928436 293.795288 130.305344 292.04657 C 130.511063 293.449036 130.69046 294.7836 130.835663 296.007477 C 131.591141 302.358093 131.839035 304.305695 128.388977 309.422607 C 125.8741 313.154236 124.904945 314.234314 121.867401 321.013916 C 122.420197 326.525269 122.180237 329.627167 120.62516 335.399536 C 117.168259 348.227631 93.213142 341.196045 83.452164 338.555969 C 71.707153 335.380096 54.924435 332.422546 61.81086 317.32251 C 63.424545 313.784821 64.691704 310.166565 65.645241 306.715668 C 55.375584 311.261169 41.103912 301.61908 34.306786 294.804688 C 27.841652 288.322571 24.329681 280.79541 23.106064 273.491272 C 22.064064 267.274841 23.018141 267.304993 27.454325 262.910156 C 31.512768 258.892822 35.569847 254.870529 39.62719 250.855362 C 41.265526 246.395355 42.906872 241.939148 44.544384 237.482162 C 43.906147 234.152618 43.431705 230.831573 43.149021 227.542572 C 41.970329 213.829163 42.366421 204.063522 44.325527 195.085968 C 37.179691 197.874237 28.980074 196.568161 25.333055 188.984329 C 23.94619 186.101303 23.120035 183.164566 22.072552 178.90094 C 6.132147 163.542358 36.004017 143.407623 44.718327 141.893372 C 43.722073 144.724365 42.630489 147.314056 41.669838 149.881821 C 47.579731 152.941269 46.855206 161.658615 45.600365 167.271011 C 43.474445 164.588181 42.299583 161.080048 39.17276 160.929398 C 38.714748 167.276474 38.793915 174.290283 33.836998 178.016724 C 35.304413 181.939301 35.22744 181.942581 39.397919 180.33905 C 45.320957 178.058624 49.780979 172.978729 54.26757 168.020996 C 59.099567 158.608734 65.293518 150.235962 73.814445 142.681488 C 94.753685 124.116913 114.54599 118.043213 146.415573 112.964355 C 150.657562 108.537506 155.041428 104.266205 159.746887 100.113007 C 166.121887 94.487396 170.261139 93.319427 176.290451 93.004944 C 186.267578 79.659668 194.117661 70.366028 210.384033 63.519043 C 244.479797 49.167664 267.981293 48.475708 295.347626 71.040161 C 304.391205 78.495789 312.10376 86.353027 322.042786 92.577087 C 327.072571 95.726685 330.666962 97.990631 334.480255 102.531738 C 339.275818 108.246307 343.192383 113.961151 345.918488 121.316833 C 349.440582 119.867249 353.457397 118.501465 356.700623 115.72934 C 360.888062 112.151337 363.552307 106.162292 367.430756 102.230957 C 372.578857 97.014099 384.322235 103.31189 386.922577 108.289032 C 395.766724 125.214722 399.384979 156.408859 397.505341 174.958923 C 395.181885 197.889847 385.729095 219.567322 365.526184 230.349472 C 351.789459 237.678574 333.352783 238.361176 317.574829 235.378708 C 316.552246 238.743286 315.533539 242.10762 314.510986 245.472214 C 311.443054 255.553955 299.467438 263.794678 289.006012 264.289124 C 278.961487 264.763 273.516724 259.578979 266.929199 253.233826 C 263.473053 249.904297 260.014801 246.57695 256.558685 243.247406 C 256.357666 245.515503 256.060974 247.69046 255.687347 249.795563 C 258.408264 255.167999 259.715118 259.891266 262.043732 265.429688 C 264.606049 271.529175 265.85318 275.532532 266.029327 282.060394 C 266.183807 287.855255 266.339111 293.651733 266.494446 299.446289 C 269.079193 304.038635 269.305176 305.155975 268.928802 310.411194 C 268.132782 321.486725 262.032776 322.543518 251.866409 322.479706 C 248.479355 322.458038 235.694794 322.537201 232.435944 322.30191 C 225.957657 321.833771 221.68718 321.33905 219.454727 318.663391 Z M 253.734558 258.244446 C 251.689453 265.54776 248.940628 272.442139 246.431213 280.344269 C 244.056564 287.824829 231.876877 309.546936 224.707748 314.811218 C 226.103104 315.850189 228.664566 316.257233 233.227036 316.650879 C 236.454941 316.929443 249.180603 316.988617 252.375931 317.043671 C 259.410553 317.166382 262.0802 316.637726 262.791565 308.62738 C 263.13916 304.706177 262.832672 303.973145 260.871063 300.535706 C 260.697174 294.404755 260.523468 288.272156 260.350922 282.141205 C 260.187073 276.328552 259.071411 272.980408 256.786041 267.563568 C 255.418091 264.321686 254.675781 261.295929 253.734558 258.244446 Z M 39.461742 157.911301 C 41.040913 157.731918 42.017727 158.560501 43.239151 159.781113 C 43.013161 156.86467 42.47435 154.702316 40.426769 153.510193 C 40.283237 153.984604 40.148193 154.458252 40.020828 154.939789 C 39.772926 155.87854 39.595963 156.87561 39.461742 157.911301 Z M 49.384335 178.983398 C 48.247555 181.9245 47.192947 184.956039 46.199982 188.088318 C 46.035351 188.606049 45.877571 189.127319 45.7239 189.645859 C 39.717041 192.193619 31.818739 193.812515 28.795174 187.499664 C 27.326948 184.435852 26.498325 181.429245 25.427561 177.556274 C 15.535381 167.308243 30.322573 153.778915 38.377007 148.926086 C 37.211472 151.431656 36.383671 153.328613 35.818562 155.281387 C 33.369415 163.745056 36.927128 171.298492 29.24551 177.434357 C 32.855534 184.719086 32.689266 187.624039 41.088299 184.257782 C 44.328537 182.959656 47.000378 181.137253 49.384335 178.983398 Z M 47.069687 247.94902 C 51.622829 263.696045 59.37677 279.168884 67.97303 292.176392 C 67.972206 292.251709 67.97139 292.326233 67.97084 292.402924 C 67.432587 294.639221 66.809135 296.818848 65.503075 298.568115 C 59.358978 306.787994 43.729191 294.72168 39.205349 290.103058 C 34.259949 285.053589 30.949858 279.073273 30.161781 273.465515 C 29.58873 269.374207 30.144798 269.275024 32.999077 266.381042 C 36.845772 262.486938 40.696316 258.589844 44.541378 254.696594 C 45.383141 252.446304 46.227921 250.198486 47.069687 247.94902 Z M 338.017151 121.558441 C 338.893707 122.424835 339.600983 123.456696 340.088837 124.598145 C 340.354248 124.35437 340.638611 124.123718 340.935822 123.904846 C 340.575623 123.093475 340.209106 122.29364 339.83493 121.505554 C 339.212006 121.519257 338.607178 121.53653 338.017151 121.558441 Z M 262.754822 149.883469 C 261.953644 148.203186 261.570129 146.430359 261.556183 144.679474 C 258.607117 147.035217 255.400848 149.268494 252.073761 150.558929 C 256.66748 146.45665 262.907135 136.781982 267.428528 133.728027 C 272.559357 130.260986 279.522797 130.935913 285.505005 128.168488 C 283.462616 130.024323 280.845276 131.519653 278.180267 132.942932 C 281.116211 134.017578 283.653015 136.191681 285.100403 139.226227 C 285.710693 140.505981 286.075562 141.842133 286.223206 143.179199 C 290.242218 141.859161 294.188904 141.234314 297.522278 141.282257 C 285.598114 144.629608 272.914368 152.458038 264.168823 162.824951 C 265.151123 160.121338 266.524017 157.681488 268.177704 155.502716 C 265.885803 154.304581 263.950775 152.389023 262.754822 149.883469 Z M 207.459076 106.746338 C 200.874512 109.315704 194.8685 111.243591 188.449356 112.856445 C 182.592331 120.554199 179.02449 124.542267 177.676514 134.860138 C 176.091049 124.7099 175.760971 122.825592 180.278519 115.24939 C 178.969421 115.914795 177.751846 116.829681 176.007217 118.321228 C 169.69603 123.717773 161.469315 144.924911 158.180023 152.507065 C 160.267899 143.381073 166.799042 120.569855 173.525482 113.920868 C 177.949066 109.547699 178.952179 109.64798 185.189682 109.057922 C 192.619019 108.353699 200.033585 107.585602 207.459076 106.746338 Z M 344.898071 128.874359 C 350.239624 129.379761 353.29361 130.204254 358.076538 127.838379 C 366.991913 123.426605 373.551849 116.22406 377.805328 107.609741 C 375.203308 117.887024 369.966736 126.62027 359.104584 130.49408 C 353.770203 132.394806 350.330536 130.431885 344.898071 128.874359 Z M 242.382629 129.878265 C 244.395172 120.965973 247.96846 112.378754 261.810089 105.73526 C 243.464066 110.328949 240.024414 118.033875 242.382629 129.878265 Z M 4.495455 177.876205 C 6.06942 160.052826 9.535643 152.358902 22.1991 138.945953 C 6.315397 150.137924 2.351732 155.223862 4.495455 177.876205"/>
        <path id="path138" fill="#ffffcc" fill-rule="evenodd" stroke="none" d="M 265.148102 152.752502 C 263.922028 150.188614 265.01828 147.099045 267.588501 145.875977 C 270.159271 144.651505 273.255157 145.74556 274.481262 148.311127 C 274.597656 148.554108 274.690216 148.804199 274.765564 149.054825 C 272.310913 150.875595 270.060089 153.022598 268.173859 155.509003 C 266.902039 154.998138 265.777863 154.069275 265.148102 152.752502"/>
        <path id="path140" fill="#ffffcc" fill-rule="evenodd" stroke="none" d="M 322.583771 130.533539 C 322.788971 128.40921 324.600433 126.842957 326.724152 127.048157 C 328.847565 127.253815 330.415497 129.15213 330.211182 131.276703 C 330.167603 131.728668 330.045135 132.152679 329.861908 132.54303 C 327.917633 132.873932 325.973846 133.444489 323.970642 134.180817 C 323.13269 133.323425 322.466003 131.75824 322.583771 130.533539"/>
    </g>
</svg>
