<?xml version="1.0" encoding="UTF-8"?>
<!-- Generated by Pixelmator Pro 3.2.3 -->
<svg width="400" height="400" viewBox="0 0 400 400" xmlns="http://www.w3.org/2000/svg" xmlns:xlink="http://www.w3.org/1999/xlink">
    <g id="hashboard-copy">
        <path id="Path" fill="#fa4632" stroke="none" d="M 103.825264 0.940979 L 9.544973 0.940979 C 4.029412 0.940979 -0.447505 5.401184 -0.468994 10.916748 L -0.468994 390.184448 C -0.468994 395.700012 4.029412 400.160217 9.544973 400.160217 L 103.825264 400.160217 C 109.333664 400.160217 113.801033 395.695221 113.801033 390.184448 L 113.801033 10.916748 C 113.801033 5.408356 109.333664 0.940979 103.825264 0.940979 Z"/>
        <path id="path1" fill="#50b4cd" stroke="none" d="M 389.517029 0.940979 L 295.239136 0.940979 C 289.721191 0.940979 285.244263 5.401184 285.222778 10.916748 L 285.222778 390.184448 C 285.222778 395.700012 289.721191 400.160217 295.239136 400.160217 L 389.517029 400.160217 C 395.032593 400.160217 399.509521 395.700012 399.531006 390.184448 L 399.531006 10.916748 C 399.509521 5.401184 395.032593 0.940979 389.517029 0.940979 Z"/>
        <path id="path2" fill="#ffc8d7" stroke="none" d="M 246.690247 0.940979 L 152.412354 0.940979 C 146.89679 0.940979 142.41748 5.401184 142.395996 10.916748 L 142.395996 168.37529 C 142.395996 173.890854 146.894394 178.351059 152.412354 178.351059 L 246.690247 178.351059 C 252.198654 178.351059 256.666016 173.883682 256.666016 168.37529 L 256.666016 10.916748 C 256.666016 5.408356 252.198654 0.940979 246.690247 0.940979 Z"/>
        <path id="path3" fill="#235564" stroke="none" d="M 246.690247 207.924973 L 152.412354 207.924973 C 146.880081 207.924973 142.395996 212.409042 142.395996 217.938934 L 142.395996 390.184448 C 142.395996 395.700012 146.894394 400.160217 152.412354 400.160217 L 246.690247 400.160217 C 252.198654 400.160217 256.666016 395.695221 256.666016 390.184448 L 256.666016 217.938934 C 256.666016 212.42337 252.205811 207.946457 246.690247 207.924973 Z"/>
    </g>
</svg>
