<?xml version="1.0" encoding="UTF-8"?>

<svg width="400" height="400" viewBox="0 0 400 400" xmlns="http://www.w3.org/2000/svg">
    <path id="path18940" fill="#050505" stroke="none" d="M 390.470703 350.007111 C 390.16272 349.197144 389.910736 347.7659 389.910736 346.826599 C 389.910736 344.274231 387.944519 340.904755 385.037079 338.474335 C 383.613892 337.284851 381.559143 334.970398 380.470856 333.331177 C 378.153778 329.841583 375.64328 328.474487 366.371643 325.653534 C 356.206909 322.560883 353.083405 319.906799 352.165619 313.582397 L 351.708221 310.430054 L 349.856293 313.113617 C 346.23349 318.363647 343.83725 319.202118 338.925873 316.938141 C 335.807404 315.500641 333.535889 315.369141 330.948364 316.476379 C 329.297394 317.182861 328.989594 317.152466 327.91098 316.176239 C 326.759003 315.133698 326.64212 315.130463 325.007904 316.095825 C 323.719208 316.857117 322.677643 317.007568 320.724213 316.714661 C 317.603699 316.246674 315.935608 317.156708 313.845825 320.46698 C 309.889496 326.734497 307.072144 323.867554 307.085968 313.587708 C 307.101471 302.170959 312.476135 295.702332 327.969208 288.454987 C 335.942871 284.725098 339.553864 282.308289 341.775726 279.214386 C 343.487732 276.830444 343.638397 276.746857 344.384247 277.766968 C 345.970276 279.935974 351.433136 291.115997 354.042816 297.533478 C 357.015381 304.843994 357.914093 306.199524 359.041016 305.072693 C 359.992462 304.121216 357.690491 297.383759 353.221191 288.039246 C 342.129883 264.848755 325.743195 248.26181 305.291229 239.523788 C 295.904663 235.513428 291.291199 234.660736 279.105103 234.683792 C 269.839966 234.701324 267.567596 234.898697 261.307312 236.229553 C 252.154831 238.175262 241.918488 241.450089 228.869354 246.607285 C 215.726257 251.801575 215.713776 251.801788 202.459793 247.057938 C 197.09169 245.136597 190.656097 243.043457 188.158356 242.406433 C 183.053741 241.104584 175.518234 240.876953 171.280701 241.896561 C 166.394287 243.072372 159.518906 246.748672 151.075775 252.70018 C 140.945297 259.841187 135.493195 262.671173 128.231628 264.557922 C 121.944283 266.191467 119.28524 267.613953 117.719711 270.181274 C 116.469536 272.231476 116.348389 273.878662 117.294922 275.956207 C 117.943138 277.378693 124.144081 281.905151 131.398972 286.251587 C 133.36528 287.429626 135.11969 288.629089 135.297729 288.917053 C 135.721939 289.603455 125.895874 294.504028 118.718208 297.18573 C 105.95607 301.953918 92.239853 304.970337 71.559914 307.556641 C 57.78215 309.279724 55.43401 309.762878 45.150162 312.990936 C 41.045292 314.279449 35.103088 315.869751 31.945333 316.524902 C 18.016722 319.414825 5.394891 315.988831 3.480924 308.798706 C 3.131417 307.485565 2.507587 306.023621 2.094797 305.549988 C -0.453643 302.625977 -1.398532 295.597687 0.242371 291.771027 C 0.716412 290.665833 1.670977 286.402985 2.363991 282.298004 C 4.74958 268.16449 7.172423 260.520325 12.39229 250.657974 C 21.537048 233.379944 39.744511 211.443314 61.799839 191.131256 C 76.373474 177.709351 90.222832 167.387726 122.239403 146.086884 C 142.027878 132.921417 142.21907 132.75238 144.494553 126.404968 C 145.000336 124.994324 147.455002 115.913818 149.949448 106.226013 C 157.719116 76.050751 162.702789 64.659149 171.956985 55.922363 C 177.177139 50.99411 185.497482 47.921753 190.335526 49.136047 C 193.095383 49.828674 193.23288 51.187378 191.319504 58.856476 C 188.130783 71.636902 187.055649 79.715485 187.026047 91.115265 C 186.996918 102.36853 187.692825 106.722198 190.364349 111.993988 C 194.028961 119.225769 196.501053 120.621307 210.858704 123.563324 C 261.635834 133.968079 295.515198 149.608963 319.587524 173.759644 C 341.881683 196.126282 360.051483 231.130234 371.872314 274.485626 L 374.122437 282.73764 L 378.428284 286.036652 C 389.415039 294.454254 395.569702 302.931122 398.849091 314.161804 C 400.584534 320.105225 400.320679 332.738342 398.305298 340.190887 C 396.155701 348.139221 394.320801 351.479767 392.103973 351.479767 C 391.480042 351.479767 390.796021 350.863159 390.470703 350.00708 Z M 391.412415 333.334503 C 391.618988 332.511841 391.650909 328.959442 391.483124 325.440308 C 390.95047 314.24118 387.493225 306.241241 379.57608 297.888428 C 373.495819 291.47348 362.47995 283.733368 359.430389 283.733368 C 358.26651 283.733368 358.197815 283.937195 358.500397 286.492798 C 358.680176 288.010498 359.896881 292.065063 361.204224 295.502869 C 362.511505 298.940735 363.725677 302.973541 363.902252 304.464783 C 364.184143 306.843994 364.042175 307.357727 362.739868 308.659515 C 360.951385 310.447998 359.265961 310.532166 356.690063 308.96167 C 355.628174 308.314331 354.633545 307.910309 354.480103 308.063934 C 354.326416 308.21759 354.376953 309.386475 354.593201 310.66153 C 355.376221 315.2966 358.061371 317.158081 368.366028 320.209229 C 383.470886 324.681824 386.575317 326.734161 388.962646 333.825562 C 389.471252 335.336548 390.986542 335.032898 391.412872 333.334503 Z M 31.589247 312.092957 C 34.235226 311.616302 39.531536 310.234436 43.358791 309.022156 C 51.5844 306.416687 57.885494 305.106018 75.291664 302.379944 C 95.712959 299.181641 103.928986 297.4823 113.031555 294.573914 C 118.819618 292.724609 124.107414 290.346313 124.071709 289.608429 C 124.060387 289.376953 122.352135 288.154114 120.275505 286.891052 C 118.198883 285.627991 114.316467 282.463135 111.648041 279.858032 C 108.979523 277.25296 106.545746 275.121552 106.239777 275.121552 C 104.794434 275.121552 101.149963 277.156677 96.552277 280.53125 C 83.384613 290.196106 78.769028 292.106934 57.780895 296.582336 C 47.366512 298.80304 43.669498 300.062866 38.800297 303.050262 C 32.065418 307.182312 30.614943 307.866699 26.196756 308.996643 C 23.731628 309.627136 19.83354 310.143005 17.534359 310.143005 C 11.53265 310.143005 10.864213 312.010559 16.509159 313.007935 C 19.83683 313.595886 24.977545 313.283997 31.589247 312.092957 Z M 317.644531 310.910889 C 318.077942 310.385895 319.539917 309.465332 320.893646 308.865173 L 323.354889 307.773987 L 328.644348 309.378296 C 335.267639 311.387146 343.951538 311.683289 346.300537 309.980408 C 347.07724 309.417328 348.595947 308.315735 349.675446 307.53241 C 350.859802 306.672913 352.054932 306.240479 352.689484 306.441895 C 353.267853 306.625427 353.741028 306.687439 353.741028 306.57959 C 353.741028 305.994751 345.630554 287.439758 344.862732 286.267792 L 343.951904 284.877808 L 341.062378 287.161896 C 339.472961 288.418152 334.086578 291.902832 329.092072 294.90564 C 316.264709 302.618042 312.240051 306.549469 313.211365 310.418884 C 313.493317 311.542725 313.940277 311.865326 315.215393 311.865326 C 316.118103 311.865326 317.211151 311.435822 317.644531 310.910858 Z M 75.851242 277.848602 C 77.240173 277.138153 78.627853 276.139832 78.934875 275.630157 C 81.344368 271.631134 71.731956 272.052612 69.142487 276.059509 C 68.457504 277.119354 68.475891 277.409729 69.278732 278.212463 C 70.565674 279.49942 72.874046 279.371643 75.851341 277.848602 Z M 93.942299 265.300964 C 100.123695 263.641296 106.308578 261.604858 108.200874 260.606293 C 112.155952 258.519165 115.517296 254.898285 117.91024 250.147217 C 118.864517 248.252609 120.645821 245.773331 121.868614 244.637711 C 123.091499 243.50209 124.092026 242.155792 124.092026 241.645935 C 124.092026 237.175827 108.732872 235.144257 98.830658 238.30455 C 86.831398 242.134094 75.370522 254.355957 75.093781 263.617706 C 74.924065 269.294403 78.034599 269.572205 93.942299 265.300964 Z M 329.627838 247.757462 C 329.627838 246.7173 325.799896 241.626572 323.09198 239.065567 C 317.837494 234.096085 312.470154 231.034744 302.130463 227.109711 C 295.989716 224.778641 293.458191 223.349335 293.458191 222.213287 C 293.458191 221.946457 293.974823 221.211441 294.606384 220.579895 C 297.830322 217.355972 313.269409 221.328384 324.160736 228.184158 C 328.461945 230.891556 333.369354 234.712692 337.462311 238.54155 C 340.593292 241.470383 341.110291 241.773056 341.110291 240.676849 C 341.110291 238.952423 338.26825 233.748718 334.808228 229.138168 C 326.152588 217.603943 312.069641 208.62175 296.3125 204.585342 C 283.58075 201.323929 272.532867 201.138428 263.108093 204.027771 C 254.39653 206.698471 244.280655 212.994812 234.122406 222.069153 C 219.825912 234.840073 215.592056 238.399826 211.938004 240.721375 C 209.742264 242.116364 208.02182 243.507416 208.114807 243.812576 C 208.207596 244.117737 209.856247 244.870377 211.778152 245.485123 L 215.272446 246.60289 L 223.793274 242.687988 C 240.641022 234.947342 256.106995 229.964508 267.62265 228.567047 C 285.192932 226.43483 304.842041 231.987778 322.451324 244.061935 C 327.820801 247.743622 329.627838 248.674164 329.627838 247.757462 Z M 174.040665 296.331787 C 155.968002 294.098419 138.895569 287.782501 124.953217 278.171783 C 121.793327 275.993591 120.894501 275.053955 120.74781 273.775452 C 120.3834 270.599854 123.292763 268.721344 131.149033 267.059448 C 138.06012 265.597504 142.628967 263.280396 153.085144 255.934708 C 167.218414 246.005798 172.809082 243.750168 182.021271 244.259964 C 186.333893 244.498627 189.028152 245.224258 203.320984 249.996918 C 224.745224 257.15094 247.465317 265.245239 249.17308 266.332428 C 253.088104 268.824585 246.326614 278.026611 235.725479 284.634003 C 227.733643 289.615051 217.180801 293.528015 206.341827 295.529358 C 200.368561 296.632294 180.472107 297.126556 174.040665 296.331787 Z M 40.515903 207.179855 C 40.291412 206.598831 40.255707 203.756912 40.436558 200.864502 C 41.231754 188.150696 48.143032 173.775772 57.555824 165.257751 C 61.164009 161.992508 66.926811 158.574677 68.824135 158.574677 C 70.711784 158.574677 71.884933 160.546783 73.296028 166.092499 C 74.03907 169.012772 75.202255 172.153198 75.881042 173.071213 C 76.559738 173.989258 77.027779 174.817062 76.920952 174.910782 C 76.814224 175.004471 74.143379 177.132751 70.985718 179.640182 C 63.273247 185.764404 52.593925 195.631744 46.179039 202.560379 C 41.800816 207.289276 40.855927 208.060013 40.515903 207.179855 Z"/>
</svg>
