<?xml version="1.0" encoding="UTF-8"?>

<svg width="400" height="400" viewBox="0 0 400 400" xmlns="http://www.w3.org/2000/svg">
    <g id="Group">
        <g id="g1">
            <path id="Path" fill="#fdee21" fill-rule="evenodd" stroke="none" d="M 228.930511 58.512512 C 225.422882 48.906281 104.766251 1.998932 103.223976 7.148926 C 81.068031 12.9245 72.050972 38.461151 56.810238 54.636353 L 22.965326 52.697815 C 8.056243 71.870239 0.232966 91.458893 5.559947 111.818268 C 24.66865 137.707489 46.850983 159.737869 60.67683 192.257523 C 61.769619 207.585602 127.017265 193.864838 141.002365 190.830612 C 121.898209 204.50589 105.26123 225.702789 112.410728 286.75174 C 118.937408 315.4198 123.401802 347.42807 181.28978 379.852203 C 188.910141 384.120331 204.677261 389.045319 214.427246 392.635315 C 223.751389 396.912354 234.654678 398.669739 265.413239 389.263123 C 283.212585 381.591309 302.430023 376.969513 319.847687 369.316376 L 298.912384 370.298859 C 270.082794 370.926086 247.826309 373.076599 240.961166 365.021454 L 214.428604 319.217346 L 229.89682 289.172607 C 251.304855 291.368347 258.410675 308.728973 277.279633 315.340271 L 299.519714 298.864349 C 364.117737 336.996246 389.817719 274.69754 397.183319 226.177399 C 396.397339 206.436325 354.440063 232.36969 356.983246 223.138855 C 357.96875 201.918274 340.671539 174.154648 329.4953 152.521912 L 342.429474 102.473114 C 348.298279 97.245789 315.26001 41.573853 288.281616 34.631348 C 264.610687 28.539154 228.929153 58.512451 228.929153 58.512451 Z"/>
        </g>
        <g id="g2">
            <g id="g3">
                <path id="path1" fill="#c8c037" fill-rule="evenodd" stroke="none" d="M 335.051575 164.878326 C 335.283264 170.253983 335.257263 176.792038 335.776825 180.86972 C 335.687347 183.980743 333.355255 184.094757 331.425476 184.746429 L 343.996124 189.350037 C 346.49173 193.549805 348.497406 197.749741 350.523254 201.949356 C 352.873138 212.280304 351.119476 212.575562 349.556305 213.337143 C 344.994568 213.383591 340.445984 213.392136 336.199951 212.489136 C 338.102081 213.492996 338.520477 214.224838 338.721741 215.510895 C 339.092773 217.881943 337.565826 221.119934 335.051727 224.240417 C 338.76947 226.303146 345.547791 228.321198 350.583618 230.237076 L 356.325073 217.456253 C 353.725006 198.680099 345.84079 181.374802 335.051727 164.87796 Z"/>
                <path id="path2" fill="#c8c037" fill-rule="evenodd" stroke="none" d="M 358.513214 227.856705 C 365.484863 230.762543 375.116516 229.910614 388.470612 223.028336 C 390.456604 221.616058 392.306305 222.460342 388.752411 224.783401 C 371.237366 240.500473 362.853607 232.638062 358.513397 227.856659 Z"/>
                <path id="path3" fill="#c8c037" fill-rule="evenodd" stroke="none" d="M 389.809082 220.968796 C 391.880096 224.934341 390.625336 228.159241 389.929932 231.50856 C 387.767395 248.545898 382.458344 262.015533 372.040924 276.090698 C 338.157379 330.566101 303.948944 296.480072 276.674835 274.295685 L 265.393066 302.564758 C 264.79425 305.042603 262.303833 306.97229 279.922699 314.729126 L 297.871307 302.051117 C 366.322723 354.133514 414.829224 229.150345 389.807098 220.970383 Z"/>
                <path id="path4" fill="#c8c037" fill-rule="evenodd" stroke="none" d="M 284.930023 269.648163 C 280.311859 269.977753 266.567871 274.651245 265.955994 277.357727 L 272.28064 267.934845 Z"/>
                <path id="path5" fill="#c8c037" fill-rule="evenodd" stroke="none" d="M 275.949371 211.883499 C 276.795471 211.883499 280.8573 212.974045 280.42157 212.731506 C 279.798401 212.384598 280.352112 218.427002 281.63028 221.575241 L 276.67453 232.357498 C 286.167023 221.410095 301.177094 222.138458 315.111237 220.727219 L 308.463562 216.608261 C 309.618378 212.756485 308.258545 209.708984 307.617432 206.432007 Z"/>
                <path id="path6" fill="#c8c037" fill-rule="evenodd" stroke="none" d="M 299.274536 179.418442 C 289.0896 182.540848 279.340515 187.641617 272.795227 198.51532 C 277.788696 180.592651 278.806427 181.273254 280.418762 180.387482 C 287.402649 177.264221 293.121796 179.2108 299.274536 179.418304 Z"/>
            </g>
            <g id="g4">
                <path id="path7" fill="#fcf6a0" fill-rule="evenodd" stroke="none" d="M 244.885529 389.485901 C 232.570099 403.075165 205.091278 388.457703 182.271103 381.005676 C 124.283501 344.132172 112.955307 309.419678 112.168243 275.366852 C 109.186745 226.587402 124.165215 198.244171 143.111038 191.533691 C 130.572235 215.704605 124.726624 259.093384 130.54039 291.358276 C 135.23317 309.308228 135.330536 339.582703 165.364334 355.787933 C 180.071442 364.067505 176.087906 370.513672 186.033051 378.26825 C 196.931335 386.766205 227.318176 394.845154 244.885086 389.486328 Z"/>
                <path id="path8" fill="#fcf6a0" fill-rule="evenodd" stroke="none" d="M 263.2836 164.054871 C 242.432907 134.487366 213.107452 123.388489 180.037308 122.175598 C 186.664978 120.015137 193.292648 118.890137 199.920334 115.694397 C 201.54335 113.989075 201.012756 110.988434 200.403809 107.941193 C 168.571136 99.629303 148.480652 89.356567 123.049088 79.834076 L 191.705215 96.309998 C 238.068924 98.071747 234.087219 109.518036 263.286652 164.056229 Z"/>
                <path id="path9" fill="#fcf6a0" fill-rule="evenodd" stroke="none" d="M 285.60788 149.796814 C 270.198822 127.80011 255.253799 101.10379 234.967682 84.125153 C 185.997131 62.021973 137.554306 45.606567 80.781418 30.668793 L 98.900612 7.368225 C 159.14476 21.119934 215.731125 44.131622 266.41684 82.06604 C 274.992157 103.74884 280.710846 125.460297 285.603333 149.794083 Z"/>
                <path id="path10" fill="#fcf6a0" fill-rule="evenodd" stroke="none" d="M 316.671722 110.926117 C 316.671722 110.926117 308.033142 91.545776 303.827179 84.145172 C 294.070374 73.332886 289.136932 53.184174 269.154236 43.690308 C 275.474396 45.397064 279.799591 43.363525 292.701874 55.060364 L 313.023926 93.609894 Z"/>
                <path id="path11" fill="#fcf6a0" fill-rule="evenodd" stroke="none" d="M 327.417572 144.501221 C 329.409882 127.710022 333.193146 100.776215 328.85141 90.13501 C 316.772552 73.927948 304.607269 57.175873 292.437439 41.623962 C 290.422028 39.748199 288.970734 37.202484 287.382965 35.216461 C 304.49353 39.649475 322.35022 51.546356 346.430603 98.513306 Z"/>
            </g>
            <g id="g5">
                <path id="path12" fill="#000000" fill-rule="evenodd" stroke="none" d="M 255.481277 146.484802 C 248.666138 141.120972 242.592606 122.149658 232.265274 118.205261 C 222.706375 117.405609 219.201462 114.398163 206.631714 116.959351 C 211.19075 114.674927 215.49501 111.752014 220.34111 110.187439 C 223.623642 109.412598 226.702637 110.271088 229.834503 110.703094 C 230.607864 110.337494 231.11467 109.882874 230.925598 109.195709 C 218.272598 101.376526 192.316025 101.265076 174.794189 96.801575 C 195.129868 97.482269 217.630203 96.355042 232.913712 101.256042 C 245.203217 112.162506 249.195404 132.701569 255.481415 146.484665 Z"/>
                <path id="path13" fill="#000000" fill-rule="evenodd" stroke="none" d="M 292.746002 54.998047 C 295.5672 55.254333 310.750122 79.270844 311.46347 83.26712 C 312.725983 92.003021 315.839874 101.796204 316.677155 110.936554 C 314.176422 102.170197 311.45163 93.404236 308.044983 84.637878 C 307.048767 82.223816 304.530945 76.766357 297.532501 69.047272 C 294.273834 63.606567 293.570313 59.330048 292.74649 54.998505 Z"/>
                <path id="path14" fill="#000000" fill-rule="evenodd" stroke="none" d="M 344.196045 185.805908 L 337.700287 185.805908 L 344.879822 187.690475 Z"/>
                <path id="path15" fill="#000000" fill-rule="evenodd" stroke="none" d="M 299.875031 179.318344 C 293.342896 178.515335 286.640137 178.408875 280.108459 179.844513 C 277.446045 183.420746 277.262604 187.058151 276.09903 190.419754 C 284.039703 181.668381 287.190643 181.133362 299.875031 179.318588 Z"/>
                <path id="path16" fill="#000000" fill-rule="evenodd" stroke="none" d="M 388.96286 224.485535 C 385.32782 227.38678 384.9646 230.117325 374.216644 233.389786 C 366.378815 235.243225 361.950806 232.101639 358.261658 227.87764 C 363.854767 229.479828 364.748718 233.705521 379.746521 228.967957 Z"/>
                <path id="path17" fill="#000000" fill-rule="evenodd" stroke="none" d="M 356.388611 226.300781 C 353.772491 233.494415 350.952423 240.764023 348.109009 247.501328 C 341.338043 255.441986 344.223694 250.917038 334.088013 263.250244 C 337.331085 258.246765 341.549164 253.438858 343.757477 248.22789 C 345.308411 244.796585 347.239288 241.156631 348.094147 238.108047 C 345.406586 236.765945 339.905548 236.65976 339.159424 237.141403 C 330.147827 242.456558 328.521881 248.081543 323.209442 253.55864 C 327.059967 247.403198 330.348938 240.68454 334.812897 235.144196 C 335.321564 234.425095 338.626495 234.286026 340.658508 233.86174 C 337.500977 233.319992 331.656891 232.185349 331.186493 232.236664 C 325.307648 233.649414 322.013367 238.770157 317.649048 242.170898 C 320.830902 237.576843 323.761749 232.793518 327.802124 228.844574 C 328.201782 228.380157 339.122589 229.336914 344.782593 231.595474 L 344.894867 233.847046 L 348.108307 235.144196 L 350.525696 229.087021 Z"/>
                <path id="path18" fill="#000000" fill-rule="evenodd" stroke="none" d="M 285.075592 269.670959 C 283.625122 269.175262 270.812988 267.527588 270.812988 267.914307 C 265.893646 271.415466 265.147552 274.765381 265.253082 277.666595 C 273.437134 269.615356 273.132324 269.592651 285.07605 269.670898 Z"/>
                <path id="path19" fill="#000000" fill-rule="evenodd" stroke="none" d="M 275.344269 211.765213 C 275.344269 211.765213 284.589722 210.417389 284.409576 211.280609 C 283.739777 214.488159 285.54129 222.305344 285.739136 221.214844 L 280.541809 225.454941 C 291.42691 219.982376 302.885681 221.082123 314.506378 220.245804 C 314.506378 220.245804 304.721802 217.544266 305.320068 217.459427 C 307.502777 217.149933 304.739044 207.254959 303.990509 207.040665 C 305.851898 206.410706 307.669769 205.935837 309.550415 205.465775 C 295.558044 201.804214 287.466797 203.961761 275.343811 211.765427 Z"/>
                <path id="path20" fill="#000000" fill-rule="evenodd" stroke="none" d="M 355.360443 218.666763 L 353.305634 219.696503 C 353.014099 213.677078 346.549194 214.118835 341.097565 214.063324 L 336.625336 212.973007 C 337.985138 214.231567 342.188904 214.132904 340.493195 216.849701 C 339.066193 217.612427 338.409637 220.885086 337.592316 223.633881 L 335.174927 223.75502 C 339.445374 225.42395 343.407166 226.886703 348.108154 228.843155 L 350.888153 229.267166 L 357.535858 225.693329 Z"/>
            </g>
            <g id="g6">
                <path id="path21" fill="#ffffff" fill-rule="evenodd" stroke="none" d="M 294.07901 214.608627 C 293.038452 212.550079 287.803467 212.842346 286.674744 214.174225 C 285.75766 215.256454 286.617798 222.200409 287.793671 221.029373 C 289.493744 219.534927 291.714233 218.909882 294.381317 219.030426 C 294.71756 217.747482 294.598511 216.362244 294.079132 214.608612 Z"/>
                <path id="path22" fill="#ffffff" fill-rule="evenodd" stroke="none" d="M 344.282471 224.954132 C 344.774536 224.594223 345.815155 221.112839 345.479004 220.071182 C 344.79129 217.613007 339.923218 218.130417 339.923218 218.130417 C 338.735413 218.829361 337.694458 222.66153 338.12851 223.92601 C 338.335724 224.996307 343.501007 225.337479 344.282135 224.953949 Z"/>
            </g>
            <g id="g7">
                <path id="path23" fill="#000000" fill-rule="evenodd" stroke="none" d="M 136.112137 345.078491 L 139.187393 345.379242 C 157.417603 354.330353 187.43457 367.602081 230.891159 360.470306 L 237.709915 371.199768 C 218.57164 380.499817 197.987534 378.359772 178.698669 379.012146 Z"/>
                <path id="path24" fill="#000000" fill-rule="evenodd" stroke="none" d="M 109.939003 274.315918 L 119.071167 312.653442 C 143.520035 327.936523 185.28421 345.441528 220.096802 344.0289 L 212.403641 326.376923 C 139.734879 310.945129 133.588531 291.436981 109.940369 274.312775 Z"/>
                <path id="path25" fill="#000000" fill-rule="evenodd" stroke="none" d="M 132.66362 195.78746 C 137.126938 225.496445 143.085114 248.019974 168.918396 266.886658 C 184.75238 278.273987 200.469467 289.613098 219.585892 298.971375 C 219.585892 298.971375 217.910049 307.693146 216.509048 307.537567 C 159.617844 301.218353 117.967415 254.044846 112.922043 232.498535 C 117.80864 215.970734 124.818466 205.647079 132.661774 195.78746 Z"/>
                <path id="path26" fill="#000000" fill-rule="evenodd" stroke="none" d="M 160.010529 178.954391 C 167.591766 211.881683 185.668182 245.23114 203.634979 275.485168 C 210.221268 283.842102 211.945053 287.529877 222.096298 292.618011 C 235.817062 296.962402 245.519745 295.853577 255.479004 295.200134 C 252.750122 290.149292 250.324875 284.870087 247.191208 280.123169 C 224.890579 262.487122 235.196991 246.429764 241.120377 236.263489 C 228.720337 233.13028 212.290359 226.470749 210.026993 217.711655 C 206.387772 189.381607 208.235718 180.394577 211.877945 165.843079 C 195.086288 169.383575 178.071259 172.892029 160.009384 178.954681 Z"/>
                <path id="path27" fill="#000000" fill-rule="evenodd" stroke="none" d="M 98.410637 4.058044 C 92.89167 7.663391 87.574692 12.818481 81.854637 18.677765 C 72.372162 28.493256 66.068413 38.068085 56.416252 45.166626 C 54.485821 46.831177 49.068398 49.511871 42.257832 49.909454 C 39.049541 50.06958 36.959511 50.600525 31.064302 49.860321 C 25.865162 47.045105 20.925797 48.875824 16.105175 54.641815 C 10.819139 62.24353 4.124587 76.678101 1.340763 85.764771 C -4.39658 108.938446 10.230891 128.031677 24.258287 142.746948 C 36.737045 154.937714 43.931583 162.556274 49.055202 173.732056 C 52.93454 180.980743 55.808441 190.928619 58.919823 197.903412 C 60.041775 200.114685 59.808517 200.10318 62.828419 200.769577 C 69.349174 202.161179 78.394447 202.172089 86.447014 202.864197 C 89.931145 202.912857 94.715683 202.783157 99.249237 202.310623 C 105.496117 201.131027 112.835335 199.975235 118.986687 197.847687 C 124.997894 196.367508 130.353546 194.317642 135.181442 192.430618 C 134.558807 194.543488 129.959564 196.577606 128.235306 199.255753 C 111.870842 222.681 107.388245 243.525772 110.237129 276.414856 C 111.848778 290.992279 115.194237 303.077026 120.242332 316.903809 C 122.55233 323.231201 127.467812 333.251862 132.178329 339.908234 C 146.186172 359.701172 177.523865 385.118164 221.147873 394.902283 C 228.758682 395.942535 237.396332 395.387695 245.519882 393.224335 C 267.05072 386.697662 310.93222 371.261719 310.93222 371.261719 C 310.93222 371.261719 271.980072 374.484039 254.141113 372.720215 C 250.011215 372.074402 245.460266 371.855316 242.583191 369.040985 C 242.100586 368.417938 240.347382 364.886475 241.479584 364.854767 C 243.0242 364.811554 247.458496 362.971252 254.305008 362.360687 C 239.687988 360.786987 239.896347 360.805695 238.829514 358.143066 C 237.170273 354.009979 234.630692 348.360779 232.015747 343.417786 C 238.438705 343.959656 252.659454 344.757813 257.485535 339.777039 C 257.485535 339.777039 249.070389 340.748657 241.633804 339.876404 C 239.128326 339.58255 234.859192 338.059082 233.576675 337.588165 C 230.238129 336.287903 227.489471 335.884125 226.848907 335.036316 C 225.68956 332.085693 224.903946 331.093201 223.504761 327.140259 C 221.609497 321.906525 221.459137 316.068176 221.098328 310.724396 C 225.963074 316.720581 232.161728 321.768219 240.368103 324.345947 C 240.473373 324.124084 251.013855 328.928223 258.668823 326.457825 L 260.255951 325.945831 C 260.255951 326.087463 255.184189 326.390167 253.323914 325.469299 C 237.756073 318.852112 235.412628 313.06015 232.899017 310.183533 L 226.176254 300.114197 C 228.220947 296.037506 229.376877 295.882599 232.085571 295.844879 C 240.279663 296.755035 243.845078 297.455322 248.830826 296.252472 C 252.199875 303.185852 253.110184 310.160645 260.780029 315.206482 C 286.332611 322.791351 291.884338 312.954041 298.073456 304.26178 C 316.458801 317.754608 346.388885 321.9151 367.175446 304.495972 C 393.601501 273.918091 401.967987 225.712738 399.624542 222.960312 C 396.324188 217.361267 391.994171 211.587082 388.275879 212.385056 C 375.023285 216.002792 370.136688 222.725998 357.005066 221.192383 C 358.569031 221.103973 361.199097 221.061661 361.219177 220.912552 C 362.230896 209.793182 361.137817 204.412979 360.649658 203.489441 C 356.664764 194.701202 351.431946 185.452576 347.784668 178.521454 C 346.84436 177.083496 344.082886 166.162796 339.455475 161.848541 C 337.470856 160.154083 332.613495 155.685822 332.613495 155.685822 L 332.201874 160.435013 C 332.201874 160.435013 334.100769 160.721771 334.823456 163.66391 C 337.563232 174.817856 351.514099 201.190262 352.538208 202.454102 C 357.482574 210.436157 353.04068 220.379486 356.799835 225.958069 C 357.16095 226.666779 364.468872 225.895966 370.132996 226.243973 C 379.447113 224.240646 379.054016 220.135834 387.099792 219.518936 C 392.519562 219.103348 393.063232 229.282104 392.991821 230.071899 C 391.981812 241.310913 388.562897 254.378387 383.330536 266.312103 C 372.451843 287.271088 360.268799 306.095459 342.990356 308.720459 C 321.914459 312.403381 310.962524 303.18924 299.537415 297.321777 L 295.166809 301.049347 C 280.318695 315.835571 262.688568 314.522156 255.477661 295.20282 C 251.888062 287.708496 247.210358 283.115326 243.205002 276.686462 L 221.964386 291.984985 C 220.196228 295.611267 218.022171 301.32959 215.381287 307.717041 C 213.545258 312.157776 212.00563 319.784515 212.105896 326.122406 C 209.383179 330.76059 221.536514 349.57132 229.216034 361.013245 C 231.482162 364.389496 235.71225 370.287354 235.853729 370.654938 C 237.376709 374.605316 240.712112 378.092896 240.914566 378.51825 C 255.171249 397.112885 222.930008 392.830902 216.271408 391.707611 C 203.134338 389.614441 190.284348 384.126862 178.205948 376.789001 C 177.505051 376.363159 176.806671 375.931305 176.111038 375.493317 C 161.757004 366.455322 148.549866 354.891907 137.320404 343.454529 C 130.624481 335.872375 124.248863 320.330933 119.539696 309.313019 C 112.482094 282.823242 102.3536 236.908127 129.790573 202.113739 C 131.529739 200.124832 133.406403 196.813599 135.004272 196.158478 C 143.156021 190.644958 152.007935 186.8871 161.526794 184.800247 L 160.565857 178.629807 C 155.812103 179.709885 139.805237 185.56456 135.279419 188.014923 C 124.987137 190.99855 116.450058 194.113937 103.333008 197.398209 C 99.069054 197.919937 94.874626 197.929306 90.786018 197.373871 C 81.349945 196.091919 65.26619 197.237061 64.240288 196.283997 C 57.851002 187.37384 56.10173 171.409271 50.27203 162.865372 L 50.203243 162.780197 L 50.129402 162.699112 C 46.730942 158.131424 42.769714 154.405411 38.868542 150.529251 C 24.898012 136.648804 12.940627 123.227844 9.593579 109.006195 C 8.751925 104.807037 6.584557 100.457733 7.736483 88.033112 L 7.757724 87.97229 L 7.777956 87.911469 C 11.139108 76.304382 16.607122 66.842834 25.887596 57.360382 C 35.545223 57.516266 45.10458 57.728424 52.550705 59.150818 C 55.966862 59.722321 63.070908 60.650269 70.408302 63.383667 C 88.980164 70.302032 113.519127 81.676636 113.519127 81.676636 C 95.099205 71.560425 74.502373 58.421997 61.495876 55.770569 C 59.560719 55.496613 58.371346 54.6138 57.796658 53.072723 C 77.35894 41.578918 80.937553 28.046509 93.804382 15.909882 C 99.684578 13.35025 101.977516 12.043549 106.973747 11.500671 C 153.182755 18.807129 182.27211 37.212036 205.283356 49.518799 C 214.622971 54.597839 223.11319 58.438507 231.222183 63.063965 C 238.330307 65.401978 259.779694 81.595795 266.057068 90.326691 C 272.434052 103.790863 277.089996 118.334625 281.336487 132.368835 C 284.3815 146.642822 287.05246 152.432938 287.05246 152.432938 C 287.05246 152.432938 284.464569 140.493744 284.895874 138.348663 C 287.578949 139.351288 293.922485 141.33194 296.552063 141.0242 C 296.552063 141.0242 284.806213 134.952484 283.267151 129.586395 C 278.328217 112.367981 273.374756 85.563385 272.039032 84.165802 C 268.274811 79.429321 252.577759 67.416443 242.949249 61.859711 C 239.306931 59.757629 237.338379 58.453735 237.184601 57.529572 C 240.260498 54.422272 244.059326 50.311829 247.465515 47.699982 C 250.730484 45.19635 253.703308 42.372986 258.253662 40.683319 C 278.254517 31.675354 289.69101 44.148926 292.404785 41.623047 C 292.404785 41.623047 288.101868 36.690979 290.013092 37.502869 C 291.970337 38.563049 298.349121 39.813293 299.049286 40.464325 C 306.338898 46.166626 325.396667 67.007751 336.883179 88.998108 C 339.641937 94.384674 340.763336 97.931458 339.483826 104.417633 C 338.200928 110.909729 337.208313 114.479706 335.808899 118.815369 C 334.544861 121.713837 327.39328 141.557281 327.421021 144.223267 C 325.980377 155.111069 332.090607 168.741745 332.090607 168.741745 C 332.148407 165.04184 331.863007 163.070374 332.198334 160.424408 L 332.609619 155.696136 C 332.609619 155.696136 332.348938 154.438477 332.39621 153.940033 C 332.706543 150.670471 333.508575 147.921539 333.744019 146.048981 C 336.040405 131.82959 340.032318 121.593262 344.560394 109.115417 C 345.906036 105.966461 347.666656 104.215179 347.576813 101.817627 C 347.650879 97.563049 343.844086 91.852448 341.092926 86.275238 C 338.317719 80.638428 335.00119 74.354706 330.647339 67.731598 C 320.720367 53.457153 312.258362 42.288635 296.762848 35.298828 C 292.427185 33.39621 275.366638 31.536011 269.475067 32.641357 C 262.327881 34.130341 256.181519 35.598694 251.281723 38.736725 C 243.570358 43.674713 237.510483 51.320129 230.40419 55.825012 C 214.681198 47.962616 207.092682 42.078339 205.67778 41.267151 C 196.33316 36.26001 185.114166 30.449402 173.044403 24.939087 C 167.257477 19.542511 131.321167 6.635193 98.414818 4.060638 Z M 299.533813 297.312622 C 289.843445 289.737732 281.686249 281.939941 276.308746 273.910126 C 274.553467 283.353943 268.18158 290.079895 263.257233 296.695282 C 262.277008 298.246826 261.570374 300.362305 266.397369 307.104004 C 267.698425 308.900146 272.405853 309.207092 275.583649 309.042358 C 272.350555 306.598419 267.431915 304.013794 266.639404 301.773682 C 272.326691 305.64566 277.592712 306.758514 282.352386 306.134918 C 283.439819 306.012695 284.790894 304.859375 285.835144 303.084137 C 287.956879 298.525574 289.618256 297.427765 291.296783 296.200806 L 295.164642 301.046448 Z"/>
            </g>
        </g>
    </g>
</svg>
