<?xml version="1.0" encoding="UTF-8"?>
<!-- Generated by Pixelmator Pro 3.6.17 -->
<svg width="400" height="400" viewBox="0 0 400 400" xmlns="http://www.w3.org/2000/svg">
    <path id="path2" fill="#0e3a5a" stroke="none" d="M 170.608322 158.500626 C 161.251694 168.669281 155.259521 182.98317 152.633255 201.438065 L 139.888016 290.982666 C 137.261749 309.440399 139.181061 323.750061 145.643097 333.918701 C 148.116058 337.687744 152.113678 341.36026 157.633102 344.936279 C 163.148285 348.515076 170.8965 350.302399 180.8806 350.302399 C 191.04924 350.302399 199.353958 348.515076 205.796143 344.936279 C 212.236893 341.36026 217.231064 337.687744 220.781509 333.918701 C 230.139572 323.750061 236.130295 309.440399 238.755173 290.982666 L 251.500412 201.438065 C 254.126678 182.98317 252.210205 168.669281 245.746735 158.500626 C 243.268097 154.735825 239.320175 151.063309 233.897263 147.484467 C 228.474365 143.908478 220.677872 142.116943 210.509232 142.116943 C 205.424194 142.116943 200.830338 142.637939 196.727692 143.671417 C 192.626434 144.707718 188.907074 146.027954 185.572403 147.626434 C 182.237747 149.227753 179.350266 150.972443 176.919891 152.852005 C 174.483856 154.735825 172.37999 156.619644 170.608322 158.500626 Z M 184.259277 182.652405 C 186.488052 178.228912 188.969528 175.024857 191.700851 173.047333 C 194.426498 171.069824 197.092514 169.895813 199.688995 169.516785 C 202.284027 169.141998 204.615021 168.951782 206.690491 168.951782 C 208.570053 168.951782 210.801666 169.141998 213.389618 169.516785 C 215.96904 169.895813 218.34404 171.069824 220.513199 173.047333 C 222.678116 175.024857 224.248199 178.228912 225.220627 182.652405 C 226.188797 187.078751 226.099365 193.342056 224.948059 201.436646 L 212.20282 290.981232 C 211.024551 299.270325 209.316757 305.625916 207.087982 310.047974 C 204.856354 314.474335 202.374878 317.675537 199.647812 319.653046 C 196.916504 321.630554 194.206451 322.808838 191.51915 323.183594 C 188.826157 323.564087 186.537735 323.748627 184.658173 323.748627 C 182.584137 323.748627 180.307083 323.564087 177.819931 323.183594 C 175.329941 322.808838 172.998947 321.630554 170.835464 319.653046 C 168.667725 317.675537 167.097626 314.475769 166.129456 310.047974 C 165.155609 305.625916 165.262085 299.270325 166.441772 290.981232 L 179.187012 201.436646 C 180.336899 193.342056 182.027649 187.078751 184.259277 182.652405 Z M 371.912933 157.826309 C 369.20575 176.84906 362.915466 191.256653 353.049194 201.044846 C 342.508606 211.593948 328.292633 216.864944 310.402771 216.864944 L 314.2229 190.030106 C 321.566559 190.030106 326.67572 189.182602 329.556091 187.487595 C 332.433655 185.791153 334.314636 184.476593 335.203308 183.531143 C 339.960419 179.20134 343.253876 170.636841 345.07666 157.826309 C 346.042023 151.04483 346.25354 145.587875 345.711243 141.442627 C 345.173218 137.301605 343.976471 134.097565 342.135254 131.837555 C 340.289764 129.578949 337.7742 128.072754 334.588623 127.318939 C 331.397339 126.566559 327.638214 126.187531 323.308411 126.187531 L 306.643616 126.187531 L 297.55957 190.028687 L 293.73941 216.863525 L 280.833771 307.538116 L 280.82666 307.538116 C 274.62439 358.37146 228.142181 399.711823 177.165497 399.711823 C 151.900742 399.711823 129.216827 389.817169 113.291679 371.849182 C 97.979805 354.572571 90.78949 331.949707 92.816696 307.822052 L 92.667633 307.822052 L 93.157394 304.288635 C 93.158813 304.280151 93.158813 304.271606 93.160233 304.261658 L 93.161652 304.261658 L 99.488838 258.624115 L 59.377815 258.624115 L 52.556599 307.822052 L 26 307.822052 L 55.628632 99.633759 L 82.182388 99.633759 L 63.192299 231.789276 L 103.303307 231.789276 L 129.645554 48.726624 L 107.891479 47.078461 L 146.919342 0.288208 L 178.45166 52.424713 L 156.202133 50.73822 L 119.501038 307.823456 L 119.448509 307.823456 C 117.404282 325.501831 122.253662 341.982056 133.137802 354.263092 C 143.958038 366.473145 159.595016 373.196381 177.165497 373.196381 C 215.213821 373.196381 249.911865 342.273071 254.512817 304.263092 L 254.741379 304.291473 L 283.90863 99.354095 L 327.127167 99.354095 C 344.826843 99.354095 357.555023 104.535645 365.308929 114.890259 C 372.361542 124.872955 374.566193 139.182587 371.912964 157.826309 Z"/>
</svg>
