<?xml version="1.0" encoding="UTF-8"?>
<!-- Generated by Pixelmator Pro 3.2.3 -->
<svg width="400" height="400" viewBox="0 0 400 400" xmlns="http://www.w3.org/2000/svg" xmlns:xlink="http://www.w3.org/1999/xlink">
    <g id="Group-copy">
        <path id="Path" fill="#45535e" stroke="none" d="M 0.135986 163.797653 L 14.077061 163.797653 L 14.077061 194.804581 L 43.495384 194.804581 L 43.495384 163.797653 L 57.451767 163.797653 L 57.451767 240.018417 L 43.495384 240.018417 L 43.495384 208.22879 L 14.100259 208.22879 L 14.100259 239.843506 L 0.135986 239.843506 L 0.135986 163.797653 Z M 101.646759 215.077774 C 101.621704 221.447479 96.462006 226.60347 90.092293 226.624359 C 83.717484 226.615997 78.550819 221.452591 78.538292 215.077774 L 78.538292 182.163055 L 65.319138 182.163055 L 65.319138 215.077774 C 65.319138 228.757645 76.408714 239.847214 90.088585 239.847214 C 103.768448 239.847214 114.858482 228.757645 114.858482 215.077774 L 114.858482 182.163055 L 101.646759 182.163055 L 101.646759 215.077774 Z M 151.793884 182.717941 C 145.949844 182.446991 140.274689 184.720398 136.233597 188.951248 L 136.233597 163.797653 L 122.968971 163.797653 L 122.968971 210.433075 C 122.968971 227.893753 135.610489 239.843506 149.764526 239.843506 C 165.35498 239.843506 179.334564 227.665939 179.334564 211.261703 C 179.334564 195.070419 166.601639 182.679901 151.619446 182.679901 L 151.793884 182.717941 Z M 152.136292 227.757339 C 143.12851 227.757339 136.271637 220.254181 136.271637 211.474655 C 136.271637 202.687256 143.151245 195.184555 152.136292 195.184555 C 159.760544 195.184555 166.639694 202.70256 166.639694 211.474655 C 166.639694 220.239334 159.760544 227.757339 152.136292 227.757339 Z M 201.64502 186.230133 C 201.64502 179.563477 206.099503 177.45015 210.94928 177.45015 C 214.863708 177.45015 220.040573 180.39212 223.415421 184.033279 L 232.081268 173.885071 C 227.748337 168.062378 218.968826 164.041229 211.777908 164.041229 C 197.40303 164.041229 187.004288 172.410614 187.004288 186.268173 C 187.004288 211.976196 218.634308 203.835098 218.634308 218.224823 C 218.634308 222.663986 214.308807 226.578888 209.337479 226.578888 C 201.508148 226.578888 198.938736 222.762817 195.373672 218.7491 L 185.742325 228.69223 C 191.876801 236.209763 199.493637 240.018417 208.607666 240.018417 C 222.260162 240.018417 233.25972 231.527481 233.25972 218.33107 C 233.25972 189.749725 201.6297 198.650803 201.6297 186.28302 M 268.196381 182.19368 C 253.988998 182.19368 241.400833 194.325302 241.400833 211.611526 L 241.400833 258.375916 L 254.665451 258.375916 L 254.665451 233.085464 C 259.081879 237.418854 263.673248 239.32666 270.225739 239.32666 C 285.033508 239.32666 297.940887 226.936142 297.940887 210.744858 C 297.940887 194.340607 284.113922 182.163055 268.355988 182.163055 L 268.196381 182.19368 Z M 270.552856 227.232605 C 261.545044 227.232605 254.688187 219.7146 254.688187 210.949921 C 254.688187 202.185715 261.559906 194.667709 270.552856 194.667709 C 278.177094 194.667709 285.048828 202.185715 285.048828 210.949921 C 285.048828 219.7146 278.177094 227.232605 270.552856 227.232605 Z M 395.445801 227.977264 C 387.616028 227.977264 385.396423 224.602417 385.396423 219.403275 L 385.396423 196.073975 L 397.559143 196.073975 L 397.559143 184.413254 L 385.396423 184.413254 L 385.396423 169.06546 L 371.972198 175.093689 L 371.972198 221.865982 C 371.972198 233.990189 380.220032 239.843506 391.546234 239.843506 C 393.325043 239.881546 395.095978 239.736801 396.852081 239.425476 L 400.135986 227.369476 L 395.461121 227.58197"/>
        <path id="path1" fill="#f8761f" stroke="none" d="M 360.417755 196.727692 C 357.859924 192.355331 354.204865 188.726227 349.813934 186.199509 C 346.52771 184.253189 342.881897 182.991684 339.09552 182.490143 L 339.09552 168.579224 C 342.970978 166.971603 345.475922 163.165741 345.420227 158.971069 C 345.420227 153.133072 340.737488 148.571869 334.899475 148.571869 C 332.092529 148.565842 329.398315 149.676102 327.410706 151.658142 C 325.423096 153.640167 324.304932 156.331146 324.303101 159.138107 C 324.303101 163.417664 326.590881 167.112183 330.483032 168.754135 L 330.483032 182.665054 C 327.366608 183.113235 324.128174 184.086166 321.163483 185.606567 L 283.718628 157.169525 C 283.992371 156.18129 284.197449 155.154999 284.197449 154.083252 C 284.20813 148.763489 280.630981 144.105789 275.48938 142.743134 C 270.347321 141.380951 264.932892 143.656677 262.308746 148.283752 C 259.684113 152.910828 260.509491 158.725647 264.317688 162.439636 C 268.125397 166.153641 273.959229 166.833344 278.519043 164.094589 L 280.944153 165.949036 L 314.550171 190.167297 C 312.718933 191.80275 311.115936 193.676682 309.783936 195.739456 C 307.023834 199.898849 305.519653 204.765335 305.451477 209.756622 L 305.451477 210.798203 C 305.451477 214.363281 306.150635 217.722809 307.291077 220.930634 C 308.332184 223.697693 309.799225 226.214218 311.623535 228.501999 L 300.464813 239.69133 C 297.091827 238.422867 293.287811 239.286758 290.793579 241.88678 C 288.298859 244.487289 287.594086 248.323776 289.00174 251.641083 C 289.916229 253.862534 291.678802 255.627899 293.898376 256.546539 C 296.117981 257.465179 298.612213 257.461487 300.829498 256.536316 C 305.177734 254.753799 307.424683 249.928604 305.991058 245.453247 L 317.530212 233.921982 C 319.141541 235.023895 320.859589 235.959229 322.653717 236.726624 C 326.439178 238.383881 330.513672 239.23526 334.641052 239.23526 L 335.439056 239.23526 C 340.219696 239.259842 344.927521 238.070251 349.122162 235.776428 C 353.522369 233.403732 357.22525 229.921249 359.862854 225.674164 C 362.585358 221.411301 364.02829 216.456665 364.020874 211.398575 L 364.020874 211.140152 C 364.020874 205.993896 362.80481 201.265686 360.334229 196.940643 L 360.417755 196.727692 Z M 346.332397 220.945938 C 343.215485 224.412186 339.612396 226.578888 335.545776 226.578888 L 334.854004 226.578888 C 332.52771 226.578888 330.262665 225.932587 328.027771 224.777328 C 325.597076 223.512573 323.538025 221.63678 322.052887 219.33461 C 320.462433 217.187408 319.587402 214.594788 319.552124 211.923309 L 319.552124 211.071487 C 319.484863 205.624588 322.247284 200.531693 326.849762 197.617096 C 329.221069 195.883743 331.729706 195.290802 334.557526 195.290802 L 334.815979 195.290802 C 337.324585 195.25322 339.810028 195.822968 342.052826 196.955963 C 344.378632 198.202148 346.286438 199.897461 347.768799 202.15509 C 349.182953 204.344528 350.057068 206.837845 350.315491 209.429993 L 350.391571 211.071487 C 350.338226 214.758575 348.878601 218.293015 346.301758 220.930634 L 346.332397 220.945938 Z"/>
    </g>
</svg>
