<?xml version="1.0" encoding="UTF-8"?>
<svg width="400" height="400" viewBox="0 0 400 400" xmlns="http://www.w3.org/2000/svg">
    <path id="path1" fill="#f8761f" stroke="none" d="M 367.246643 190.079559 C 358.305359 174.795319 345.528534 162.109238 330.179382 153.276703 C 318.691895 146.473053 305.947388 142.063263 292.711548 140.310059 L 292.711548 91.682343 C 306.258789 86.062653 315.015198 72.758698 314.820526 58.095581 C 314.820526 37.687958 298.451294 21.743591 278.04364 21.743591 C 268.231537 21.722534 258.813507 25.603607 251.865509 32.532135 C 244.917511 39.460602 241.008804 48.86731 241.002396 58.679474 C 241.002396 73.639313 248.99968 86.554077 262.605286 92.293762 L 262.605286 140.921478 C 251.711349 142.488159 240.390915 145.889191 230.02739 151.203995 L 99.13324 51.798004 C 100.090149 48.343475 100.80703 44.75592 100.80703 41.00946 C 100.844368 22.413422 88.339905 6.131744 70.366653 1.368378 C 52.391808 -3.393341 33.464855 4.561798 24.291756 20.73645 C 15.116951 36.911072 18.002186 57.237671 31.314316 70.22049 C 44.624737 83.203339 65.017776 85.579346 80.957298 76.005615 L 89.434639 82.488098 L 206.909561 167.146713 C 200.508194 172.863678 194.904678 179.414291 190.248459 186.625031 C 180.600113 201.164825 175.342026 218.176361 175.103699 235.624161 L 175.103699 239.265167 C 175.103699 251.727432 177.547714 263.471191 181.534302 274.684601 C 185.173645 284.3573 190.30191 293.154175 196.679062 301.151459 L 157.672058 340.265472 C 145.881287 335.83136 132.583771 338.851227 123.864799 347.940002 C 115.144127 357.030457 112.680489 370.441467 117.601151 382.037628 C 120.79789 389.80304 126.959229 395.974152 134.718094 399.185394 C 142.477051 402.396637 151.196014 402.383728 158.946869 399.149658 C 174.14679 392.91861 182.001343 376.051392 176.989883 360.407104 L 217.326752 320.097839 C 222.959381 323.949738 228.965088 327.21933 235.23674 329.901886 C 248.469391 335.695068 262.712402 338.671204 277.140289 338.671204 L 279.92981 338.671204 C 296.641266 338.757141 313.098175 334.598724 327.7612 326.580322 C 343.142792 318.286194 356.086761 306.112671 365.306915 291.266327 C 374.823822 276.364868 379.867798 259.045166 379.841888 241.363861 L 379.841888 240.460495 C 379.841888 222.470978 375.590942 205.94281 366.954651 190.823959 L 367.246643 190.079559 Z M 318.009155 274.738098 C 307.113495 286.854889 294.518372 294.428925 280.302887 294.428925 L 277.884674 294.428925 C 269.752777 294.428925 261.834961 292.169678 254.022552 288.131317 C 245.525696 283.710175 238.327957 277.153046 233.136444 269.105469 C 227.576767 261.599609 224.51796 252.536697 224.394638 243.198135 L 224.394638 240.220474 C 224.159531 221.180008 233.815979 203.377029 249.904648 193.188614 C 258.193909 187.12941 266.963226 185.056702 276.848297 185.056702 L 277.75177 185.056702 C 286.520966 184.925323 295.209229 186.916962 303.049255 190.877518 C 311.179474 195.233749 317.84848 201.159973 323.030304 209.051849 C 327.973694 216.705368 331.029297 225.421127 331.932648 234.482376 L 332.198608 240.220474 C 332.012115 253.109238 326.90979 265.464417 317.902039 274.684601 L 318.009155 274.738098 Z"/>
</svg>
