<?xml version="1.0" encoding="UTF-8"?>
<!-- Generated by Pixelmator Pro 3.6.17 -->
<svg width="400" height="400" viewBox="0 0 400 400" xmlns="http://www.w3.org/2000/svg">
    <g id="Group">
        <g id="g1">
            <path id="Path" fill="#b8e1f3" fill-rule="evenodd" stroke="none" opacity="0.973" d="M 369.531982 94.870392 C 337.907745 94.870392 306.285797 94.870392 274.66156 94.870392 C 274.66156 90.242584 274.66156 85.614746 274.66156 80.986938 C 286.478699 81.760925 296.504913 80.989716 304.742432 78.673004 C 299.126556 73.911896 292.957642 69.6698 286.23114 65.946503 C 234.554504 64.403809 182.875641 64.403809 131.19902 65.946503 C 122.554184 69.208649 114.071487 72.679535 105.745979 76.3591 C 97.769875 79.95517 93.142052 86.125641 91.862511 94.870392 C 127.341743 94.870392 162.823227 94.870392 198.302475 94.870392 C 197.545761 118.427429 198.316315 141.566528 200.616379 164.287766 C 200.616379 174.314636 200.616379 184.342438 200.616379 194.368622 C 199.845825 194.368622 199.073013 194.368622 198.302475 194.368622 C 155.569092 176.470734 113.148125 157.959442 71.0373 138.834717 C 99.998199 124.741852 129.308502 111.24411 158.965958 98.341278 C 135.840683 97.184784 112.701561 96.799042 89.548592 97.184326 C 69.917343 94.886597 49.862686 94.115143 29.386877 94.870392 C 68.188828 32.441528 124.879677 0.817963 199.459427 0 C 274.039185 0.817963 330.730011 32.441528 369.531982 94.870392 Z"/>
        </g>
        <g id="g2">
            <path id="path1" fill="#f5fafd" fill-rule="evenodd" stroke="none" d="M 304.742432 78.673004 C 238.013794 79.439606 171.680893 78.668396 105.745979 76.3591 C 114.071487 72.679535 122.554184 69.208649 131.19902 65.946503 C 182.875641 64.403809 234.554504 64.403809 286.23114 65.946503 C 292.957642 69.6698 299.126556 73.911896 304.742432 78.673004 Z"/>
        </g>
        <g id="g3">
            <path id="path2" fill="#eaf7fd" fill-rule="evenodd" stroke="none" d="M 105.745979 76.3591 C 171.680893 78.668396 238.013794 79.439606 304.742432 78.673004 C 296.504913 80.989716 286.478699 81.760925 274.66156 80.986938 C 274.66156 85.614746 274.66156 90.242584 274.66156 94.870392 C 249.208542 94.870392 223.755508 94.870392 198.302475 94.870392 C 162.823227 94.870392 127.341743 94.870392 91.862511 94.870392 C 93.142052 86.125641 97.769875 79.95517 105.745979 76.3591 Z"/>
        </g>
        <g id="g4">
            <path id="path3" fill="#4b94cb" fill-rule="evenodd" stroke="none" d="M 29.386877 94.870392 C 49.862686 94.115143 69.917343 94.886597 89.548592 97.184326 C 89.548592 98.72699 88.778046 99.49823 87.23468 99.49823 C 67.952835 97.955536 48.668728 96.413086 29.386877 94.870392 Z"/>
        </g>
        <g id="g5">
            <path id="path4" fill="#277abe" fill-rule="evenodd" stroke="none" opacity="0.985" d="M 29.386877 94.870392 C 48.668728 96.413086 67.952835 97.955536 87.23468 99.49823 C 81.47998 111.006195 75.695206 122.575775 69.880341 134.206909 C 74.336998 154.465225 82.051544 173.747971 93.019463 192.054718 C 106.208794 212.317642 120.478668 231.601791 135.826843 249.902512 C 135.986435 262.291199 136.756973 274.631287 138.140747 286.92511 C 137.796005 289.359344 138.180161 291.673279 139.297714 293.866852 C 159.44487 315.164093 179.113129 336.759857 198.302475 358.656403 C 199.63765 361.60199 201.178619 361.60199 202.930298 358.656403 C 218.382553 332.368042 233.809387 306.14447 249.208542 279.983368 C 260.685577 271.218292 271.868744 261.962646 282.760254 252.216431 C 283.917206 231.40509 284.301361 210.57988 283.917206 189.740799 C 298.571228 172.772186 313.227539 155.803345 327.881561 138.834717 C 328.585022 137.330902 329.35556 135.788483 330.195465 134.206909 C 325.567627 122.63736 320.939819 111.06778 316.311981 99.49823 C 334.758453 97.189606 353.269745 96.418427 371.845886 97.184326 C 399.133911 143.047699 407.232605 192.411057 396.141968 245.274689 C 376.563965 320.388916 329.899292 370.138031 256.150269 394.522034 C 156.890442 416.217285 79.37439 384.979462 23.602097 300.808594 C -6.00211 243.867828 -9.859384 185.249496 12.032537 124.951263 C 16.711205 114.022186 22.495985 103.995056 29.386877 94.870392 Z"/>
        </g>
        <g id="g6">
            <path id="path5" fill="#68c1ea" fill-rule="evenodd" stroke="none" d="M 274.66156 97.184326 C 274.66156 118.780731 274.66156 140.377411 274.66156 161.973846 C 251.899673 173.181061 228.760559 183.979156 205.244202 194.368622 C 203.700836 194.368622 202.930298 195.13916 202.930298 196.682541 C 202.159744 196.682541 201.386932 196.682541 200.616379 196.682541 C 200.616379 195.912003 200.616379 195.13916 200.616379 194.368622 C 200.616379 184.342438 200.616379 174.314636 200.616379 164.287766 C 200.616379 141.919861 200.616379 119.552216 200.616379 97.184326 C 225.298859 97.184326 249.97908 97.184326 274.66156 97.184326 Z"/>
        </g>
        <g id="g7">
            <path id="path6" fill="#4e8bc9" fill-rule="evenodd" stroke="none" d="M 274.66156 94.870392 C 306.285797 94.870392 337.907745 94.870392 369.531982 94.870392 C 371.075317 94.870392 371.845886 95.641632 371.845886 97.184326 C 353.269745 96.418427 334.758453 97.189606 316.311981 99.49823 C 320.939819 111.06778 325.567627 122.63736 330.195465 134.206909 C 329.35556 135.788483 328.585022 137.330902 327.881561 138.834717 C 309.860748 145.91713 292.119995 153.630127 274.66156 161.973846 C 274.66156 140.377411 274.66156 118.780731 274.66156 97.184326 C 274.66156 96.413086 274.66156 95.641632 274.66156 94.870392 Z"/>
        </g>
        <g id="g8">
            <path id="path7" fill="#a2d8f1" fill-rule="evenodd" stroke="none" d="M 198.302475 94.870392 C 223.755508 94.870392 249.208542 94.870392 274.66156 94.870392 C 274.66156 95.641632 274.66156 96.413086 274.66156 97.184326 C 249.97908 97.184326 225.298859 97.184326 200.616379 97.184326 C 200.616379 119.552216 200.616379 141.919861 200.616379 164.287766 C 198.316315 141.566528 197.545761 118.427429 198.302475 94.870392 Z"/>
        </g>
        <g id="g9">
            <path id="path8" fill="#90d4f0" fill-rule="evenodd" stroke="none" d="M 89.548592 97.184326 C 112.701561 96.799042 135.840683 97.184784 158.965958 98.341278 C 129.308502 111.24411 99.998199 124.741852 71.0373 138.834717 C 113.148125 157.959442 155.569092 176.470734 198.302475 194.368622 C 197.471756 198.697952 195.157837 202.168823 191.360733 204.781235 C 171.741058 218.62999 153.229767 233.670425 135.826843 249.902512 C 120.478668 231.601791 106.208794 212.317642 93.019463 192.054718 C 82.051544 173.747971 74.336998 154.465225 69.880341 134.206909 C 75.695206 122.575775 81.47998 111.006195 87.23468 99.49823 C 88.778046 99.49823 89.548592 98.72699 89.548592 97.184326 Z"/>
        </g>
        <g id="g10">
            <path id="path9" fill="#266fa8" fill-rule="evenodd" stroke="none" d="M 327.881561 138.834717 C 313.227539 155.803345 298.571228 172.772186 283.917206 189.740799 C 259.186157 191.545654 234.503662 193.859558 209.872025 196.682541 C 207.752441 196.583038 206.209091 195.8125 205.244202 194.368622 C 228.760559 183.979156 251.899673 173.181061 274.66156 161.973846 C 292.119995 153.630127 309.860748 145.91713 327.881561 138.834717 Z"/>
        </g>
        <g id="g11">
            <path id="path10" fill="#4d8ac8" fill-rule="evenodd" stroke="none" d="M 283.917206 189.740799 C 284.301361 210.57988 283.917206 231.40509 282.760254 252.216431 C 271.868744 261.962646 260.685577 271.218292 249.208542 279.983368 C 248.437988 278.439972 247.665176 276.898956 246.894623 275.35556 C 230.993393 249.715103 216.339371 223.491516 202.930298 196.682541 C 202.930298 195.13916 203.700836 194.368622 205.244202 194.368622 C 206.209091 195.8125 207.752441 196.583038 209.872025 196.682541 C 234.503662 193.859558 259.186157 191.545654 283.917206 189.740799 Z"/>
        </g>
        <g id="g12">
            <path id="path11" fill="#abdcf1" fill-rule="evenodd" stroke="none" d="M 198.302475 194.368622 C 199.073013 194.368622 199.845825 194.368622 200.616379 194.368622 C 200.616379 195.13916 200.616379 195.912003 200.616379 196.682541 C 200.616379 215.193832 200.616379 233.705124 200.616379 252.216431 C 199.845825 252.216431 199.073013 252.216431 198.302475 252.216431 C 177.481918 251.334839 156.656708 250.564285 135.826843 249.902512 C 153.229767 233.670425 171.741058 218.62999 191.360733 204.781235 C 195.157837 202.168823 197.471756 198.697952 198.302475 194.368622 Z"/>
        </g>
        <g id="g13">
            <path id="path12" fill="#54a5d7" fill-rule="evenodd" stroke="none" d="M 200.616379 196.682541 C 201.386932 196.682541 202.159744 196.682541 202.930298 196.682541 C 216.339371 223.491516 230.993393 249.715103 246.894623 275.35556 C 230.595413 268.925171 215.168579 261.212921 200.616379 252.216431 C 200.616379 233.705124 200.616379 215.193832 200.616379 196.682541 Z"/>
        </g>
        <g id="g14">
            <path id="path13" fill="#b6e0f2" fill-rule="evenodd" stroke="none" d="M 135.826843 249.902512 C 156.656708 250.564285 177.481918 251.334839 198.302475 252.216431 C 198.302475 269.184326 198.302475 286.154602 198.302475 303.122498 C 181.237366 301.178833 164.267166 298.478455 147.396393 295.023804 C 143.863113 292.635864 140.778641 289.935486 138.140747 286.92511 C 136.756973 274.631287 135.986435 262.291199 135.826843 249.902512 Z"/>
        </g>
        <g id="g15">
            <path id="path14" fill="#58afde" fill-rule="evenodd" stroke="none" d="M 198.302475 252.216431 C 199.073013 252.216431 199.845825 252.216431 200.616379 252.216431 C 215.168579 261.212921 230.595413 268.925171 246.894623 275.35556 C 247.665176 276.898956 248.437988 278.439972 249.208542 279.983368 C 233.552628 286.652069 218.125793 293.980225 202.930298 301.965546 C 200.718201 309.81897 199.947662 317.917664 200.616379 326.261627 C 198.351044 319.03064 197.578247 311.31839 198.302475 303.122498 C 198.302475 286.154602 198.302475 269.184326 198.302475 252.216431 Z"/>
        </g>
        <g id="g16">
            <path id="path15" fill="#266fa8" fill-rule="evenodd" stroke="none" d="M 249.208542 279.983368 C 233.809387 306.14447 218.382553 332.368042 202.930298 358.656403 C 201.178619 361.60199 199.63765 361.60199 198.302475 358.656403 C 200.584045 348.313202 201.354446 337.514191 200.616379 326.261627 C 199.947662 317.917664 200.718201 309.81897 202.930298 301.965546 C 218.125793 293.980225 233.552628 286.652069 249.208542 279.983368 Z"/>
        </g>
        <g id="g17">
            <path id="path16" fill="#8fd3f0" fill-rule="evenodd" stroke="none" d="M 138.140747 286.92511 C 140.778641 289.935486 143.863113 292.635864 147.396393 295.023804 C 164.267166 298.478455 181.237366 301.178833 198.302475 303.122498 C 197.578247 311.31839 198.351044 319.03064 200.616379 326.261627 C 201.354446 337.514191 200.584045 348.313202 198.302475 358.656403 C 179.113129 336.759857 159.44487 315.164093 139.297714 293.866852 C 138.180161 291.673279 137.796005 289.359344 138.140747 286.92511 Z"/>
        </g>
    </g>
</svg>
