<?xml version="1.0" encoding="UTF-8"?>

<svg width="400" height="400" viewBox="0 0 400 400" xmlns="http://www.w3.org/2000/svg">
    <g id="layer1">
        <path id="path25802" fill="#266792" stroke="none" d="M 201.835587 390.692841 C 201.778381 390.18158 201.634232 387.507111 201.515167 384.749542 C 201.312454 380.053741 200.953293 379.620178 195.851929 377.914307 C 189.938507 375.93689 188.630173 373.743347 193.364166 373.743347 C 196.699707 373.743347 199.964081 371.517883 200.982239 368.549835 C 201.801956 366.160126 198.733566 358.364136 196.973328 358.364136 C 194.585724 358.364136 187.841919 351.710327 187.841919 349.354645 C 187.841919 345.070221 190.100327 345.456177 195.524567 350.667816 C 198.462952 353.491028 201.279709 355.800873 201.784012 355.800873 C 202.28833 355.800873 204.915863 353.532623 207.622986 350.760284 C 213.093964 345.157532 212.889191 347.893341 209.643768 323.760864 C 207.030334 304.327759 209.870316 290.524323 220.625793 270.384094 C 230.012939 252.806091 229.963577 250.891113 219.595306 230.41571 C 212.347122 216.101837 211.545944 213.727509 211.120377 205.29985 C 210.184158 186.760254 221.397583 163.978073 244.021851 138.454163 L 255.986557 124.956055 L 257.794189 113.820343 C 260.199677 99.001892 260.106201 70.980682 257.603149 56.546997 C 255.169403 42.512939 249.706039 25.755066 243.632538 13.694702 C 238.70961 3.919098 238.529083 3.360565 240.292023 3.360565 C 242.87236 3.360565 257.548401 24.965332 264.121338 38.439911 C 275.825317 62.433167 281.318787 89.81723 279.568085 115.43924 C 278.078583 137.238464 277.705261 138.130951 264.288025 151.972595 C 257.768311 158.698517 249.962067 167.847763 246.940842 172.304245 C 233.991135 191.405945 227.989258 212.743683 234.82785 215.367828 C 240.032608 217.365128 250.878632 206.357895 269.866119 179.808899 C 275.753235 171.577255 281.04483 164.842316 281.625214 164.842316 C 283.857025 164.842316 283.243805 185.595123 280.707428 195.90152 C 277.686829 208.175522 273.485291 214.786148 262.26651 224.916122 C 250.536636 235.507523 248.077179 239.311081 248.077179 246.859406 C 248.077179 252.070587 251.242569 256.923157 255.839615 258.759338 C 257.234985 259.31665 256.692749 260.386047 253.63176 263.113831 C 247.664276 268.431732 241.669174 280.636047 241.669174 287.466187 C 241.669174 306.021881 235.041779 342.730652 228.272202 361.671051 C 223.292755 375.602966 219.328201 382.034729 213.174347 386.16452 C 208.178452 389.517212 201.980927 391.992279 201.835571 390.692841 Z M 181.627777 299.730865 C 180.979904 298.497345 178.863464 293.450989 176.924576 288.516815 C 172.532654 277.340118 172.095993 276.798553 166.653061 275.777405 C 163.354309 275.158539 161.694275 273.891479 160.181076 270.837402 C 159.061691 268.578064 156.67984 265.495911 154.888077 263.988037 C 151.032562 260.743347 151.77478 258.92395 157.611359 257.312317 C 163.860703 255.586777 168.125351 256.858948 172.395737 261.722717 C 176.759201 266.692444 182.402115 283.219818 183.578613 294.47583 C 184.375 302.095428 183.751633 303.774689 181.627777 299.730865 Z M 135.987854 217.269638 C 125.57058 207.374176 119.019547 196.437973 117.724174 186.780212 C 116.776527 179.71489 119.481712 179.730637 125.554962 186.823822 C 133.764618 196.414978 149.070526 224.332153 146.866241 225.694473 C 146.197449 226.107651 141.302185 222.315704 135.987854 217.267639 Z M 163.064316 222.941574 C 162.594421 222.471725 162.199905 219.732285 162.187668 216.854034 C 162.15036 208.077362 158.621124 194.258987 153.852127 184.216888 C 148.196411 172.307495 140.886688 162.031845 128.581467 148.692566 C 119.044472 138.354218 118.997559 138.268188 117.538033 128.455078 C 112.944321 97.569214 118.791016 62.348816 133.066986 34.908569 C 140.10376 21.383057 157.083511 -1.462891 157.083511 2.594818 C 157.083511 3.051117 155.137436 7.303009 152.758911 12.043396 C 141.44104 34.599579 136.2789 57.024292 136.171204 84.10141 C 136.098495 102.383057 138.111893 120.71759 140.745178 125.753479 C 141.482376 127.163239 145.459244 131.941467 149.582703 136.371704 C 169.88002 158.179077 183.038467 183.827606 183.256454 202.008728 C 183.371063 211.568344 181.458008 215.072403 173.167389 220.488617 C 168.157745 223.761398 164.719055 224.596313 163.064316 222.941574 Z"/>
        <g id="text25806">
            <path id="path25808" fill="#444444" stroke="none" d="M 236.842102 390.776489 L 236.842102 397.880981 L 235.423599 397.880981 L 235.423599 390.776489 L 232.875107 390.776489 L 232.875107 389.47818 L 239.390594 389.47818 L 239.390594 390.776489 Z"/>
            <path id="path25810" fill="#444444" stroke="none" d="M 242.34198 397.880981 L 240.923477 397.880981 L 240.923477 389.47818 L 243.135391 389.47818 L 245.671844 394.755524 L 248.208313 389.47818 L 250.408188 389.47818 L 250.408188 397.880981 L 248.9897 397.880981 L 248.9897 391.317383 L 246.056519 397.147736 L 245.263123 397.147736 L 242.34198 391.317383 Z"/>
        </g>
    </g>
</svg>
