<?xml version="1.0" encoding="UTF-8"?>
<!-- Generated by Pixelmator Pro 3.2.3 -->
<svg width="400" height="400" viewBox="0 0 400 400" xmlns="http://www.w3.org/2000/svg" xmlns:xlink="http://www.w3.org/1999/xlink">
    <g id="Group">
        <g id="g1">
            <path id="Path" fill="#080216" stroke="none" d="M 399 86.871857 C 383.718445 107.54715 350.847748 112.184113 347.17038 99.86499 C 343.452087 87.546783 362.573822 79.026917 372.645386 77.842377 C 314.483459 62.009644 325.024353 104.135376 292.848602 108.200226 C 310.622345 116.985657 329.090118 131.571411 341.572968 133.349609 C 363.003174 136.43396 392.993256 124.625977 399 86.851868"/>
            <path id="path1" fill="#080216" fill-rule="evenodd" stroke="none" d="M 169.556488 33.961029 C 168.433167 27.423706 163.897186 25.339874 156.645233 22.438934 L 156.604294 22.438934 C 203.83699 0.232117 233.970795 16.248779 246.10524 26.259186 C 252.846954 31.81601 255.400986 37.107239 257.81134 42.112488 C 259.752319 46.116638 261.591492 49.93689 265.431641 53.552856 C 271.19281 58.987152 281.898346 66.729889 286.208771 69.855591 C 286.637177 70.162018 287.005554 70.427704 287.291168 70.652374 C 290.499176 72.981415 291.847168 79.437134 288.925629 83.829376 C 286.025024 88.221649 278.301941 97.251801 269.048035 95.740082 C 259.793274 94.228394 239.507294 90.734772 222.795883 87.833282 C 206.084503 84.932678 194.480301 75.596252 194.480301 75.596252 C 192.376495 87.322998 199.444702 97.742065 212.764328 101.214783 C 215.339294 101.888763 218.44455 102.583618 221.937286 103.380402 C 237.607224 106.935028 261.060303 112.246826 280.447601 124.626892 C 306.78125 141.46109 327.619324 168.019394 335.749908 208.857849 C 343.880493 249.696289 333.727081 336.193848 261.447754 371.721405 C 189.168457 407.227081 120.689323 379.729187 120.689323 379.729187 C 185.471085 376.70578 223.408035 350.393036 237.892822 332.925812 C 248.046249 320.667664 257.648499 298.60437 251.805496 273.149353 C 245.411255 245.283096 221.876343 224.118515 197.89209 227.673065 C 173.907822 231.227615 163.754364 257.131958 159.260223 269.716644 C 154.765152 282.301422 147.757904 291.596222 141.629257 292.618561 C 135.500626 293.639984 126.71608 293.966492 118.993889 275.335052 C 111.271698 256.723572 90.678474 223.36261 63.364319 235.885513 C 36.050152 248.409286 31.106226 306.387482 31.106226 306.387482 C -2.336769 252.944336 -10.855805 184.362427 20.605509 117.762451 C 52.066822 51.16272 117.706863 26.626923 117.706863 26.626923 C 105.959862 41.846863 92.986771 87.915131 106.184517 129.366638 C 119.381363 170.797226 151.966446 191.57431 170.65979 194.393082 C 189.332184 197.212708 211.600082 186.139709 210.394913 163.401566 C 209.393494 144.729126 193.336075 131.470428 176.339081 123.707336 C 164.203705 118.170807 152.191101 105.40332 151.354309 85.770386 C 150.516602 66.137512 159.117416 53.7164 163.325058 48.792847 C 166.61496 44.911316 170.516968 39.5383 169.576492 33.981537 L 169.556488 33.961029 Z M 216.931961 52.796997 C 203.142059 52.796997 196.870636 59.804382 196.870636 59.804382 C 196.911575 59.457123 196.972504 59.048462 197.013443 58.578552 C 197.606461 53.614288 198.81163 43.297394 203.857895 38.271759 C 209.35347 32.776215 218.710144 28.669891 231.825119 38.271759 C 244.94101 47.873535 249.067703 65.361084 249.067703 65.361084 C 244.47168 61.479553 230.742737 52.796997 216.952866 52.796997 L 216.931961 52.796997 Z"/>
        </g>
    </g>
</svg>
