<?xml version="1.0" encoding="UTF-8"?>
<svg width="400" height="400" viewBox="0 0 400 400" xmlns="http://www.w3.org/2000/svg">
    <g id="Group">
        <path id="Path" fill="#060609" stroke="none" d="M 200.476791 300.167419 C 171.37616 300.167419 145.509003 293.701202 122.875343 280.768799 C 100.600876 267.83255 82.997063 250.048569 70.063484 227.416809 C 57.12991 204.781281 50.663311 179.095764 50.663311 150.352814 C 50.663311 121.254852 57.12991 95.3862 70.063484 72.754364 C 82.997063 50.118835 100.600876 32.334869 122.875343 19.402435 C 145.509003 6.469971 171.37616 0 200.476791 0 C 229.218216 0 254.726547 6.469971 277.001038 19.402435 C 299.275482 32.334869 316.877838 50.118835 329.814026 72.754364 C 342.74646 95.3862 349.39209 121.254852 349.750916 150.352814 C 349.750916 179.095764 343.284668 204.781281 330.352234 227.416809 C 317.419769 250.048569 299.634674 267.83255 277.001038 280.768799 C 254.726547 293.701202 229.218216 300.167419 200.476791 300.167419 Z M 200.476791 259.213409 C 220.595718 259.213409 238.559113 254.541275 254.366608 245.20079 C 270.174469 235.50145 282.569092 222.565262 291.550781 206.399704 C 300.532837 189.871597 305.023712 171.190552 305.023712 150.352814 C 305.023712 129.515137 300.532837 110.834106 291.550781 94.309753 C 282.569092 77.781586 270.174469 64.849152 254.366608 55.508606 C 238.559113 45.809265 220.595718 40.957764 200.476791 40.957764 C 180.357864 40.957764 162.215408 45.809265 146.047989 55.508606 C 130.240494 64.849152 117.666107 77.781586 108.325218 94.309753 C 99.343521 110.834106 94.852669 129.515137 94.852669 150.352814 C 94.852669 171.190552 99.343521 189.871597 108.325218 206.399704 C 117.666107 222.565262 130.240494 235.50145 146.047989 245.20079 C 162.215408 254.541275 180.357864 259.213409 200.476791 259.213409 Z"/>
        <path id="path1" fill="#ff5789" stroke="none" d="M 323.157135 346.87381 L 76.162659 346.87381 C 61.281372 346.87381 49.217941 358.935333 49.217941 373.818848 C 49.217941 388.69873 61.281372 400.764008 76.162659 400.764008 L 323.157135 400.764008 C 338.04068 400.764008 350.102264 388.69873 350.102264 373.818848 C 350.102264 358.935333 338.04068 346.87381 323.157135 346.87381 Z"/>
    </g>
</svg>
