<?xml version="1.0" encoding="UTF-8"?>
<!-- Generated by Pixelmator Pro 3.6.17 -->
<svg width="400" height="400" viewBox="0 0 400 400" xmlns="http://www.w3.org/2000/svg">
    <path id="Path" fill="#ff141d" stroke="none" d="M 127.169769 74.237152 C 128.143372 74.235382 128.143372 74.235382 129.136642 74.233521 C 130.915451 74.230865 132.694244 74.230408 134.473068 74.231049 C 136.400558 74.231171 138.328049 74.228271 140.255554 74.22583 C 144.023575 74.221527 147.791595 74.220062 151.559586 74.219727 C 154.626312 74.219543 157.693024 74.218475 160.759766 74.216827 C 169.477127 74.21225 178.194504 74.209839 186.91188 74.210205 C 187.615189 74.210205 187.615189 74.210205 188.332687 74.210266 C 189.03685 74.210327 189.03685 74.210327 189.755249 74.210327 C 197.355942 74.210541 204.956619 74.205566 212.557327 74.198212 C 220.383865 74.190704 228.210388 74.187134 236.036942 74.187592 C 240.422012 74.187775 244.807053 74.186371 249.192078 74.180725 C 252.926666 74.175964 256.661255 74.174866 260.395844 74.178436 C 262.296234 74.180084 264.196564 74.180206 266.096985 74.175629 C 276.553741 74.152069 286.879791 74.412109 297.167236 76.454315 C 298.008789 76.620819 298.008789 76.620819 298.867279 76.790619 C 316.948517 80.53717 334.187927 88.050018 348.871399 99.296539 C 349.339203 99.654236 349.806946 100.011963 350.288879 100.380493 C 352.951233 102.466736 355.483978 104.67804 357.980255 106.959442 C 358.846893 107.749023 359.721436 108.53006 360.603699 109.302246 C 380.983612 127.193756 394.046387 154.029495 398.330414 180.513412 C 398.416565 181.045212 398.416565 181.045212 398.504547 181.587708 C 402.586029 207.593582 398.300171 235.500275 385.80246 258.738464 C 385.322449 259.633667 384.856873 260.53656 384.391602 261.439453 C 375.83551 277.835358 362.47226 292.82431 347.30954 303.379944 C 346.978455 303.613586 346.647339 303.847229 346.306183 304.087921 C 336.573517 310.919586 326.02536 316.400848 314.803284 320.332672 C 314.288147 320.513245 313.773041 320.693817 313.24231 320.879852 C 311.092834 321.608673 309.517273 322.122314 307.221741 322.122314 C 307.049927 322.465881 306.878143 322.809509 306.701111 323.163544 C 305.610291 323.455261 305.610291 323.455261 304.183441 323.682129 C 303.664154 323.767944 303.144897 323.85376 302.609863 323.9422 C 302.070129 324.028839 301.530365 324.115479 300.974274 324.204773 C 299.96933 324.38269 298.964691 324.562317 297.960388 324.743713 C 296.947632 324.922241 295.934875 325.100525 294.922058 325.278564 C 294.416077 325.368835 293.910034 325.459106 293.388672 325.552094 C 292.889374 325.639679 292.390045 325.727234 291.87561 325.817505 C 291.434937 325.895386 290.994293 325.973267 290.540253 326.053528 C 286.140717 326.721191 281.87085 326.885162 277.425507 326.884521 C 276.740814 326.886414 276.056183 326.888367 275.350769 326.89032 C 273.460297 326.895508 271.569885 326.897461 269.679443 326.898834 C 267.636139 326.900909 265.592834 326.905884 263.54953 326.9104 C 258.618103 326.920654 253.686691 326.925934 248.75528 326.930573 C 246.426117 326.932861 244.09697 326.935669 241.767822 326.938354 C 234.012344 326.947235 226.256836 326.954773 218.501343 326.958557 C 216.49118 326.959534 214.481049 326.960541 212.470886 326.961548 C 211.721573 326.961945 211.721573 326.961945 210.957123 326.962341 C 202.885696 326.966644 194.814331 326.979797 186.74292 326.996735 C 178.433441 327.014038 170.123978 327.023346 161.814484 327.025024 C 157.158356 327.026123 152.502258 327.030579 147.846146 327.044006 C 143.876083 327.055389 139.906097 327.059448 135.93602 327.054413 C 133.917068 327.052094 131.898254 327.052856 129.879318 327.063141 C 94.38517 327.233429 62.293251 315.036407 36.832382 290.207825 C 35.847343 289.22464 34.870678 288.233887 33.895752 287.240692 C 33.444763 286.800446 32.993778 286.360229 32.529121 285.906616 C 28.168922 281.431671 28.168922 281.431671 28.168922 279.952026 C 27.825312 279.952026 27.481699 279.952026 27.127682 279.952026 C 26.446018 279.134857 26.446018 279.134857 25.673603 277.989502 C 25.39035 277.572937 25.107098 277.156342 24.815266 276.727112 C 24.515322 276.277283 24.21537 275.827484 23.90634 275.364044 C 23.598007 274.905518 23.289667 274.44696 22.971992 273.974518 C 22.363613 273.067444 21.756975 272.15918 21.152233 271.249664 C 20.549265 270.344849 19.937773 269.445679 19.322433 268.549194 C 10.754925 255.74057 5.143458 240.852371 2.04026 225.807434 C 1.919145 225.224854 1.919145 225.224854 1.795583 224.630447 C 0.266569 216.774551 -0.14096 208.99707 -0.107301 201.012863 C -0.106181 200.532211 -0.105061 200.051575 -0.103901 199.556366 C -0.07655 192.24295 0.157585 185.098969 1.617256 177.910309 C 1.768256 177.148636 1.768256 177.148636 1.922307 176.371582 C 6.790076 152.562317 18.000362 130.780823 34.936996 113.353302 C 35.238995 113.037903 35.540997 112.722504 35.85215 112.397491 C 40.289162 107.771637 44.863152 103.602722 50.035 99.817169 C 50.379955 99.561554 50.724903 99.305969 51.080311 99.042603 C 56.247681 95.22876 61.538803 91.882477 67.215492 88.884125 C 67.536201 88.709991 67.856911 88.535797 68.187332 88.356384 C 86.194878 78.593781 106.789047 74.20932 127.169769 74.237152 Z M 73.462944 141.466858 C 73.021347 141.864807 72.579758 142.262787 72.124786 142.672821 C 65.734627 148.744476 60.791351 156.036087 56.803074 163.853546 C 56.638233 164.168442 56.473389 164.483353 56.303551 164.807846 C 46.399014 183.872162 45.755432 206.108231 51.929878 226.380173 C 57.805248 244.753159 70.428558 259.720978 86.47847 270.060211 C 86.933487 270.353394 86.933487 270.353394 87.39769 270.652527 C 94.207611 274.960449 101.756477 277.906799 109.548485 279.886932 C 109.939156 279.986389 110.329826 280.085815 110.732338 280.188293 C 119.196632 282.189575 127.57431 282.189514 136.227478 282.178253 C 138.098175 282.176941 139.968872 282.181641 141.839569 282.185547 C 145.494934 282.192169 149.150269 282.193115 152.805649 282.191895 C 155.780533 282.190948 158.755402 282.191895 161.730286 282.194092 C 162.367889 282.19455 162.367889 282.19455 163.018387 282.195007 C 163.882233 282.195679 164.746078 282.196289 165.609924 282.19693 C 173.693527 282.202576 181.77713 282.201477 189.860779 282.198303 C 197.234528 282.195587 204.608292 282.201477 211.98204 282.211365 C 219.576233 282.221497 227.170395 282.225769 234.764587 282.223785 C 239.018967 282.222809 243.273315 282.22403 247.52771 282.231445 C 251.150253 282.237701 254.772797 282.238342 258.395355 282.232086 C 260.238739 282.229065 262.082092 282.228363 263.925476 282.23468 C 273.800629 282.261749 283.441986 281.946259 292.969727 279.073456 C 293.417786 278.941101 293.865814 278.808807 294.327484 278.672455 C 307.336182 274.679962 318.249512 267.411011 328.04657 258.085938 C 328.382813 257.777222 328.719025 257.468506 329.06546 257.150452 C 343.085327 243.885727 350.934937 223.300232 351.620941 204.289108 C 351.928162 189.813278 349.110107 176.308411 342.623962 163.332916 C 342.388916 162.857681 342.388916 162.857681 342.149109 162.372772 C 332.866272 143.976135 315.186462 129.717926 295.768066 123.245117 C 294.59259 122.945465 293.421753 122.683105 292.229492 122.460114 C 291.082489 122.203857 291.082489 122.203857 289.677582 121.719269 C 281.593079 119.100983 273.223114 119.370575 264.824341 119.388947 C 262.905365 119.391418 260.98642 119.384888 259.067444 119.379608 C 255.31929 119.370697 251.571198 119.370209 247.823029 119.372925 C 244.772232 119.375031 241.721451 119.374268 238.670654 119.37146 C 238.234467 119.371094 237.798264 119.370697 237.348862 119.370331 C 236.462387 119.369507 235.575912 119.368744 234.689438 119.36792 C 226.397217 119.360779 218.105011 119.363586 209.81279 119.369568 C 202.251251 119.374695 194.689774 119.368042 187.12825 119.35553 C 179.337524 119.342804 171.546829 119.33786 163.756104 119.341278 C 159.392868 119.343109 155.029678 119.342041 150.666443 119.332825 C 146.951309 119.325134 143.236282 119.324951 139.521149 119.333923 C 137.63121 119.338287 135.741394 119.339569 133.85144 119.331482 C 110.602173 119.23941 90.853615 125.759888 73.462944 141.466858 Z"/>
</svg>
