<?xml version="1.0" encoding="UTF-8"?>
<!-- Generated by Pixelmator Pro 3.6.17 -->
<svg width="400" height="400" viewBox="0 0 400 400" xmlns="http://www.w3.org/2000/svg">
    <path id="Path" fill="none" stroke="none" d="M 163.967148 33.927338 L 165.102036 33.359894 Z"/>
    <path id="path1" fill="none" stroke="none" d="M 128.218018 40.358398 C 130.040283 39.567657 131.902817 38.873138 133.797913 38.27774 C 131.902817 38.873138 130.040283 39.567657 128.218018 40.358398 Z"/>
    <path id="path2" fill="none" stroke="none" d="M 156.495773 36.197113 L 156.495773 36.197113 Z"/>
    <path id="path3" fill="none" stroke="none" d="M 141.647583 36.575409 L 145.619705 36.575409 Z"/>
    <path id="path4" fill="none" stroke="none" d="M 160.278748 35.535095 L 161.697372 35.535095 Z"/>
    <path id="path5" fill="none" stroke="none" d="M 148.551514 36.102539 L 147.605774 36.102539 C 149.497269 36.102539 151.388748 36.102539 153.280243 36.102539 L 153.280243 36.102539 C 151.70546 36.006348 150.126282 36.006348 148.551514 36.102539 Z"/>
    <path id="path6" fill="none" stroke="none" d="M 135.594818 37.804871 L 139.56694 36.953705 Z"/>
    <path id="path7" fill="#ffffff" stroke="none" d="M 178.058746 156.022903 L 220.049774 156.022903 L 220.049774 167.4664 L 178.058746 167.4664 Z"/>
    <path id="path8" fill="#ffffff" stroke="none" d="M 139.850662 373.827789 L 258.257843 373.827789 L 258.257843 102.588348 L 139.850662 102.588348 Z M 221.752106 346.77948 C 219.128296 348.085968 216.369171 349.10083 213.524139 349.805878 C 210.242737 350.599792 206.875092 350.981018 203.499252 350.940765 C 193.187347 351.621582 183.170929 347.333862 176.545547 339.40271 C 169.768753 329.813934 166.435562 318.214417 167.088104 306.490784 C 166.769119 297.722473 168.316467 288.98645 171.62767 280.861115 C 174.288849 274.757721 178.784256 269.634308 184.489807 266.202087 C 190.240417 262.917603 196.784973 261.281494 203.404694 261.473389 C 206.781067 261.421967 210.150131 261.803375 213.429565 262.608276 C 215.63327 263.032593 217.766342 263.764832 219.766052 264.783478 L 219.766052 279.064209 C 217.789383 278.172668 215.730545 277.47583 213.618729 276.983582 C 211.222702 276.488617 208.783081 276.235138 206.336487 276.22699 C 200.286362 275.835663 194.461136 278.587463 190.920853 283.509216 C 186.89415 290.328217 185.046326 298.214478 185.62468 306.112488 C 185.180191 313.844116 186.917007 321.545105 190.637131 328.337463 C 194.004715 333.678162 200.038742 336.731537 206.336487 336.281738 C 211.69165 336.095581 216.946182 334.773865 221.752106 332.404175 Z M 151.294174 114.03186 L 246.436035 114.03186 L 246.436035 129.352905 L 151.294174 129.352905 Z M 151.294174 154.131409 L 162.737671 154.131409 L 162.737671 140.796417 L 235.370834 140.796417 L 235.370834 154.131409 L 246.436035 154.131409 L 246.436035 169.452469 L 235.370834 169.452469 L 235.370834 182.78746 L 162.737671 182.78746 L 162.737671 169.452469 L 151.294174 169.452469 Z M 151.294174 194.230957 L 246.436035 194.230957 L 246.436035 209.457443 L 151.294174 209.457443 Z M 151.294174 220.995514 L 246.436035 220.995514 L 246.436035 236.316574 L 151.294174 236.316574 Z"/>
    <path id="path9" fill="#ffffff" stroke="none" d="M 378.84021 150.632156 L 305.355896 167.655548 L 283.414642 172.289688 L 283.414642 162.170227 L 328.999512 162.170227 L 331.647583 157.157776 L 333.444519 152.712799 C 351.627441 118.668701 340.494507 76.363525 307.909393 55.679443 C 300.764038 51.196533 292.890656 47.995972 284.644104 46.221985 C 281.871674 45.629486 279.511261 43.824493 278.213043 41.304138 C 266.155273 16.768066 241.146362 1.270599 213.807861 1.393738 C 193.89917 1.52655 174.920166 9.836273 161.319061 24.375305 C 159.816681 26.077271 157.629456 27.014648 155.36087 26.928833 L 154.509705 26.928833 L 148.835251 26.928833 C 120.041618 26.653168 95.130989 46.915405 89.537079 75.161774 C 89.060234 77.832275 87.338989 80.11554 84.902939 81.309113 C 61.498268 93.498199 46.074657 116.937775 44.141361 143.255341 L 43.573917 151.483322 L 42.817322 162.170227 L 115.072174 162.170227 L 115.072174 204.350418 L 10 204.350418 L 10 398.606262 L 390 398.606262 L 390 147.889496 Z M 285.0224 308.949738 L 285.0224 293.628662 L 300.343475 293.628662 L 300.343475 308.949738 Z M 300.343475 320.393219 L 300.343475 335.61972 L 285.0224 335.61972 L 285.0224 320.393219 Z M 285.0224 282.563477 L 285.0224 266.864105 L 300.343475 266.864105 L 300.343475 282.185181 Z M 285.0224 255.798904 L 285.0224 240.099548 L 300.343475 240.099548 L 300.343475 255.420609 Z M 285.0224 229.034348 L 285.0224 213.334991 L 300.343475 213.334991 L 300.343475 228.37233 Z M 53.031361 152.712799 L 53.598808 144.484818 C 53.784489 141.625214 54.163654 138.781464 54.7337 135.973114 C 56.944466 124.710266 61.989632 114.196777 69.392731 105.425598 C 74.940857 98.93811 81.683151 93.576385 89.253365 89.631653 C 94.155426 87.053467 97.681129 82.456207 98.899948 77.053253 C 100.85569 66.999695 105.799957 57.770386 113.086105 50.572418 C 114.509758 49.149414 116.026283 47.822449 117.625687 46.600311 C 120.90641 44.121826 124.460373 42.027527 128.218018 40.358398 L 128.218018 40.358398 C 130.040283 39.567657 131.902802 38.873138 133.797913 38.27774 L 135.594818 38.27774 L 139.56694 37.426575 L 141.647583 37.426575 L 145.619705 37.426575 C 148.169724 37.23761 150.730225 37.23761 153.280243 37.426575 L 153.280243 37.426575 C 151.388748 37.426575 149.497269 37.426575 147.605774 37.426575 L 148.551514 37.426575 C 150.126282 37.330383 151.70546 37.330383 153.280243 37.426575 C 154.34993 37.522675 155.426071 37.522675 156.495773 37.426575 L 158.008957 37.426575 L 160.278748 36.859131 L 161.697372 36.859131 C 162.506424 36.596375 163.271515 36.213837 163.967148 35.724243 L 165.102036 35.156799 C 166.144928 34.384033 167.125229 33.530212 168.033844 32.603271 C 169.452469 31.090088 171.060242 29.576904 172.667999 28.158295 C 195.737671 7.954071 230.046387 7.433655 253.718277 26.928833 C 258.029572 30.060486 261.936829 33.713593 265.350922 37.804871 C 266.978546 40.270844 268.462677 42.828613 269.795898 45.465393 C 272.457184 50.339203 277.125702 53.797363 282.563477 54.922852 C 289.895935 56.630737 296.873383 59.607361 303.180695 63.718262 C 331.537354 81.724304 341.226135 118.541626 325.40567 148.173218 L 323.230438 152.239914 L 285.400696 152.239914 L 285.400696 136.918854 L 313.77301 136.918854 C 322.809692 114.973083 314.747253 89.708008 294.669006 77.053253 C 289.960541 74.017395 284.735748 71.869781 279.253357 70.716766 C 269.049896 68.478516 260.43866 61.680176 255.893478 52.27475 C 247.876282 36.275574 231.514236 26.172821 213.618729 26.172211 C 200.493759 26.163727 187.955688 31.610596 179.004486 41.209564 C 172.060028 48.691315 162.021881 52.503693 151.861618 51.518158 C 145.882416 50.93808 139.854843 51.915527 134.365341 54.355408 C 123.816544 59.075439 116.229065 68.639191 114.03186 79.985077 C 112.026939 89.990936 105.59211 98.547546 96.535583 103.250366 C 83.326164 110.13385 73.764244 122.422821 70.338478 136.918854 L 113.086105 136.918854 L 113.086105 152.712799 Z M 19.457441 389.148834 L 19.457441 389.148834 L 19.457441 213.334991 L 113.086105 213.334991 L 113.086105 228.37233 L 34.778496 228.37233 L 34.778496 373.827789 L 71.000496 373.827789 L 71.000496 352.832245 L 86.321548 352.832245 L 86.321548 373.827789 L 114.693878 373.827789 L 114.693878 389.148834 Z M 46.222 308.949738 L 46.222 293.628662 L 113.086105 293.628662 L 113.086105 308.949738 Z M 113.086105 320.393219 L 113.086105 335.61972 L 46.222 335.61972 L 46.222 320.393219 Z M 46.222 282.563477 L 46.222 266.864105 L 113.086105 266.864105 L 113.086105 282.185181 Z M 46.222 255.798904 L 46.222 240.099548 L 113.086105 240.099548 L 113.086105 255.420609 Z M 256.650085 389.148834 L 124.245895 389.148834 L 124.245895 87.267303 L 273.578888 87.267303 L 273.578888 389.148834 Z M 380.542572 373.827789 L 380.542572 389.148834 L 285.0224 389.148834 L 285.0224 373.827789 L 311.786957 373.827789 L 311.786957 352.832245 L 327.108002 352.832245 L 327.108002 373.827789 L 364.937775 373.827789 L 364.937775 179.004486 L 284.644104 197.919373 L 284.644104 182.030869 L 380.164246 159.805878 Z M 327.108002 240.099548 L 327.108002 255.420609 L 311.786957 255.420609 L 311.786957 240.099548 Z M 311.786957 228.37233 L 311.786957 213.334991 L 327.108002 213.334991 L 327.108002 228.37233 Z M 327.108002 266.202087 L 327.108002 281.523163 L 311.786957 281.523163 L 311.786957 266.864105 Z M 327.108002 292.966644 L 327.108002 308.28772 L 311.786957 308.28772 L 311.786957 293.628662 Z M 327.108002 319.731201 L 327.108002 334.957703 L 311.786957 334.957703 L 311.786957 320.393219 Z M 353.777985 239.437531 L 353.777985 254.758591 L 338.551544 254.758591 L 338.551544 240.099548 Z M 338.551544 228.37233 L 338.551544 213.334991 L 353.777985 213.334991 L 353.777985 228.37233 Z M 353.777985 266.202087 L 353.777985 281.523163 L 338.551544 281.523163 L 338.551544 266.864105 Z M 353.777985 292.966644 L 353.777985 308.28772 L 338.551544 308.28772 L 338.551544 293.628662 Z M 353.777985 319.731201 L 353.777985 334.957703 L 338.551544 334.957703 L 338.551544 320.393219 Z"/>
    <path id="path10" fill="#2c5967" stroke="none" d="M 124.52961 87.267303 L 124.52961 389.148834 L 273.578888 389.148834 L 273.578888 87.267303 Z M 258.257843 373.827789 L 139.850662 373.827789 L 139.850662 102.588348 L 258.257843 102.588348 Z"/>
    <path id="path11" fill="#2c5967" stroke="none" d="M 151.294174 114.03186 L 246.814346 114.03186 L 246.814346 129.352905 L 151.294174 129.352905 Z"/>
    <path id="path12" fill="#2c5967" stroke="none" d="M 162.737671 182.78746 L 235.370834 182.78746 L 235.370834 169.452469 L 246.436035 169.452469 L 246.436035 154.131409 L 235.370834 154.131409 L 235.370834 140.796417 L 162.737671 140.796417 L 162.737671 154.131409 L 151.294174 154.131409 L 151.294174 169.452469 L 162.737671 169.452469 Z M 178.058746 156.022903 L 220.049774 156.022903 L 220.049774 167.560974 L 178.058746 167.560974 Z"/>
    <path id="path13" fill="#2c5967" stroke="none" d="M 151.294174 194.230957 L 246.814346 194.230957 L 246.814346 209.552017 L 151.294174 209.552017 Z"/>
    <path id="path14" fill="#2c5967" stroke="none" d="M 151.294174 220.995514 L 246.814346 220.995514 L 246.814346 236.316574 L 151.294174 236.316574 Z"/>
    <path id="path15" fill="#2c5967" stroke="none" d="M 190.258835 328.337463 C 186.538727 321.545105 184.80191 313.844116 185.246399 306.112488 C 184.66803 298.214478 186.515854 290.328217 190.542557 283.509216 C 194.082825 278.587463 199.908066 275.835663 205.958176 276.22699 C 208.404785 276.235138 210.844391 276.488617 213.240417 276.983582 C 215.352234 277.47583 217.411072 278.172668 219.387756 279.064209 L 219.387756 264.783478 C 217.388062 263.764832 215.25499 263.032593 213.05127 262.608276 C 209.77182 261.803375 206.402756 261.421967 203.026382 261.473389 C 196.406662 261.281494 189.862106 262.917603 184.111496 266.202087 C 178.54657 269.69397 174.188736 274.811127 171.62767 280.861115 C 168.316467 288.98645 166.769119 297.722473 167.088104 306.490784 C 166.435562 318.214417 169.768753 329.813934 176.545547 339.40271 C 183.093506 347.474945 193.121887 351.908539 203.499252 351.319061 C 206.875092 351.359314 210.242737 350.978088 213.524139 350.184174 C 216.369171 349.479126 219.128296 348.464264 221.752106 347.157806 L 221.752106 332.404175 C 216.81604 334.761047 211.427567 336.019409 205.958176 336.09259 C 199.698868 336.582214 193.673782 333.605988 190.258835 328.337463 Z"/>
    <path id="path16" fill="#2c5967" stroke="none" d="M 46.222 240.099548 L 113.086105 240.099548 L 113.086105 255.420609 L 46.222 255.420609 Z"/>
    <path id="path17" fill="#2c5967" stroke="none" d="M 46.222 266.864105 L 113.086105 266.864105 L 113.086105 282.185181 L 46.222 282.185181 Z"/>
    <path id="path18" fill="#2c5967" stroke="none" d="M 46.222 293.628662 L 113.086105 293.628662 L 113.086105 308.949738 L 46.222 308.949738 Z"/>
    <path id="path19" fill="#2c5967" stroke="none" d="M 46.222 320.393219 L 113.086105 320.393219 L 113.086105 335.714264 L 46.222 335.714264 Z"/>
    <path id="path20" fill="#2c5967" stroke="none" d="M 285.0224 213.334991 L 300.343475 213.334991 L 300.343475 228.656052 L 285.0224 228.656052 Z"/>
    <path id="path21" fill="#2c5967" stroke="none" d="M 285.0224 240.099548 L 300.343475 240.099548 L 300.343475 255.420609 L 285.0224 255.420609 Z"/>
    <path id="path22" fill="#2c5967" stroke="none" d="M 311.786957 213.334991 L 327.108002 213.334991 L 327.108002 228.656052 L 311.786957 228.656052 Z"/>
    <path id="path23" fill="#2c5967" stroke="none" d="M 311.786957 240.099548 L 327.108002 240.099548 L 327.108002 255.420609 L 311.786957 255.420609 Z"/>
    <path id="path24" fill="#2c5967" stroke="none" d="M 311.786957 266.864105 L 327.108002 266.864105 L 327.108002 282.185181 L 311.786957 282.185181 Z"/>
    <path id="path25" fill="#2c5967" stroke="none" d="M 311.786957 293.628662 L 327.108002 293.628662 L 327.108002 308.949738 L 311.786957 308.949738 Z"/>
    <path id="path26" fill="#2c5967" stroke="none" d="M 338.551544 213.334991 L 353.872589 213.334991 L 353.872589 228.656052 L 338.551544 228.656052 Z"/>
    <path id="path27" fill="#2c5967" stroke="none" d="M 338.551544 240.099548 L 353.872589 240.099548 L 353.872589 255.420609 L 338.551544 255.420609 Z"/>
    <path id="path28" fill="#2c5967" stroke="none" d="M 338.551544 266.864105 L 353.872589 266.864105 L 353.872589 282.185181 L 338.551544 282.185181 Z"/>
    <path id="path29" fill="#2c5967" stroke="none" d="M 338.551544 293.628662 L 353.872589 293.628662 L 353.872589 308.949738 L 338.551544 308.949738 Z"/>
    <path id="path30" fill="#2c5967" stroke="none" d="M 311.786957 320.393219 L 327.108002 320.393219 L 327.108002 335.714264 L 311.786957 335.714264 Z"/>
    <path id="path31" fill="#2c5967" stroke="none" d="M 285.0224 266.864105 L 300.343475 266.864105 L 300.343475 282.185181 L 285.0224 282.185181 Z"/>
    <path id="path32" fill="#2c5967" stroke="none" d="M 285.0224 293.628662 L 300.343475 293.628662 L 300.343475 308.949738 L 285.0224 308.949738 Z"/>
    <path id="path33" fill="#2c5967" stroke="none" d="M 285.0224 320.393219 L 300.343475 320.393219 L 300.343475 335.714264 L 285.0224 335.714264 Z"/>
    <path id="path34" fill="#2c5967" stroke="none" d="M 338.551544 320.393219 L 353.872589 320.393219 L 353.872589 335.714264 L 338.551544 335.714264 Z"/>
    <path id="path35" fill="#2c5967" stroke="none" d="M 285.0224 181.936295 L 285.0224 197.635635 L 365.316071 179.09906 L 365.316071 373.827789 L 327.013458 373.827789 L 327.013458 352.832245 L 311.786957 352.832245 L 311.786957 373.827789 L 285.0224 373.827789 L 285.0224 389.148834 L 380.542572 389.148834 L 380.542572 389.148834 L 380.542572 381.488281 L 380.542572 373.827789 L 380.542572 159.805878 L 285.0224 181.936295 Z"/>
    <path id="path36" fill="#2c5967" stroke="none" d="M 86.321548 373.827789 L 86.321548 352.832245 L 71.095078 352.832245 L 71.095078 373.827789 L 34.778496 373.827789 L 34.778496 228.656052 L 113.086105 228.656052 L 113.086105 213.334991 L 19.457441 213.334991 L 19.457441 213.334991 L 19.457441 373.827789 L 19.457441 381.488281 L 19.457441 389.148834 L 19.457441 389.148834 L 114.977608 389.148834 L 114.977608 373.827789 L 86.321548 373.827789 Z"/>
    <path id="path37" fill="#2c5967" stroke="none" d="M 70.14933 136.918854 C 73.575096 122.422821 83.137016 110.13385 96.346443 103.250366 C 105.475426 98.591339 111.985138 90.027771 114.03186 79.985077 C 116.229065 68.639191 123.816544 59.075439 134.365356 54.355408 C 139.854843 51.915527 145.882416 50.93808 151.861618 51.518158 C 162.085617 52.564789 172.207336 48.747253 179.193619 41.209564 C 188.144852 31.610596 200.682907 26.163727 213.807861 26.172211 C 231.635208 26.244202 247.906906 36.336304 255.893478 52.27475 C 260.488037 61.490112 269.006409 68.130951 279.064209 70.33847 C 284.63855 71.585571 289.930878 73.862885 294.669006 77.053253 C 314.866608 89.800293 322.870575 115.292877 313.583862 137.29715 L 285.211548 137.29715 L 285.211548 152.712799 L 323.04129 152.712799 L 325.216553 148.646088 C 341.321503 118.943634 331.695313 81.843475 303.180695 63.718262 C 296.927856 59.803284 290.050537 56.988403 282.847198 55.395721 C 277.409393 54.270233 272.740906 50.812073 270.079651 45.938263 C 268.670898 43.133148 267.091705 40.416931 265.350922 37.804871 C 262.055725 33.080811 258.143494 28.818695 253.718277 25.131897 C 230.046387 5.636719 195.737671 6.157166 172.667999 26.361389 C 171.060242 27.779999 169.452469 29.293182 168.033844 30.806366 C 167.125229 31.733307 166.144928 32.587128 165.102036 33.359894 L 163.967148 33.927338 C 163.271515 34.416931 162.506424 34.799469 161.697372 35.062225 L 160.278748 35.062225 L 158.008957 35.629669 L 156.495773 35.629669 C 155.426071 35.725769 154.34993 35.725769 153.280243 35.629669 L 153.280243 35.629669 C 150.730225 35.440704 148.169724 35.440704 145.619705 35.629669 L 141.647583 35.629669 L 139.56694 35.629669 L 135.594818 36.480835 L 133.797913 36.480835 C 131.902817 37.076233 130.040283 37.770752 128.218018 38.561462 L 128.218018 38.561462 C 124.460373 40.230621 120.90641 42.324921 117.625687 44.803375 C 116.026283 46.025543 114.509758 47.352478 113.086105 48.775513 C 105.472664 56.454498 100.50367 66.359375 98.899948 77.053253 C 97.774452 82.491028 94.316299 87.159546 89.442505 89.820801 C 81.820824 93.689209 75.014008 98.986969 69.392738 105.425598 C 62.07505 114.035095 57.034782 124.343231 54.7337 135.40567 C 54.163654 138.21402 53.784489 141.05777 53.598808 143.917358 L 53.031361 152.712799 L 113.086105 152.712799 L 113.086105 136.918854 Z"/>
</svg>
