<?xml version="1.0" encoding="UTF-8"?>
<!-- Generated by Pixelmator Pro 3.6.17 -->
<svg width="400" height="400" viewBox="0 0 400 400" xmlns="http://www.w3.org/2000/svg">
    <g id="Group">
        <g id="g1">
            <path id="Path" fill="#ffffff" stroke="none" d="M 140.650406 366.666656 L 140.650406 352.032532 L 160.162613 342.276428 L 162.601624 342.276428 L 163.414642 338.211395 L 91.869919 338.211395 L 91.869919 232.520325 L 4.065041 232.520325 L 4.878049 219.512192 C 7.317073 186.991867 26.01626 157.723572 55.284554 143.089417 C 61.788616 139.837402 66.666664 133.333313 67.479675 126.829254 C 72.357719 104.065033 87.804878 84.552856 108.943085 74.796753 C 117.886177 70.73172 127.642273 69.105682 138.21138 69.105682 C 140.650406 69.105682 142.276428 69.105682 144.715439 69.105682 C 145.528458 69.105682 146.341461 69.105682 147.15448 69.105682 C 153.658539 69.105682 159.349594 66.666656 163.414642 61.788605 C 180.487808 43.902435 204.065048 33.333344 228.455292 33.333344 C 261.788635 33.333344 292.682922 52.032532 307.317078 82.113831 C 310.569122 88.617889 316.260162 93.495941 323.57724 95.121948 C 333.333344 97.560974 343.089447 101.626007 352.032501 107.317078 C 391.869934 132.520325 405.691071 185.36586 383.739838 226.829269 L 382.113831 232.520325 L 309.756073 232.520325 L 309.756073 338.211395 L 238.21138 338.211395 L 239.024384 342.276428 L 243.089432 342.276428 L 262.601624 352.032532 L 262.601624 366.666656 L 140.650406 366.666656 Z"/>
            <path id="path1" fill="#ffffff" stroke="none" d="M 229.268295 37.398376 C 261.788635 37.398376 290.243896 55.284546 304.878052 83.739838 C 308.943085 91.056915 315.447144 96.747955 324.390259 98.373993 C 334.146332 100.813019 343.089447 104.065033 352.032501 109.756104 C 390.243896 134.146332 403.252014 183.739838 382.113831 223.57724 L 379.674805 227.642273 L 305.69104 227.642273 L 305.69104 332.520325 L 233.333344 332.520325 L 234.959351 344.715454 L 242.276413 344.715454 L 258.536591 352.84552 L 258.536591 360.975586 L 242.276413 360.975586 L 161.78862 360.975586 L 145.528458 360.975586 L 145.528458 352.84552 L 161.78862 344.715454 L 166.666672 344.715454 L 168.292694 332.520325 L 95.934959 332.520325 L 95.934959 228.455292 L 8.943089 228.455292 L 9.756098 219.512192 C 12.195122 187.804871 30.081301 160.975616 57.723576 146.341461 C 65.040649 142.276398 70.731705 134.959351 72.357719 126.829254 C 76.42276 104.878052 91.056908 86.991882 111.382111 78.048767 C 120.325203 73.983734 129.268295 72.357727 139.024399 72.357727 C 141.463409 72.357727 143.089432 72.357727 145.528458 72.357727 C 146.341461 72.357727 147.15448 72.357727 147.967484 72.357727 C 155.284561 72.357727 162.601624 69.105682 167.479675 64.227631 C 183.739838 47.15448 205.691055 37.398376 229.268295 37.398376 M 229.268295 29.26828 C 203.252029 29.26828 178.861786 39.837402 161.78862 58.536591 C 158.536591 62.601624 153.658539 64.227631 147.967484 64.227631 C 147.15448 64.227631 146.341461 64.227631 146.341461 64.227631 C 143.902451 64.227631 141.463409 64.227631 139.024399 64.227631 C 128.455292 64.227631 117.886177 66.666656 108.130081 70.73172 C 85.365852 80.487793 69.10569 101.626007 64.227646 126.016235 C 63.414635 131.707306 59.349594 136.585358 53.658535 139.837402 C 23.577236 156.097565 3.252033 185.36586 0.813008 219.512192 L 0 228.455292 L 0 236.585373 L 8.943089 236.585373 L 87.804878 236.585373 L 87.804878 333.333344 L 87.804878 341.46344 L 95.934959 341.46344 L 152.032532 341.46344 L 141.463409 346.341461 L 136.585358 348.780487 L 136.585358 354.471558 L 136.585358 362.601624 L 136.585358 370.73172 L 144.715439 370.73172 L 160.975601 370.73172 L 241.463425 370.73172 L 257.723572 370.73172 L 265.853668 370.73172 L 265.853668 362.601624 L 265.853668 354.471558 L 265.853668 349.593506 L 260.975586 347.154449 L 250.406494 342.276428 L 304.065063 342.276428 L 312.195129 342.276428 L 312.195129 334.146332 L 312.195129 236.585373 L 378.048767 236.585373 L 382.926819 236.585373 L 385.365875 232.520325 L 387.804871 228.455292 C 411.382111 184.552841 396.747955 130.081299 355.284546 103.252045 C 346.341461 97.560974 335.772339 93.495941 325.203247 91.056915 C 319.512177 89.430908 313.821136 86.178864 311.382111 80.487793 C 296.747955 48.780487 265.040649 29.26828 229.268295 29.26828 L 229.268295 29.26828 Z"/>
        </g>
        <g id="g2">
            <path id="path2" fill="#2c5967" stroke="none" d="M 95.934959 334.146362 L 168.292694 334.146362 L 166.666672 346.341461 L 161.78862 346.341461 L 161.78862 346.341461 L 145.528458 354.471558 L 145.528458 362.601624 L 161.78862 362.601624 L 161.78862 362.601624 L 242.276413 362.601624 L 242.276413 362.601624 L 258.536591 362.601624 L 258.536591 354.471558 L 242.276413 346.341461 L 242.276413 346.341461 L 234.959351 346.341461 L 233.333344 334.146362 L 305.69104 334.146362 L 305.69104 171.544708 L 95.934959 171.544708 L 95.934959 334.146362 Z M 182.926834 346.341461 L 184.552856 334.146362 L 217.073181 334.146362 L 218.699188 346.341461 L 182.926834 346.341461 Z M 112.195122 187.804871 L 289.430878 187.804871 L 289.430878 288.617889 L 262.601624 288.617889 L 262.601624 296.747986 L 246.341461 296.747986 L 246.341461 288.617889 L 226.829269 288.617889 L 226.829269 296.747986 L 210.569107 296.747986 L 210.569107 288.617889 L 191.056915 288.617889 L 191.056915 296.747986 L 174.796753 296.747986 L 174.796753 288.617889 L 155.284561 288.617889 L 155.284561 296.747986 L 139.024399 296.747986 L 139.024399 288.617889 L 114.634148 288.617889 L 114.634148 187.804871 Z M 112.195122 304.878052 L 289.430878 304.878052 L 289.430878 317.073181 L 112.195122 317.073181 L 112.195122 304.878052 Z"/>
            <path id="path3" fill="#2c5967" stroke="none" d="M 351.219513 110.569092 C 343.089447 104.878052 333.333344 101.626007 323.57724 99.186981 C 315.447144 97.560974 308.130096 91.869904 304.065063 84.552856 C 290.243896 55.284546 261.788635 37.398376 229.268295 37.398376 C 205.691055 37.398376 182.926834 47.15448 167.479675 64.227631 C 161.78862 69.918701 153.658539 73.170746 145.528458 72.357727 C 133.333328 71.544708 121.951218 73.170746 111.382111 78.048767 C 91.056908 86.991882 76.42276 105.69104 72.357719 126.829254 C 70.731705 134.959351 65.040649 142.276398 57.723576 146.341461 C 30.081301 160.975616 12.195122 188.617889 9.756098 219.512192 L 8.943089 228.455292 L 83.739838 228.455292 L 83.739838 212.195129 L 26.829268 212.195129 C 30.894308 190.243896 44.715446 171.544708 65.040649 160.975616 C 77.235771 154.471542 85.365852 143.089417 87.804878 130.081299 C 91.056908 113.821136 102.439026 100 117.886177 92.682922 C 126.016258 89.430908 134.959351 87.804871 143.089432 88.617889 C 156.910568 90.243896 169.918701 85.365845 178.861786 74.796753 C 192.682938 61.788605 210.569107 53.658539 229.268295 53.658539 C 255.284546 53.658539 278.861786 68.292694 290.243896 91.056915 C 295.934967 103.252045 307.317078 112.195129 321.138214 114.634155 C 329.26828 116.260162 336.585388 119.512177 343.089447 123.57724 C 372.357727 142.276398 383.739838 180.487808 369.918701 211.382111 L 318.699188 211.382111 L 318.699188 227.642273 L 380.487793 227.642273 L 382.926819 223.57724 C 403.252014 184.552841 390.243896 134.146332 351.219513 110.569092 Z"/>
            <path id="path4" fill="#2c5967" stroke="none" d="M 136.585358 259.349579 L 136.585358 288.617889 L 136.585358 296.747986 L 152.84552 296.747986 L 152.84552 288.617889 L 152.84552 259.349579 Z"/>
            <path id="path5" fill="#2c5967" stroke="none" d="M 173.170731 243.089417 L 173.170731 288.617889 L 173.170731 296.747986 L 189.430893 296.747986 L 189.430893 288.617889 L 189.430893 243.089417 Z"/>
            <path id="path6" fill="#2c5967" stroke="none" d="M 209.756088 220.325211 L 209.756088 288.617889 L 209.756088 296.747986 L 226.016251 296.747986 L 226.016251 288.617889 L 226.016251 220.325211 Z"/>
            <path id="path7" fill="#2c5967" stroke="none" d="M 245.528458 200 L 245.528458 288.617889 L 245.528458 296.747986 L 262.601624 296.747986 L 262.601624 288.617889 L 262.601624 200 Z"/>
        </g>
    </g>
</svg>
