<?xml version="1.0" encoding="UTF-8"?>

<svg width="400" height="400" viewBox="0 0 400 400" xmlns="http://www.w3.org/2000/svg">
    <g id="Group">
        <g id="g1">
            <path id="Path" fill="#ffffff" stroke="none" d="M 285.084839 394.344208 C 223.937515 394.344208 207.631577 378.322662 204.977112 375.099396 L 202.41745 371.970917 L 202.41745 330.258026 L 90.740639 330.258026 C 69.599785 328.741211 53.673042 321.251831 42.865608 307.979523 C 25.232426 286.459473 29.11931 258.682465 29.11931 258.398071 C 34.143822 229.104233 50.828979 214.315109 64.006462 206.920547 C 70.168594 203.50769 76.804741 201.042831 83.630486 199.431198 C 95.196342 169.568558 118.328033 162.837601 122.87854 161.794769 C 128.756271 159.993546 135.108002 159.045517 141.459747 159.045517 C 148.664688 159.045517 155.774841 160.183136 162.410995 162.458405 C 160.514938 160.846756 158.713715 158.761108 156.912476 156.391052 C 145.631027 141.222748 146.768646 121.693512 149.70752 108.13681 C 150.371124 104.723938 151.319153 101.311066 152.456772 97.992981 C 152.930786 96.855377 153.309998 96.002167 153.783997 95.148926 C 153.973602 94.864532 154.068405 94.674927 154.163208 94.390503 C 153.120392 93.537292 152.551575 92.968475 151.982773 92.304871 C 149.328308 89.081604 147.053055 85.763519 145.062225 82.350647 C 142.218155 77.326141 139.753296 72.11203 137.762466 66.708313 L 135.866425 62.537018 C 135.297607 61.11499 134.72879 59.598175 134.349594 58.081329 C 134.06517 57.038513 133.685974 55.995697 133.306763 55.047668 C 131.884735 52.77243 129.89389 50.11795 127.618637 47.842712 C 126.575813 46.705078 126.007004 46.136292 125.438187 45.377869 C 124.96418 44.809052 124.39537 44.145447 123.731758 43.481812 C 118.043633 37.319672 108.658234 27.365479 114.061943 16.178833 C 116.052788 11.723145 119.939667 8.310272 124.679771 6.793427 C 126.955017 6.035004 129.514679 5.655792 132.263947 5.655792 C 143.450592 5.655792 156.343658 11.723145 162.979797 15.325623 C 164.40184 16.178833 165.634247 17.032043 166.866684 17.980072 C 167.719894 18.643677 168.57312 19.212494 169.521149 19.781311 C 183.457047 19.970917 197.487732 23.383789 210.001617 29.451111 C 234.650146 41.870178 256.075409 60.26178 272.096954 82.635071 C 274.561829 86.237549 276.552643 90.029633 278.259094 93.916504 C 279.112305 95.717743 279.965546 97.708588 281.008362 99.699432 C 286.127655 109.843262 290.583374 117.996246 294.659851 124.632385 C 295.418243 125.864807 295.987091 127.002411 296.555878 128.140045 C 297.7883 130.510101 299.11554 132.690552 300.821991 134.681396 C 303.097229 136.29303 305.562073 137.335846 308.216522 137.904663 C 310.491791 138.568268 312.198212 139.137085 313.620239 139.705902 C 319.592773 142.170746 324.901703 144.635605 329.926208 147.384857 C 341.018036 152.978195 351.067047 160.467545 359.694061 169.378937 C 363.106934 172.791809 362.632935 176.015076 362.064087 177.721512 C 360.642059 182.082413 355.712372 182.840836 352.489105 183.409637 L 350.403442 183.788864 C 347.464569 184.357666 344.430908 184.831665 341.397247 185.021271 C 338.742798 185.210892 336.183136 185.590088 333.623474 186.064102 L 332.959869 186.253693 C 334.571503 187.106918 336.088318 187.865326 337.32077 188.528961 L 338.932404 189.382156 C 340.638855 190.235382 342.15567 190.993805 343.388092 191.752213 C 350.403442 195.923508 356.66037 201.137634 362.158875 207.299759 L 366.709412 210.902237 C 369.079468 212.893082 369.648254 213.935898 369.83786 214.315109 C 370.785919 216.021545 371.070313 218.391602 371.1651 219.150024 C 371.259918 221.804459 370.311859 225.880951 370.217072 226.35498 C 369.648254 228.725021 367.65741 234.128738 366.898987 236.214386 L 366.898987 373.677338 L 362.34848 377.09024 C 361.49527 377.659058 338.553192 394.344208 285.084839 394.344208 Z M 199.952591 178.66954 C 208.76918 178.66954 216.922165 180.565582 224.316711 184.262863 L 224.316711 184.073257 C 217.964981 181.324005 211.992462 176.48909 207.062744 172.507416 L 206.304337 171.843796 C 199.952591 167.103699 194.643677 161.510376 190.472397 154.874222 C 190.472397 154.874222 190.472397 154.874222 190.472397 154.779419 C 189.429581 159.614319 187.249115 164.63884 180.707794 166.81929 C 178.90654 167.482895 177.010498 167.767303 175.114456 167.767303 C 174.830048 167.767303 174.450851 167.767303 174.166443 167.767303 C 179.664963 170.895767 184.689484 174.877457 189.145172 179.522766 C 192.842438 178.953949 196.444931 178.66954 199.952591 178.66954 Z"/>
            <path id="path1" fill="#ffffff" stroke="none" d="M 132.263947 10.395905 C 142.597366 10.395905 155.111237 16.463226 160.704559 19.496918 C 161.747375 20.160522 162.790207 20.824127 163.833023 21.677338 C 165.160248 22.814972 166.677078 23.763 168.288712 24.521423 C 182.035019 24.616211 195.496902 27.74469 207.821167 33.717224 C 231.806091 45.75708 252.472931 63.579865 268.115265 85.479126 C 270.295715 88.797211 272.191772 92.210083 273.803406 95.907349 C 274.751434 97.898193 275.699432 99.983826 276.742249 102.069489 C 281.577148 111.644501 286.222473 120.176666 290.583374 127.286835 C 291.246979 128.329651 291.815796 129.467285 292.384583 130.510101 C 293.711823 133.354156 295.513062 136.008606 297.598724 138.283875 C 300.44278 140.464325 303.760834 141.886353 307.268494 142.644745 C 308.974945 143.118774 310.586578 143.592773 311.819031 144.161591 C 317.696747 146.62645 322.816071 148.99649 327.745758 151.650955 C 338.363586 157.054672 348.128174 164.164825 356.375977 172.791809 C 357.703217 174.119049 358.082428 175.256653 357.703217 176.204681 C 357.134399 178.00592 354.195557 178.385132 351.635895 178.764343 L 349.64502 179.143539 C 346.800964 179.712372 343.956909 180.091568 341.112854 180.281174 C 338.268799 180.470779 335.519531 180.849976 332.770264 181.418808 L 331.822266 181.608398 C 328.598999 182.461624 325.375702 183.125229 322.152435 183.599243 C 324.048462 187.106918 330.589813 190.330185 335.803925 192.889847 C 337.699982 193.837875 339.596008 194.785889 341.018036 195.639114 C 347.654175 199.620789 353.626709 204.550491 358.746033 210.33342 L 361.210876 212.324265 C 362.158875 212.987885 363.770538 214.409912 363.770538 214.409912 C 363.770538 214.409912 365.47699 215.83194 365.856201 216.49556 C 366.235382 217.064362 366.519806 218.486404 366.519806 219.244827 C 366.614594 220.761658 366.045807 223.700516 365.666595 225.122543 C 365.00296 227.682205 362.253693 235.266357 362.253693 235.266357 L 362.253693 371.212524 L 359.694061 373.203339 C 358.746033 373.866943 336.846741 389.604095 285.084839 389.604095 C 224.980347 389.604095 210.191208 373.866943 208.674377 372.065735 L 207.157547 370.264465 L 207.157547 325.517944 L 90.740639 325.517944 C 71.306221 324.095886 56.422302 317.175354 46.468086 305.04068 C 30.636143 285.606262 33.575008 260.19931 33.76461 259.156494 L 33.76461 258.777283 C 38.504715 231.663879 54.05225 217.917587 66.281715 211.091843 C 72.823059 207.489365 79.838409 204.929718 87.138161 203.50769 C 97.566391 173.550217 120.413681 167.198502 123.921356 166.440063 C 129.704285 164.733643 135.582016 163.880432 141.459747 163.880432 C 158.808517 163.880432 175.58847 171.274979 187.343918 184.642059 C 191.894409 183.788864 196.065704 183.314835 199.952591 183.314835 C 212.276871 183.314835 221.75708 187.296524 229.056824 192.605438 L 229.056824 180.66037 C 222.041473 178.574738 215.026123 172.697021 209.337997 168.1465 L 208.958801 167.862106 C 203.175858 163.596008 198.246155 158.287109 194.359268 152.219772 C 192.652847 149.186111 190.946411 146.342041 189.145172 143.30838 L 188.007538 141.222748 C 187.91275 141.507141 187.91275 141.886353 187.817947 142.170746 C 187.723145 142.739563 187.628342 143.403168 187.438721 143.971985 C 186.964722 145.96283 186.58551 148.048477 186.395905 150.134125 C 185.637482 155.443024 184.879074 160.467545 179.096161 162.458405 C 177.768921 162.932404 176.346893 163.216812 175.019669 163.216812 C 170.089951 163.216812 165.349854 159.993546 160.609741 153.736603 C 150.371124 139.990295 151.508759 121.977905 154.163208 109.274445 C 154.826828 106.051178 155.680054 102.827911 156.72287 99.604645 C 157.007263 98.94101 157.291687 98.277405 157.670883 97.6138 C 158.429306 96.476166 158.903305 95.148926 159.282532 93.821716 C 158.903305 92.494476 158.050095 91.45166 156.912476 90.693237 C 156.343658 90.219238 155.774841 89.745209 155.206039 89.176422 C 152.835983 86.332336 150.750336 83.298676 148.949112 80.075409 C 146.294647 75.335297 143.924591 70.310791 142.028549 65.191498 L 140.132507 60.546204 C 139.56369 59.313751 139.089691 57.986542 138.805283 56.659302 C 138.426071 55.332062 138.04686 54.09964 137.478058 52.867218 C 135.582016 49.73877 133.401566 46.894684 130.936707 44.335052 C 130.273102 43.57663 129.704285 43.007813 129.040665 42.154602 C 128.37706 41.301361 127.523834 40.448151 126.575813 39.405334 C 121.740913 34.286011 114.346352 26.512268 118.328033 18.169678 C 119.844864 14.851593 122.688927 12.386749 126.101807 11.249115 C 128.092651 10.680298 130.083496 10.395905 132.263947 10.395905 M 132.263947 0.91571 C 128.945862 0.91571 125.912201 1.389709 123.162941 2.24292 C 117.285217 4.138977 112.355507 8.499878 109.70105 14.282776 C 102.970108 28.218689 114.156746 40.163757 119.560463 45.946686 L 120.224075 46.705078 C 120.792892 47.273895 121.266899 47.842712 121.646111 48.316711 C 122.404526 49.169952 123.068138 49.928375 123.731758 50.686768 L 123.826553 50.781586 L 124.110962 51.160797 C 126.007004 53.151642 127.618637 55.237274 129.135483 57.512512 C 129.419876 58.081329 129.609482 58.744934 129.799088 59.313751 C 130.273102 61.020203 130.841919 62.821442 131.600327 64.527863 L 133.401566 68.983582 C 135.39241 74.29248 137.952072 79.696198 140.796127 84.910309 C 142.976578 88.607605 145.346619 92.115265 148.095886 95.338531 L 148.285477 95.528137 L 148.380295 95.622955 C 148.285477 95.717743 148.285477 95.907349 148.190689 96.002167 L 148.095886 96.28656 L 148.001083 96.570953 C 146.863464 100.078644 145.820633 103.681122 145.062225 107.2836 C 142.218155 120.555878 140.985733 139.137085 150.276321 154.969025 C 147.432266 154.589813 144.493408 154.400223 141.554535 154.400223 C 134.823593 154.400223 127.997849 155.348251 121.551308 157.339081 C 115.957985 158.666306 92.636681 166.060867 80.217613 195.544312 C 73.865883 197.250732 67.703743 199.715591 61.826015 202.938858 C 47.795315 210.807434 29.972528 226.544571 24.568811 257.260437 L 24.47401 258.113647 L 24.47401 258.777283 C 24 263.896576 22.198761 290.251556 39.357933 311.202789 C 51.018585 325.423096 68.177757 333.57608 90.266632 335.187714 L 90.645844 335.187714 L 91.025047 335.187714 L 197.961761 335.187714 L 197.961761 370.454071 L 197.961761 373.866943 L 200.142197 376.521393 L 201.659027 378.322662 C 205.735519 383.25238 223.74791 399.273895 285.369232 399.273895 C 339.406403 399.273895 363.106934 382.873169 365.571777 380.977112 L 368.226257 378.986267 L 372.018311 376.142212 L 372.018311 371.40213 L 372.018311 236.972794 C 373.061127 234.223541 374.672791 229.673035 375.241577 227.302979 C 375.526001 226.070557 376.473999 221.804459 376.284393 218.675995 C 376.284393 218.296799 376 214.694305 374.388367 211.85025 C 374.009125 211.186646 373.155945 209.764618 370.217072 207.204956 C 370.122253 207.110153 368.321045 205.593323 367.278198 204.8349 L 365.287354 203.50769 C 360.262878 197.914368 354.47995 193.079453 348.128174 189.00296 C 349.265839 188.813354 350.403442 188.623749 351.541077 188.434158 L 353.342316 188.14975 C 356.944794 187.580933 364.339355 186.443298 366.709412 179.238342 C 367.467804 177.15271 368.605438 171.559387 363.012115 166.060867 C 354.195557 156.865082 343.672516 149.091309 332.011871 143.213562 C 327.082123 140.559113 321.583618 137.999451 315.421478 135.439789 C 313.809845 134.776184 311.913818 134.207397 309.922974 133.63858 L 309.543762 133.543762 L 309.164551 133.448944 C 307.363312 133.069763 305.562073 132.31134 304.045258 131.268524 C 302.812805 129.751678 301.769989 128.140045 300.916779 126.338806 C 300.158356 124.82196 299.494751 123.684357 298.831146 122.451935 C 294.754639 115.815796 290.29895 107.757599 285.274445 97.803406 C 284.13681 95.717743 283.2836 93.821716 282.430389 92.020477 C 280.723938 88.038788 278.543518 83.962311 275.983856 80.265015 C 259.393494 57.038513 237.399414 38.078094 212.087265 25.374634 C 199.194183 19.117706 184.973877 15.610016 170.753571 15.136017 C 170.469162 14.946411 170.089951 14.661987 169.805542 14.472382 C 168.383514 13.334778 166.961487 12.291962 165.444656 11.438721 C 158.2397 7.362244 144.493408 0.91571 132.263947 0.91571 L 132.263947 0.91571 Z M 185.637482 169.947754 C 188.291946 168.525726 190.282806 166.629669 191.704819 164.544037 C 194.548874 167.956909 197.772156 171.180176 201.374619 174.024246 C 200.995422 174.024246 200.521423 174.024246 200.142197 174.024246 C 197.108536 174.024246 194.074875 174.213852 190.946411 174.593048 C 189.145172 172.886612 187.438721 171.369781 185.637482 169.947754 L 185.637482 169.947754 Z"/>
        </g>
        <g id="g2">
            <path id="path2" fill="none" stroke="none" d="M 220.24025 295.086456 L 220.24025 324.001099 C 224.885544 327.129547 241.665497 335.756531 285.084839 335.756531 C 321.96283 335.756531 341.966064 327.319153 349.265839 323.432251 L 349.265839 294.233246 C 337.32077 299.257751 316.748718 304.945862 285.084839 304.945862 C 250.197693 304.851074 230.668457 299.636963 220.24025 295.086456 Z"/>
            <path id="path3" fill="none" stroke="none" d="M 284.895233 252.330734 C 329.167786 252.330734 349.265839 240.764877 349.265839 237.257202 C 349.265839 233.749527 329.167786 222.088882 284.895233 222.088882 C 240.622681 222.088882 220.524643 233.654724 220.524643 237.257202 C 220.524643 240.764877 240.717484 252.330734 284.895233 252.330734 Z"/>
            <path id="path4" fill="none" stroke="none" d="M 284.990051 265.508209 C 267.45166 265.792633 249.913284 263.517395 232.943726 258.87207 C 228.582809 257.544861 224.316711 255.838394 220.24025 253.657959 L 220.24025 280.39212 C 224.885544 283.425781 241.665497 291.86319 285.084839 291.86319 C 324.238098 291.86319 344.525726 282.477783 349.265839 279.823334 L 349.360626 253.942368 C 345.378967 255.933197 341.30246 257.639648 337.036377 258.87207 C 320.066803 263.517395 302.528412 265.792633 284.990051 265.508209 Z"/>
            <path id="path5" fill="none" stroke="none" d="M 220.24025 338.790192 L 220.24025 364.955566 C 224.885544 368.084015 241.665497 376.710999 285.084839 376.710999 C 321.96283 376.710999 341.966064 368.273621 349.265839 364.386749 L 349.265839 337.936981 C 337.32077 343.056274 316.748718 348.839233 285.084839 348.839233 C 250.197693 348.744385 230.668457 343.530304 220.24025 338.790192 Z"/>
            <path id="path6" fill="#2c5967" stroke="none" d="M 92.921089 217.253967 L 97.945595 216.874771 L 99.367622 212.039871 C 107.141403 185.116089 126.196602 180.66037 126.955017 180.470779 L 127.618637 180.281174 C 159.756531 170.800964 177.863724 195.733902 178.622131 196.776733 L 181.466202 200.853226 L 186.301117 199.620789 C 204.787506 194.880676 216.732559 200 224.316711 206.825745 C 225.92836 206.256927 227.634796 205.593323 229.530838 205.024521 C 232.659302 204.076492 235.977386 203.223267 239.485046 202.464859 C 230.384064 191.183411 214.172897 179.333145 187.438721 184.642059 C 171.701584 166.629669 146.863464 159.519516 123.921356 166.440063 C 120.413681 167.293289 97.566391 173.550217 87.138161 203.50769 C 79.838409 204.929718 72.823059 207.489365 66.281715 211.091843 C 54.05225 217.917587 38.504715 231.663879 33.76461 258.777283 L 33.76461 259.156494 C 33.575008 260.19931 30.636143 285.70105 46.468086 305.04068 C 56.422302 317.175354 71.306221 324.095886 90.740639 325.517944 L 197.013733 325.517944 L 197.013733 311.202789 L 91.499054 311.202789 C 76.330734 310.065186 64.954491 304.945862 57.654728 296.034454 C 46.183678 282.098572 47.795315 262.758972 47.984917 260.957703 C 55.095074 220.666855 91.404259 217.34877 92.921089 217.253967 Z"/>
            <path id="path7" fill="#2c5967" stroke="none" d="M 177.389709 48.885529 C 176.441696 48.127136 175.398865 47.558319 174.166443 47.273895 C 171.89119 46.894684 169.521149 46.989502 167.340698 47.653107 L 167.340698 47.937531 L 167.719894 47.937531 C 169.426346 49.549164 170.943176 51.255585 172.270401 53.151642 C 173.976837 55.42688 175.493668 57.796936 176.915695 60.26178 C 179.854568 58.93454 181.371399 55.711273 180.518188 52.677612 C 179.759766 51.255585 178.716934 49.928375 177.389709 48.885529 Z"/>
            <path id="path8" fill="#2c5967" stroke="none" d="M 366.519806 219.244827 C 365.950989 218.581192 365.571777 217.822784 365.192596 217.064362 C 364.813354 216.116348 364.339355 215.263138 363.770538 214.504715 C 362.917328 213.746307 362.064087 213.082672 361.210876 212.419067 L 358.746033 210.428223 C 353.626709 204.645294 347.654175 199.715591 341.018036 195.733902 C 339.596008 194.880676 337.699982 193.932678 335.803925 192.98465 C 330.589813 190.424988 324.048462 187.201721 322.152435 183.694061 C 325.375702 183.220032 328.693787 182.556427 331.822266 181.703201 L 332.770264 181.513596 C 335.519531 180.944794 338.268799 180.565582 341.112854 180.375977 C 343.956909 180.186371 346.800964 179.807175 349.64502 179.238342 L 351.635895 178.859146 C 354.195557 178.479935 357.134399 178.00592 357.703217 176.299484 C 358.082428 175.351471 357.703217 174.213852 356.375977 172.886612 C 348.128174 164.259628 338.363586 157.149475 327.745758 151.745758 C 322.910858 149.186111 317.696747 146.721252 311.819031 144.256393 C 310.586578 143.782379 308.974945 143.213562 307.268494 142.739563 C 303.760834 141.98114 300.44278 140.559113 297.598724 138.378662 C 295.513062 136.008606 293.80661 133.354156 292.384583 130.604919 C 291.815796 129.467285 291.246979 128.424438 290.583374 127.381622 C 286.222473 120.271484 281.577148 111.739288 276.742249 102.164276 C 275.604645 100.173462 274.656616 98.087799 273.803406 96.002167 C 272.28656 92.399658 270.390533 88.891998 268.115265 85.573944 C 252.567734 63.674652 231.806091 45.946686 207.821167 33.812012 C 195.496902 27.839478 181.940216 24.616211 168.288712 24.616211 C 166.677078 23.857788 165.160248 22.90979 163.833023 21.772156 C 162.884995 21.013733 161.842178 20.25531 160.704559 19.591705 C 153.973602 15.89444 137.004044 7.836243 126.101807 11.343933 C 122.594124 12.481537 119.844864 14.946411 118.328033 18.264465 C 114.346352 26.607056 121.646111 34.380829 126.575813 39.59494 C 127.523834 40.637756 128.37706 41.585785 129.040665 42.344208 C 129.704285 43.197418 130.273102 43.766235 130.936707 44.524628 C 133.401566 47.08429 135.676819 50.023163 137.478058 53.056824 C 138.04686 54.289246 138.520874 55.521698 138.805283 56.848907 C 139.184494 58.176147 139.658493 59.503357 140.132507 60.735779 L 142.028549 65.381104 C 143.924591 70.500397 146.294647 75.524902 148.949112 80.265015 C 150.750336 83.488281 152.930786 86.521942 155.206039 89.365997 C 155.680054 89.934814 156.248856 90.408844 156.912476 90.882843 C 158.050095 91.546448 158.903305 92.684082 159.282532 94.011322 C 158.903305 95.338531 158.429306 96.570953 157.670883 97.803406 C 157.291687 98.46701 157.007263 99.130615 156.72287 99.79425 C 155.680054 102.922699 154.826828 106.145966 154.163208 109.46405 C 151.413956 122.167511 150.371124 140.179901 160.609741 153.926193 C 166.582275 161.984375 172.7444 164.923233 179.096161 162.647995 C 184.879074 160.65715 185.637482 155.632645 186.395905 150.32373 C 186.58551 148.238083 186.964722 146.247238 187.438721 144.161591 C 187.628342 143.592773 187.723145 143.023956 187.817947 142.360352 C 187.817947 142.075958 187.91275 141.696747 188.007538 141.412323 L 189.239975 143.592773 C 191.041214 146.62645 192.747635 149.470505 194.454071 152.504166 C 198.340958 158.571503 203.270676 163.880432 209.053604 168.1465 L 209.4328 168.430923 C 215.120926 172.981415 222.136276 178.859146 229.151627 180.944794 L 229.910034 181.039597 L 229.910034 179.143539 L 229.246429 179.143539 C 228.488007 178.385132 227.729599 177.721512 226.78157 177.247513 C 226.307571 176.963104 225.833572 176.678711 225.454346 176.394287 C 222.325882 173.739822 219.387024 170.895767 216.732559 167.767303 C 209.622406 159.614319 203.365479 150.797745 197.772156 141.412323 C 195.212494 137.335846 193.126846 132.974945 191.041214 128.708862 L 190.472397 127.571228 C 190.187988 126.907623 189.90358 126.244019 189.713974 125.580383 C 189.524368 124.158356 188.671158 122.925934 187.533524 122.072723 L 187.059525 121.883118 L 186.680313 122.262329 C 185.827087 123.399933 184.879074 124.44278 183.836258 125.390778 C 181.750595 127.381622 180.044159 129.656891 178.622131 132.121735 C 176.252075 137.525452 174.924866 143.30838 174.545654 149.186111 C 174.356049 150.702942 174.166443 152.219772 173.882034 153.736603 L 173.787231 153.736603 C 169.426346 152.693787 167.625092 148.901688 165.823868 145.29921 L 165.255051 144.161591 C 160.040939 133.733368 159.566925 117.427429 163.73822 106.051178 C 163.927826 105.482361 164.307037 104.62915 164.781036 103.681122 C 167.340698 98.087799 169.615936 92.494476 167.909515 90.029633 C 166.961487 88.228394 165.634247 86.806366 164.022629 85.668732 C 163.169403 85.005127 162.316193 84.246704 161.55777 83.488281 C 159.282532 80.644226 157.291687 77.610565 155.585236 74.29248 C 153.783997 70.500397 152.172379 66.613525 150.750336 62.537018 C 149.138702 57.891724 147.242661 53.341248 145.062225 49.075134 C 143.071381 45.75708 140.796127 42.628601 138.236465 39.784546 L 136.624832 37.888489 C 135.866425 36.940491 134.823593 35.897644 133.685974 34.76004 C 129.988693 31.062744 125.343384 26.41745 126.481018 22.151367 C 126.765419 20.918945 127.618637 19.970917 128.851074 19.591705 C 134.254791 17.411255 147.053055 23.668182 153.120392 27.365479 C 153.878799 27.839478 154.542419 28.218689 155.300842 28.692688 C 157.196884 29.92514 159.092911 30.967957 161.083755 32.010773 C 164.212234 33.243195 167.625092 33.812012 170.943176 33.622406 C 172.460007 33.622406 173.976837 33.622406 175.493668 33.906799 C 180.42337 34.475616 185.258286 35.423645 189.998383 36.845673 C 199.952591 39.974152 209.4328 44.524628 218.059784 50.307556 C 235.218964 61.58902 249.62886 76.567749 260.246704 94.10611 C 261.289551 95.812561 262.142761 97.6138 262.806366 99.509827 C 263.375183 100.931854 264.038788 102.353882 264.891998 103.870728 C 266.788055 107.662811 268.873688 111.454895 270.95932 115.246979 C 272.76059 118.565033 274.656616 121.977905 276.363068 125.201172 L 277.311066 127.002411 C 280.249939 133.354156 284.042023 139.326691 288.497711 144.730408 C 290.393768 147.005661 295.987091 148.427689 300.821991 149.66011 C 302.812805 150.134125 304.614075 150.608139 306.036102 151.082138 C 313.430664 153.6418 320.63562 156.865082 327.461334 160.562347 C 330.969025 162.458405 334.476715 164.544037 337.889587 166.724472 C 338.363586 167.008896 339.027191 167.388092 339.785645 167.862106 C 341.966064 168.81012 343.956909 170.232162 345.473724 172.033386 C 332.011871 171.843796 321.773224 173.171021 313.430664 176.109879 C 312.767029 176.299484 312.103424 176.48909 311.345001 176.583908 C 308.974945 177.057907 306.320496 177.721512 306.13089 180.186371 L 306.13089 180.565582 L 306.415314 180.755173 C 307.078918 181.418808 307.552917 182.177216 307.837341 183.030426 C 308.121735 183.788864 308.500946 184.547272 309.069763 185.305695 C 311.534607 188.813354 314.568268 191.847015 317.98114 194.311874 C 321.299225 196.49231 324.99649 198.957169 328.883392 201.042831 C 332.201447 202.749268 335.614319 204.266098 339.027191 205.49852 C 342.534851 206.825745 345.947754 208.342575 349.265839 209.954208 C 351.351471 211.091843 353.531891 212.51387 355.617554 213.841095 C 357.229218 214.883911 358.746033 215.83194 360.357666 216.779968 C 361.021271 217.253967 361.590088 217.727997 362.158875 218.201996 C 363.201721 219.244827 364.528931 220.098038 365.950989 220.572052 L 366.804199 220.856461 L 366.804199 219.33963 L 366.519806 219.244827 Z"/>
            <path id="path9" fill="#2c5967" stroke="none" d="M 336.941528 215.737137 C 319.971985 211.091843 302.433624 208.816589 284.895233 209.100983 C 267.356873 208.816589 249.818466 211.091843 232.848923 215.737137 C 211.992462 222.183685 207.536774 231.000275 207.536774 237.352005 L 207.157547 237.352005 L 207.157547 370.264465 L 208.674377 372.065735 C 210.191208 373.866943 224.980347 389.604095 285.084839 389.604095 C 336.846741 389.604095 358.746033 373.866943 359.694061 373.108521 L 362.253693 371.117676 L 362.253693 235.266357 L 362.064087 235.266357 C 361.305695 229.483444 355.996765 221.520065 336.941528 215.737137 Z M 284.895233 222.088882 C 329.167786 222.088882 349.265839 233.654724 349.265839 237.257202 C 349.265839 240.764877 329.167786 252.330734 284.895233 252.330734 C 240.622681 252.330734 220.524643 240.764877 220.524643 237.257202 C 220.524643 233.749527 240.622681 222.088882 284.895233 222.088882 Z M 349.265839 364.291962 C 341.966064 368.178833 321.96283 376.616211 285.084839 376.616211 C 241.570709 376.616211 224.790741 367.989227 220.24025 364.860748 L 220.24025 338.695404 C 230.668457 343.340698 250.292496 348.649597 285.084839 348.649597 C 316.748718 348.649597 337.32077 342.866669 349.265839 337.747375 L 349.265839 364.291962 Z M 349.265839 323.337463 C 341.966064 327.224335 321.96283 335.661743 285.084839 335.661743 C 241.570709 335.661743 224.790741 327.03476 220.24025 323.906281 L 220.24025 294.991638 C 230.668457 299.636963 250.292496 304.756256 285.084839 304.756256 C 316.748718 304.756256 337.32077 299.068146 349.265839 294.04364 L 349.265839 323.337463 Z M 349.265839 279.823334 C 344.525726 282.382996 324.238098 291.86319 285.084839 291.86319 C 241.665497 291.86319 224.790741 283.425781 220.24025 280.39212 L 220.24025 253.657959 C 224.316711 255.838394 228.488007 257.544861 232.943726 258.87207 C 249.913284 263.517395 267.45166 265.792633 284.990051 265.508209 C 302.528412 265.792633 320.066803 263.517395 337.036377 258.87207 C 341.30246 257.639648 345.473724 256.028015 349.360626 253.942368 L 349.265839 279.823334 Z"/>
        </g>
    </g>
</svg>
