<?xml version="1.0" encoding="UTF-8"?>
<!-- Generated by Pixelmator Pro 3.6.17 -->
<svg width="400" height="400" viewBox="0 0 400 400" xmlns="http://www.w3.org/2000/svg">
    <path id="Path" fill="#ffffff" stroke="none" d="M 305.78006 390.720428 C 285.870697 390.720428 221.11879 388.673645 221.11879 361.786743 L 221.11879 264.472809 L 220.002396 264.472809 C 218.265752 265.031016 216.498098 265.496185 214.699432 265.868317 L 213.583023 265.868317 C 211.559265 266.31488 209.507935 266.625671 207.442749 266.798645 C 204.97522 267.121979 202.488586 267.277405 199.999985 267.263824 L 199.999985 267.263824 C 197.230408 267.269348 194.463745 267.082855 191.71994 266.705627 L 190.603531 266.705627 C 188.128906 266.381683 185.674957 265.915741 183.253815 265.31012 L 181.765274 265.124023 C 158.990891 258.829407 141.062103 241.252151 134.317749 218.606873 L 111.059158 195.720428 L 94.219948 195.720428 C 74.403625 195.720428 9.651718 193.67366 9.651718 166.786743 L 9.651718 38.864502 C 9.651718 11.419373 74.403625 9.279572 94.219948 9.279572 C 114.036263 9.279572 178.88121 11.419373 178.88121 38.864502 L 178.88121 134.875946 L 180.555832 134.410767 C 182.604492 133.774902 184.68512 133.246979 186.789124 132.829193 L 187.998566 132.829193 L 193.208481 132.08493 L 196.743805 132.08493 L 198.604477 136.643616 L 198.604477 131.991882 L 200.372131 131.991882 C 203.442276 131.991882 205.954208 131.991882 208.466141 132.55011 L 210.419846 132.55011 C 212.457321 132.835815 214.476456 133.239624 216.467072 133.759552 L 219.072037 134.410767 C 221.026581 134.963989 222.951767 135.616058 224.840164 136.364502 L 226.514786 136.922699 C 228.933685 137.946075 231.166504 139.0625 233.399323 140.271942 L 234.794861 141.109253 L 239.911743 144.365463 L 242.330627 146.226151 L 245.865936 149.203247 C 246.982346 150.226624 247.726624 150.784836 248.284821 151.436066 C 248.843033 152.087311 250.517654 153.761932 251.634064 154.971375 C 252.750473 156.180832 254.239029 158.134537 255.448471 159.809158 L 257.402191 162.414108 L 258.425568 163.902679 L 258.425568 164.553925 L 258.425568 165.019089 C 261.307983 169.648285 263.678772 174.577026 265.496185 179.718506 L 289.312958 203.628326 L 306.059174 203.628326 C 325.875488 203.628326 390.62738 205.768143 390.62738 233.213257 L 390.62738 361.786743 C 390.348267 388.673645 325.596375 390.720428 305.78006 390.720428 Z"/>
    <path id="path1" fill="#ffffff" stroke="none" d="M 94.219948 13.931305 C 102.406967 13.931305 174.229492 14.675568 174.229492 38.864502 L 174.229492 141.202301 C 176.697739 140.079285 179.248077 139.14621 181.858307 138.411255 L 181.858307 138.411255 C 183.661606 137.847961 185.493942 137.382111 187.347336 137.015747 L 188.556778 137.015747 C 190.155762 136.707397 191.77095 136.48996 193.394562 136.364502 C 194.697037 136.364502 196.09256 136.364502 197.395035 136.364502 L 200.372131 136.364502 C 202.791031 136.364502 205.20993 136.364502 207.535782 136.829681 L 209.954681 136.829681 L 215.071564 137.853058 L 217.39743 138.504303 C 219.226776 138.995331 221.028107 139.585419 222.793411 140.271942 L 224.375 140.83017 C 226.585754 141.733978 228.730728 142.790955 230.794373 143.993317 L 232.655045 145.109741 L 236.841599 147.807739 L 239.167465 149.575378 C 240.28389 150.412689 241.307251 151.343033 242.330627 152.273376 L 244.656494 154.320129 C 245.772909 155.436544 246.796285 156.552958 247.726624 157.669373 C 249.014603 159.124725 250.225693 160.646362 251.35495 162.228058 L 253.12262 164.646957 L 254.145996 166.042465 L 254.145996 166.042465 C 257.151733 170.942505 259.468353 176.233139 261.030548 181.765274 L 287.173187 207.907928 L 305.78006 207.907928 C 313.967072 207.907928 385.696533 208.652191 385.696533 232.841125 L 385.696533 317.96756 L 385.696533 317.96756 L 385.696533 361.507629 C 385.696533 385.138367 313.967072 385.789612 305.78006 385.789612 C 297.593048 385.789612 225.770508 385.138367 225.770508 361.507629 L 225.770508 318.246643 L 225.770508 318.246643 L 225.770508 257.681305 L 224.375 258.33255 C 222.979492 258.983765 221.490936 259.448944 220.002396 260.007141 L 218.979004 260.472351 L 214.048187 261.681763 L 213.024811 261.681763 L 207.256683 262.612122 L 206.791519 262.612122 C 204.653976 262.751038 202.509674 262.751038 200.372131 262.612122 L 200.372131 262.612122 C 197.788132 262.611511 195.20752 262.424927 192.650284 262.053894 L 191.254776 262.053894 C 189.057709 261.763336 186.882187 261.328247 184.742371 260.751434 L 183.718979 260.751434 C 162.142136 254.913361 145.219681 238.167557 139.155533 216.653152 L 112.919853 190.696564 L 94.312981 190.696564 C 86.032921 190.696564 14.303435 190.696564 14.303435 166.786743 L 14.303435 38.864502 C 14.303435 14.675568 86.032921 13.931305 94.219948 13.931305 M 94.219948 4.627869 C 16.629293 4.627869 5 26.025757 5 38.864502 L 5 166.786743 C 5 179.346375 16.629293 200 94.219948 200 L 109.105438 200 L 130.503342 221.397888 C 138.056046 244.936783 156.990341 263.066101 180.834915 269.589691 L 181.672226 269.589691 C 184.212967 270.267792 186.791351 270.795898 189.394089 271.171265 L 191.068695 271.171265 C 194.001755 271.525452 196.952667 271.711853 199.906967 271.729492 L 199.906967 271.729492 C 202.232834 271.729492 204.558685 271.729492 206.97757 271.729492 L 207.81488 271.729492 C 209.768616 271.729492 212.001434 271.171265 214.14122 270.706116 L 215.257645 270.706116 L 216.09494 270.706116 L 216.09494 361.879791 C 216.09494 374.439423 227.724243 395.465149 305.407928 395.465149 C 338.714203 395.465149 394.627869 391.09256 394.627869 361.879791 L 394.627869 233.30629 L 394.627869 233.30629 L 394.627869 233.30629 C 394.627869 220.560577 383.091583 199.069656 305.407928 199.069656 L 290.987579 199.069656 L 269.310577 177.299606 C 267.639526 172.312103 265.457123 167.510803 262.798187 162.972336 L 262.798187 162.972336 L 261.867859 161.297714 C 261.867859 160.739517 261.216614 160.274323 260.9375 159.809158 L 259.169861 157.390274 L 259.169861 157.390274 C 257.877563 155.573151 256.479645 153.833511 254.983307 152.180344 C 253.866882 150.877869 252.750473 149.575378 251.541031 148.365936 L 249.308212 146.412216 L 249.308212 145.947037 L 245.586838 142.876892 L 242.981873 140.83017 L 237.585876 137.108765 L 237.027679 137.108765 L 235.446091 136.178436 C 233.07048 134.85141 230.615997 133.670776 228.096375 132.643127 L 226.700851 132.08493 C 224.281967 131.24762 222.235214 130.503326 220.188446 129.945129 L 217.39743 129.200867 C 215.494995 128.730652 213.569778 128.358032 211.629288 128.084442 L 211.071091 128.084442 L 208.838257 128.084442 L 200.372131 126.688934 L 196.650772 126.688934 L 192.743317 126.688934 L 187.161255 127.526245 L 185.85878 127.526245 L 183.532928 128.084442 L 183.532928 39.143616 L 183.532928 39.143616 L 183.532928 39.143616 C 183.532928 26.025757 171.903625 4.627869 94.219948 4.627869 Z"/>
    <path id="path2" fill="#2c5967" stroke="none" d="M 385.696533 233.120224 C 385.696533 208.93129 313.967072 208.187012 305.78006 208.187012 L 298.709442 208.187012 L 292.941315 213.955154 L 284.289124 222.607346 C 290.801514 222.142166 297.965179 221.770035 305.78006 221.770035 C 342.993805 221.770035 366.345428 228.561539 371.369293 232.934174 C 366.345428 237.399811 342.621674 244.191315 305.78006 244.191315 C 291.274628 244.318527 276.789703 243.072525 262.519073 240.46994 C 259.677582 244.790787 256.404572 248.811905 252.750473 252.471375 C 270.189758 256.118958 287.963501 257.927521 305.78006 257.867371 C 311.641205 257.867371 350.715637 257.867371 371.92746 248.563919 L 371.92746 275.916016 C 368.392181 279.916504 345.691772 287.173187 305.78006 287.173187 C 265.868317 287.173187 243.074905 279.916504 239.539597 275.916016 L 239.539597 263.077301 C 235.201935 265.819824 230.586624 268.096313 225.770508 269.868805 L 225.770508 318.246643 L 225.770508 318.246643 L 225.770508 361.786743 C 225.770508 385.41745 297.593048 386.068695 305.78006 386.068695 C 313.967072 386.068695 385.696533 385.41745 385.696533 361.786743 L 385.696533 318.246643 L 385.696533 318.246643 L 385.696533 233.120224 Z M 305.78006 372.671753 C 265.775299 372.671753 243.074905 365.41507 239.539597 361.414581 L 239.539597 333.504272 C 260.844482 342.807709 299.825867 342.807709 305.78006 342.807709 C 311.734253 342.807709 350.715637 342.807709 371.92746 333.504272 L 371.92746 361.414581 C 368.392181 365.042969 345.691772 372.299622 305.78006 372.299622 Z M 305.78006 301.128357 C 311.641205 301.128357 350.715637 301.128357 371.92746 291.824921 L 371.92746 317.781494 C 368.392181 321.781982 345.691772 329.038635 305.78006 329.038635 C 265.868317 329.038635 243.074905 321.781982 239.539597 317.781494 L 239.539597 291.359741 C 260.844482 300.384064 299.825867 300.756195 305.78006 300.756195 Z"/>
    <path id="path3" fill="#2c5967" stroke="none" d="M 115.617844 176.555344 C 109.198471 177.020523 102.034828 177.299606 94.219948 177.299606 C 54.308208 177.299606 31.607824 170.042938 28.072519 166.042465 L 28.072519 138.969452 C 49.284355 148.272903 88.35878 148.272903 94.219948 148.272903 C 113.887772 148.388412 133.499908 146.171112 152.645508 141.66745 C 159.081619 136.341827 166.381638 132.156891 174.229492 129.293884 L 174.229492 38.864502 C 174.229492 14.675568 102.406967 13.931305 94.219948 13.931305 C 86.032921 13.931305 14.303435 14.675568 14.303435 38.864502 L 14.303435 166.786743 C 14.303435 190.696564 86.032921 190.696564 94.219948 190.696564 L 101.197517 190.696564 L 107.058685 184.928421 Z M 94.219948 134.875946 C 54.308208 134.875946 31.607824 127.526245 28.072519 123.525757 L 28.072519 97.104004 C 49.284355 106.40744 88.35878 106.40744 94.219948 106.40744 C 100.081108 106.40744 139.155533 106.40744 160.460388 97.104004 L 160.460388 123.339691 C 156.925095 127.340179 134.224716 134.875946 94.219948 134.875946 Z M 94.219948 63.890747 C 100.174133 63.890747 139.155533 63.890747 160.460388 54.587311 L 160.460388 81.474243 C 156.925095 85.474701 134.224716 92.824432 94.219948 92.824432 C 54.215172 92.824432 31.607824 85.474701 28.072519 81.474243 L 28.072519 54.122131 C 49.284355 63.425568 88.730919 63.704681 94.219948 63.704681 Z M 159.902191 39.050568 C 154.785309 43.423187 131.061539 50.214691 94.219948 50.214691 C 57.378342 50.214691 33.747612 43.423187 29.095896 39.050568 C 34.212788 34.58493 57.936546 27.886444 94.68512 27.886444 C 131.433685 27.886444 154.785309 34.398865 159.902191 38.864502 Z"/>
    <path id="path4" fill="#2c5967" stroke="none" d="M 143.249039 221.397888 L 148.738068 215.908859 L 158.599716 206.047226 L 158.599716 206.047226 L 172.461838 192.464218 L 163.158401 182.695602 L 151.063934 194.790085 C 153.228851 172.941223 169.429428 155.079056 190.963837 150.797852 C 212.49823 146.516663 234.299072 156.823868 244.656494 176.183212 L 250.145523 170.694183 L 254.704193 166.135498 C 240.121262 142.713379 212.106018 131.357056 185.330215 138.013885 C 158.554398 144.670746 139.118744 167.824051 137.201813 195.348282 L 124.083969 182.695602 L 114.315361 192.464218 Z"/>
    <path id="path5" fill="#2c5967" stroke="none" d="M 256.750946 177.857834 L 228.28244 206.791504 L 237.585876 216.56012 L 249.680344 204.465637 C 247.515427 226.314514 231.31485 244.176682 209.780441 248.457886 C 188.246033 252.739075 166.44519 242.431854 156.087784 223.07251 L 146.04007 233.120224 C 160.581436 256.58197 188.606415 267.972473 215.392395 261.307831 C 242.178345 254.643188 261.597992 231.447906 263.449432 203.90744 L 275.916046 216.467087 L 285.684631 206.698471 Z"/>
    <path id="path6" fill="#2c5967" stroke="none" d="M 174.043411 229.398849 L 188.277679 229.398849 L 191.440842 215.443695 L 207.907913 215.443695 L 211.164124 229.398849 L 225.770508 229.398849 L 207.163635 163.158401 L 193.208481 163.158401 Z M 199.720901 179.346375 L 205.395996 204.186554 L 193.952759 204.186554 Z"/>
</svg>
