<?xml version="1.0" encoding="UTF-8"?>

<svg width="400" height="400" viewBox="0 0 400 400" xmlns="http://www.w3.org/2000/svg">
    <g id="Group">
        <g id="g1">
            <path id="Path" fill="#ffffff" stroke="none" d="M 4.761905 395.238098 L 4.761905 64.761902 L 57.714287 64.761902 L 57.714287 4.761902 L 173.047623 4.761902 L 173.047623 43.523804 L 204.761902 43.523804 L 204.761902 67.238098 L 173.047623 67.238098 L 173.047623 107.047607 L 204.761902 107.047607 L 204.761902 130.666656 L 173.047623 130.666656 L 173.047623 169.523804 L 57.714287 169.523804 L 57.714287 113.047607 L 53.047619 113.047607 L 53.047619 346.952393 L 346.952393 346.952393 L 346.952393 113.047607 L 342.285706 113.047607 L 342.285706 169.523804 L 218.190475 169.523804 L 218.190475 121.142853 L 249.904755 121.142853 L 249.904755 116.571411 L 218.190475 116.571411 L 218.190475 57.714294 L 249.904755 57.714294 L 249.904755 53.047607 L 218.190475 53.047607 L 218.190475 4.761902 L 342.285706 4.761902 L 342.285706 64.761902 L 395.238098 64.761902 L 395.238098 395.238098 Z"/>
            <path id="path1" fill="#ffffff" stroke="none" d="M 337.523804 9.523804 L 337.523804 69.523804 L 390.476196 69.523804 L 390.476196 390.476196 L 9.523809 390.476196 L 9.523809 69.523804 L 62.476189 69.523804 L 62.476189 9.523804 L 168.285721 9.523804 L 168.285721 48.285706 L 200 48.285706 L 200 62.380951 L 168.285721 62.380951 L 168.285721 111.809509 L 200 111.809509 L 200 125.904755 L 168.285721 125.904755 L 168.285721 164.666672 L 62.476189 164.666672 L 62.476189 108.19046 L 48.285717 108.19046 L 48.285717 351.619019 L 351.619019 351.619019 L 351.619019 108.285706 L 337.523804 108.285706 L 337.523804 164.761902 L 222.952377 164.761902 L 222.952377 126 L 254.666672 126 L 254.666672 111.904755 L 222.952377 111.904755 L 222.952377 62.476196 L 254.666672 62.476196 L 254.666672 48.285706 L 222.952377 48.285706 L 222.952377 9.523804 L 337.523804 9.523804 M 347.047607 0 L 337.523804 0 L 222.952377 0 L 213.428574 0 L 213.428574 9.523804 L 213.428574 48.285706 L 213.428574 57.80954 L 213.428574 62.380951 L 213.428574 111.809509 L 213.428574 121.333344 L 213.428574 125.904755 L 213.428574 164.666672 L 213.428574 174.190491 L 222.952377 174.190491 L 337.619049 174.190491 L 342.190491 174.190491 L 342.190491 342.095215 L 57.809525 342.095215 L 57.809525 174.285706 L 62.380955 174.285706 L 168.190475 174.285706 L 177.714279 174.285706 L 177.714279 164.761902 L 177.714279 135.523804 L 200 135.523804 L 209.523804 135.523804 L 209.523804 126 L 209.523804 111.904755 L 209.523804 102.380951 L 200 102.380951 L 177.809525 102.380951 L 177.809525 72 L 200 72 L 209.523804 72 L 209.523804 62.476196 L 209.523804 48.285706 L 209.523804 38.761902 L 200 38.761902 L 177.809525 38.761902 L 177.809525 9.523804 L 177.809525 0 L 168.285721 0 L 62.476189 0 L 52.952381 0 L 52.952381 9.523804 L 52.952381 60 L 9.523809 60 L 0 60 L 0 69.523804 L 0 390.476196 L 0 400 L 9.523809 400 L 390.476196 400 L 400 400 L 400 390.476196 L 400 69.523804 L 400 60 L 390.476196 60 L 347.047607 60 L 347.047607 9.523804 L 347.047607 0 L 347.047607 0 Z"/>
        </g>
        <g id="g2">
            <path id="path2" fill="#2c5967" stroke="none" d="M 337.523804 69.523804 L 337.523804 9.523804 L 222.952377 9.523804 L 222.952377 48.285706 L 254.666672 48.285706 L 254.666672 62.380951 L 222.952377 62.380951 L 222.952377 111.809509 L 254.666672 111.809509 L 254.666672 125.904755 L 222.952377 125.904755 L 222.952377 164.666672 L 337.619049 164.666672 L 337.619049 108.19046 L 351.714294 108.19046 L 351.714294 351.619019 L 48.285717 351.619019 L 48.285717 108.285706 L 62.380955 108.285706 L 62.380955 164.761902 L 168.190475 164.761902 L 168.190475 126 L 200 126 L 200 111.904755 L 168.285721 111.904755 L 168.285721 62.476196 L 200 62.476196 L 200 48.285706 L 168.285721 48.285706 L 168.285721 9.523804 L 62.476189 9.523804 L 62.476189 69.523804 L 9.523809 69.523804 L 9.523809 390.476196 L 390.476196 390.476196 L 390.476196 69.523804 L 337.523804 69.523804 Z M 323.428558 150.571426 L 237.047607 150.571426 L 237.047607 140 L 268.761902 140 L 268.761902 97.714294 L 237.047607 97.714294 L 237.047607 76.571442 L 268.761902 76.571442 L 268.761902 34.19046 L 237.047607 34.19046 L 237.047607 23.619049 L 323.428558 23.619049 L 323.428558 150.571426 Z M 154.190475 150.571426 L 76.571426 150.571426 L 76.571426 23.619049 L 154.190475 23.619049 L 154.190475 150.571426 Z M 161.238098 118.857147 L 161.238098 118.857147 L 161.238098 118.857147 Z M 161.238098 55.333344 L 161.238098 55.333344 L 161.238098 55.333344 Z M 376.380951 376.380951 L 23.619047 376.380951 L 23.619047 83.619049 L 62.380955 83.619049 L 62.380955 94.190491 L 34.190475 94.190491 L 34.190475 365.809509 L 365.714294 365.809509 L 365.714294 94.190491 L 337.523804 94.190491 L 337.523804 83.619049 L 376.285706 83.619049 L 376.285706 376.380951 Z"/>
        </g>
    </g>
</svg>
