<?xml version="1.0" encoding="UTF-8"?>
<!-- Generated by Pixelmator Pro 3.6.17 -->
<svg width="400" height="400" viewBox="0 0 400 400" xmlns="http://www.w3.org/2000/svg">
    <g id="Group">
        <g id="g1">
            <g id="g2">
                <g id="g3">
                    <path id="Path" fill="#ffffff" stroke="none" d="M 9.656453 303.435486 L 9.656453 91.086365 L 103.156914 10.120697 L 103.156914 385.51532 Z"/>
                    <path id="path1" fill="#ffffff" stroke="none" d="M 98.514389 20.334259 L 98.514389 375.301758 L 14.298979 301.392761 L 14.298979 93.129059 L 98.514389 20.334259 M 107.799438 0 L 92.479111 13.277618 L 8.263696 86.165283 L 5.013927 88.950775 L 5.013927 93.221924 L 5.013927 301.392761 L 5.013927 305.571045 L 8.170845 308.356537 L 92.386253 382.265533 L 107.799438 395.821747 L 107.799438 375.301758 L 107.799438 20.334259 L 107.799438 0 L 107.799438 0 Z"/>
                </g>
                <g id="g4">
                    <path id="path2" fill="#ffffff" stroke="none" d="M 296.843079 10.120697 L 390.343536 91.086365 L 390.343536 303.435486 L 296.843079 385.51532 Z"/>
                    <path id="path3" fill="#ffffff" stroke="none" d="M 301.485626 20.334259 L 385.701019 93.129059 L 385.701019 301.299927 L 301.485626 375.208923 L 301.485626 20.334259 M 292.200562 0 L 292.200562 20.334259 L 292.200562 375.301758 L 292.200562 395.821747 L 307.613739 382.265533 L 391.829163 308.356537 L 394.986084 305.571045 L 394.986084 301.392761 L 394.986084 93.221924 L 394.986084 88.950775 L 391.736328 86.165283 L 307.520905 13.277618 L 292.200562 0 L 292.200562 0 Z"/>
                </g>
                <g id="g5">
                    <path id="path4" fill="#ffffff" stroke="none" d="M 203.342621 395.357483 L 200 362.395538 L 196.657379 395.357483 L 102.228416 395.357483 L 164.438248 14.67038 L 237.325912 14.67038 L 297.771606 395.357483 Z"/>
                    <path id="path5" fill="#ffffff" stroke="none" d="M 233.426193 19.312897 L 292.386261 390.714966 L 207.613739 390.714966 L 200 316.24884 L 192.479111 390.714966 L 107.706596 390.714966 L 168.430832 19.312897 L 233.426193 19.312897 M 241.318481 10.027863 L 233.426193 10.027863 L 168.430832 10.027863 L 160.538528 10.027863 L 159.238632 17.827301 L 98.514389 389.229309 L 96.750237 400.000031 L 107.706596 400.000031 L 192.479111 400.000031 L 200.835663 400.000031 L 207.520889 400.000031 L 292.293427 400.000031 L 303.156921 400.000031 L 301.485626 389.229309 L 242.525528 17.827301 L 241.318481 10.027863 L 241.318481 10.027863 Z"/>
                </g>
            </g>
            <g id="g6">
                <path id="path6" fill="#ffffff" stroke="none" d="M 84.772514 50.417816 L 28.040854 99.442902 L 28.040854 295.078918 L 84.772514 344.846802 Z"/>
                <path id="path7" fill="#2c5967" stroke="none" d="M 14.298979 301.392761 L 98.514389 375.301758 L 98.514389 20.334259 L 14.298979 93.129059 L 14.298979 301.392761 Z M 28.040854 99.442902 L 84.772514 50.324982 L 84.772514 344.846802 L 28.040854 295.078918 L 28.040854 99.442902 Z"/>
                <path id="path8" fill="#ffffff" stroke="none" d="M 315.227478 344.846802 L 371.959137 295.078918 L 371.959137 99.442902 L 315.227478 50.417816 Z"/>
                <path id="path9" fill="#2c5967" stroke="none" d="M 301.485626 20.334259 L 301.485626 375.301758 L 385.701019 301.392761 L 385.701019 93.221924 L 301.485626 20.334259 Z M 371.959137 295.078918 L 315.227478 344.846802 L 315.227478 50.324982 L 371.959137 99.442902 L 371.959137 295.078918 Z"/>
                <path id="path10" fill="#ffffff" stroke="none" d="M 180.03714 33.054779 L 123.862579 376.973053 L 180.03714 376.973053 L 200 179.758591 L 219.96286 376.973053 L 276.230255 376.973053 L 221.634171 33.054779 Z"/>
                <path id="path11" fill="#2c5967" stroke="none" d="M 168.337982 19.312897 L 107.613747 390.714966 L 192.386261 390.714966 L 200 316.24884 L 207.520889 390.714966 L 292.293427 390.714966 L 233.333328 19.312897 L 168.337982 19.312897 Z M 219.96286 376.973053 L 200 179.758591 L 180.03714 376.973053 L 123.862579 376.973053 L 180.03714 33.054779 L 221.634171 33.054779 L 276.230255 376.973053 L 219.96286 376.973053 Z"/>
            </g>
        </g>
    </g>
</svg>
