<svg xmlns="http://www.w3.org/2000/svg" xmlns:v="https://svgstorm.com"
viewBox = "0 0 256 256"
width="256"
height="256">
<g fill="None" fill-opacity="0.0" stroke="#000000" stroke-opacity="0.00" stroke-width="0.3"><path d="
M 0.00 256.00 
L 256.00 256.00
L 256.00 0.00
L 0.00 0.00
L 0.00 256.00
M 226.00 32.00 
C 226.00 96.00 226.00 160.00 226.00 224.00
C 162.57 226.33 97.18 224.33 33.00 225.00
C 33.00 160.33 33.00 95.67 33.00 31.00
C 97.17 31.67 162.65 29.67 226.00 32.00 Z"/>
</g>
<g fill="None" fill-opacity="0.0" stroke="#45412A" stroke-opacity="1.00" stroke-width="0.3"><path d="
M 226.00 224.00 
C 162.00 224.00 98.00 224.00 34.00 224.00
C 34.00 160.00 34.00 96.00 34.00 32.00
C 98.00 32.00 162.00 32.00 226.00 32.00
C 162.65 29.67 97.17 31.67 33.00 31.00
C 33.00 95.67 33.00 160.33 33.00 225.00
C 97.18 224.33 162.57 226.33 226.00 224.00 Z"/>
</g>
<g fill="None" fill-opacity="0.0" stroke="#BC271B" stroke-opacity="1.00" stroke-width="0.3"><path d="
M 226.00 224.00 
C 226.00 160.00 226.00 96.00 226.00 32.00
C 162.00 32.00 98.00 32.00 34.00 32.00
C 34.00 96.00 34.00 160.00 34.00 224.00
C 98.00 224.00 162.00 224.00 226.00 224.00
M 88.00 62.00 
C 102.99 63.95 110.85 82.45 103.00 95.00
C 107.32 98.52 111.56 102.70 115.00 107.00
C 118.38 105.97 121.22 103.24 125.00 103.00
C 124.46 98.30 126.52 92.70 123.00 89.00
C 112.87 83.90 115.71 66.12 127.00 65.00
C 128.33 63.53 132.74 63.29 134.00 65.00
C 142.95 67.15 145.59 78.82 141.00 86.00
C 135.07 90.10 133.99 95.75 135.00 103.00
C 138.75 103.22 141.60 106.00 145.00 107.00
C 148.52 102.68 152.70 98.44 157.00 95.00
C 149.33 82.43 156.90 63.95 172.00 62.00
C 173.33 60.53 177.74 60.29 179.00 62.00
C 187.41 62.98 195.04 70.57 196.00 79.00
C 197.47 80.33 197.71 84.74 196.00 86.00
C 194.02 101.10 175.61 108.67 163.00 101.00
C 159.48 105.32 155.30 109.56 151.00 113.00
C 152.40 116.27 154.17 119.40 155.00 123.00
C 159.70 122.46 165.30 124.52 169.00 121.00
C 198.24 93.30 198.17 162.71 169.00 135.00
C 165.32 131.42 159.67 133.59 155.00 133.00
C 154.78 136.75 152.00 139.60 151.00 143.00
C 155.32 146.52 159.56 150.70 163.00 155.00
C 172.44 150.11 185.94 150.91 192.00 161.00
C 198.77 165.91 198.90 178.57 193.00 184.00
C 191.05 189.61 184.59 193.22 179.00 194.00
C 177.67 195.47 173.26 195.71 172.00 194.00
C 157.01 192.05 149.15 173.55 157.00 161.00
C 152.68 157.48 148.44 153.30 145.00 149.00
C 136.33 154.58 123.68 154.58 115.00 149.00
C 103.57 158.13 106.14 188.90 83.75 174.25 C 69.09 151.92 99.88 154.38 109.00 143.00
C 103.42 134.33 103.42 121.68 109.00 113.00
C 104.68 109.48 100.44 105.30 97.00 101.00
C 87.01 106.35 73.22 104.52 67.00 94.00
C 62.94 90.90 61.72 83.25 64.00 79.00
C 65.18 71.01 72.46 62.05 81.00 62.00
C 82.33 60.53 86.74 60.29 88.00 62.00 Z"/>
</g>
<g fill="None" fill-opacity="0.0" stroke="#D98C88" stroke-opacity="1.00" stroke-width="0.3"><path d="
M 81.00 62.00 
C 83.33 62.00 85.67 62.00 88.00 62.00
C 86.74 60.29 82.33 60.53 81.00 62.00 Z"/>
</g>
<g fill="None" fill-opacity="0.0" stroke="#D98C88" stroke-opacity="1.00" stroke-width="0.3"><path d="
M 172.00 62.00 
C 174.33 62.00 176.67 62.00 179.00 62.00
C 177.74 60.29 173.33 60.53 172.00 62.00 Z"/>
</g>
<g fill="None" fill-opacity="0.0" stroke="#F5EEEE" stroke-opacity="1.00" stroke-width="0.3"><path d="
M 64.00 79.00 
C 63.59 84.38 64.18 89.52 67.00 94.00
C 73.22 104.52 87.01 106.35 97.00 101.00
C 100.44 105.30 104.68 109.48 109.00 113.00
C 103.42 121.68 103.42 134.33 109.00 143.00
C 99.88 154.38 69.09 151.92 83.75 174.25 C 106.14 188.90 103.57 158.13 115.00 149.00
C 123.68 154.58 136.33 154.58 145.00 149.00
C 148.44 153.30 152.68 157.48 157.00 161.00
C 149.15 173.55 157.01 192.05 172.00 194.00
C 174.33 194.00 176.67 194.00 179.00 194.00
C 184.59 193.22 191.05 189.61 193.00 184.00
C 197.29 177.14 197.29 167.32 192.00 161.00
C 185.94 150.91 172.44 150.11 163.00 155.00
C 159.56 150.70 155.32 146.52 151.00 143.00
C 152.00 139.60 154.78 136.75 155.00 133.00
C 158.42 131.97 167.94 129.71 169.00 135.00
C 198.17 162.71 198.24 93.30 169.00 121.00
C 167.96 126.22 158.32 124.10 155.00 123.00
C 154.17 119.40 152.40 116.27 151.00 113.00
C 155.30 109.56 159.48 105.32 163.00 101.00
C 175.61 108.67 194.02 101.10 196.00 86.00
C 196.00 83.67 196.00 81.33 196.00 79.00
C 195.04 70.57 187.41 62.98 179.00 62.00
C 176.67 62.00 174.33 62.00 172.00 62.00
C 156.90 63.95 149.33 82.43 157.00 95.00
C 152.70 98.44 148.52 102.68 145.00 107.00
C 141.60 106.00 138.75 103.22 135.00 103.00
C 132.00 96.83 134.02 88.61 141.00 86.00
C 145.59 78.82 142.95 67.15 134.00 65.00
C 131.67 65.00 129.33 65.00 127.00 65.00
C 115.71 66.12 112.87 83.90 123.00 89.00
C 127.79 91.35 126.38 99.39 125.00 103.00
C 121.22 103.24 118.38 105.97 115.00 107.00
C 111.56 102.70 107.32 98.52 103.00 95.00
C 110.85 82.45 102.99 63.95 88.00 62.00
C 85.67 62.00 83.33 62.00 81.00 62.00
C 72.46 62.05 65.18 71.01 64.00 79.00
M 88.00 71.00 
C 121.90 97.83 47.74 99.17 81.00 71.00
C 82.33 69.53 86.74 69.29 88.00 71.00
M 178.00 70.00 
C 192.77 74.02 189.13 97.68 173.00 95.00 C 157.24 92.07 162.18 66.92 178.00 70.00
M 132.00 74.00 
C 139.88 88.42 115.74 76.42 132.00 74.00
M 135.00 112.00 
C 154.24 117.53 146.01 150.55 125.33 143.67 C 105.27 138.71 114.23 105.43 135.00 112.00
M 182.00 124.00 
C 189.88 138.42 165.74 126.42 182.00 124.00
M 95.00 160.00 
C 105.70 175.16 77.31 164.26 95.00 160.00
M 179.00 161.00 
C 193.64 165.66 187.94 189.64 172.33 185.67 C 156.68 181.67 163.09 156.87 179.00 161.00 Z"/>
</g>
<g fill="None" fill-opacity="0.0" stroke="#D27772" stroke-opacity="1.00" stroke-width="0.3"><path d="
M 127.00 65.00 
C 129.33 65.00 131.67 65.00 134.00 65.00
C 132.74 63.29 128.33 63.53 127.00 65.00 Z"/>
</g>
<g fill="None" fill-opacity="0.0" stroke="#D5827E" stroke-opacity="1.00" stroke-width="0.3"><path d="
M 81.00 71.00 
C 83.33 71.00 85.67 71.00 88.00 71.00
C 86.74 69.29 82.33 69.53 81.00 71.00 Z"/>
</g>
<g fill="None" fill-opacity="0.0" stroke="#BD3025" stroke-opacity="1.00" stroke-width="0.3"><path d="
M 178.00 70.00 
C 162.18 66.92 157.24 92.07 173.00 95.00 C 189.13 97.68 192.77 74.02 178.00 70.00 Z"/>
</g>
<g fill="None" fill-opacity="0.0" stroke="#BC2F22" stroke-opacity="1.00" stroke-width="0.3"><path d="
M 88.00 71.00 
C 85.67 71.00 83.33 71.00 81.00 71.00
C 47.74 99.17 121.90 97.83 88.00 71.00 Z"/>
</g>
<g fill="None" fill-opacity="0.0" stroke="#BB2C21" stroke-opacity="1.00" stroke-width="0.3"><path d="
M 132.00 74.00 
C 115.74 76.42 139.88 88.42 132.00 74.00 Z"/>
</g>
<g fill="None" fill-opacity="0.0" stroke="#D5847F" stroke-opacity="1.00" stroke-width="0.3"><path d="
M 67.00 94.00 
C 64.18 89.52 63.59 84.38 64.00 79.00
C 61.72 83.25 62.94 90.90 67.00 94.00 Z"/>
</g>
<g fill="None" fill-opacity="0.0" stroke="#D88B87" stroke-opacity="1.00" stroke-width="0.3"><path d="
M 196.00 86.00 
C 197.71 84.74 197.47 80.33 196.00 79.00
C 196.00 81.33 196.00 83.67 196.00 86.00 Z"/>
</g>
<g fill="None" fill-opacity="0.0" stroke="#D37C77" stroke-opacity="1.00" stroke-width="0.3"><path d="
M 135.00 103.00 
C 133.99 95.75 135.07 90.10 141.00 86.00
C 134.02 88.61 132.00 96.83 135.00 103.00 Z"/>
</g>
<g fill="None" fill-opacity="0.0" stroke="#D47E7A" stroke-opacity="1.00" stroke-width="0.3"><path d="
M 125.00 103.00 
C 126.38 99.39 127.79 91.35 123.00 89.00
C 126.52 92.70 124.46 98.30 125.00 103.00 Z"/>
</g>
<g fill="None" fill-opacity="0.0" stroke="#BC2B1F" stroke-opacity="1.00" stroke-width="0.3"><path d="
M 135.00 112.00 
C 114.23 105.43 105.27 138.71 125.33 143.67 C 146.01 150.55 154.24 117.53 135.00 112.00 Z"/>
</g>
<g fill="None" fill-opacity="0.0" stroke="#D68681" stroke-opacity="1.00" stroke-width="0.3"><path d="
M 155.00 123.00 
C 158.32 124.10 167.96 126.22 169.00 121.00
C 165.30 124.52 159.70 122.46 155.00 123.00 Z"/>
</g>
<g fill="None" fill-opacity="0.0" stroke="#BB2C21" stroke-opacity="1.00" stroke-width="0.3"><path d="
M 182.00 124.00 
C 165.74 126.42 189.88 138.42 182.00 124.00 Z"/>
</g>
<g fill="None" fill-opacity="0.0" stroke="#D68681" stroke-opacity="1.00" stroke-width="0.3"><path d="
M 155.00 133.00 
C 159.67 133.59 165.32 131.42 169.00 135.00
C 167.94 129.71 158.42 131.97 155.00 133.00 Z"/>
</g>
<g fill="None" fill-opacity="0.0" stroke="#C14237" stroke-opacity="1.00" stroke-width="0.3"><path d="
M 95.00 160.00 
C 77.31 164.26 105.70 175.16 95.00 160.00 Z"/>
</g>
<g fill="None" fill-opacity="0.0" stroke="#BE3126" stroke-opacity="1.00" stroke-width="0.3"><path d="
M 179.00 161.00 
C 163.09 156.87 156.68 181.67 172.33 185.67 C 187.94 189.64 193.64 165.66 179.00 161.00 Z"/>
</g>
<g fill="None" fill-opacity="0.0" stroke="#D98C88" stroke-opacity="1.00" stroke-width="0.3"><path d="
M 193.00 184.00 
C 198.90 178.57 198.77 165.91 192.00 161.00
C 197.29 167.32 197.29 177.14 193.00 184.00 Z"/>
</g>
<g fill="None" fill-opacity="0.0" stroke="#D98C88" stroke-opacity="1.00" stroke-width="0.3"><path d="
M 179.00 194.00 
C 176.67 194.00 174.33 194.00 172.00 194.00
C 173.26 195.71 177.67 195.47 179.00 194.00 Z"/>
</g>
<g fill="#000000" fill-opacity="0.00" stroke="None"><path d="
M 0.00 256.00 
L 256.00 256.00
L 256.00 0.00
L 0.00 0.00
L 0.00 256.00 Z"/>
</g>
<g fill="#45412A" fill-opacity="1.00" stroke="None"><path d="
M 226.00 224.00 
C 162.00 224.00 98.00 224.00 34.00 224.00
C 34.00 160.00 34.00 96.00 34.00 32.00
C 98.00 32.00 162.00 32.00 226.00 32.00
C 162.65 29.67 97.17 31.67 33.00 31.00
C 33.00 95.67 33.00 160.33 33.00 225.00
C 97.18 224.33 162.57 226.33 226.00 224.00 Z"/>
</g>
<g fill="#BC271B" fill-opacity="1.00" stroke="None"><path d="
M 226.00 224.00 
C 226.00 160.00 226.00 96.00 226.00 32.00
C 162.00 32.00 98.00 32.00 34.00 32.00
C 34.00 96.00 34.00 160.00 34.00 224.00
C 98.00 224.00 162.00 224.00 226.00 224.00 Z"/>
</g>
<g fill="#D98C88" fill-opacity="1.00" stroke="None"><path d="
M 81.00 62.00 
C 83.33 62.00 85.67 62.00 88.00 62.00
C 86.74 60.29 82.33 60.53 81.00 62.00 Z"/>
</g>
<g fill="#D98C88" fill-opacity="1.00" stroke="None"><path d="
M 172.00 62.00 
C 174.33 62.00 176.67 62.00 179.00 62.00
C 177.74 60.29 173.33 60.53 172.00 62.00 Z"/>
</g>
<g fill="#F5EEEE" fill-opacity="1.00" stroke="None"><path d="
M 64.00 79.00 
C 63.59 84.38 64.18 89.52 67.00 94.00
C 73.22 104.52 87.01 106.35 97.00 101.00
C 100.44 105.30 104.68 109.48 109.00 113.00
C 103.42 121.68 103.42 134.33 109.00 143.00
C 99.88 154.38 69.09 151.92 83.75 174.25 C 106.14 188.90 103.57 158.13 115.00 149.00
C 123.68 154.58 136.33 154.58 145.00 149.00
C 148.44 153.30 152.68 157.48 157.00 161.00
C 149.15 173.55 157.01 192.05 172.00 194.00
C 174.33 194.00 176.67 194.00 179.00 194.00
C 184.59 193.22 191.05 189.61 193.00 184.00
C 197.29 177.14 197.29 167.32 192.00 161.00
C 185.94 150.91 172.44 150.11 163.00 155.00
C 159.56 150.70 155.32 146.52 151.00 143.00
C 152.00 139.60 154.78 136.75 155.00 133.00
C 158.42 131.97 167.94 129.71 169.00 135.00
C 198.17 162.71 198.24 93.30 169.00 121.00
C 167.96 126.22 158.32 124.10 155.00 123.00
C 154.17 119.40 152.40 116.27 151.00 113.00
C 155.30 109.56 159.48 105.32 163.00 101.00
C 175.61 108.67 194.02 101.10 196.00 86.00
C 196.00 83.67 196.00 81.33 196.00 79.00
C 195.04 70.57 187.41 62.98 179.00 62.00
C 176.67 62.00 174.33 62.00 172.00 62.00
C 156.90 63.95 149.33 82.43 157.00 95.00
C 152.70 98.44 148.52 102.68 145.00 107.00
C 141.60 106.00 138.75 103.22 135.00 103.00
C 132.00 96.83 134.02 88.61 141.00 86.00
C 145.59 78.82 142.95 67.15 134.00 65.00
C 131.67 65.00 129.33 65.00 127.00 65.00
C 115.71 66.12 112.87 83.90 123.00 89.00
C 127.79 91.35 126.38 99.39 125.00 103.00
C 121.22 103.24 118.38 105.97 115.00 107.00
C 111.56 102.70 107.32 98.52 103.00 95.00
C 110.85 82.45 102.99 63.95 88.00 62.00
C 85.67 62.00 83.33 62.00 81.00 62.00
C 72.46 62.05 65.18 71.01 64.00 79.00 Z"/>
</g>
<g fill="#D27772" fill-opacity="1.00" stroke="None"><path d="
M 127.00 65.00 
C 129.33 65.00 131.67 65.00 134.00 65.00
C 132.74 63.29 128.33 63.53 127.00 65.00 Z"/>
</g>
<g fill="#D5827E" fill-opacity="1.00" stroke="None"><path d="
M 81.00 71.00 
C 83.33 71.00 85.67 71.00 88.00 71.00
C 86.74 69.29 82.33 69.53 81.00 71.00 Z"/>
</g>
<g fill="#BD3025" fill-opacity="1.00" stroke="None"><path d="
M 178.00 70.00 
C 162.18 66.92 157.24 92.07 173.00 95.00 C 189.13 97.68 192.77 74.02 178.00 70.00 Z"/>
</g>
<g fill="#BC2F22" fill-opacity="1.00" stroke="None"><path d="
M 88.00 71.00 
C 85.67 71.00 83.33 71.00 81.00 71.00
C 47.74 99.17 121.90 97.83 88.00 71.00 Z"/>
</g>
<g fill="#BB2C21" fill-opacity="1.00" stroke="None"><path d="
M 132.00 74.00 
C 115.74 76.42 139.88 88.42 132.00 74.00 Z"/>
</g>
<g fill="#D5847F" fill-opacity="1.00" stroke="None"><path d="
M 67.00 94.00 
C 64.18 89.52 63.59 84.38 64.00 79.00
C 61.72 83.25 62.94 90.90 67.00 94.00 Z"/>
</g>
<g fill="#D88B87" fill-opacity="1.00" stroke="None"><path d="
M 196.00 86.00 
C 197.71 84.74 197.47 80.33 196.00 79.00
C 196.00 81.33 196.00 83.67 196.00 86.00 Z"/>
</g>
<g fill="#D37C77" fill-opacity="1.00" stroke="None"><path d="
M 135.00 103.00 
C 133.99 95.75 135.07 90.10 141.00 86.00
C 134.02 88.61 132.00 96.83 135.00 103.00 Z"/>
</g>
<g fill="#D47E7A" fill-opacity="1.00" stroke="None"><path d="
M 125.00 103.00 
C 126.38 99.39 127.79 91.35 123.00 89.00
C 126.52 92.70 124.46 98.30 125.00 103.00 Z"/>
</g>
<g fill="#BC2B1F" fill-opacity="1.00" stroke="None"><path d="
M 135.00 112.00 
C 114.23 105.43 105.27 138.71 125.33 143.67 C 146.01 150.55 154.24 117.53 135.00 112.00 Z"/>
</g>
<g fill="#D68681" fill-opacity="1.00" stroke="None"><path d="
M 155.00 123.00 
C 158.32 124.10 167.96 126.22 169.00 121.00
C 165.30 124.52 159.70 122.46 155.00 123.00 Z"/>
</g>
<g fill="#BB2C21" fill-opacity="1.00" stroke="None"><path d="
M 182.00 124.00 
C 165.74 126.42 189.88 138.42 182.00 124.00 Z"/>
</g>
<g fill="#D68681" fill-opacity="1.00" stroke="None"><path d="
M 155.00 133.00 
C 159.67 133.59 165.32 131.42 169.00 135.00
C 167.94 129.71 158.42 131.97 155.00 133.00 Z"/>
</g>
<g fill="#C14237" fill-opacity="1.00" stroke="None"><path d="
M 95.00 160.00 
C 77.31 164.26 105.70 175.16 95.00 160.00 Z"/>
</g>
<g fill="#BE3126" fill-opacity="1.00" stroke="None"><path d="
M 179.00 161.00 
C 163.09 156.87 156.68 181.67 172.33 185.67 C 187.94 189.64 193.64 165.66 179.00 161.00 Z"/>
</g>
<g fill="#D98C88" fill-opacity="1.00" stroke="None"><path d="
M 193.00 184.00 
C 198.90 178.57 198.77 165.91 192.00 161.00
C 197.29 167.32 197.29 177.14 193.00 184.00 Z"/>
</g>
<g fill="#D98C88" fill-opacity="1.00" stroke="None"><path d="
M 179.00 194.00 
C 176.67 194.00 174.33 194.00 172.00 194.00
C 173.26 195.71 177.67 195.47 179.00 194.00 Z"/>
</g>
</svg>