<?xml version="1.0" encoding="UTF-8"?>
<!-- Generated by Pixelmator Pro 3.6.17 -->
<svg width="400" height="400" viewBox="0 0 400 400" xmlns="http://www.w3.org/2000/svg">
    <g id="Group">
        <g id="g1">
            <path id="Path" fill="none" stroke="none" d="M -71 467 L 462 467 L 462 -66 L -71 -66 L -71 467 M 399.539063 0.625 C 399.539063 133.875 399.539063 267.125 399.539063 400.375 C 267.47583 405.226135 131.331802 401.062073 -2.292969 402.457031 C -2.292969 267.812073 -2.292969 133.187927 -2.292969 -1.457031 C 131.310974 -0.062073 267.642365 -4.226135 399.539063 0.625 Z"/>
        </g>
        <g id="g2">
            <path id="path1" fill="none" stroke="#45412a" stroke-width="0.624609" d="M 399.539063 400.375 C 266.289063 400.375 133.039063 400.375 -0.210938 400.375 C -0.210938 267.125 -0.210938 133.875 -0.210938 0.625 C 133.039063 0.625 266.289063 0.625 399.539063 0.625 C 267.642365 -4.226135 131.310974 -0.062073 -2.292969 -1.457031 C -2.292969 133.187927 -2.292969 267.812073 -2.292969 402.457031 C 131.331802 401.062073 267.47583 405.226135 399.539063 400.375 Z"/>
        </g>
        <g id="g3">
            <path id="path2" fill="none" stroke="#bc271b" stroke-width="0.624609" d="M 399.539063 400.375 C 399.539063 267.125 399.539063 133.875 399.539063 0.625 C 266.289063 0.625 133.039063 0.625 -0.210938 0.625 C -0.210938 133.875 -0.210938 267.125 -0.210938 400.375 C 133.039063 400.375 266.289063 400.375 399.539063 400.375 M 112.21875 63.085938 C 143.428391 67.145905 159.793167 105.663483 143.449219 131.792969 C 152.443588 139.121704 161.271408 147.8246 168.433594 156.777344 C 175.470856 154.632858 181.383835 148.948883 189.253906 148.449219 C 188.129608 138.663666 192.418594 127.004303 185.089844 119.300781 C 163.998871 108.682404 169.911835 71.66391 193.417969 69.332031 C 196.187073 66.271454 205.368835 65.77179 207.992188 69.332031 C 226.626358 73.80838 232.122925 98.105713 222.566406 113.054688 C 210.219971 121.591034 207.971375 133.354492 210.074219 148.449219 C 217.881836 148.907272 223.815643 154.695313 230.894531 156.777344 C 238.223297 147.782959 246.926163 138.95517 255.878906 131.792969 C 239.909729 105.621826 255.670685 67.145905 287.109375 63.085938 C 289.878479 60.02536 299.060242 59.525696 301.683594 63.085938 C 319.193481 65.126312 335.079376 80.928955 337.078125 98.480469 C 340.138702 101.249573 340.638397 110.431305 337.078125 113.054688 C 332.955719 144.493378 294.625519 160.254333 268.371094 144.285156 C 261.042328 153.279541 252.339462 162.107346 243.386719 169.269531 C 246.301544 176.077744 249.986755 182.594513 251.714844 190.089844 C 261.500397 188.96553 273.15976 193.254501 280.863281 185.925781 C 341.741882 128.25351 341.59613 272.767334 280.863281 215.074219 C 273.201416 207.620544 261.437927 212.13855 251.714844 210.910156 C 251.25679 218.717773 245.46875 224.651581 243.386719 231.730469 C 252.381104 239.059235 261.208893 247.7621 268.371094 256.714844 C 288.025482 246.533707 316.132904 248.199341 328.75 269.207031 C 342.845367 279.42981 343.115997 305.78833 330.832031 317.09375 C 326.772064 328.773956 313.322144 336.29007 301.683594 337.914063 C 298.91449 340.97464 289.732727 341.474365 287.109375 337.914063 C 255.899719 333.854126 239.534943 295.336548 255.878906 269.207031 C 246.884521 261.878265 238.056717 253.1754 230.894531 244.222656 C 212.843323 255.840393 186.50563 255.840393 168.433594 244.222656 C 144.635971 263.231628 149.986801 327.295685 103.370117 296.793945 C 72.847534 250.302185 136.953278 255.423996 155.941406 231.730469 C 144.323669 213.67926 144.323669 187.341553 155.941406 169.269531 C 146.947037 161.940811 138.119217 153.2379 130.957031 144.285156 C 110.157547 155.424042 81.446327 151.613876 68.496094 129.710938 C 60.043045 123.256622 57.502972 107.329102 62.25 98.480469 C 64.706795 81.845062 79.863983 63.190033 97.644531 63.085938 C 100.413635 60.02536 109.595383 59.525696 112.21875 63.085938 Z"/>
        </g>
        <g id="g4">
            <path id="path3" fill="none" stroke="#d98c88" stroke-width="0.624609" d="M 97.644531 63.085938 C 102.495667 63.085938 107.367615 63.085938 112.21875 63.085938 C 109.595383 59.525696 100.413635 60.02536 97.644531 63.085938 Z"/>
        </g>
        <g id="g5">
            <path id="path4" fill="none" stroke="#d98c88" stroke-width="0.624609" d="M 287.109375 63.085938 C 291.96051 63.085938 296.832458 63.085938 301.683594 63.085938 C 299.060242 59.525696 289.878479 60.02536 287.109375 63.085938 Z"/>
        </g>
        <g id="g6">
            <path id="path5" fill="none" stroke="#f5eeee" stroke-width="0.624609" d="M 62.25 98.480469 C 61.396366 109.681793 62.624767 120.383423 68.496094 129.710938 C 81.446327 151.613876 110.157547 155.424042 130.957031 144.285156 C 138.119217 153.2379 146.947037 161.940811 155.941406 169.269531 C 144.323669 187.341553 144.323669 213.67926 155.941406 231.730469 C 136.953278 255.423996 72.847534 250.302185 103.370117 296.793945 C 149.986801 327.295685 144.635971 263.231628 168.433594 244.222656 C 186.50563 255.840393 212.843323 255.840393 230.894531 244.222656 C 238.056717 253.1754 246.884521 261.878265 255.878906 269.207031 C 239.534943 295.336548 255.899719 333.854126 287.109375 337.914063 C 291.96051 337.914063 296.832458 337.914063 301.683594 337.914063 C 313.322144 336.29007 326.772064 328.773956 330.832031 317.09375 C 339.763947 302.811005 339.763947 282.365479 328.75 269.207031 C 316.132904 248.199341 288.025482 246.533707 268.371094 256.714844 C 261.208893 247.7621 252.381104 239.059235 243.386719 231.730469 C 245.46875 224.651581 251.25679 218.717773 251.714844 210.910156 C 258.835388 208.765671 278.656342 204.060287 280.863281 215.074219 C 341.59613 272.767334 341.741882 128.25351 280.863281 185.925781 C 278.697968 196.793991 258.627197 192.380096 251.714844 190.089844 C 249.986755 182.594513 246.301544 176.077744 243.386719 169.269531 C 252.339462 162.107346 261.042328 153.279541 268.371094 144.285156 C 294.625519 160.254333 332.955719 144.493378 337.078125 113.054688 C 337.078125 108.203552 337.078125 103.331604 337.078125 98.480469 C 335.079376 80.928955 319.193481 65.126312 301.683594 63.085938 C 296.832458 63.085938 291.96051 63.085938 287.109375 63.085938 C 255.670685 67.145905 239.909729 105.621826 255.878906 131.792969 C 246.926163 138.95517 238.223297 147.782959 230.894531 156.777344 C 223.815643 154.695313 217.881836 148.907272 210.074219 148.449219 C 203.828125 135.603088 208.033844 118.4888 222.566406 113.054688 C 232.122925 98.105713 226.626358 73.80838 207.992188 69.332031 C 203.141052 69.332031 198.269104 69.332031 193.417969 69.332031 C 169.911835 71.66391 163.998871 108.682404 185.089844 119.300781 C 195.062775 124.193573 192.127106 140.933075 189.253906 148.449219 C 181.383835 148.948883 175.470856 154.632858 168.433594 156.777344 C 161.271408 147.8246 152.443588 139.121704 143.449219 131.792969 C 159.793167 105.663483 143.428391 67.145905 112.21875 63.085938 C 107.367615 63.085938 102.495667 63.085938 97.644531 63.085938 C 79.863983 63.190033 64.706795 81.845062 62.25 98.480469 M 112.21875 81.824219 C 182.799606 137.68512 28.396175 140.475037 97.644531 81.824219 C 100.413635 78.763641 109.595383 78.263977 112.21875 81.824219 M 299.601563 79.742188 C 330.35318 88.111938 322.774567 137.372803 289.191406 131.792969 C 256.378601 125.692627 266.663818 73.329529 299.601563 79.742188 M 203.828125 88.070313 C 220.234543 118.093201 169.974289 93.108826 203.828125 88.070313 M 210.074219 167.1875 C 250.132507 178.701126 232.997375 247.449814 189.940979 233.125427 C 148.17543 222.798569 166.830429 153.508545 210.074219 167.1875 M 307.929688 192.171875 C 324.33609 222.194763 274.075867 197.210388 307.929688 192.171875 M 126.792969 267.125 C 149.070694 298.688599 89.96183 275.994446 126.792969 267.125 M 301.683594 269.207031 C 332.16452 278.909302 320.296967 328.836395 287.796448 320.57074 C 255.212646 312.242615 268.558472 260.608215 301.683594 269.207031 Z"/>
        </g>
        <g id="g7">
            <path id="path6" fill="none" stroke="#d27772" stroke-width="0.624609" d="M 193.417969 69.332031 C 198.269104 69.332031 203.141052 69.332031 207.992188 69.332031 C 205.368835 65.77179 196.187073 66.271454 193.417969 69.332031 Z"/>
        </g>
        <g id="g8">
            <path id="path7" fill="none" stroke="#d5827e" stroke-width="0.624609" d="M 97.644531 81.824219 C 102.495667 81.824219 107.367615 81.824219 112.21875 81.824219 C 109.595383 78.263977 100.413635 78.763641 97.644531 81.824219 Z"/>
        </g>
        <g id="g9">
            <path id="path8" fill="none" stroke="#bd3025" stroke-width="0.624609" d="M 299.601563 79.742188 C 266.663818 73.329529 256.378601 125.692627 289.191406 131.792969 C 322.774567 137.372803 330.35318 88.111938 299.601563 79.742188 Z"/>
        </g>
        <g id="g10">
            <path id="path9" fill="none" stroke="#bc2f22" stroke-width="0.624609" d="M 112.21875 81.824219 C 107.367615 81.824219 102.495667 81.824219 97.644531 81.824219 C 28.396175 140.475037 182.799606 137.68512 112.21875 81.824219 Z"/>
        </g>
        <g id="g11">
            <path id="path10" fill="none" stroke="#bb2c21" stroke-width="0.624609" d="M 203.828125 88.070313 C 169.974289 93.108826 220.234543 118.093201 203.828125 88.070313 Z"/>
        </g>
        <g id="g12">
            <path id="path11" fill="none" stroke="#d5847f" stroke-width="0.624609" d="M 68.496094 129.710938 C 62.624767 120.383423 61.396366 109.681793 62.25 98.480469 C 57.502972 107.329102 60.043045 123.256622 68.496094 129.710938 Z"/>
        </g>
        <g id="g13">
            <path id="path12" fill="none" stroke="#d88b87" stroke-width="0.624609" d="M 337.078125 113.054688 C 340.638397 110.431305 340.138702 101.249573 337.078125 98.480469 C 337.078125 103.331604 337.078125 108.203552 337.078125 113.054688 Z"/>
        </g>
        <g id="g14">
            <path id="path13" fill="none" stroke="#d37c77" stroke-width="0.624609" d="M 210.074219 148.449219 C 207.971375 133.354492 210.219971 121.591034 222.566406 113.054688 C 208.033844 118.4888 203.828125 135.603088 210.074219 148.449219 Z"/>
        </g>
        <g id="g15">
            <path id="path14" fill="none" stroke="#d47e7a" stroke-width="0.624609" d="M 189.253906 148.449219 C 192.127106 140.933075 195.062775 124.193573 185.089844 119.300781 C 192.418594 127.004303 188.129608 138.663666 189.253906 148.449219 Z"/>
        </g>
        <g id="g16">
            <path id="path15" fill="none" stroke="#bc2b1f" stroke-width="0.624609" d="M 210.074219 167.1875 C 166.830429 153.508545 148.17543 222.798569 189.940979 233.125427 C 232.997375 247.449814 250.132507 178.701126 210.074219 167.1875 Z"/>
        </g>
        <g id="g17">
            <path id="path16" fill="none" stroke="#d68681" stroke-width="0.624609" d="M 251.714844 190.089844 C 258.627197 192.380096 278.697968 196.793991 280.863281 185.925781 C 273.15976 193.254501 261.500397 188.96553 251.714844 190.089844 Z"/>
        </g>
        <g id="g18">
            <path id="path17" fill="none" stroke="#bb2c21" stroke-width="0.624609" d="M 307.929688 192.171875 C 274.075867 197.210388 324.33609 222.194763 307.929688 192.171875 Z"/>
        </g>
        <g id="g19">
            <path id="path18" fill="none" stroke="#d68681" stroke-width="0.624609" d="M 251.714844 210.910156 C 261.437927 212.13855 273.201416 207.620544 280.863281 215.074219 C 278.656342 204.060287 258.835388 208.765671 251.714844 210.910156 Z"/>
        </g>
        <g id="g20">
            <path id="path19" fill="none" stroke="#c14237" stroke-width="0.624609" d="M 126.792969 267.125 C 89.96183 275.994446 149.070694 298.688599 126.792969 267.125 Z"/>
        </g>
        <g id="g21">
            <path id="path20" fill="none" stroke="#be3126" stroke-width="0.624609" d="M 301.683594 269.207031 C 268.558472 260.608215 255.212646 312.242615 287.796448 320.57074 C 320.296967 328.836395 332.16452 278.909302 301.683594 269.207031 Z"/>
        </g>
        <g id="g22">
            <path id="path21" fill="none" stroke="#d98c88" stroke-width="0.624609" d="M 330.832031 317.09375 C 343.115997 305.78833 342.845367 279.42981 328.75 269.207031 C 339.763947 282.365479 339.763947 302.811005 330.832031 317.09375 Z"/>
        </g>
        <g id="g23">
            <path id="path22" fill="none" stroke="#d98c88" stroke-width="0.624609" d="M 301.683594 337.914063 C 296.832458 337.914063 291.96051 337.914063 287.109375 337.914063 C 289.732727 341.474365 298.91449 340.97464 301.683594 337.914063 Z"/>
        </g>
        <g id="g24">
            <path id="path23" fill="none" stroke="none" d="M -71 467 L 462 467 L 462 -66 L -71 -66 L -71 467 Z"/>
        </g>
        <g id="g25">
            <path id="path24" fill="#45412a" stroke="none" d="M 399.539063 400.375 C 266.289063 400.375 133.039063 400.375 -0.210938 400.375 C -0.210938 267.125 -0.210938 133.875 -0.210938 0.625 C 133.039063 0.625 266.289063 0.625 399.539063 0.625 C 267.642365 -4.226135 131.310974 -0.062073 -2.292969 -1.457031 C -2.292969 133.187927 -2.292969 267.812073 -2.292969 402.457031 C 131.331802 401.062073 267.47583 405.226135 399.539063 400.375 Z"/>
        </g>
        <g id="g26">
            <path id="path25" fill="#bc271b" stroke="none" d="M 399.539063 400.375 C 399.539063 267.125 399.539063 133.875 399.539063 0.625 C 266.289063 0.625 133.039063 0.625 -0.210938 0.625 C -0.210938 133.875 -0.210938 267.125 -0.210938 400.375 C 133.039063 400.375 266.289063 400.375 399.539063 400.375 Z"/>
        </g>
        <g id="g27">
            <path id="path26" fill="#d98c88" stroke="none" d="M 97.644531 63.085938 C 102.495667 63.085938 107.367615 63.085938 112.21875 63.085938 C 109.595383 59.525696 100.413635 60.02536 97.644531 63.085938 Z"/>
        </g>
        <g id="g28">
            <path id="path27" fill="#d98c88" stroke="none" d="M 287.109375 63.085938 C 291.96051 63.085938 296.832458 63.085938 301.683594 63.085938 C 299.060242 59.525696 289.878479 60.02536 287.109375 63.085938 Z"/>
        </g>
        <g id="g29">
            <path id="path28" fill="#f5eeee" stroke="none" d="M 62.25 98.480469 C 61.396366 109.681793 62.624767 120.383423 68.496094 129.710938 C 81.446327 151.613876 110.157547 155.424042 130.957031 144.285156 C 138.119217 153.2379 146.947037 161.940811 155.941406 169.269531 C 144.323669 187.341553 144.323669 213.67926 155.941406 231.730469 C 136.953278 255.423996 72.847534 250.302185 103.370117 296.793945 C 149.986801 327.295685 144.635971 263.231628 168.433594 244.222656 C 186.50563 255.840393 212.843323 255.840393 230.894531 244.222656 C 238.056717 253.1754 246.884521 261.878265 255.878906 269.207031 C 239.534943 295.336548 255.899719 333.854126 287.109375 337.914063 C 291.96051 337.914063 296.832458 337.914063 301.683594 337.914063 C 313.322144 336.29007 326.772064 328.773956 330.832031 317.09375 C 339.763947 302.811005 339.763947 282.365479 328.75 269.207031 C 316.132904 248.199341 288.025482 246.533707 268.371094 256.714844 C 261.208893 247.7621 252.381104 239.059235 243.386719 231.730469 C 245.46875 224.651581 251.25679 218.717773 251.714844 210.910156 C 258.835388 208.765671 278.656342 204.060287 280.863281 215.074219 C 341.59613 272.767334 341.741882 128.25351 280.863281 185.925781 C 278.697968 196.793991 258.627197 192.380096 251.714844 190.089844 C 249.986755 182.594513 246.301544 176.077744 243.386719 169.269531 C 252.339462 162.107346 261.042328 153.279541 268.371094 144.285156 C 294.625519 160.254333 332.955719 144.493378 337.078125 113.054688 C 337.078125 108.203552 337.078125 103.331604 337.078125 98.480469 C 335.079376 80.928955 319.193481 65.126312 301.683594 63.085938 C 296.832458 63.085938 291.96051 63.085938 287.109375 63.085938 C 255.670685 67.145905 239.909729 105.621826 255.878906 131.792969 C 246.926163 138.95517 238.223297 147.782959 230.894531 156.777344 C 223.815643 154.695313 217.881836 148.907272 210.074219 148.449219 C 203.828125 135.603088 208.033844 118.4888 222.566406 113.054688 C 232.122925 98.105713 226.626358 73.80838 207.992188 69.332031 C 203.141052 69.332031 198.269104 69.332031 193.417969 69.332031 C 169.911835 71.66391 163.998871 108.682404 185.089844 119.300781 C 195.062775 124.193573 192.127106 140.933075 189.253906 148.449219 C 181.383835 148.948883 175.470856 154.632858 168.433594 156.777344 C 161.271408 147.8246 152.443588 139.121704 143.449219 131.792969 C 159.793167 105.663483 143.428391 67.145905 112.21875 63.085938 C 107.367615 63.085938 102.495667 63.085938 97.644531 63.085938 C 79.863983 63.190033 64.706795 81.845062 62.25 98.480469 Z"/>
        </g>
        <g id="g30">
            <path id="path29" fill="#d27772" stroke="none" d="M 193.417969 69.332031 C 198.269104 69.332031 203.141052 69.332031 207.992188 69.332031 C 205.368835 65.77179 196.187073 66.271454 193.417969 69.332031 Z"/>
        </g>
        <g id="g31">
            <path id="path30" fill="#d5827e" stroke="none" d="M 97.644531 81.824219 C 102.495667 81.824219 107.367615 81.824219 112.21875 81.824219 C 109.595383 78.263977 100.413635 78.763641 97.644531 81.824219 Z"/>
        </g>
        <g id="g32">
            <path id="path31" fill="#bd3025" stroke="none" d="M 299.601563 79.742188 C 266.663818 73.329529 256.378601 125.692627 289.191406 131.792969 C 322.774567 137.372803 330.35318 88.111938 299.601563 79.742188 Z"/>
        </g>
        <g id="g33">
            <path id="path32" fill="#bc2f22" stroke="none" d="M 112.21875 81.824219 C 107.367615 81.824219 102.495667 81.824219 97.644531 81.824219 C 28.396175 140.475037 182.799606 137.68512 112.21875 81.824219 Z"/>
        </g>
        <g id="g34">
            <path id="path33" fill="#bb2c21" stroke="none" d="M 203.828125 88.070313 C 169.974289 93.108826 220.234543 118.093201 203.828125 88.070313 Z"/>
        </g>
        <g id="g35">
            <path id="path34" fill="#d5847f" stroke="none" d="M 68.496094 129.710938 C 62.624767 120.383423 61.396366 109.681793 62.25 98.480469 C 57.502972 107.329102 60.043045 123.256622 68.496094 129.710938 Z"/>
        </g>
        <g id="g36">
            <path id="path35" fill="#d88b87" stroke="none" d="M 337.078125 113.054688 C 340.638397 110.431305 340.138702 101.249573 337.078125 98.480469 C 337.078125 103.331604 337.078125 108.203552 337.078125 113.054688 Z"/>
        </g>
        <g id="g37">
            <path id="path36" fill="#d37c77" stroke="none" d="M 210.074219 148.449219 C 207.971375 133.354492 210.219971 121.591034 222.566406 113.054688 C 208.033844 118.4888 203.828125 135.603088 210.074219 148.449219 Z"/>
        </g>
        <g id="g38">
            <path id="path37" fill="#d47e7a" stroke="none" d="M 189.253906 148.449219 C 192.127106 140.933075 195.062775 124.193573 185.089844 119.300781 C 192.418594 127.004303 188.129608 138.663666 189.253906 148.449219 Z"/>
        </g>
        <g id="g39">
            <path id="path38" fill="#bc2b1f" stroke="none" d="M 210.074219 167.1875 C 166.830429 153.508545 148.17543 222.798569 189.940979 233.125427 C 232.997375 247.449814 250.132507 178.701126 210.074219 167.1875 Z"/>
        </g>
        <g id="g40">
            <path id="path39" fill="#d68681" stroke="none" d="M 251.714844 190.089844 C 258.627197 192.380096 278.697968 196.793991 280.863281 185.925781 C 273.15976 193.254501 261.500397 188.96553 251.714844 190.089844 Z"/>
        </g>
        <g id="g41">
            <path id="path40" fill="#bb2c21" stroke="none" d="M 307.929688 192.171875 C 274.075867 197.210388 324.33609 222.194763 307.929688 192.171875 Z"/>
        </g>
        <g id="g42">
            <path id="path41" fill="#d68681" stroke="none" d="M 251.714844 210.910156 C 261.437927 212.13855 273.201416 207.620544 280.863281 215.074219 C 278.656342 204.060287 258.835388 208.765671 251.714844 210.910156 Z"/>
        </g>
        <g id="g43">
            <path id="path42" fill="#c14237" stroke="none" d="M 126.792969 267.125 C 89.96183 275.994446 149.070694 298.688599 126.792969 267.125 Z"/>
        </g>
        <g id="g44">
            <path id="path43" fill="#be3126" stroke="none" d="M 301.683594 269.207031 C 268.558472 260.608215 255.212646 312.242615 287.796448 320.57074 C 320.296967 328.836395 332.16452 278.909302 301.683594 269.207031 Z"/>
        </g>
        <g id="g45">
            <path id="path44" fill="#d98c88" stroke="none" d="M 330.832031 317.09375 C 343.115997 305.78833 342.845367 279.42981 328.75 269.207031 C 339.763947 282.365479 339.763947 302.811005 330.832031 317.09375 Z"/>
        </g>
        <g id="g46">
            <path id="path45" fill="#d98c88" stroke="none" d="M 301.683594 337.914063 C 296.832458 337.914063 291.96051 337.914063 287.109375 337.914063 C 289.732727 341.474365 298.91449 340.97464 301.683594 337.914063 Z"/>
        </g>
    </g>
</svg>
