<?xml version="1.0" encoding="UTF-8"?>
<!-- Generated by Pixelmator Pro 3.2.3 -->
<svg width="400" height="400" viewBox="0 0 400 400" xmlns="http://www.w3.org/2000/svg" xmlns:xlink="http://www.w3.org/1999/xlink">
    <path id="Path" fill="#00b08a" stroke="none" d="M 233.667786 146.5811 L 110.5345 146.5811 L -0.440002 385.877258 L 71.13707 385.877258 L 152.201935 211.721985 L 233.644669 211.721985 C 251.683701 211.721985 266.293274 197.135529 266.293274 179.141342 C 266.293274 161.145813 251.683701 146.559357 233.644669 146.559357 L 233.667786 146.5811 Z M 233.667786 13.627014 L 157.301956 13.627014 L 126.991325 78.789642 L 233.667786 78.789642 C 289.125122 78.789642 334.117371 123.682648 334.241058 179.141342 C 334.117371 234.598694 289.125122 279.491699 233.667786 279.491699 L 192.088699 279.491699 L 161.822937 344.499359 C 162.847824 344.587708 163.89447 344.655701 164.941116 344.655701 L 233.667786 344.655701 C 325.132507 344.655701 399.559998 270.404907 399.559998 179.141342 C 399.559998 87.876434 325.132507 13.627014 233.667786 13.627014 Z"/>
</svg>
