<?xml version="1.0" encoding="UTF-8"?>
<!-- Generated by Pixelmator Pro 3.6.17 -->
<svg width="400" height="400" viewBox="0 0 400 400" xmlns="http://www.w3.org/2000/svg" xmlns:xlink="http://www.w3.org/1999/xlink">
    <g id="Group">
        <path id="Path" fill="#669df6" stroke="none" d="M 373.800018 124.200012 C 373.800018 143.198578 358.398621 158.599991 339.399994 158.599991 C 320.401398 158.599991 305 143.198578 305 124.200012 C 305 105.201385 320.401398 89.799988 339.399994 89.799988 C 358.398621 89.799988 373.800018 105.201385 373.800018 124.200012 Z"/>
        <path id="path1" fill="#669df6" stroke="none" d="M 94.999992 124.200012 C 94.999992 143.198578 79.598587 158.599991 60.599995 158.599991 C 41.601395 158.599991 26.199989 143.198578 26.199989 124.200012 C 26.199989 105.201385 41.601395 89.799988 60.599995 89.799988 C 79.598587 89.799988 94.999992 105.201385 94.999992 124.200012 Z"/>
        <path id="path2" fill="#669df6" stroke="none" d="M 234.400009 365.600037 C 234.400009 384.598602 218.998611 400 200 400 C 181.001404 400 165.599991 384.598602 165.599991 365.600037 C 165.599991 346.60141 181.001404 331.200012 200 331.200012 C 218.998611 331.200012 234.400009 346.60141 234.400009 365.600037 Z"/>
        <mask id="mask1"/>
        <g id="g1" mask="url(#mask1)">
            <path id="path3" fill="#4285f4" stroke="none" d="M 192.928009 217.194 L 208.828018 189.528 L 348.72403 269.927979 L 332.824005 297.593994 Z"/>
            <path id="path4" fill="#4285f4" stroke="none" d="M 52.669067 271.460815 L 191.925964 191.060822 L 207.825974 218.600433 L 68.569069 299.000427 Z"/>
            <path id="path5" fill="#4285f4" stroke="none" d="M 183.999985 43.799988 L 215.800003 43.799988 L 215.800003 204.599991 L 183.999985 204.599991 Z"/>
        </g>
        <path id="path6" fill="#aecbfa" stroke="none" d="M 255.599991 204.599991 C 255.599991 235.307022 230.707047 260.200012 200 260.200012 C 169.292953 260.200012 144.400009 235.307022 144.400009 204.599991 C 144.400009 173.89296 169.292953 149 200 149 C 230.707047 149 255.599991 173.89296 255.599991 204.599991 Z"/>
        <path id="path7" fill="#aecbfa" stroke="none" d="M 104.399986 285 C 104.399986 309.190063 84.790062 328.800018 60.599995 328.800018 C 36.40992 328.800018 16.79999 309.190063 16.79999 285 C 16.79999 260.809937 36.40992 241.200012 60.599995 241.200012 C 84.790062 241.200012 104.399986 260.809937 104.399986 285 Z"/>
        <path id="path8" fill="#aecbfa" stroke="none" d="M 383.200012 285 C 383.200012 309.190063 363.590088 328.800018 339.399994 328.800018 C 315.20993 328.800018 295.600037 309.190063 295.600037 285 C 295.600037 260.809937 315.20993 241.200012 339.399994 241.200012 C 363.590088 241.200012 383.200012 260.809937 383.200012 285 Z"/>
        <path id="path9" fill="#aecbfa" stroke="none" d="M 243.800003 43.799988 C 243.800003 67.990082 224.190063 87.600006 200 87.600006 C 175.809937 87.600006 156.199997 67.990082 156.199997 43.799988 C 156.199997 19.609894 175.809937 0 200 0 C 224.190063 0 243.800003 19.609894 243.800003 43.799988 Z"/>
    </g>
</svg>
