<svg version="1.2" xmlns="http://www.w3.org/2000/svg" viewBox="0 0 36 36" width="36" height="36">
	<title>python</title>
	<defs>
		<linearGradient id="g1" x2="1" gradientUnits="userSpaceOnUse" gradientTransform="matrix(15.823,15.876,-25.326,25.241,5.075,4.782)">
			<stop offset="0" stop-color="#387eb8"/>
			<stop offset="1" stop-color="#366994"/>
		</linearGradient>
		<linearGradient id="g2" x2="1" gradientUnits="userSpaceOnUse" gradientTransform="matrix(16.994,16.281,-25.941,27.077,14.809,14.882)">
			<stop offset="0" stop-color="#ffe052"/>
			<stop offset="1" stop-color="#ffc331"/>
		</linearGradient>
	</defs>
	<style>
		.s0 { fill: url(#g1) } 
		.s1 { fill: url(#g2) } 
	</style>
	<path class="s0" d="m17.9 2c-8.1 0-7.6 3.5-7.6 3.5v3.7h7.7v1.1h-10.8c0 0-5.2-0.6-5.2 7.6 0 8.2 4.5 7.9 4.5 7.9h2.7v-3.8c0 0-0.1-4.6 4.5-4.6h7.7c0 0 4.3 0.1 4.3-4.1v-7.1c0 0 0.7-4.2-7.8-4.2zm-4.3 2.5c0.8 0 1.4 0.6 1.4 1.3 0 0.8-0.6 1.4-1.4 1.4q-0.3 0-0.5-0.1-0.3-0.1-0.5-0.3-0.2-0.2-0.3-0.4-0.1-0.3-0.1-0.6c0-0.7 0.6-1.3 1.4-1.3z"/>
	<path class="s1" d="m18.1 33.8c8.1 0 7.6-3.5 7.6-3.5v-3.6h-7.7v-1.1h10.8c0 0 5.2 0.6 5.2-7.6 0-8.2-4.5-7.9-4.5-7.9h-2.7v3.8c0 0 0.1 4.5-4.5 4.5h-7.7c0 0-4.3-0.1-4.3 4.2v7c0 0-0.7 4.2 7.8 4.2zm4.3-2.4q-0.3 0-0.5-0.1-0.3-0.1-0.5-0.3-0.2-0.2-0.3-0.5-0.1-0.2-0.1-0.5c0-0.8 0.6-1.4 1.4-1.4 0.8 0 1.4 0.6 1.4 1.4 0 0.8-0.6 1.4-1.4 1.4z"/>
</svg>