<?xml version="1.0" encoding="UTF-8"?>
<!-- Generated by Pixelmator Pro 3.2.3 -->
<svg width="400" height="400" viewBox="0 0 400 400" xmlns="http://www.w3.org/2000/svg" xmlns:xlink="http://www.w3.org/1999/xlink">
    <path id="Path" fill="#3524c8" stroke="none" d="M 263.071075 78.039001 L 213.317001 78.039001 L 213.317001 123.84668 L 263.071075 123.84668 L 263.071075 78.039001 Z M 349.482117 78.039001 L 349.656067 323.264679 L 399.610992 323.264679 L 399.610992 78.039001 L 349.482117 78.039001 Z M 281.386292 323.264679 L 331.341248 323.264679 L 331.341248 78.039001 L 281.22583 78.039001 L 281.386292 323.264679 Z M 178.439667 210.324295 C 190.493591 195.889313 196.527084 178.992432 196.527084 159.660583 C 196.527084 135.311859 188.88826 115.632172 173.623657 100.594574 C 158.345581 85.5578 137.822815 78.039001 112.043076 78.039001 L -0.389008 78.039001 L 25.444614 128.876617 L 103.801636 128.876617 C 115.735115 128.876617 124.859253 131.927277 131.187515 138.000763 C 137.515381 144.08815 140.686035 152.020935 140.686035 161.800766 C 140.686035 171.580597 137.221008 179.166351 130.304413 185.252914 C 123.374352 191.340302 113.942787 194.37706 102.022369 194.37706 L 16.762232 194.37706 L 16.762232 323.250793 L 62.99778 323.250793 L 62.99778 239.849945 L 135.307831 323.250793 L 207.617889 323.250793 L 129.56871 238.044556 C 150.09108 233.990387 166.385757 224.746216 178.426193 210.311234 L 178.439667 210.324295 Z M 263.071075 141.987152 L 213.317001 141.987152 L 213.317001 323.250793 L 263.071075 323.250793 L 263.071075 141.987152 Z"/>
</svg>
