<?xml version="1.0" encoding="UTF-8"?>
<!-- Generated by Pixelmator Pro 3.6.17 -->
<svg width="400" height="400" viewBox="0 0 400 400" xmlns="http://www.w3.org/2000/svg">
    <g id="Group">
        <path id="Path" fill="#00a1e0" stroke="none" d="M 114.104889 60.591156 C 114.219406 60.606781 114.333916 60.622375 114.451904 60.638458 C 126.698669 62.328186 138.46492 66.666595 148.61972 73.769562 C 148.793884 73.891052 148.793884 73.891052 148.971558 74.015015 C 150.596268 75.154205 152.155807 76.357422 153.682266 77.624756 C 153.921188 77.821686 154.163116 78.015015 154.405487 78.207703 C 156.358017 79.761597 158.123169 81.532623 159.892059 83.288666 C 160.055344 83.450684 160.218857 83.612488 160.382629 83.774017 C 161.330704 84.71048 162.223724 85.668793 163.051971 86.715546 C 163.380875 87.122009 163.727173 87.506042 164.082748 87.889252 C 164.802811 88.677795 165.423553 89.524506 166.034012 90.399445 C 166.80278 89.756042 167.519455 89.085541 168.220612 88.36972 C 168.983154 87.600189 169.753006 86.85968 170.583694 86.163513 C 170.790894 85.982422 170.790894 85.982422 171.002274 85.797668 C 172.523682 84.474518 174.136261 83.277008 175.760925 82.084503 C 175.872543 82.00177 175.984146 81.919006 176.099136 81.833771 C 178.093399 80.35907 180.205658 79.091675 182.350113 77.848572 C 182.489151 77.767822 182.628189 77.687042 182.771439 77.603821 C 195.736359 70.128143 211.245865 67.517822 234.977875 71.080444 C 238.591644 72.080078 242.161255 73.315979 245.575012 74.867767 C 245.733505 74.939667 245.892014 75.011597 246.055313 75.085693 C 252.33519 77.962738 258.261963 81.756134 263.368652 86.424591 C 263.584503 86.619843 263.801208 86.814331 264.023285 87.002502 C 265.039856 87.868317 265.979218 88.810455 266.92276 89.75412 C 267.21344 90.044434 267.505341 90.333496 267.797302 90.622498 C 268.883026 91.703156 269.883636 92.804688 270.833588 94.007813 C 270.978363 94.178864 271.124207 94.34903 271.271759 94.51767 C 273.793823 97.414124 275.999573 100.636108 277.932556 103.951813 C 278.209045 104.425964 278.501495 104.867859 278.834747 105.303558 C 278.927094 105.261963 279.01944 105.220367 279.114594 105.177521 C 286.714355 101.786591 294.746582 99.675323 302.991608 98.598938 C 303.293945 98.559448 303.596161 98.51886 303.898376 98.478271 C 310.375031 97.647278 317.392273 97.691772 323.860931 98.557495 C 324.072205 98.584747 324.283508 98.611938 324.494812 98.639069 C 335.816101 100.113495 346.796753 103.752014 356.649994 109.539459 C 356.789825 109.621246 356.929657 109.703033 357.0737 109.787292 C 358.800507 110.80014 360.495392 111.850555 362.140991 112.990967 C 362.230164 113.052734 362.319366 113.114471 362.411255 113.178101 C 364.542786 114.662048 366.611389 116.23349 368.579437 117.928558 C 369.002136 118.289337 369.432495 118.636414 369.867615 118.982025 C 371.749084 120.519196 373.462799 122.259949 375.182129 123.972961 C 375.388336 124.178101 375.388336 124.178101 375.598755 124.38739 C 376.290588 125.080963 376.959808 125.784515 377.598145 126.52771 C 377.889618 126.86673 378.192963 127.194061 378.496338 127.522491 C 379.210052 128.313477 379.864197 129.142609 380.516235 129.984253 C 380.812012 130.36557 381.112366 130.74231 381.418335 131.11554 C 384.64444 135.057526 387.330566 139.42514 389.752869 143.89743 C 389.827148 144.034149 389.901398 144.170898 389.977936 144.311768 C 394.944641 153.502716 398.041077 163.717209 399.362122 174.068481 C 399.385864 174.253052 399.409576 174.437668 399.43399 174.627838 C 399.849548 178.097748 400.010498 181.567245 399.999451 185.060272 C 399.999146 185.250122 399.998871 185.439972 399.998627 185.635574 C 399.965302 198.86145 396.961182 211.900574 379.86908 241.166489 C 379.794495 241.256607 379.71994 241.346725 379.643097 241.439575 C 378.642822 242.647369 377.603973 243.813126 376.531036 244.956711 C 376.228851 245.279556 375.928253 245.603882 375.627655 245.928207 C 375.407288 246.16481 375.186859 246.401367 374.9664 246.637863 C 374.864502 246.747925 374.762665 246.858002 374.657715 246.971405 C 374.057953 247.611908 373.435699 248.202408 372.769318 248.773209 C 372.461517 249.040192 372.177704 249.323196 371.897339 249.618698 C 371.287628 250.2379 370.628265 250.776611 369.950958 251.319916 C 369.537354 251.65918 369.143005 252.011429 368.749817 252.373993 C 367.845947 253.194412 366.88266 253.928238 365.90625 254.658646 C 365.797638 254.74057 365.688995 254.822495 365.577087 254.906921 C 362.665039 257.101044 359.647308 259.105103 356.493134 260.934082 C 356.327087 261.030884 356.327087 261.030884 356.157684 261.129639 C 355.337463 261.605133 354.506805 262.058899 353.669189 262.50293 C 353.507996 262.588409 353.346863 262.673889 353.180817 262.761993 C 342.902985 268.164215 331.440155 271.426849 319.849457 272.204224 C 319.496185 272.227966 319.143311 272.255005 318.790314 272.282532 C 311.379913 272.810822 303.855774 272.149292 296.562836 270.817871 C 296.506165 270.913208 296.449463 271.008545 296.391083 271.10675 C 295.165619 273.16156 293.909851 275.171326 292.483795 277.093292 C 292.415924 277.184937 292.348053 277.276611 292.278107 277.371033 C 290.880066 279.24765 289.355072 281.014557 287.777222 282.74115 C 287.632996 282.900085 287.48877 283.05899 287.344574 283.217957 C 286.291718 284.375946 285.231476 285.497314 284.043243 286.518066 C 283.80127 286.72995 283.563354 286.946533 283.328674 287.166443 C 282.16098 288.259918 280.916779 289.225494 279.635651 290.18158 C 279.333282 290.407715 279.032654 290.635956 278.732422 290.864899 C 273.775208 294.611755 268.18927 297.418579 262.361755 299.527924 C 262.21991 299.579651 262.078033 299.631409 261.931854 299.684723 C 258.164032 301.044708 254.238846 301.918243 250.281586 302.508728 C 250.025818 302.547607 250.025818 302.547607 249.764877 302.58728 C 244.177017 303.393402 238.133286 303.356689 232.553513 302.508728 C 232.373093 302.481812 232.192657 302.454895 232.00679 302.427155 C 226.112656 301.520081 220.438736 299.833984 215.030502 297.334503 C 214.604584 297.146393 214.173462 296.993591 213.727234 296.86087 C 213.701233 296.945251 213.675217 297.029663 213.648407 297.116638 C 213.353485 298.040405 212.989532 298.909149 212.570206 299.782867 C 212.502304 299.924438 212.434402 300.06601 212.364441 300.211884 C 209.472946 306.145386 205.663116 311.674347 201.218063 316.548157 C 201.02269 316.764771 200.828308 316.982391 200.638779 317.204163 C 199.876495 318.093567 199.062683 318.928253 198.234711 319.756104 C 198.001175 319.989929 197.768951 320.225037 197.536774 320.460205 C 196.66861 321.333313 195.778244 322.144104 194.810989 322.909363 C 194.435745 323.213257 194.084457 323.532715 193.734131 323.864807 C 192.48024 325.005249 191.090149 325.983307 189.72374 326.98291 C 189.607285 327.068604 189.490829 327.154297 189.370819 327.242584 C 187.619995 328.526398 185.798065 329.662018 183.918976 330.748169 C 183.806671 330.81308 183.694397 330.877991 183.578705 330.944885 C 182.959412 331.301086 182.336578 331.650269 181.710251 331.993958 C 181.414337 332.157074 181.120193 332.32309 180.826004 332.489197 C 172.822342 336.938385 163.250595 339.899292 154.07753 339.832977 C 153.461105 339.829498 152.844696 339.831757 152.228271 339.833008 C 151.195724 339.83429 150.163269 339.831146 149.130753 339.825195 C 147.952286 339.818451 146.773987 339.819031 145.59552 339.823456 C 144.441101 339.827576 143.286774 339.826294 142.132355 339.822693 C 141.650314 339.821289 141.16832 339.821686 140.686279 339.82373 C 127.325371 339.869781 113.646759 333.484222 101.699287 324.084198 C 101.249939 323.696655 100.791321 323.324005 100.328377 322.952881 C 99.697624 322.440063 99.120613 321.900208 98.554832 321.317261 C 98.267708 321.029541 97.970589 320.765137 97.661316 320.501556 C 96.51281 319.511322 95.445023 318.420837 94.461708 317.267029 C 94.128418 316.882172 93.781639 316.51123 93.435211 316.138184 C 92.612885 315.235229 91.860207 314.288116 91.116859 313.319672 C 90.879997 313.012543 90.64045 312.707642 90.400459 312.402954 C 88.494934 309.968262 86.765106 307.394043 85.237938 304.705139 C 85.168098 304.582214 85.098244 304.45929 85.026283 304.332611 C 83.064842 300.85614 81.394524 297.267487 79.903831 293.566284 C 79.791473 293.587555 79.679123 293.608856 79.563362 293.630798 C 72.259735 294.997162 64.691338 295.420654 57.312305 294.350708 C 57.035381 294.311584 57.035381 294.311584 56.752865 294.271637 C 45.403496 292.617249 34.436687 288.0289 25.464533 280.858521 C 25.366528 280.780945 25.268513 280.703308 25.167538 280.623352 C 23.776663 279.520569 22.442924 278.377014 21.152706 277.158325 C 20.775497 276.806396 20.387871 276.466034 20.002953 276.122559 C 17.0807 273.46991 14.608115 270.385681 12.286143 267.209473 C 12.201132 267.093933 12.116111 266.978394 12.028523 266.859314 C 5.404751 257.826172 -0.085469 245.452087 -0.138077 234.071701 C -0.13936 233.915848 -0.140643 233.759995 -0.141964 233.599426 C -0.145843 233.085373 -0.148457 232.571365 -0.150717 232.057312 C -0.15155 231.879532 -0.152383 231.701752 -0.153244 231.51857 C -0.157439 230.573883 -0.160474 229.629211 -0.162743 228.684509 C -0.164821 227.913177 -0.169149 227.141907 -0.175613 226.37059 C -0.210315 222.132462 -0.21809 218.026428 0.67661 213.868393 C 0.752209 213.500443 0.827788 213.132477 0.903359 212.764526 C 1.971376 207.616043 3.807992 202.628983 6.01072 197.866058 C 6.104646 197.662964 6.104646 197.662964 6.200469 197.455765 C 7.751638 194.144684 9.654279 190.931641 11.815487 187.982269 C 11.893115 187.876221 11.970754 187.770172 12.050738 187.660919 C 15.071753 183.553726 18.419571 179.516083 22.32682 176.215851 C 22.482136 176.079742 22.637451 175.943634 22.797478 175.803406 C 25.853348 173.131149 29.157175 170.70369 32.681271 168.685333 C 32.636391 168.569702 32.591499 168.454071 32.545258 168.334915 C 29.005968 159.186752 26.618845 149.831879 26.405846 139.975281 C 26.402409 139.820953 26.398972 139.666626 26.395428 139.507599 C 26.162312 126.983582 28.887461 114.722595 45.232117 87.104828 C 45.376511 86.936493 45.376511 86.936493 45.523827 86.764709 C 45.790035 86.457306 46.059532 86.153137 46.330315 85.849762 C 46.438915 85.726593 46.547516 85.603424 46.659409 85.476532 C 47.673901 84.346283 48.738834 83.267426 49.811214 82.192352 C 49.885448 82.117706 49.959682 82.04306 50.036167 81.966187 C 50.917351 81.081177 51.811722 80.226929 52.762627 79.41745 C 52.932571 79.268555 53.102333 79.119415 53.271889 78.970062 C 54.674999 77.746155 56.132851 76.606842 57.62608 75.4953 C 57.737686 75.411774 57.849293 75.328247 57.964287 75.242188 C 60.896488 73.055511 63.994484 71.141815 67.196098 69.37677 C 67.322594 69.306305 67.449097 69.23584 67.57943 69.163269 C 75.859047 64.576691 85.270279 61.716553 94.651077 60.591156 C 94.829224 60.567932 95.007362 60.544708 95.19091 60.520782 C 101.382019 59.730835 107.920067 59.744751 114.104889 60.591156 Z"/>
        <path id="path1" fill="#fdfefd" stroke="none" d="M 262.157074 176.520432 C 265.930481 179.890915 267.61908 184.592865 268.009644 189.551117 C 268.312225 194.921234 267.407837 200.64415 263.930634 204.925919 C 263.830719 205.049683 263.730835 205.173447 263.627899 205.300964 C 261.143585 208.234238 257.338196 209.938019 253.556564 210.367874 C 248.91571 210.692123 244.216705 210.085709 240.573669 206.946426 C 240.463852 206.849152 240.35405 206.751877 240.240906 206.651657 C 240.083466 206.527588 240.083466 206.527588 239.922836 206.401001 C 236.835236 203.912567 235.404526 199.763474 234.749908 195.983429 C 234.723587 195.83606 234.697281 195.68869 234.670166 195.536865 C 233.749939 190.067719 234.611618 183.736252 237.868011 179.128036 C 240.398804 175.694809 243.99794 173.66835 248.174042 172.986832 C 253.225113 172.405106 258.18277 173.178085 262.157074 176.520432 Z"/>
        <path id="path2" fill="#fdfefd" stroke="none" d="M 104.572021 172.738937 C 108.677246 172.563721 112.889709 173.231674 116.144402 175.902084 C 117.78466 177.42482 118.743851 179.237732 119.282112 181.393066 C 119.320129 181.530212 119.358147 181.667358 119.397316 181.808655 C 119.754128 183.185394 119.817261 184.499008 119.806206 185.910767 C 119.806068 186.152191 119.806145 186.393616 119.806412 186.63504 C 119.806549 187.283844 119.803802 187.932617 119.800491 188.581421 C 119.797523 189.261902 119.797272 189.942383 119.796715 190.622879 C 119.795258 191.908539 119.791405 193.194168 119.786667 194.479828 C 119.78138 195.944748 119.778816 197.409668 119.776459 198.874588 C 119.771545 201.885315 119.763283 204.896027 119.752769 207.906738 C 119.188995 208.194427 118.682205 208.439087 118.062576 208.572891 C 117.922073 208.603561 117.78157 208.634232 117.63681 208.665848 C 117.412544 208.712357 117.412544 208.712357 117.183769 208.759796 C 117.026985 208.793137 116.870209 208.826462 116.708672 208.860809 C 115.10331 209.19516 113.487663 209.461426 111.868347 209.717896 C 111.434883 209.789856 111.004021 209.871414 110.57251 209.954224 C 108.753716 210.283707 106.936455 210.297714 105.093773 210.29924 C 104.961212 210.299393 104.828636 210.299561 104.692062 210.299728 C 102.720131 210.298126 100.817619 210.223602 98.886986 209.789368 C 98.782883 209.768356 98.678787 209.747345 98.571533 209.725708 C 95.72541 209.147079 93.127197 207.634155 91.469238 205.215164 C 91.048454 204.518951 90.718124 203.79715 90.415169 203.043289 C 90.360153 202.914871 90.305153 202.786453 90.248474 202.654129 C 89.254379 199.982529 89.514778 196.429626 90.657234 193.872833 C 92.310822 190.618622 95.033524 188.552826 98.438393 187.388428 C 100.77623 186.63266 103.060455 186.534164 105.495796 186.531082 C 105.692543 186.530533 105.692543 186.530533 105.893265 186.529968 C 108.088303 186.527664 110.210899 186.677414 112.37915 187.040955 C 112.339622 186.468735 112.295998 185.896881 112.251678 185.325012 C 112.235138 185.08461 112.235138 185.08461 112.218277 184.83934 C 112.104332 183.412704 111.859741 181.974396 110.810295 180.922409 C 109.059105 179.56073 107.038475 179.249664 104.878059 179.294724 C 104.668167 179.297531 104.45829 179.300247 104.248405 179.302917 C 100.913155 179.364029 97.779861 179.941315 94.812866 181.51503 C 94.27224 181.733093 94.090965 181.758545 93.552879 181.549957 C 93.305405 181.12944 93.305405 181.12944 93.09877 180.572495 C 93.061577 180.473953 93.024376 180.375427 92.986053 180.273911 C 92.907997 180.06517 92.831474 179.855835 92.756386 179.645996 C 92.641922 179.326752 92.522575 179.009705 92.402283 178.692612 C 91.743965 176.915558 91.743965 176.915558 91.827133 176.05896 C 93.302742 174.589264 95.838921 174.055359 97.788788 173.548798 C 97.948357 173.505112 98.10791 173.461426 98.272316 173.416428 C 100.331276 172.908676 102.462349 172.844589 104.572021 172.738937 Z"/>
        <path id="path3" fill="#fdfefd" stroke="none" d="M 353.512299 175.588303 C 354.922455 176.835083 356.239716 178.145859 357.120667 179.824219 C 357.213074 179.987427 357.305511 180.150635 357.400726 180.318771 C 357.947296 181.331879 358.348175 182.327393 358.660095 183.432587 C 358.690674 183.540298 358.721222 183.647995 358.752716 183.758957 C 359.225586 185.556946 359.366791 187.361511 359.349365 189.215591 C 359.346436 189.534592 359.34613 189.853531 359.346161 190.172531 C 359.33371 192.985962 359.33371 192.985962 358.846405 193.473267 C 358.437836 193.511871 358.437836 193.511871 357.909302 193.510986 C 357.709564 193.511429 357.509827 193.511856 357.303986 193.512299 C 357.08136 193.511185 356.858765 193.510056 356.636139 193.508881 C 356.402679 193.508804 356.169281 193.50885 355.935822 193.509018 C 355.300842 193.509109 354.665924 193.507263 354.030945 193.505066 C 353.367828 193.503113 352.704681 193.50293 352.041595 193.502563 C 350.785339 193.501587 349.529053 193.499008 348.272827 193.495865 C 346.842865 193.492355 345.412872 193.490631 343.98291 193.489059 C 341.040802 193.485764 338.098755 193.480255 335.156677 193.473267 C 335.226135 193.969864 335.297546 194.466171 335.369324 194.962448 C 335.388763 195.101425 335.408142 195.240402 335.428162 195.383575 C 335.702423 197.262451 336.264832 198.960541 337.353088 200.533112 C 337.488983 200.741821 337.488983 200.741821 337.627625 200.954742 C 339.525574 202.905411 342.24469 203.805969 344.913605 203.890228 C 345.299103 203.892258 345.684601 203.890961 346.070038 203.886551 C 346.275116 203.884842 346.480133 203.883133 346.691406 203.881378 C 349.266113 203.839493 351.574158 203.519867 353.994934 202.625595 C 354.698273 202.367218 355.259338 202.193085 356.022461 202.25885 C 356.53656 203.237289 356.940155 204.230637 357.316772 205.269104 C 357.37381 205.421478 357.430847 205.573868 357.489594 205.730865 C 357.570282 205.952164 357.570282 205.952164 357.652618 206.177933 C 357.701202 206.31044 357.749786 206.442932 357.799835 206.579453 C 357.914093 206.998428 357.958252 207.318222 357.90509 207.749847 C 355.922729 209.360519 353.131927 209.735214 350.688354 210.103134 C 350.522858 210.130936 350.3573 210.158752 350.186798 210.187393 C 349.472839 210.274292 348.774078 210.285461 348.055634 210.286377 C 347.836487 210.287155 347.836487 210.287155 347.612915 210.287949 C 347.304413 210.288742 346.99588 210.289124 346.687317 210.289093 C 346.2229 210.289444 345.758575 210.292282 345.294189 210.295258 C 343.082214 210.302078 340.936249 210.206985 338.80426 209.554031 C 338.674042 209.514374 338.543854 209.474716 338.409698 209.433838 C 336.311829 208.75621 334.260986 207.695084 332.646515 206.181 C 332.429596 205.979874 332.429596 205.979874 332.208344 205.774689 C 329.047424 202.770996 328.001038 199.067596 327.312408 194.885239 C 327.281464 194.710495 327.250519 194.535782 327.218628 194.355743 C 326.637939 189.123962 327.579407 183.330673 330.763885 179.039795 C 331.210693 178.49118 331.683411 177.978531 332.175842 177.470932 C 332.269897 177.365372 332.363922 177.259796 332.460815 177.151031 C 337.40625 171.789047 347.80838 171.113953 353.512299 175.588303 Z"/>
        <path id="path4" fill="#fdfefd" stroke="none" d="M 167.928909 175.804642 C 168.08017 175.940338 168.231445 176.07605 168.387299 176.215851 C 168.538574 176.34993 168.68985 176.484024 168.845703 176.622162 C 169.960297 177.670563 170.779419 178.813385 171.525009 180.137985 C 171.6138 180.295532 171.702576 180.453064 171.794052 180.615387 C 172.569672 182.140945 172.919022 183.8022 173.250763 185.472092 C 173.293518 185.684769 173.293518 185.684769 173.337158 185.901733 C 173.425247 186.541138 173.43309 187.166031 173.43399 187.810669 C 173.434509 187.942917 173.435043 188.075165 173.435577 188.211411 C 173.436371 188.489883 173.436737 188.768356 173.436707 189.046844 C 173.437057 189.471329 173.439911 189.895752 173.442886 190.320236 C 173.443344 190.591721 173.443649 190.863205 173.443802 191.134689 C 173.444931 191.260712 173.44606 191.386734 173.447205 191.516586 C 173.446732 191.635971 173.446243 191.755356 173.445755 191.878357 C 173.445984 191.982117 173.446198 192.085892 173.446426 192.19281 C 173.407639 192.531952 173.407639 192.531952 173.093872 193.473267 C 165.276276 193.473267 157.458649 193.473267 149.404144 193.473267 C 149.795425 196.6035 150.222504 199.776108 152.824982 201.870926 C 156.407242 204.273972 161.113846 204.246887 165.233658 203.534775 C 166.269073 203.325104 167.265198 202.988251 168.256073 202.625595 C 168.385132 202.578384 168.514175 202.531189 168.647141 202.482544 C 168.816574 202.418015 168.816574 202.418015 168.98941 202.352203 C 169.385071 202.243332 169.70459 202.218658 170.113037 202.25885 C 170.803299 203.02948 171.076614 204.029892 171.407349 204.994553 C 171.464386 205.153198 171.521408 205.311859 171.58017 205.475311 C 171.872604 206.318008 172.07103 207.013824 171.995667 207.906738 C 166.520889 210.97641 159.003387 211.118027 153.041931 209.560165 C 149.094757 208.443954 145.776337 205.9422 143.741516 202.376373 C 140.835953 197.095016 140.648254 190.30365 142.241959 184.578552 C 143.251785 181.19072 145.132172 177.983246 148.060806 175.91188 C 148.153687 175.846039 148.246567 175.780197 148.342255 175.712372 C 149.865921 174.662903 151.526993 173.836411 153.326294 173.391907 C 153.582321 173.314255 153.582321 173.314255 153.843521 173.235016 C 158.450134 171.991043 164.222839 172.640305 167.928909 175.804642 Z"/>
        <path id="path5" fill="#fdfefd" stroke="none" d="M 232.760498 157.988052 C 233.081299 157.987701 233.402008 157.984848 233.722794 157.981888 C 235.256104 157.975235 236.687012 158.118622 238.152359 158.585831 C 238.282394 158.626678 238.41243 158.667526 238.546417 158.709625 C 238.686249 158.755127 238.686249 158.755127 238.828934 158.801544 C 239.054047 159.528351 238.897171 159.974075 238.634659 160.675598 C 238.577988 160.828964 238.577988 160.828964 238.520172 160.985428 C 238.440216 161.200684 238.359329 161.415588 238.277573 161.630157 C 238.152618 161.958206 238.030441 162.28717 237.908768 162.61644 C 237.312439 164.214005 237.312439 164.214005 236.946304 164.763199 C 236.287003 164.833328 235.728928 164.742905 235.083282 164.606308 C 233.084045 164.226303 231.132889 164.244034 229.349609 165.30249 C 227.657242 166.483734 227.064575 168.164474 226.591858 170.097305 C 226.507492 170.394913 226.422562 170.692352 226.336914 170.989594 C 226.179489 171.569153 226.05542 172.146683 225.950836 172.738007 C 225.92366 172.890671 225.896484 173.04332 225.868484 173.200592 C 225.838257 173.372955 225.838257 173.372955 225.807434 173.548798 C 225.904999 173.548111 226.002579 173.547394 226.103119 173.546692 C 227.115952 173.539749 228.128784 173.535004 229.141632 173.531555 C 229.519958 173.529968 229.898285 173.527847 230.276596 173.525116 C 230.819458 173.521332 231.362274 173.519531 231.905136 173.518158 C 232.075089 173.516525 232.245056 173.514923 232.420181 173.513245 C 232.577194 173.513214 232.734222 173.513199 232.896011 173.513168 C 233.034653 173.512482 233.173309 173.51178 233.316177 173.511063 C 233.651703 173.548798 233.651703 173.548798 233.965485 173.862564 C 233.971802 174.204865 233.971802 174.204865 233.924423 174.627991 C 233.898529 174.860397 233.898529 174.860397 233.872101 175.097504 C 233.769806 175.888046 233.655212 176.67482 233.524231 177.461121 C 233.500275 177.620178 233.476303 177.779251 233.451614 177.943115 C 233.426025 178.096115 233.400452 178.2491 233.3741 178.406738 C 233.34108 178.612091 233.34108 178.612091 233.307404 178.821579 C 233.145981 179.300766 232.941956 179.502792 232.553513 179.824219 C 232.174286 179.899689 232.174286 179.899689 231.747787 179.895462 C 231.507568 179.895386 231.507568 179.895386 231.262497 179.895309 C 231.090729 179.892075 230.918945 179.88884 230.741974 179.885498 C 230.565262 179.884613 230.38855 179.883713 230.206512 179.882813 C 229.642166 179.879303 229.077988 179.871429 228.513702 179.863434 C 228.131088 179.860291 227.748489 179.857422 227.36586 179.854858 C 226.427979 179.847946 225.490173 179.837448 224.552338 179.824219 C 224.557098 179.976364 224.561844 180.12851 224.566742 180.285263 C 224.565964 180.983429 224.448639 181.646439 224.321915 182.331329 C 224.285294 182.535583 224.285294 182.535583 224.24794 182.743988 C 224.167267 183.192673 224.085251 183.641098 224.00325 184.089539 C 223.94574 184.408157 223.888306 184.726791 223.830963 185.045456 C 223.553314 186.585434 223.271347 188.124634 222.989609 189.663879 C 222.914642 190.073761 222.839676 190.483627 222.764786 190.893524 C 222.714203 191.170212 222.663589 191.446915 222.612915 191.723602 C 222.139786 194.310562 221.692093 196.901672 221.24794 199.493744 C 220.682861 202.790512 220.106247 206.084396 219.483902 209.37088 C 219.386856 209.884201 219.291397 210.397797 219.196167 210.911469 C 218.310516 215.6091 216.74614 221.092621 212.698898 224.04451 C 209.328461 226.273956 205.06662 226.800949 201.117554 226.066238 C 199.094055 225.59198 199.094055 225.59198 198.509338 225.007263 C 198.558594 223.786133 199.011261 222.708099 199.440842 221.575394 C 199.548096 221.284775 199.548096 221.284775 199.657486 220.988297 C 200.192886 219.558456 200.192886 219.558456 200.548843 219.202499 C 201.031662 219.246399 201.438644 219.338623 201.888504 219.519943 C 202.630051 219.729187 203.331207 219.733292 204.098389 219.731995 C 204.328766 219.731598 204.328766 219.731598 204.563797 219.731216 C 205.939178 219.707947 207.017426 219.484741 208.216629 218.780869 C 209.362015 217.534424 210.069687 216.011246 210.589523 214.417496 C 210.626328 214.309494 210.663147 214.201508 210.701065 214.09024 C 211.4897 211.707352 211.912781 209.260284 212.333694 206.792084 C 212.504288 205.792175 212.677963 204.792786 212.851501 203.793396 C 212.886078 203.593796 212.920685 203.394211 212.956329 203.188568 C 213.254486 201.473724 213.570618 199.762634 213.893921 198.052368 C 214.398758 195.377716 214.867371 192.697586 215.327576 190.014938 C 215.785187 187.348846 216.264282 184.688278 216.77356 182.03157 C 216.91304 181.296585 217.046448 180.560532 217.178726 179.824219 C 216.931671 179.826691 216.931671 179.826691 216.679642 179.829193 C 216.069763 179.834869 215.459854 179.83847 214.849945 179.841446 C 214.585754 179.843033 214.321579 179.845184 214.057404 179.847885 C 213.678101 179.851685 213.298828 179.85347 212.919525 179.854858 C 212.801041 179.856476 212.682541 179.858093 212.560455 179.859756 C 212.269302 179.859833 211.978241 179.843384 211.687729 179.824219 C 211.373947 179.510452 211.373947 179.510452 211.331665 179.075943 C 211.359894 178.128159 211.564087 177.194489 211.736755 176.264877 C 211.770233 176.073059 211.80368 175.881241 211.838181 175.683609 C 211.872055 175.499466 211.90593 175.315323 211.940826 175.12561 C 211.971222 174.958435 212.001633 174.791245 212.032944 174.618988 C 212.170792 174.132568 212.243103 173.879028 212.629044 173.548798 C 213.076996 173.492981 213.463547 173.475555 213.910477 173.487503 C 214.035172 173.488388 214.159866 173.489288 214.288345 173.490189 C 214.686462 173.493713 215.084335 173.501587 215.482391 173.509567 C 215.75235 173.512711 216.022308 173.515579 216.292252 173.518158 C 216.953888 173.52507 217.615372 173.535904 218.276917 173.548798 C 218.299637 173.358582 218.322342 173.16835 218.345749 172.972382 C 218.92514 168.347763 220.496185 163.665878 224.116623 160.547516 C 226.718445 158.553162 229.53595 157.987671 232.760498 157.988052 Z"/>
        <path id="path6" fill="#fdfefd" stroke="none" d="M 204.470993 175.902084 C 204.626297 176.057388 204.626297 176.057388 204.78476 176.215851 C 204.729492 176.974167 204.540359 177.633224 204.274887 178.342377 C 204.205307 178.529236 204.135742 178.71611 204.064072 178.908646 C 203.991257 179.100769 203.918457 179.292892 203.843445 179.490829 C 203.769806 179.688553 203.696274 179.886292 203.622818 180.084061 C 203.082184 181.526779 203.082184 181.526779 202.90213 181.706848 C 202.037354 181.642258 201.377029 181.394592 200.607681 181.030273 C 198.814484 180.216446 196.990906 179.723114 195.057846 179.353561 C 194.895264 179.320999 194.732666 179.288452 194.56514 179.254898 C 192.201523 178.830276 189.827927 178.70697 187.772476 180.108566 C 187.021149 180.733398 186.637466 181.252472 186.527206 182.226532 C 186.489624 183.334702 186.493347 184.137177 187.213577 185.001434 C 188.764374 186.532318 191.166992 187.195679 193.198471 187.83873 C 200.699112 190.221954 200.699112 190.221954 203.529678 193.002609 C 203.620071 193.090988 203.71048 193.179367 203.803604 193.270416 C 205.291779 194.859085 205.780975 196.823181 205.765289 198.934845 C 205.766495 199.096329 205.767731 199.257813 205.768967 199.424194 C 205.761734 202.288116 204.777557 204.896622 202.804077 206.994843 C 199.721161 209.928955 195.957596 210.451782 191.910339 210.475739 C 191.791428 210.477005 191.672516 210.478256 191.550003 210.479553 C 187.58696 210.511353 183.816345 209.500061 180.310608 207.661606 C 180.201736 207.604538 180.092865 207.54747 179.980667 207.488663 C 179.263733 207.102509 178.611664 206.665787 177.957321 206.181 C 178.039352 205.021301 178.40094 204.011978 178.800583 202.925613 C 178.863281 202.749466 178.925964 202.573334 178.990555 202.391846 C 179.506546 200.971191 179.506546 200.971191 179.996841 200.376236 C 180.836075 200.453598 181.461594 200.909515 182.163818 201.337158 C 185.833588 203.503601 190.365326 205.090134 194.675446 204.112061 C 195.982147 203.723495 197.149033 203.139114 197.88179 201.945084 C 198.301453 200.91687 198.298523 199.902008 198.195572 198.807373 C 197.983185 198.246674 197.983185 198.246674 197.568024 197.866058 C 197.493607 197.788208 197.419174 197.710342 197.342499 197.630112 C 196.055618 196.395828 194.176651 195.915359 192.528076 195.355896 C 192.325073 195.286285 192.12207 195.21666 191.919067 195.147034 C 190.867432 194.788177 189.813461 194.44873 188.74321 194.149826 C 185.296768 193.175095 181.936859 191.588211 179.996841 188.452927 C 178.909378 186.158997 178.608994 183.21492 179.369293 180.765533 C 179.432404 180.557129 179.432404 180.557129 179.496765 180.344513 C 180.350876 177.778595 182.134033 175.614471 184.531738 174.329926 C 190.701096 171.268631 198.716721 172.46492 204.470993 175.902084 Z"/>
        <path id="path7" fill="#fdfefd" stroke="none" d="M 84.296631 175.902084 C 84.451942 176.057388 84.451942 176.057388 84.610397 176.215851 C 84.555122 176.974167 84.366005 177.633224 84.100517 178.342377 C 84.030952 178.529236 83.96138 178.71611 83.889709 178.908646 C 83.816902 179.100769 83.744102 179.292892 83.669083 179.490829 C 83.595451 179.688553 83.521912 179.886292 83.448463 180.084061 C 82.907837 181.526779 82.907837 181.526779 82.727776 181.706848 C 81.900352 181.643509 81.240311 181.405228 80.501961 181.049881 C 77.268448 179.577347 72.5896 178.134094 69.059113 179.294724 C 67.796265 179.852554 66.955849 180.487991 66.387772 181.772415 C 66.098526 182.653488 66.128914 183.396332 66.499916 184.246429 C 67.937508 186.746155 71.744278 187.447861 74.272308 188.263748 C 77.264038 189.233643 80.325394 190.273468 82.727776 192.375061 C 82.832733 192.464645 82.937698 192.554245 83.04583 192.646545 C 84.572701 194.053131 85.458435 195.96405 85.569023 198.033096 C 85.649086 201.167343 85.255028 204.103638 83.041542 206.494766 C 82.946701 206.601959 82.851845 206.709137 82.754128 206.819565 C 80.67659 209.045197 77.413261 210.266068 74.408798 210.434753 C 74.079567 210.445053 73.750641 210.450821 73.421272 210.454285 C 73.239388 210.456604 73.239388 210.456604 73.053833 210.458939 C 70.423706 210.485413 67.869308 210.493423 65.313469 209.789368 C 65.190056 209.755737 65.066643 209.722122 64.939491 209.687485 C 62.628586 209.034424 59.519096 207.91713 57.782963 206.181 C 57.730644 205.456985 57.857845 204.919617 58.109604 204.24321 C 58.212589 203.965347 58.212589 203.965347 58.317661 203.681854 C 58.390369 203.49054 58.463066 203.299225 58.537975 203.102112 C 58.60886 202.909592 58.679741 202.717072 58.752773 202.518692 C 59.336163 200.961853 59.336163 200.961853 59.822475 200.376236 C 60.661739 200.453598 61.287209 200.909546 61.98946 201.337158 C 64.388443 202.752167 66.658478 203.58876 69.392494 204.141479 C 69.544983 204.173431 69.697472 204.205383 69.854576 204.238312 C 70.576324 204.328766 71.293587 204.333664 72.020332 204.337585 C 72.167557 204.34082 72.314789 204.34407 72.466476 204.347397 C 74.123184 204.356552 75.802025 203.924805 77.052315 202.781601 C 77.984673 201.758942 78.11351 200.699982 78.089226 199.342987 C 77.966278 198.374878 77.501595 197.919373 76.791245 197.301025 C 75.80616 196.563629 74.645348 196.188324 73.49527 195.78801 C 73.162933 195.671478 72.832397 195.550797 72.502022 195.428818 C 71.377945 195.017563 70.256538 194.658051 69.098335 194.355743 C 65.604637 193.428635 61.847507 191.767502 59.922367 188.56813 C 58.731056 186.389343 58.484207 183.529984 59.087074 181.11853 C 59.122669 181.002029 59.15826 180.885544 59.194935 180.765533 C 59.237 180.626389 59.279064 180.487259 59.322403 180.343903 C 60.290058 177.440948 62.298038 175.466522 64.970284 174.05867 C 70.799767 171.252823 78.918411 172.615387 84.296631 175.902084 Z"/>
        <path id="path8" fill="#fdfefd" stroke="none" d="M 324.645355 174.490112 C 324.570496 175.715164 324.146393 176.781509 323.713837 177.921982 C 323.606598 178.212601 323.606598 178.212601 323.497192 178.509079 C 322.961823 179.938919 322.961823 179.938919 322.605835 180.294876 C 322.314728 180.273422 322.314728 180.273422 321.948883 180.187012 C 321.809967 180.155869 321.67099 180.124725 321.527863 180.092636 C 321.365875 180.055832 321.203857 180.019028 321.036987 179.98111 C 320.631866 179.898315 320.226654 179.816559 319.821106 179.735962 C 319.531097 179.677429 319.531097 179.677429 319.23526 179.617691 C 316.006897 178.98996 312.122131 178.931244 309.270569 180.765533 C 306.728149 182.672333 305.461365 185.536758 304.984924 188.617508 C 304.509308 192.37796 304.619934 196.919708 306.995728 200.082062 C 307.175079 200.287964 307.357941 200.490891 307.54483 200.690002 C 307.626312 200.785461 307.707825 200.880905 307.791779 200.979263 C 309.35257 202.702545 311.738647 203.557953 314.019348 203.703568 C 314.587433 203.718567 315.154205 203.722336 315.722473 203.719849 C 315.923676 203.719315 316.124817 203.718765 316.332092 203.718201 C 318.222382 203.696548 319.896271 203.458984 321.681061 202.820831 C 322.173523 202.66954 322.570221 202.648499 323.076477 202.729507 C 323.662964 203.549271 323.944305 204.524933 324.282562 205.46521 C 324.347778 205.640854 324.412994 205.816498 324.480194 205.997452 C 324.541779 206.167847 324.603363 206.338211 324.666809 206.513763 C 324.722961 206.668167 324.779114 206.822556 324.836975 206.981628 C 324.967041 207.465607 324.981171 207.87854 324.959106 208.377396 C 321.778687 210.047394 318.111206 210.29512 314.575256 210.309052 C 314.300323 210.310349 314.300323 210.310349 314.019836 210.311691 C 309.138336 210.271164 304.873474 208.675369 301.406067 205.220688 C 297.702209 201.270386 296.692505 195.533737 296.857605 190.319931 C 297.073334 185.153183 298.931488 180.447495 302.664825 176.801712 C 307.671265 172.250107 318.817444 170.604828 324.645355 174.490112 Z"/>
        <path id="path9" fill="#fcfefd" stroke="none" d="M 128.421661 158.586258 C 128.622681 158.584778 128.622681 158.584778 128.827759 158.583282 C 128.971909 158.584732 129.116058 158.586182 129.264572 158.587662 C 129.412903 158.587585 129.561218 158.587509 129.71405 158.587433 C 130.027512 158.587799 130.340988 158.58931 130.654449 158.591919 C 131.135468 158.595612 131.616364 158.595139 132.097397 158.594101 C 132.401672 158.594986 132.705948 158.5961 133.010208 158.597473 C 133.154678 158.597336 133.299149 158.597183 133.447983 158.597031 C 133.581512 158.598526 133.715027 158.600037 133.8526 158.601578 C 133.970322 158.602295 134.088043 158.603012 134.209335 158.60376 C 134.500015 158.644669 134.500015 158.644669 134.813782 158.958435 C 134.853119 159.319946 134.853119 159.319946 134.853271 159.782654 C 134.854095 159.958527 134.854904 160.134369 134.855743 160.315552 C 134.854706 160.607788 134.854706 160.607788 134.853638 160.90593 C 134.854126 161.111633 134.854614 161.317307 134.855118 161.529251 C 134.85643 162.102127 134.855774 162.674988 134.854813 163.247849 C 134.854095 163.864944 134.855194 164.48201 134.856049 165.099075 C 134.857452 166.30867 134.857147 167.51825 134.856232 168.727859 C 134.85553 169.710556 134.855438 170.693253 134.855774 171.675934 C 134.85582 171.815582 134.855865 171.955215 134.855927 172.099075 C 134.856018 172.382706 134.856125 172.666336 134.856232 172.949966 C 134.857132 175.612213 134.856094 178.27446 134.854401 180.936707 C 134.853012 183.223145 134.853241 185.509598 134.854691 187.796036 C 134.856369 190.448486 134.857025 193.100922 134.856079 195.753372 C 134.855972 196.03598 134.855865 196.318588 134.855774 196.601196 C 134.855728 196.740265 134.855682 196.879333 134.855637 197.022614 C 134.855362 198.004608 134.85582 198.986603 134.856552 199.968613 C 134.857437 201.164642 134.857208 202.360657 134.85553 203.556702 C 134.854691 204.167435 134.854385 204.778152 134.855408 205.388885 C 134.856506 206.049667 134.855194 206.710434 134.853638 207.371216 C 134.854324 207.56604 134.855026 207.760864 134.855743 207.961594 C 134.854523 208.225372 134.854523 208.225372 134.853271 208.494476 C 134.853226 208.647171 134.853165 208.799866 134.853119 208.957199 C 134.813782 209.31871 134.813782 209.31871 134.500015 209.632477 C 134.209335 209.67337 134.209335 209.67337 133.8526 209.675568 C 133.71907 209.677063 133.585556 209.678558 133.447983 209.680099 C 133.303528 209.679947 133.159058 209.679825 133.010208 209.679672 C 132.862045 209.680344 132.713867 209.681015 132.561203 209.681702 C 132.247452 209.682602 131.933701 209.682678 131.619965 209.682007 C 131.139252 209.681503 130.658691 209.685181 130.178009 209.689163 C 129.873535 209.689514 129.569046 209.689636 129.264572 209.689468 C 129.04834 209.691635 129.04834 209.691635 128.827759 209.693863 C 128.693741 209.692871 128.559723 209.691895 128.421661 209.690887 C 128.303802 209.690979 128.185959 209.691086 128.064529 209.691193 C 127.654602 209.613708 127.537506 209.490631 127.283279 209.161819 C 127.224281 208.78302 127.224281 208.78302 127.224052 208.323624 C 127.222816 208.148651 127.221596 207.973663 127.220329 207.793396 C 127.221382 207.600357 127.222435 207.407318 127.223511 207.208435 C 127.222778 207.003998 127.222046 206.799561 127.221291 206.588928 C 127.219315 206.020279 127.220299 205.45166 127.221756 204.883011 C 127.222816 204.270218 127.221169 203.65744 127.219879 203.044647 C 127.217781 201.843719 127.218239 200.642792 127.219604 199.441864 C 127.220665 198.466125 127.22081 197.490402 127.220299 196.514664 C 127.220222 196.375977 127.220154 196.237274 127.220078 196.094376 C 127.219925 195.812637 127.219772 195.530914 127.21962 195.249176 C 127.218277 192.605331 127.219818 189.961487 127.222351 187.317627 C 127.224457 185.047455 127.224091 182.777313 127.221916 180.507141 C 127.219398 177.872971 127.218407 175.2388 127.219849 172.60463 C 127.220001 172.323914 127.220146 172.043198 127.220299 171.762482 C 127.220367 171.624344 127.220444 171.486221 127.22052 171.343887 C 127.220924 170.368973 127.22023 169.394043 127.219131 168.419098 C 127.217812 167.231522 127.218163 166.043945 127.220673 164.856354 C 127.221916 164.250046 127.222389 163.643768 127.22084 163.03746 C 127.219193 162.381195 127.221153 161.724976 127.223511 161.06871 C 127.222466 160.875671 127.221413 160.682648 127.220329 160.483765 C 127.221558 160.308777 127.222794 160.133789 127.224052 159.953506 C 127.224129 159.801926 127.224205 159.65033 127.224281 159.494125 C 127.33712 158.769623 127.733337 158.585678 128.421661 158.586258 Z"/>
        <path id="path10" fill="#01a1e0" stroke="none" d="M 251.085617 179.147644 C 251.24762 179.147156 251.409592 179.146637 251.576492 179.146118 C 252.508194 179.152649 253.311905 179.240555 254.20372 179.510452 C 254.339218 179.549469 254.474701 179.588501 254.614319 179.628723 C 256.567749 180.328308 257.882507 181.94191 258.77301 183.756165 C 260.697937 188.130035 260.781647 193.798447 259.257751 198.318329 C 258.335449 200.684937 257.078552 202.589081 254.735046 203.710052 C 252.653809 204.503952 249.80658 204.511581 247.722382 203.721695 C 245.261688 202.509232 244.049164 200.502731 243.172699 197.983719 C 241.762787 193.422592 241.868744 187.431381 244.04538 183.128616 C 245.162613 181.198212 246.590912 179.911316 248.74295 179.290787 C 249.522156 179.124283 250.292038 179.135162 251.085617 179.147644 Z"/>
        <path id="path11" fill="#fdfefd" stroke="none" d="M 293.395691 173.362488 C 293.62207 173.401352 293.62207 173.401352 293.852997 173.440979 C 294.064972 173.481308 294.064972 173.481308 294.28125 173.522446 C 294.47049 173.558182 294.47049 173.558182 294.663544 173.594635 C 295.055969 173.726517 295.234894 173.82991 295.46463 174.176331 C 295.41684 174.803223 295.170959 175.386993 294.960266 175.976227 C 294.891388 176.169067 294.82254 176.361893 294.751587 176.560562 C 294.715698 176.660141 294.67984 176.759705 294.642853 176.862274 C 294.533356 177.166336 294.424866 177.470749 294.316498 177.775208 C 293.733246 179.401978 293.733246 179.401978 293.42511 179.98111 C 293.278961 179.977814 293.132813 179.974533 292.982239 179.971146 C 292.429871 179.960327 291.877625 179.952515 291.325195 179.946625 C 291.088013 179.943512 290.850861 179.939255 290.613708 179.933762 C 288.146179 179.878067 286.160065 180.292374 284.296936 182.025513 C 281.775726 184.656342 281.639679 188.279465 281.63147 191.721283 C 281.630402 191.909058 281.629364 192.096832 281.628296 192.290314 C 281.625519 192.797485 281.623413 193.304642 281.62146 193.811829 C 281.619141 194.345306 281.615784 194.878799 281.612457 195.412277 C 281.601379 197.223373 281.591888 199.034454 281.583893 200.845551 C 281.579437 201.849869 281.573914 202.854172 281.567169 203.858475 C 281.56366 204.388519 281.56073 204.918533 281.559235 205.448593 C 281.557343 206.037399 281.553558 206.62616 281.549347 207.214966 C 281.549255 207.390259 281.549164 207.565567 281.549042 207.74617 C 281.547546 207.906006 281.546021 208.065842 281.544434 208.23053 C 281.543762 208.369537 281.543121 208.50856 281.542419 208.651794 C 281.501801 209.004944 281.501801 209.004944 281.188049 209.475586 C 280.89035 209.53537 280.89035 209.53537 280.523743 209.536499 C 280.386566 209.537979 280.24939 209.539459 280.108063 209.541 C 279.959686 209.540039 279.811279 209.539078 279.658417 209.538101 C 279.506378 209.538559 279.35434 209.539001 279.197693 209.539459 C 278.875916 209.539795 278.554108 209.53891 278.23233 209.536957 C 277.738525 209.534439 277.244934 209.536926 276.751129 209.539948 C 276.438965 209.539627 276.126862 209.539017 275.814697 209.538101 C 275.666321 209.539063 275.517914 209.540009 275.365051 209.541 C 275.227875 209.539505 275.090698 209.538025 274.949402 209.536499 C 274.8284 209.536118 274.707428 209.535751 274.582764 209.53537 C 274.285065 209.475586 274.285065 209.475586 273.971313 209.004944 C 273.940826 208.537186 273.929047 208.084122 273.931458 207.616318 C 273.930969 207.472626 273.930481 207.328934 273.929962 207.180893 C 273.928711 206.697418 273.929718 206.213989 273.930695 205.73053 C 273.930267 205.384735 273.929718 205.038956 273.929047 204.693161 C 273.927612 203.752533 273.928162 202.811905 273.929138 201.871277 C 273.929962 200.88858 273.929199 199.905884 273.928711 198.923187 C 273.928131 197.167053 273.929108 195.410934 273.930695 193.6548 C 273.932068 192.061478 273.931854 190.468155 273.930389 188.874817 C 273.928711 187.025681 273.928101 185.176544 273.929016 183.327393 C 273.929504 182.348129 273.929565 181.368851 273.928528 180.389572 C 273.927643 179.469269 273.928253 178.548965 273.930084 177.628647 C 273.930481 177.290039 273.930359 176.951401 273.929657 176.612793 C 273.928833 176.152267 273.929871 175.691803 273.931458 175.231277 C 273.930756 175.095764 273.930054 174.960266 273.929352 174.820648 C 273.935486 173.898376 273.935486 173.898376 274.285065 173.548798 C 274.57785 173.51001 274.57785 173.51001 274.937469 173.510681 C 275.139282 173.509949 275.139282 173.509949 275.345154 173.509232 C 275.490601 173.510345 275.636047 173.511475 275.785919 173.512634 C 275.934814 173.512711 276.08374 173.512787 276.237183 173.512848 C 276.552246 173.513321 276.86731 173.514572 277.182373 173.51651 C 277.666473 173.519379 278.150543 173.51973 278.634674 173.519684 C 278.940155 173.520447 279.245667 173.521362 279.551147 173.522446 C 279.769806 173.522705 279.769806 173.522705 279.992889 173.52298 C 280.126923 173.523972 280.260956 173.524963 280.399048 173.526001 C 280.517609 173.526596 280.636139 173.527191 280.758301 173.527817 C 281.031158 173.548798 281.031158 173.548798 281.188049 173.705673 C 281.212585 173.938889 281.227386 174.173126 281.237671 174.407379 C 281.244263 174.548447 281.250824 174.689484 281.257599 174.834824 C 281.263763 174.98317 281.269928 175.131516 281.276276 175.284348 C 281.283081 175.433273 281.289856 175.58223 281.296814 175.735687 C 281.313507 176.104904 281.329529 176.474121 281.34494 176.843384 C 281.421387 176.756027 281.497803 176.668655 281.576569 176.578644 C 282.582306 175.496109 283.656647 174.845184 284.953308 174.176331 C 285.072418 174.110001 285.191528 174.043671 285.31424 173.975327 C 287.744019 172.729782 290.798157 172.911163 293.395691 173.362488 Z"/>
        <path id="path12" fill="#01a1e0" stroke="none" d="M 105.995865 192.335846 C 106.265694 192.330994 106.265694 192.330994 106.540985 192.326035 C 108.540894 192.317444 110.343178 192.601395 112.37915 192.845718 C 112.37915 196.366241 112.37915 199.886749 112.37915 203.513947 C 109.785942 204.069626 109.785942 204.069626 108.643311 204.170898 C 108.50676 204.18306 108.370216 204.195221 108.22953 204.207748 C 101.428978 204.753418 101.428978 204.753418 98.886986 202.729507 C 97.816841 201.739227 97.370163 200.590622 97.280746 199.143814 C 97.237793 197.469986 97.358429 196.193787 98.445747 194.846008 C 100.446594 192.756882 103.218964 192.34758 105.995865 192.335846 Z"/>
        <path id="path13" fill="#01a1e0" stroke="none" d="M 348.462555 180.236038 C 350.187897 181.594742 351.0354 183.235321 351.629669 185.315216 C 351.707336 186.557739 351.707336 186.557739 351.78656 187.825378 C 346.350494 187.825378 340.914368 187.825378 335.313568 187.825378 C 335.591949 185.041763 336.516571 182.54213 338.608154 180.608643 C 341.325104 178.471329 345.581726 178.297165 348.462555 180.236038 Z"/>
        <path id="path14" fill="#01a1e0" stroke="none" d="M 162.386429 180.09877 C 162.612244 180.263962 162.834641 180.43396 163.053192 180.608643 C 163.159363 180.691559 163.265533 180.774475 163.374924 180.859909 C 165.033188 182.321747 165.797913 184.585007 166.034012 186.727188 C 166.034012 187.089584 166.034012 187.451996 166.034012 187.825378 C 160.597931 187.825378 155.16185 187.825378 149.561035 187.825378 C 149.561035 186.586823 149.561035 186.586823 149.699539 186.097183 C 149.730026 185.989212 149.760513 185.881226 149.791916 185.769974 C 149.825745 185.658737 149.859573 185.547485 149.894409 185.432877 C 149.929855 185.315872 149.965286 185.198868 150.001816 185.078308 C 150.761047 182.675201 152.239044 180.804092 154.434296 179.549667 C 156.899567 178.50061 160.116013 178.702179 162.386429 180.09877 Z"/>
    </g>
</svg>
