<?xml version="1.0" encoding="UTF-8"?>
<!-- Generated by Pixelmator Pro 3.2.3 -->
<svg width="400" height="400" viewBox="0 0 400 400" xmlns="http://www.w3.org/2000/svg" xmlns:xlink="http://www.w3.org/1999/xlink">
    <path id="Path-copy" fill="#2174ea" fill-rule="evenodd" stroke="none" d="M 207.682251 370.784088 C 207.141068 358.490967 214.565384 364.381622 218.322479 362.187531 C 230.375305 355.034698 238.43071 334.29541 253.549026 333.123169 C 259.229614 321.251953 268.638 320.859344 278.796661 312.594818 C 283.215118 309.078033 285.048737 301.112549 288.986542 297.595764 L 338.760834 252.871887 C 340.593536 251.217133 342.577576 249.775208 344.712036 248.573593 C 349.790924 245.597992 353.548035 238.775391 359.469879 237.513245 C 365.87146 236.040115 381.050293 248.092941 394.96701 265.014587 C 406.087891 286.715179 395.297211 291.314331 387.993073 299.54953 C 375.640289 313.526764 354.569855 327.773682 339.662506 337.181122 C 328.300385 344.513702 317.059357 352.629639 304.766205 357.439758 C 292.141907 362.337952 280.780701 368.951416 267.856476 371.686676 C 258.418762 373.609283 247.32724 370.813446 238.129852 371.686676 C 227.971161 372.589264 217.751953 372.288422 207.682251 370.784088 Z M -0.251007 377.215942 C 0.56077 362.910339 13.755587 364.172485 21.239529 358.580841 C 44.984695 340.787781 65.483673 308.718475 94.728745 296.034576 C 109.156357 276.735382 127.220001 269.342224 149.402161 251.549194 C 158.990295 243.884552 165.692734 232.163773 174.710342 224.678909 C 213.604095 192.127106 251.084335 162.822418 291.15036 131.382324 C 295.237671 128.164581 299.867096 124.979858 304.735931 121.853821 C 315.976959 114.640472 327.308838 102.796783 339.030518 97.658264 C 351.83551 92.006104 371.041138 101.475922 384.506561 118.757141 C 390.308228 144.03688 369.508392 155.095398 352.43631 169.854141 C 323.732422 194.741302 280.600006 224.708267 250.543152 245.566803 C 227.55014 261.55835 204.797455 278.720337 181.292618 292.457245 C 157.186966 306.553741 134.94519 322.242584 110.899155 334.324768 C 93.316162 343.132324 73.718849 347.459961 56.466068 355.245667 C 37.9814 363.631287 19.045439 370.963898 -0.251007 377.215942 Z M 3.65653 230.89978 C 0.59104 218.366318 11.290903 219.96051 15.739625 215.390717 C 29.866381 200.903473 38.943607 173.581894 59.592098 164.774353 C 67.197121 148.784637 80.121346 143.824066 94.698471 130.509094 C 100.950531 124.678986 104.526939 115.091766 110.538673 109.410248 C 136.687988 85.214691 163.258316 64.805603 192.533661 44.187378 C 195.746826 41.987793 199.111343 40.019348 202.602448 38.294891 C 210.928436 34.027802 219.314041 25.790771 228.24176 23.747131 C 238.099579 21.523682 253.249084 34.779938 264.129639 53.803955 C 269.509399 78.181122 254.480957 82.899536 242.548294 92.338165 C 222.470352 108.058197 192.773987 126.392426 172.575867 140.00827 C 157.006256 150.318298 142.278702 162.339935 126.499039 171.327271 C 110.328621 180.644821 96.26149 192.127106 80.151611 200.422821 C 68.459267 206.553802 54.182083 208.777252 42.550282 214.48996 C 30.136972 220.620941 17.302639 226.12085 3.65653 230.89978 Z"/>
</svg>
