<?xml version="1.0" encoding="UTF-8"?>

<svg width="400" height="400" viewBox="0 0 400 400" xmlns="http://www.w3.org/2000/svg">
    <g id="Group">
        <path id="Path" fill="#e25a1c" fill-rule="evenodd" stroke="none" d="M 307.893921 313.552246 C 306.970154 311.593323 306.540222 310.589966 306.030548 309.65033 C 292.493317 284.263947 278.987823 258.845764 265.339111 233.523102 C 263.953491 230.990829 264.128723 229.477859 266.007996 227.311874 C 287.540253 202.498871 308.960938 177.590286 330.413544 152.697647 C 331.162079 151.837646 331.846893 150.897995 332.133575 149.353149 C 325.858643 150.9617 319.58371 152.554321 313.324738 154.194702 C 287.301361 160.995193 261.277924 167.779755 235.286362 174.659866 C 232.86557 175.296921 231.766663 174.612106 230.55632 172.621338 C 215.792709 148.286087 200.933594 123.998627 186.090332 99.711182 C 185.325928 98.437103 184.497726 97.210785 182.873245 96.159668 C 181.678818 102.641602 180.452454 109.123566 179.289871 115.60553 L 166.915207 184.311157 C 166.469269 186.795639 165.848129 189.24826 165.641144 191.748672 C 165.418182 194.105759 164.207779 194.981705 162.025879 195.650604 C 131.367966 205.142624 100.741875 214.730194 70.099876 224.317749 C 68.762085 224.731842 67.440208 225.273346 66.006844 226.563354 L 141.560715 256.186096 C 140.636963 256.902771 140.031784 257.460205 139.3629 257.906128 C 123.691498 267.907776 107.988266 277.861633 92.3806 287.911072 C 90.501305 289.10553 89.020195 289.280701 86.917938 288.341064 C 68.204666 280.043518 49.411751 271.889343 30.682503 263.623596 C 22.257555 259.912811 14.692635 254.991608 8.799898 247.88855 C -4.530297 231.803085 -1.90246 213.519791 15.855216 202.339615 C 21.668304 198.67659 28.277691 195.953186 34.839264 193.835007 C 64.876038 184.183762 95.024353 174.882828 125.140778 165.534149 C 127.67305 164.753769 128.851608 163.638947 129.313461 160.947403 C 133.326843 138.013702 137.499512 115.127747 141.672195 92.225891 C 143.91777 79.994537 145.112259 67.428772 151.1483 56.232605 C 153.473526 51.900696 156.24469 47.680267 159.557343 44.065002 C 171.501984 30.973694 188.208557 30.46402 200.853943 42.950165 C 205.122192 47.154694 208.785202 52.123657 211.970398 57.204132 C 225.889908 79.612335 239.602356 102.163818 253.219254 124.731232 C 254.843735 127.42276 256.29303 127.948364 259.27121 127.167969 C 292.875519 118.281128 326.511627 109.537659 360.131897 100.778229 C 367.075684 98.962677 374.083221 98.309692 381.202209 99.615631 C 396.714325 102.48233 403.498932 114.108459 398.243256 128.888 C 395.854309 135.608826 391.72937 141.310425 387.094849 146.661621 C 363.635559 173.895432 340.208099 201.129211 316.66925 228.283386 C 314.742188 230.513031 314.694397 232.105667 316.032166 234.590149 C 330.079071 260.709106 343.998657 286.875885 357.981812 313.026703 C 361.326324 319.285675 363.874451 325.767639 363.954163 332.966278 C 364.113434 349.322479 352.009491 362.70047 335.525879 365.073486 C 326.288666 366.411285 317.720398 364.468292 309.088409 361.840454 C 288.018005 355.406281 266.915802 349.099518 245.797653 342.840515 C 243.838776 342.251221 243.090225 341.502716 242.755783 339.416382 C 240.319077 324.764282 237.675308 310.144043 235.111206 295.507874 C 235.047485 295.109711 235.158966 294.679718 235.222687 293.771912 L 307.893921 313.552246"/>
    </g>
</svg>
