<?xml version="1.0" encoding="UTF-8"?>
<svg version="1.1" xmlns="http://www.w3.org/2000/svg" width="3747" height="1000">
<path d="M0 0 C1.98440856 -0.00124461 3.96881689 -0.00292646 5.95322475 -0.00500236 C11.4071179 -0.00944149 16.86099401 -0.00767818 22.3148876 -0.00490058 C28.27014996 -0.00297509 34.22540905 -0.00686228 40.1806705 -0.00999737 C50.65858116 -0.0147093 61.13648778 -0.01572889 71.614399 -0.01426902 C82.91509855 -0.01271361 94.21579489 -0.013352 105.51649411 -0.01661023 C106.59202546 -0.01691818 106.59202546 -0.01691818 107.68928472 -0.01723235 C111.3504352 -0.0182899 115.01158567 -0.01938138 118.67273614 -0.0204838 C145.40595648 -0.02845499 172.13917564 -0.03145391 198.87239707 -0.03192973 C225.97040747 -0.03242432 253.06841639 -0.03507032 280.1664263 -0.04033732 C281.89421432 -0.04067086 283.62200233 -0.04100433 285.34979035 -0.04133773 C292.31628197 -0.04268585 299.28277359 -0.04404915 306.2492652 -0.04542983 C382.87140477 -0.060594 459.49354396 -0.06737231 536.1156848 -0.0718518 C537.08479686 -0.07190849 538.05390892 -0.07196518 539.05238801 -0.07202359 C543.95440998 -0.07231011 548.85643195 -0.07259514 553.75845393 -0.0728777 C594.83619605 -0.07525325 635.91393802 -0.07896302 676.99168002 -0.0829148 C696.66645717 -0.0848074 716.34123432 -0.08663591 736.01601148 -0.088449 C736.9945408 -0.08853919 737.97307012 -0.08862938 738.98125185 -0.0887223 C786.07640228 -0.09305851 833.17155274 -0.09698684 880.26670325 -0.10044932 C881.77362491 -0.10056013 881.77362491 -0.10056013 883.31098943 -0.10067318 C947.33248987 -0.105368 1011.35399026 -0.10819111 1075.37549085 -0.1098361 C1080.62423467 -0.10997168 1085.8729785 -0.11011071 1091.12172233 -0.11024964 C1099.53668439 -0.11047212 1107.95164645 -0.11069349 1116.36660851 -0.11091352 C1117.40936162 -0.11094079 1118.45211472 -0.11096806 1119.5264664 -0.11099616 C1121.63395128 -0.11105127 1123.74143616 -0.11110639 1125.84892105 -0.11116149 C1140.63223689 -0.11154811 1155.41555274 -0.11193605 1170.19886859 -0.11233062 C1175.48863106 -0.11247173 1180.77839352 -0.11261181 1186.06815599 -0.11274952 C1285.96535013 -0.1153535 1385.86254271 -0.12068203 1485.7597357 -0.13663173 C1487.33700232 -0.13688342 1487.33700232 -0.13688342 1488.9461329 -0.13714019 C1521.79987375 -0.14239087 1554.65361455 -0.14796523 1587.50735533 -0.1535995 C1621.21805566 -0.15938057 1654.928756 -0.16511117 1688.63945639 -0.17055583 C1690.19645449 -0.17080754 1690.19645449 -0.17080754 1691.78490709 -0.17106434 C1756.80471285 -0.18155929 1821.82451817 -0.18841962 1886.84432471 -0.19142222 C1888.35092913 -0.19149244 1888.35092913 -0.19149244 1889.88797001 -0.19156408 C1934.00156015 -0.19361485 1978.11515027 -0.19485884 2022.22874045 -0.19521013 C2039.97646307 -0.1953534 2057.72418569 -0.19559206 2075.4719083 -0.19587419 C2078.41452575 -0.19591972 2081.3571432 -0.19596137 2084.29976065 -0.1960023 C2129.2945972 -0.19664818 2174.28943198 -0.19960155 2219.28426754 -0.20946288 C2220.25412941 -0.20967525 2221.22399127 -0.20988762 2222.22324289 -0.21010643 C2237.8239896 -0.21353507 2253.42473628 -0.21714808 2269.02548295 -0.22078283 C2313.32949935 -0.2311 2357.63351355 -0.23987636 2401.93753135 -0.23793817 C2402.83712275 -0.23789943 2403.73671414 -0.23786069 2404.66356588 -0.23782078 C2424.29319473 -0.23694406 2443.9228234 -0.23523171 2463.5524521 -0.23270115 C2471.38218772 -0.23170444 2479.21192336 -0.23081777 2487.041659 -0.22996593 C2488.32277003 -0.22982209 2488.32277003 -0.22982209 2489.62976209 -0.22967536 C2516.68356449 -0.22669022 2543.73735419 -0.23290633 2570.79115398 -0.24448479 C2597.44850096 -0.255855 2624.10583097 -0.25806038 2650.76317867 -0.24707929 C2654.42227214 -0.24557334 2658.08136563 -0.24417199 2661.74045916 -0.24283347 C2662.81488032 -0.2424344 2662.81488032 -0.2424344 2663.91100696 -0.24202727 C2675.15976312 -0.2381209 2686.40849005 -0.24416452 2697.65724115 -0.25457332 C2708.69010432 -0.26457569 2719.7229321 -0.26351021 2730.75579595 -0.25172237 C2736.61813063 -0.24576137 2742.48036089 -0.24430262 2748.34268849 -0.25640723 C2772.84153437 -0.30373869 2796.94894179 0.109937 2821.28665221 3.1276505 C2822.18284862 3.23720417 2823.07904503 3.34675784 2824.00239891 3.45963131 C2828.46762717 4.01362076 2832.90899648 4.64956552 2837.34915221 5.3776505 C2837.98822508 5.48058415 2838.62729796 5.58351781 2839.28573668 5.68957067 C2886.97372856 13.41250092 2932.85221143 28.06613896 2976.28665221 49.1276505 C2978.13684749 50.00669385 2979.98710603 50.88560407 2981.83743346 51.76436925 C3003.27709127 62.0837281 3023.79636888 74.49480737 3043.28665221 88.1276505 C3044.02673522 88.64392003 3044.76681822 89.16018956 3045.52932799 89.69210362 C3056.49982603 97.38430374 3067.00209755 105.5444441 3077.28665221 114.1276505 C3078.15048522 114.84283849 3078.15048522 114.84283849 3079.03176939 115.57247472 C3079.5876776 116.03283116 3080.1435858 116.49318761 3080.71633971 116.96749425 C3081.19442076 117.36315587 3081.67250182 117.75881749 3082.16507018 118.16646886 C3093.61656484 127.81137819 3104.42792541 138.09819906 3114.99124205 148.70186925 C3116.67841179 150.39446397 3118.37095416 152.08155647 3120.06399596 153.7682755 C3125.68478379 159.38531744 3131.16297739 165.04667129 3136.28665221 171.1276505 C3137.16336735 172.13753756 3138.0409236 173.14669526 3138.91946471 174.15499425 C3146.39490131 182.88414828 3153.41675313 191.91596977 3160.28665221 201.1276505 C3160.83111998 201.85645421 3161.37558775 202.58525792 3161.93655455 203.33614659 C3170.30153734 214.584749 3177.99116468 226.15997377 3185.28665221 238.1276505 C3185.92981383 239.17638341 3185.92981383 239.17638341 3186.58596861 240.24630284 C3194.09813895 252.54773823 3200.79229886 265.26457229 3207.28665221 278.1276505 C3207.75748229 279.05851476 3208.22831236 279.98937901 3208.71341002 280.94845128 C3239.60225686 342.49886192 3258.23296752 413.85670935 3258.48977721 482.932338 C3258.50029868 484.83765294 3258.50029868 484.83765294 3258.5110327 486.78145909 C3258.52843068 490.85522904 3258.53546642 494.9288514 3258.53665221 499.0026505 C3258.53709406 499.69690381 3258.53753592 500.39115712 3258.53799117 501.10644841 C3258.54494308 521.93626175 3258.22339634 542.46729735 3255.28665221 563.1276505 C3255.11504576 564.40946202 3254.94343932 565.69127355 3254.76663268 567.01192784 C3247.68664119 619.66120254 3232.45314145 670.35218561 3209.28665221 718.1276505 C3208.40760886 719.97784579 3207.52869863 721.82810433 3206.64993346 723.67843175 C3196.33057461 745.11808956 3183.91949534 765.63736717 3170.28665221 785.1276505 C3169.77038268 785.86773351 3169.25411314 786.60781651 3168.72219908 787.37032628 C3161.02999896 798.34082432 3152.86985861 808.84309584 3144.28665221 819.1276505 C3143.80986022 819.70353917 3143.33306822 820.27942784 3142.84182799 820.87276769 C3142.38147154 821.42867589 3141.9211151 821.98458409 3141.44680846 822.557338 C3141.05114684 823.03541905 3140.65548522 823.51350011 3140.24783385 824.00606847 C3130.60292451 835.45756313 3120.31610365 846.2689237 3109.71243346 856.83224034 C3108.01983874 858.51941008 3106.33274624 860.21195245 3104.64602721 861.90499425 C3099.02898527 867.52578208 3093.36763142 873.00397568 3087.28665221 878.1276505 C3086.27676515 879.00436564 3085.26760744 879.88192189 3084.25930846 880.760463 C3075.53015443 888.23589961 3066.49833293 895.25775142 3057.28665221 902.1276505 C3056.5578485 902.67211827 3055.82904479 903.21658605 3055.07815611 903.77755284 C3043.8295537 912.14253563 3032.25432894 919.83216297 3020.28665221 927.1276505 C3019.58749693 927.55642491 3018.88834166 927.98519933 3018.16799986 928.42696691 C3005.86656448 935.93913724 2993.14973042 942.63329716 2980.28665221 949.1276505 C2978.89035582 949.83389562 2978.89035582 949.83389562 2977.46585143 950.55440831 C2913.67471346 982.5677559 2840.99111164 1000.34347805 2769.57330441 1000.255301 C2767.58889585 1000.25654561 2765.60448753 1000.25822746 2763.62007966 1000.26030336 C2758.16618651 1000.26474249 2752.71231041 1000.26297918 2747.25841681 1000.26020158 C2741.30315446 1000.25827609 2735.34789537 1000.26216328 2729.39263391 1000.26529837 C2718.91472326 1000.2700103 2708.43681663 1000.27102989 2697.95890541 1000.26957002 C2686.65820586 1000.26801461 2675.35750953 1000.268653 2664.0568103 1000.27191123 C2663.3397894 1000.27211653 2662.6227685 1000.27232183 2661.88401969 1000.27253335 C2658.22286921 1000.2735909 2654.56171874 1000.27468238 2650.90056828 1000.2757848 C2624.16734793 1000.28375599 2597.43412878 1000.28675491 2570.70090735 1000.28723073 C2543.60289694 1000.28772532 2516.50488803 1000.29037132 2489.40687811 1000.29563832 C2487.6790901 1000.29597186 2485.95130208 1000.29630533 2484.22351407 1000.29663873 C2477.25702245 1000.29798685 2470.29053083 1000.29935015 2463.32403921 1000.30073083 C2386.70189965 1000.315895 2310.07976045 1000.32267331 2233.45761962 1000.3271528 C2232.48850756 1000.32720949 2231.5193955 1000.32726618 2230.5209164 1000.32732458 C2225.61889443 1000.32761111 2220.71687246 1000.32789614 2215.81485049 1000.3281787 C2174.73710836 1000.33055425 2133.6593664 1000.33426401 2092.5816244 1000.3382158 C2072.90684725 1000.3401084 2053.23207009 1000.34193691 2033.55729294 1000.34375 C2032.57876361 1000.34384019 2031.60023429 1000.34393038 2030.59205256 1000.3440233 C1983.49690213 1000.34835951 1936.40175167 1000.35228784 1889.30660117 1000.35575032 C1887.79967951 1000.35586113 1887.79967951 1000.35586113 1886.26231499 1000.35597418 C1822.24081455 1000.360669 1758.21931416 1000.36349211 1694.19781357 1000.3651371 C1688.94906974 1000.36527268 1683.70032591 1000.36541171 1678.45158208 1000.36555064 C1670.03662002 1000.36577312 1661.62165796 1000.36599448 1653.2066959 1000.36621452 C1652.1639428 1000.36624179 1651.1211897 1000.36626906 1650.04683802 1000.36629716 C1647.93935313 1000.36635227 1645.83186825 1000.36640738 1643.72438337 1000.36646249 C1628.94106752 1000.36684911 1614.15775167 1000.36723705 1599.37443583 1000.36763162 C1594.08467336 1000.36777273 1588.79491089 1000.3679128 1583.50514842 1000.36805052 C1483.60795429 1000.3706545 1383.71076171 1000.37598303 1283.81356871 1000.39193273 C1282.2363021 1000.39218442 1282.2363021 1000.39218442 1280.62717151 1000.39244119 C1247.77343066 1000.39769187 1214.91968987 1000.40326623 1182.06594908 1000.4089005 C1148.35524875 1000.41468157 1114.64454841 1000.42041217 1080.93384802 1000.42585683 C1079.37684993 1000.42610854 1079.37684993 1000.42610854 1077.78839732 1000.42636534 C1012.76859157 1000.43686029 947.74878624 1000.44372062 882.72897971 1000.44672322 C881.22237528 1000.44679344 881.22237528 1000.44679344 879.68533441 1000.44686508 C835.57174427 1000.44891585 791.45815414 1000.45015984 747.34456396 1000.45051113 C729.59684134 1000.4506544 711.84911873 1000.45089306 694.10139611 1000.45117519 C691.15877866 1000.45122072 688.21616122 1000.45126237 685.27354377 1000.4513033 C640.27870722 1000.45194918 595.28387244 1000.45490255 550.28903687 1000.46476388 C549.31917501 1000.46497625 548.34931314 1000.46518862 547.35006153 1000.46540743 C531.74931481 1000.46883607 516.14856813 1000.47244908 500.54782146 1000.47608383 C456.24380507 1000.486401 411.93979086 1000.49517735 367.63577306 1000.49323916 C366.28638597 1000.49318106 366.28638597 1000.49318106 364.90973853 1000.49312177 C345.28010969 1000.49224506 325.65048101 1000.49053271 306.02085232 1000.48800215 C298.19111669 1000.48700544 290.36138106 1000.48611877 282.53164542 1000.48526692 C281.25053438 1000.48512309 281.25053438 1000.48512309 279.94354232 1000.48497636 C252.88973993 1000.48199122 225.83595023 1000.48820733 198.78215044 1000.49978579 C172.12480345 1000.511156 145.46747344 1000.51336138 118.81012574 1000.50238028 C115.15103228 1000.50087433 111.49193878 1000.49947299 107.83284526 1000.49813446 C107.11656448 1000.49786842 106.40028371 1000.49760237 105.66229746 1000.49732827 C94.41354129 1000.4934219 83.16481436 1000.49946552 71.91606327 1000.50987432 C60.8832001 1000.51987669 49.85037232 1000.51881121 38.81750847 1000.50702337 C32.95517378 1000.50106237 27.09294352 1000.49960362 21.23061593 1000.51170823 C-3.26822995 1000.55903968 -27.37563738 1000.145364 -51.71334779 997.1276505 C-53.05764241 996.96332 -53.05764241 996.96332 -54.4290945 996.79566968 C-58.89432276 996.24168024 -63.33569207 995.60573548 -67.77584779 994.8776505 C-68.41492067 994.77471684 -69.05399354 994.67178319 -69.71243227 994.56573033 C-117.40042414 986.84280008 -163.27890702 972.18916204 -206.71334779 951.1276505 C-208.56354308 950.24860715 -210.41380162 949.36969692 -212.26412904 948.49093175 C-233.70378686 938.1715729 -254.22306446 925.76049363 -273.71334779 912.1276505 C-274.4534308 911.61138097 -275.19351381 911.09511144 -275.95602357 910.56319737 C-286.92652162 902.87099726 -297.42879313 894.7108569 -307.71334779 886.1276505 C-308.5771808 885.41246251 -308.5771808 885.41246251 -309.45846498 884.68282628 C-310.29232728 883.99229161 -310.29232728 883.99229161 -311.14303529 883.28780675 C-311.62111635 882.89214513 -312.0991974 882.49648351 -312.59176576 882.08883214 C-324.04326042 872.4439228 -334.85462099 862.15710194 -345.41793764 851.55343175 C-347.10510737 849.86083703 -348.79764975 848.17374453 -350.49069154 846.4870255 C-356.11147937 840.86998356 -361.58967298 835.20862971 -366.71334779 829.1276505 C-367.59006293 828.11776344 -368.46761919 827.10860573 -369.34616029 826.10030675 C-376.8215969 817.37115272 -383.84344871 808.33933122 -390.71334779 799.1276505 C-391.25781557 798.39884679 -391.80228334 797.67004308 -392.36325014 796.91915441 C-400.72823292 785.670552 -408.41786026 774.09532723 -415.71334779 762.1276505 C-416.14212221 761.42849523 -416.57089662 760.72933995 -417.0126642 760.00899816 C-424.52483453 747.70756277 -431.21899445 734.99072871 -437.71334779 722.1276505 C-438.18417787 721.19678624 -438.65500795 720.26592198 -439.14010561 719.30684972 C-470.02895244 657.75643908 -488.6596631 586.39859164 -488.91647279 517.322963 C-488.92348711 516.05275304 -488.93050142 514.78254308 -488.93772829 513.47384191 C-488.95512626 509.40007195 -488.96216201 505.3264496 -488.96334779 501.2526505 C-488.96378965 500.55839719 -488.96423151 499.86414388 -488.96468675 499.14885259 C-488.97163867 478.31903925 -488.65009193 457.78800364 -485.71334779 437.1276505 C-485.54174135 435.84583898 -485.3701349 434.56402745 -485.19332826 433.24337316 C-478.11333678 380.59409846 -462.87983704 329.90311539 -439.71334779 282.1276505 C-438.83430445 280.27745521 -437.95539422 278.42719667 -437.07662904 276.57686925 C-426.75727019 255.13721143 -414.34619093 234.61793383 -400.71334779 215.1276505 C-399.9389435 214.01752599 -399.9389435 214.01752599 -399.14889467 212.88497472 C-391.45669455 201.91447668 -383.29655419 191.41220516 -374.71334779 181.1276505 C-374.2365558 180.55176183 -373.75976381 179.97587316 -373.26852357 179.38253331 C-372.80816713 178.82662511 -372.34781068 178.27071691 -371.87350404 177.697963 C-371.28001161 176.98084142 -371.28001161 176.98084142 -370.67452943 176.24923253 C-361.0296201 164.79773787 -350.74279923 153.9863773 -340.13912904 143.42306066 C-338.44653432 141.73589092 -336.75944182 140.04334854 -335.07272279 138.35030675 C-329.45568086 132.72951892 -323.79432701 127.25132532 -317.71334779 122.1276505 C-316.70346073 121.25093536 -315.69430303 120.3733791 -314.68600404 119.494838 C-305.95685001 112.01940139 -296.92502852 104.99754958 -287.71334779 98.1276505 C-286.98454408 97.58318273 -286.25574037 97.03871495 -285.5048517 96.47774816 C-274.25624929 88.11276537 -262.68102453 80.42313803 -250.71334779 73.1276505 C-250.01419252 72.69887609 -249.31503725 72.27010167 -248.59469545 71.82833409 C-236.29326007 64.31616376 -223.57642601 57.62200384 -210.71334779 51.1276505 C-209.78248353 50.65682042 -208.85161928 50.18599034 -207.89254701 49.70089269 C-144.10140905 17.6875451 -71.41780723 -0.08817705 0 0 Z " fill="#FEFEFE" transform="translate(488.7133477926254,-0.12765049934387207)"/>
<path d="M0 0 C1.12769363 -0.00297112 2.25538727 -0.00594224 3.41725343 -0.0090034 C7.17453383 -0.01763553 10.93178215 -0.01919398 14.68907166 -0.02069092 C17.39199509 -0.02478945 20.09491522 -0.03032819 22.7978363 -0.03573608 C30.12666261 -0.04926507 37.45548341 -0.05533552 44.78432012 -0.05974674 C49.36857864 -0.0625182 53.95283509 -0.06675714 58.53709221 -0.07125092 C71.25316389 -0.08343612 83.96923392 -0.09373714 96.68531132 -0.09712601 C97.90391214 -0.09745536 97.90391214 -0.09745536 99.14713117 -0.09779136 C100.36848635 -0.09811878 100.36848635 -0.09811878 101.61451536 -0.09845281 C103.2642047 -0.09889626 104.91389404 -0.09934282 106.56358337 -0.09979248 C107.38186937 -0.10001391 108.20015537 -0.10023534 109.04323792 -0.10046348 C122.29075552 -0.10440824 135.53821801 -0.1218558 148.78571434 -0.145152 C162.41745478 -0.16892858 176.04916763 -0.18133071 189.68092912 -0.18249393 C197.32225994 -0.18340711 204.9635189 -0.18906902 212.60482979 -0.20731354 C219.11341273 -0.22279991 225.6219016 -0.22778509 232.13049949 -0.21957543 C235.44409942 -0.21569891 238.75735817 -0.21811989 242.07095909 -0.23063278 C276.25933767 -0.35209205 304.77052867 6.71794841 330.02085876 31.26544189 C347.73431657 49.1101883 358.84369146 73.82216283 358.97612286 99.04835987 C358.96210992 101.53134138 358.92373975 104.01321748 358.88414001 106.49591064 C358.874778 108.26236452 358.86767801 110.02883167 358.86270142 111.79530334 C358.84389735 116.37393054 358.79503783 120.95172433 358.73918152 125.5300293 C358.68740361 130.23013036 358.66506434 134.93037029 358.63999939 139.63067627 C358.58688359 148.80095801 358.50190791 157.97062983 358.39585876 167.14044189 C357.85760468 167.38689453 357.31935059 167.63334717 356.76478577 167.88726807 C354.28683238 169.02689325 351.81403902 170.17732557 349.34117126 171.32794189 C348.07140442 171.90898682 348.07140442 171.90898682 346.77598572 172.50177002 C339.1063187 176.08662645 332.7487454 180.56273217 326.39585876 186.14044189 C325.5901947 186.82364502 324.78453064 187.50684814 323.95445251 188.21075439 C309.51374232 201.42086494 300.46237595 221.65174762 299.21128845 240.99395752 C298.07761077 266.88095727 303.62986206 288.9481077 320.89195251 309.04669189 C325.74722472 314.1833246 330.88785284 318.47244246 336.70835876 322.45294189 C337.2634613 322.83732422 337.81856384 323.22170654 338.39048767 323.61773682 C342.59444591 326.35660795 347.04817123 328.34643524 351.66221619 330.28961182 C352.63497623 330.70271732 352.63497623 330.70271732 353.627388 331.1241684 C355.21595966 331.7984279 356.80578423 332.46973423 358.39585876 333.14044189 C358.46580052 343.18165665 358.51889204 353.22281212 358.55129528 363.26422215 C358.56685817 367.92837274 358.58792194 372.59235496 358.62217712 377.25640869 C358.65510906 381.76925719 358.672782 386.28194519 358.68049049 390.79490471 C358.68597399 392.50463317 358.69667903 394.21435425 358.71304893 395.92401314 C358.99347045 426.46465185 348.64450637 451.37541528 327.45835876 473.39044189 C322.79287218 477.94090878 317.8983007 481.66434834 312.39585876 485.14044189 C311.49351501 485.72567627 310.59117126 486.31091064 309.66148376 486.91387939 C297.43384165 494.48179843 284.46837109 498.5834756 270.39585876 501.14044189 C269.60767761 501.31245117 268.81949646 501.48446045 268.00743103 501.66168213 C255.18190912 504.01288793 240.8641147 502.54892369 228.39585876 499.14044189 C227.39941345 498.87360596 226.40296814 498.60677002 225.37632751 498.33184814 C198.99475245 490.38559059 176.70575269 472.1369104 163.39585876 448.14044189 C153.92000563 429.69091216 151.06722844 412.49182491 151.20054626 392.02716064 C151.20428596 390.31938342 151.2071284 388.61160401 151.2091217 386.90382385 C151.216683 382.45366272 151.23626508 378.00363644 151.25852966 373.55352783 C151.27915171 368.9946271 151.28815806 364.43570415 151.29820251 359.87677002 C151.31951964 350.96460207 151.3535625 342.05253328 151.39585876 333.14044189 C152.69692566 332.65559326 152.69692566 332.65559326 154.02427673 332.16094971 C155.17557068 331.72621338 156.32686462 331.29147705 157.51304626 330.84356689 C158.64854919 330.41720947 159.78405212 329.99085205 160.95396423 329.55157471 C182.76669218 320.60863475 198.12883184 303.17724483 207.36851501 281.83575439 C215.23913239 261.18660614 215.21407407 236.38434388 206.48667908 216.01885986 C202.78582424 208.02297626 198.14171279 200.82628586 192.39585876 194.14044189 C191.87765564 193.47915283 191.35945251 192.81786377 190.82554626 192.13653564 C179.0159425 177.55994743 159.08151764 167.37065291 140.65367126 164.45684814 C117.44388056 162.20265984 94.40293648 165.89238822 75.39585876 180.14044189 C71.93123412 183.0131719 68.65224748 186.03564368 65.39585876 189.14044189 C64.79257751 189.65735596 64.18929626 190.17427002 63.56773376 190.70684814 C53.79454988 199.45247765 47.21062368 212.82774539 43.39585876 225.14044189 C43.07874939 226.08145752 42.76164001 227.02247314 42.43492126 227.99200439 C36.0523082 250.18475991 40.82021212 274.13458986 51.53648376 294.12091064 C54.42994315 298.8197428 57.77268304 302.99155047 61.39585876 307.14044189 C62.18089783 308.12270752 62.96593689 309.10497314 63.77476501 310.11700439 C72.10974094 320.11011525 83.83689474 325.77518897 95.39585876 331.14044189 C96.73104156 331.80339673 98.06482663 332.46919254 99.39585876 333.14044189 C99.39728378 334.13950562 99.3987088 335.13856934 99.400177 336.16790771 C99.41702495 345.69670803 99.46032972 355.225091 99.52794933 364.75366974 C99.56188582 369.64958018 99.5872764 374.54518965 99.59141541 379.44122314 C99.64744164 428.51882334 109.33567253 470.80533979 144.39585876 507.14044189 C145.06101501 507.85716064 145.72617126 508.57387939 146.41148376 509.31231689 C171.74601 535.92421421 206.02217753 547.77758385 241.39585876 553.14044189 C241.39585876 553.47044189 241.39585876 553.80044189 241.39585876 554.14044189 C208.79231094 554.23195642 176.18880055 554.3026162 143.58515334 554.34470321 C139.72428475 554.34970524 135.86341642 554.3548826 132.00254822 554.36016846 C130.84974409 554.36174232 130.84974409 554.36174232 129.67365099 554.36334798 C117.27665158 554.38068978 104.87972739 554.41219258 92.4827724 554.44905308 C79.73499614 554.48663678 66.98725891 554.5087143 54.23942953 554.51679587 C46.39159971 554.5222478 38.54398257 554.53938102 30.69621832 554.57210776 C24.6492069 554.59601981 18.60237323 554.59821836 12.5553093 554.59287262 C10.0961318 554.59396165 7.63694528 554.60176318 5.17781639 554.61726379 C-16.11039354 554.74472338 -36.52968159 552.56489421 -56.60414124 545.14044189 C-57.28106018 544.89455322 -57.95797913 544.64866455 -58.65541077 544.39532471 C-97.26954532 530.14412524 -127.81870749 500.57843739 -145.48158264 463.64630127 C-148.74918464 456.35211533 -151.23853003 448.7664715 -153.60414124 441.14044189 C-153.94187561 440.05762939 -154.27960999 438.97481689 -154.62757874 437.85919189 C-158.4348237 424.74115973 -158.93259842 411.92499568 -159.01820374 398.37481689 C-159.03694848 396.48623846 -159.05652426 394.59766811 -159.07688904 392.70910645 C-159.12786734 387.7773519 -159.16767498 382.8455703 -159.20503235 377.91369629 C-159.24528898 372.8655141 -159.29628168 367.81744109 -159.34632874 362.76934814 C-159.44268099 352.89312314 -159.52721392 343.01683599 -159.60414124 333.14044189 C-158.74111389 333.3523819 -157.87808655 333.5643219 -156.98890686 333.78268433 C-155.8409967 334.05752655 -154.69308655 334.33236877 -153.51039124 334.61553955 C-152.37923889 334.88935455 -151.24808655 335.16316956 -150.08265686 335.44528198 C-144.58468507 336.54401777 -139.19307645 336.58839905 -133.60414124 336.51544189 C-132.46348206 336.50456543 -131.32282288 336.49368896 -130.14759827 336.48248291 C-105.96084048 336.02367899 -85.66743121 325.17273745 -68.70570374 308.24591064 C-60.14375366 299.04471995 -54.5025517 288.00097691 -50.60414124 276.14044189 C-50.34447571 275.45216309 -50.08481018 274.76388428 -49.817276 274.05474854 C-47.1596667 266.43058888 -47.09005024 258.95777745 -47.16664124 250.95294189 C-47.17220032 249.91772903 -47.17220032 249.91772903 -47.1778717 248.86160278 C-47.36164678 224.88487271 -56.0179986 205.21600044 -72.54164124 187.82794189 C-82.5261408 178.35145992 -94.90585933 172.18668931 -107.60414124 167.14044189 C-107.69785653 158.11556315 -107.76841056 149.09085823 -107.81138992 140.06559467 C-107.83204388 135.87234825 -107.85994099 131.67944065 -107.90589905 127.48638916 C-108.16086279 103.57906692 -108.06251918 81.21340036 -97.60414124 59.14044189 C-97.15296936 58.18137939 -96.70179749 57.22231689 -96.23695374 56.23419189 C-84.11890102 32.40886791 -62.42158147 14.00394551 -37.25502014 5.33087158 C-24.79514787 1.35045719 -13.07281396 -0.01092248 0 0 Z " fill="#FEFEFE" transform="translate(632.6041412353516,247.85955810546875)"/>
<path d="M0 0 C2.77186457 -0.00407866 5.54371203 -0.01258457 8.31556702 -0.02079773 C15.01589693 -0.03785193 21.71613253 -0.03885378 28.41647848 -0.03358483 C33.87204008 -0.02951627 39.32757415 -0.03101824 44.78313446 -0.03633308 C45.95514267 -0.03745572 45.95514267 -0.03745572 47.15082781 -0.03860103 C48.73896458 -0.04013277 50.32710135 -0.04167112 51.91523811 -0.043216 C66.75459758 -0.05689292 81.5939041 -0.0515376 96.43326232 -0.04003078 C109.9535031 -0.03010597 123.47360688 -0.04303466 136.99382654 -0.06696498 C150.93894279 -0.09145781 164.8839955 -0.10093883 178.8291328 -0.09431225 C186.63319176 -0.0908422 194.43714557 -0.09290371 202.24118805 -0.11056328 C208.88514064 -0.12541363 215.52891402 -0.12575596 222.17286357 -0.10849237 C225.5502548 -0.10008326 228.92707047 -0.09981894 232.30448341 -0.11314392 C252.83772843 -0.18789215 273.47570375 0.99968137 293.01074219 7.90405273 C293.97915039 8.23735596 294.94755859 8.57065918 295.9453125 8.9140625 C311.76501122 14.60685392 327.09303604 22.50269184 339.94824219 33.40405273 C341.09337515 34.33850542 342.23925148 35.27204763 343.38574219 36.20483398 C374.01908509 61.44886261 394.20616659 97.8804333 398.94824219 137.40405273 C399.41419852 143.92746797 399.30176311 150.46640839 399.24121094 157.00170898 C399.2355971 158.81586857 399.23133549 160.63003279 399.22834778 162.44419861 C399.2170394 167.15741124 399.18769772 171.87033462 399.15423584 176.58343506 C399.12322803 181.41748139 399.10977767 186.25157568 399.09472656 191.08569336 C399.0628106 200.52527171 399.01178997 209.96463792 398.94824219 219.40405273 C399.62348434 219.59927017 400.2987265 219.79448761 400.99443054 219.99562073 C402.33221306 220.3883744 402.33221306 220.3883744 403.69702148 220.7890625 C404.57851364 221.04615494 405.4600058 221.30324738 406.36820984 221.56813049 C410.07336714 222.76858963 413.38406003 224.41900844 416.76074219 226.34155273 C417.43943359 226.72706299 418.118125 227.11257324 418.81738281 227.50976562 C438.07360903 238.92795121 451.2248718 257.81670679 458.03808594 278.83374023 C462.50857345 296.37033073 462.37550313 317.8008796 454.94824219 334.40405273 C454.65884766 335.0732373 454.36945312 335.74242187 454.07128906 336.43188477 C449.93973406 345.86823359 444.98270853 353.79955205 437.94824219 361.40405273 C437.26246094 362.18135742 436.57667969 362.95866211 435.87011719 363.75952148 C426.43912933 373.90656583 412.64357083 382.80869903 398.94824219 385.40405273 C398.95490402 386.38916336 398.96156586 387.37427399 398.96842957 388.38923645 C399.02973614 397.75746557 399.07444941 407.12565301 399.1036787 416.49403858 C399.11921182 421.30828647 399.14021867 426.12237006 399.17456055 430.93652344 C399.20760183 435.59851846 399.22518755 440.26035732 399.23287392 444.92246056 C399.23833837 446.68470398 399.24900362 448.44694067 399.26543236 450.20911598 C399.41849406 467.33704303 397.5180451 483.66261147 391.88574219 499.90405273 C391.49507568 501.04769287 391.10440918 502.19133301 390.7019043 503.36962891 C383.93809952 522.52278041 373.83324004 539.39575363 359.95605469 554.23999023 C358.23469904 556.09530352 356.65167128 557.99126147 355.07324219 559.96655273 C350.96909219 564.78103639 345.91524422 568.52704983 340.94824219 572.40405273 C340.01882813 573.14913086 339.08941406 573.89420898 338.13183594 574.66186523 C324.3147492 585.45235202 309.3017681 592.34396955 292.94824219 598.40405273 C291.83449219 598.82686523 290.72074219 599.24967773 289.57324219 599.68530273 C256.36475861 611.59704141 217.25538629 608.50630932 184.94824219 595.40405273 C184.25118164 595.12223145 183.55412109 594.84041016 182.8359375 594.55004883 C165.76674432 587.46332053 150.48747983 576.92178235 136.94824219 564.40405273 C136.4086084 563.90824707 135.86897461 563.41244141 135.31298828 562.90161133 C108.05693495 537.56331021 89.14024585 499.54792281 87.53737259 462.1708231 C87.16786237 451.05689602 87.15075719 439.93588409 87.14135742 428.81689453 C87.13189494 423.90833428 87.09440304 418.99998689 87.05957031 414.09155273 C86.99569011 404.52906213 86.96188196 394.96673819 86.94824219 385.40405273 C85.98279984 384.99730316 85.01735748 384.59055359 84.0226593 384.17147827 C82.74559813 383.62983691 81.46859838 383.08805071 80.19165039 382.54614258 C79.55654793 382.27901962 78.92144547 382.01189667 78.26709747 381.73667908 C57.74155279 373.00458925 42.46412465 355.70591653 33.94824219 335.40405273 C32.41767464 331.11462519 31.10676023 326.80751942 29.94824219 322.40405273 C29.59246094 321.19104492 29.23667969 319.97803711 28.87011719 318.72827148 C23.7932536 298.05765823 29.27698626 275.32370891 39.94824219 257.40405273 C52.2630728 237.58614652 71.2289559 222.84862031 94.00683594 217.37280273 C108.80919112 214.20644929 124.44176058 213.77879773 138.94824219 218.40405273 C139.56763672 218.59741211 140.18703125 218.79077148 140.82519531 218.98999023 C164.47654506 226.5397807 182.62107076 242.29335609 194.19311523 264.36401367 C204.34001239 285.05592829 204.89253855 308.96149222 197.88183594 330.71264648 C189.20774153 355.01728724 171.99750222 372.43367064 148.88574219 383.40405273 C145.41861468 384.98902531 143.88211552 385.40405273 139.94824219 385.40405273 C140.00988522 395.16746281 140.08729381 404.93059147 140.1839571 414.69371796 C140.22838173 419.22881743 140.26769636 423.76383281 140.29467773 428.29907227 C140.32099294 432.68889397 140.36158598 437.078387 140.41142845 441.46800232 C140.42790898 443.12938803 140.43953876 444.79083033 140.44585609 446.45228577 C140.57078925 476.33380719 150.0828005 502.60763419 170.69824219 524.59155273 C183.52198982 536.77411299 199.88456964 545.83460873 216.94824219 550.40405273 C218.0375 550.70182617 219.12675781 550.99959961 220.24902344 551.30639648 C246.63961438 557.56514865 274.73227049 552.11432333 297.94824219 538.40405273 C322.74280834 523.01036591 338.28217845 499.52740317 344.94824219 471.40405273 C345.7939272 466.37228026 346.11248933 461.44976703 346.15356445 456.35742188 C346.16346405 455.58586761 346.17336365 454.81431335 346.18356323 454.01937866 C346.21491646 451.49268565 346.23983105 448.96597391 346.26464844 446.43920898 C346.28524063 444.67800941 346.30623767 442.91681453 346.32762146 441.15562439 C346.3826083 436.53778908 346.43211996 431.9199109 346.48046875 427.30200195 C346.53085538 422.58272523 346.58645155 417.86351015 346.64160156 413.14428711 C346.74889674 403.89759507 346.85040437 394.65084934 346.94824219 385.40405273 C346.32923538 385.19990753 345.71022858 384.99576233 345.07246399 384.78543091 C344.26101425 384.51665131 343.44956451 384.2478717 342.61352539 383.97094727 C341.80889359 383.70492706 341.00426178 383.43890686 340.17524719 383.16482544 C321.17200494 376.67308071 305.21130968 360.94416404 295.94824219 343.40405273 C293.56325465 338.52883897 291.68170534 333.54332651 289.94824219 328.40405273 C289.43777344 326.94032227 289.43777344 326.94032227 288.91699219 325.44702148 C282.7301097 304.05071955 286.34200402 278.74056281 296.94824219 259.40405273 C308.22892679 240.53357648 324.686361 227.55598682 344.94824219 219.40405273 C345.60824219 219.40405273 346.26824219 219.40405273 346.94824219 219.40405273 C346.93324649 209.30124286 346.89111941 199.1989225 346.81615162 189.09636974 C346.78213931 184.4032139 346.75681233 179.71037466 346.75268555 175.01708984 C346.7483465 170.47150867 346.71943023 165.92663858 346.67481041 161.3812809 C346.66201171 159.66376226 346.65746356 157.94615774 346.66208839 156.22859764 C346.70116457 137.27589206 342.36404084 120.85517375 332.94824219 104.40405273 C332.36945312 103.38569336 331.79066406 102.36733398 331.19433594 101.31811523 C327.16584977 94.64447458 322.32018638 89.02810983 316.94824219 83.40405273 C316.41972656 82.80077148 315.89121094 82.19749023 315.34667969 81.57592773 C299.73818791 64.44660855 273.62915235 54.66248134 251.03979409 53.21808195 C248.05042246 53.14934572 245.06680578 53.13718345 242.07667542 53.15008545 C240.94445067 53.14696547 239.81222592 53.14384549 238.64569134 53.14063096 C234.88524051 53.13271001 231.12495372 53.13895154 227.36450195 53.14526367 C224.65479197 53.14365051 221.94508875 53.13906057 219.23538208 53.13464355 C212.65931247 53.12578391 206.08328871 53.12765629 199.50721736 53.13346884 C194.15864116 53.13799926 188.81007774 53.13859228 183.46150017 53.1364212 C182.69810438 53.13611474 181.93470859 53.13580827 181.1481796 53.13549252 C179.59698351 53.13485302 178.04578743 53.13420459 176.49459135 53.13354734 C161.97321952 53.12785398 147.451873 53.13438609 132.93050533 53.14514807 C120.49263866 53.15408087 108.05480935 53.15253183 95.61694336 53.14331055 C81.14644839 53.1325872 66.67597557 53.1284051 52.20547718 53.13453507 C50.65991811 53.13517212 49.11435904 53.13580086 47.56879997 53.1364212 C46.80851054 53.13672975 46.0482211 53.13703831 45.2648926 53.13735621 C39.92832976 53.13907709 34.59178106 53.13618113 29.25522041 53.1314621 C22.74365225 53.12583019 16.23213226 53.12741792 9.72056956 53.13802359 C6.4034687 53.14324969 3.08651367 53.14429792 -0.23059654 53.13872528 C-3.83821226 53.13322521 -7.44560567 53.14015795 -11.0532074 53.15008545 C-12.0849477 53.14562401 -13.116688 53.14116256 -14.17969316 53.13656592 C-44.748279 53.2986901 -69.98734501 65.40318798 -91.39550781 86.73999023 C-108.50256144 104.84300246 -117.95195151 130.00551148 -118.25708008 154.80810547 C-118.26697968 155.51138474 -118.27687927 156.214664 -118.28707886 156.93925476 C-118.31839193 159.23868571 -118.34333034 161.53813723 -118.36816406 163.83764648 C-118.38875975 165.44190474 -118.40975687 167.04615789 -118.43113708 168.65040588 C-118.48608791 172.85395141 -118.53561515 177.05754371 -118.58398438 181.26116943 C-118.63439763 185.55818803 -118.68997977 189.85513949 -118.74511719 194.15209961 C-118.85236818 202.5693604 -118.95388525 210.98667769 -119.05175781 219.40405273 C-118.37651566 219.59927017 -117.7012735 219.79448761 -117.00556946 219.99562073 C-116.11371445 220.25745651 -115.22185944 220.5192923 -114.30297852 220.7890625 C-113.42148636 221.04615494 -112.5399942 221.30324738 -111.63179016 221.56813049 C-107.92663286 222.76858963 -104.61593997 224.41900844 -101.23925781 226.34155273 C-100.56056641 226.72706299 -99.881875 227.11257324 -99.18261719 227.50976562 C-78.78981253 239.60189758 -65.30568293 259.88455412 -59.05175781 282.40405273 C-53.8009762 304.79260341 -58.11838289 328.96047602 -69.98535156 348.32592773 C-73.08381658 352.94141059 -76.35731854 357.25045753 -80.05175781 361.40405273 C-80.715625 362.16202148 -81.37949219 362.91999023 -82.06347656 363.70092773 C-94.9930371 377.5625638 -115.77492813 388.34341086 -134.76806641 389.58105469 C-160.59646788 390.12084892 -160.59646788 390.12084892 -173.05175781 385.40405273 C-174.21320313 384.99155273 -175.37464844 384.57905273 -176.57128906 384.15405273 C-198.52712538 375.63315485 -215.41282199 358.4744758 -225.01123047 337.1784668 C-234.46403344 314.98580617 -234.60415602 291.64868947 -225.77563477 269.23535156 C-216.05350756 246.11419257 -198.15635966 230.61934014 -175.69628906 220.40014648 C-173.05175781 219.40405273 -173.05175781 219.40405273 -170.05175781 219.40405273 C-170.05619904 218.4328952 -170.06064026 217.46173767 -170.06521606 216.46115112 C-170.1059786 207.2532209 -170.13584523 198.04530928 -170.15538216 188.83730888 C-170.16576432 184.10479815 -170.17982023 179.37236099 -170.20263672 174.63989258 C-170.22456566 170.06221939 -170.23636816 165.4846164 -170.2415123 160.90689468 C-170.24517242 159.17123435 -170.25231824 157.43557732 -170.26321793 155.69994736 C-170.34512056 142.10185997 -169.39273259 129.16353055 -165.80175781 115.96655273 C-165.58487305 115.16362793 -165.36798828 114.36070312 -165.14453125 113.53344727 C-154.5174154 75.43153333 -128.51854694 41.5485812 -94.21923828 21.77075195 C-63.59507947 4.8174662 -34.64838106 -0.06506883 0 0 Z " fill="#0830F7" transform="translate(644.0517578125,195.595947265625)"/>
<path d="M0 0 C0.83144531 0.62261719 1.66289063 1.24523437 2.51953125 1.88671875 C34.07208239 26.38342381 54.36390284 59.15570457 63.50488281 97.90771484 C63.95105645 99.79317249 64.42317115 101.67244599 64.8984375 103.55078125 C68.37228341 117.6353347 69.32971893 131.32578019 69.26074219 145.76977539 C69.25002725 148.43073373 69.26069988 151.09101516 69.2734375 153.75195312 C69.28564834 167.80516079 67.98308758 181.3411505 65.125 195.125 C64.95282959 195.96482422 64.78065918 196.80464844 64.60327148 197.66992188 C62.17269998 209.24470349 58.87469651 220.20047289 54 231 C53.71640625 231.64340332 53.4328125 232.28680664 53.140625 232.94970703 C42.23714162 257.61537308 25.84272035 280.82198515 4 297 C11.44979955 313.07028188 31.85461558 323.55965796 47.6875 329.8125 C54.05003527 332.10875333 60.50968571 334.09858223 67 336 C65.34166677 339.94568942 62.65273158 342.93403277 59.875 346.125 C58.86877055 347.2973014 57.86356814 348.47048508 56.859375 349.64453125 C56.36759766 350.21896973 55.87582031 350.7934082 55.36914062 351.38525391 C53.57979013 353.49558989 51.84617999 355.64631407 50.125 357.8125 C49.50367188 358.59109375 48.88234375 359.3696875 48.2421875 360.171875 C46.97661117 361.76817685 45.71335241 363.36634252 44.45800781 364.97070312 C42.73082351 367.17507046 40.99096175 369.36900429 39.25 371.5625 C38.6945752 372.27833252 38.13915039 372.99416504 37.56689453 373.73168945 C37.03435059 374.399021 36.50180664 375.06635254 35.953125 375.75390625 C35.48036133 376.35533447 35.00759766 376.9567627 34.52050781 377.57641602 C32.68170898 379.29800176 31.48839135 379.70772712 29 380 C26.5983932 379.26830653 24.421698 378.47953919 22.125 377.5 C21.46588623 377.22591309 20.80677246 376.95182617 20.12768555 376.66943359 C-6.05345267 365.60205186 -31.42938974 347.99813964 -46 323 C-50.64197818 323.38049001 -55.15998797 323.83480935 -59.734375 324.734375 C-81.56526279 329.0244992 -106.29425391 328.97783792 -128 324 C-128.70366699 323.83902832 -129.40733398 323.67805664 -130.13232422 323.51220703 C-169.16146852 314.12682029 -203.26313954 288.85129921 -224.23828125 254.7578125 C-243.28310728 222.59893456 -251.45336747 187.73820898 -251.4375 150.625 C-251.43790283 149.7097052 -251.43830566 148.7944104 -251.4387207 147.85137939 C-251.4126286 137.84168302 -251.00738876 128.07203505 -249.4831543 118.17260742 C-249.00227091 115.01491179 -248.67644341 111.86669166 -248.375 108.6875 C-244.38288697 81.21053455 -231.86815158 53.89199949 -215 32 C-214.39800781 31.19304687 -213.79601563 30.38609375 -213.17578125 29.5546875 C-188.37798916 -2.78121749 -151.6570072 -21.42086573 -111.86108398 -27.31689453 C-73.58221796 -32.17618512 -31.10631086 -23.38927815 0 0 Z " fill="#0D0D0D" transform="translate(1867,366)"/>
<path d="M0 0 C20.24571471 -0.07023382 40.49140452 -0.12305839 60.737216 -0.15543652 C70.13873568 -0.17087311 79.54017945 -0.19190098 88.94165039 -0.22631836 C97.14065934 -0.25631927 105.33961328 -0.27559829 113.53867561 -0.28226548 C117.87576952 -0.28615971 122.21270612 -0.29524402 126.54974937 -0.31719017 C130.64141535 -0.3377247 134.7328609 -0.34379996 138.82457352 -0.33932304 C140.31719096 -0.34014073 141.80981665 -0.34600455 143.30238914 -0.35761642 C171.05563664 -0.56273237 195.827158 10.87822597 215.625 30.125 C233.33845781 47.96974641 244.4478327 72.68172094 244.58026409 97.90791798 C244.56625116 100.39089948 244.52788099 102.87277558 244.48828125 105.35546875 C244.47891924 107.12192263 244.47181924 108.88838977 244.46684265 110.65486145 C244.44803859 115.23348865 244.39917906 119.81128244 244.34332275 124.3895874 C244.29154485 129.08968847 244.26920558 133.7899284 244.24414062 138.49023438 C244.19102483 147.66051612 244.10604914 156.83018793 244 166 C243.19261887 166.36967896 243.19261887 166.36967896 242.368927 166.74682617 C239.89097361 167.88645135 237.41818026 169.03688368 234.9453125 170.1875 C234.09880127 170.57486328 233.25229004 170.96222656 232.38012695 171.36132812 C224.71045993 174.94618456 218.35288664 179.42229027 212 185 C211.19433594 185.68320312 210.38867188 186.36640625 209.55859375 187.0703125 C195.11788355 200.28042305 186.06651719 220.51130573 184.81542969 239.85351562 C183.681752 265.74051537 189.2340033 287.80766581 206.49609375 307.90625 C211.35136595 313.0428827 216.49199408 317.33200057 222.3125 321.3125 C222.86760254 321.69688232 223.42270508 322.08126465 223.99462891 322.47729492 C228.19858714 325.21616606 232.65231247 327.20599334 237.26635742 329.14916992 C238.23911747 329.56227543 238.23911747 329.56227543 239.23152924 329.9837265 C240.8201009 330.657986 242.40992546 331.32929234 244 332 C244.06994176 342.04121476 244.12303328 352.08237022 244.15543652 362.12378025 C244.1709994 366.78793084 244.19206318 371.45191306 244.22631836 376.1159668 C244.2592503 380.6288153 244.27692323 385.14150329 244.28463173 389.65446281 C244.29011523 391.36419128 244.30082027 393.07391236 244.31719017 394.78357124 C244.59761169 425.32420996 234.2486476 450.23497338 213.0625 472.25 C208.39701341 476.80046689 203.50244193 480.52390645 198 484 C197.09765625 484.58523438 196.1953125 485.17046875 195.265625 485.7734375 C183.03798288 493.34135654 170.07251233 497.44303371 156 500 C155.21181885 500.17200928 154.4236377 500.34401855 153.61157227 500.52124023 C140.78605036 502.87244604 126.46825593 501.4084818 114 498 C113.00355469 497.73316406 112.00710938 497.46632813 110.98046875 497.19140625 C84.59889368 489.2451487 62.30989392 470.99646851 49 447 C39.52414686 428.55047027 36.67136967 411.35138302 36.8046875 390.88671875 C36.80842719 389.17894152 36.81126963 387.47116212 36.81326294 385.76338196 C36.82082423 381.31322083 36.84040631 376.86319454 36.8626709 372.41308594 C36.88329294 367.85418521 36.8922993 363.29526226 36.90234375 358.73632812 C36.92366087 349.82416017 36.95770374 340.91209139 37 332 C38.30106689 331.51515137 38.30106689 331.51515137 39.62841797 331.02050781 C40.77971191 330.58577148 41.93100586 330.15103516 43.1171875 329.703125 C44.25269043 329.27676758 45.38819336 328.85041016 46.55810547 328.41113281 C68.37083342 319.46819285 83.73297307 302.03680294 92.97265625 280.6953125 C100.84327363 260.04616425 100.8182153 235.24390199 92.09082031 214.87841797 C88.38996548 206.88253436 83.74585402 199.68584397 78 193 C77.22269531 192.00806641 77.22269531 192.00806641 76.4296875 190.99609375 C67.20235106 179.60679685 54.51895886 173.05347906 41.29223633 167.40576172 C40.20579834 166.94186035 39.11936035 166.47795898 38 166 C37.99857498 165.04074112 37.99714996 164.08148224 37.99568176 163.09315491 C37.97881511 153.93256179 37.93545633 144.77240174 37.86790943 135.61203861 C37.83400918 130.90560435 37.80858828 126.1994819 37.80444336 121.49291992 C37.75209341 77.40412972 30.68770882 37.39513356 1.3984375 2.72265625 C0 1 0 1 0 0 Z " fill="#FEFEFE" transform="translate(747,249)"/>
<path d="M0 0 C28.05 0 56.1 0 85 0 C112.03526598 80.01346395 112.03526598 80.01346395 121.8125 109.4375 C126.96753378 124.95081812 132.17807281 140.44223704 137.49157715 155.90197754 C141.66067773 168.04080924 145.74859859 180.20584996 149.8046875 192.3828125 C150.18896754 193.53641549 150.18896754 193.53641549 150.58101082 194.71332359 C153.17396838 202.49884882 155.76360694 210.28547156 158.34853745 218.07366562 C159.32397755 221.01182821 160.30056638 223.94960834 161.27730179 226.88734055 C161.94748349 228.90469473 162.61591501 230.92262274 163.28427124 232.94058228 C165.77610037 240.44965428 165.77610037 240.44965428 168.42404175 247.90444946 C168.65662154 248.53954343 168.88920134 249.17463739 169.128829 249.82897663 C169.77409967 251.5798861 170.42825518 253.32751386 171.08299255 255.0749054 C172 258 172 258 172 262 C172.66 262 173.32 262 174 262 C174.25346191 260.74614502 174.50692383 259.49229004 174.76806641 258.20043945 C176.0189412 252.5880463 177.83346741 247.22226204 179.7109375 241.79296875 C180.07509766 240.72692917 180.43925781 239.66088959 180.81445312 238.56254578 C181.99711529 235.10274822 183.18613024 231.64516878 184.375 228.1875 C186.02287348 223.37179034 187.66751685 218.55497883 189.3125 213.73828125 C189.71922943 212.54887939 190.12595886 211.35947754 190.54501343 210.1340332 C193.87226527 200.39757666 197.13940546 190.64222695 200.375 180.875 C204.18266799 169.39300398 208.06154893 157.93778717 212 146.5 C217.6151953 130.19039965 223.08373391 113.83416772 228.51757812 97.46337891 C229.96163142 93.11383645 231.40975193 88.76565769 232.859375 84.41796875 C233.0963208 83.70724213 233.3332666 82.9965155 233.57739258 82.26425171 C234.78460027 78.64370103 235.9925247 75.02339069 237.20117188 71.40332031 C239.84125067 63.4929463 242.47147674 55.57943994 245.08721924 47.66098022 C246.53193478 43.28939667 247.9802238 38.91900069 249.42883301 34.54870605 C250.13646025 32.41082505 250.84246458 30.27240612 251.54675293 28.13342285 C252.53739659 25.12530505 253.53375406 22.11913263 254.53125 19.11328125 C254.82247742 18.22411514 255.11370483 17.33494904 255.41375732 16.4188385 C255.83639862 15.15057472 255.83639862 15.15057472 256.26757812 13.85668945 C256.5067395 13.13254349 256.74590088 12.40839752 256.99230957 11.66230774 C258.48993683 7.70559195 260.28176608 3.86602631 262 0 C289.06 0 316.12 0 344 0 C344 113.52 344 227.04 344 344 C325.19 344 306.38 344 287 344 C286.505 214.805 286.505 214.805 286 83 C284.515 87.95 284.515 87.95 283 93 C281.52929688 96.99658203 281.52929688 96.99658203 280.77709961 98.9487915 C279.26183177 102.94844641 277.91070156 107.00663769 276.53125 111.0546875 C276.20966919 111.99627716 275.88808838 112.93786682 275.5567627 113.9079895 C274.88048322 115.88945718 274.20483421 117.87114014 273.52978516 119.85302734 C272.50517272 122.85982031 271.47730974 125.86548868 270.44921875 128.87109375 C269.78886427 130.80722407 269.12870173 132.74341986 268.46875 134.6796875 C268.16553833 135.5654245 267.86232666 136.4511615 267.54992676 137.36373901 C266.10873632 141.60359574 264.73297251 145.84824388 263.47070312 150.14501953 C262.38563137 153.81461966 261.15244931 157.37928809 259.77709961 160.9487915 C258.26183177 164.94844641 256.91070156 169.00663769 255.53125 173.0546875 C255.20966919 173.99627716 254.88808838 174.93786682 254.5567627 175.9079895 C253.88048322 177.88945718 253.20483421 179.87114014 252.52978516 181.85302734 C251.50517272 184.85982031 250.47730974 187.86548868 249.44921875 190.87109375 C248.78886427 192.80722407 248.12870173 194.74341986 247.46875 196.6796875 C247.16553833 197.5654245 246.86232666 198.4511615 246.54992676 199.36373901 C245.10873632 203.60359574 243.73297251 207.84824388 242.47070312 212.14501953 C241.38079681 215.83179215 240.14102134 219.41380634 238.75927734 223.00003052 C237.34882699 226.71521797 236.09211663 230.48428027 234.8125 234.24609375 C234.36436699 235.55925316 234.36436699 235.55925316 233.90718079 236.89894104 C232.93667689 239.74463779 231.96818734 242.59101433 231 245.4375 C230.66608246 246.41807373 230.33216492 247.39864746 229.98812866 248.40893555 C225.72585848 260.92696115 221.48836313 273.45287532 217.3125 286 C216.99031494 286.9675824 216.99031494 286.9675824 216.66162109 287.95471191 C214.29409358 295.06752232 211.93822262 302.18411308 209.59257507 309.3041687 C208.49741175 312.62588187 207.39875387 315.94643392 206.2996521 319.2668457 C205.77270802 320.86197621 205.24745879 322.45766775 204.72402954 324.05395508 C203.99721743 326.27042462 203.26480781 328.48497419 202.53125 330.69921875 C202.31921432 331.35081467 202.10717865 332.00241058 201.88871765 332.67375183 C200.54069739 336.71926968 198.93747289 340.12505421 197 344 C180.5 344 164 344 147 344 C137.83341754 318.79189825 137.83341754 318.79189825 133.9559021 307.01831055 C133.21101707 304.75663723 132.46197927 302.49636953 131.7121582 300.23632812 C130.65703283 297.0548549 129.60340526 293.87289286 128.55126953 290.69042969 C126.10469093 283.29095606 123.64861071 275.89465185 121.1875 268.5 C120.94519653 267.77165955 120.70289307 267.04331909 120.45324707 266.29290771 C115.88373714 252.56594337 111.21861373 238.87219515 106.53659058 225.18325806 C102.21201597 212.5381464 97.94952048 199.87464724 93.75 187.1875 C90.12695161 176.24412184 86.39146663 165.35081553 82.5 154.5 C76.37870735 137.42802531 70.69384917 120.21856528 65 103 C62.69 96.07 60.38 89.14 58 82 C57.67 168.46 57.34 254.92 57 344 C38.19 344 19.38 344 0 344 C0 230.48 0 116.96 0 0 Z " fill="#0D0D0D" transform="translate(2238,344)"/>
<path d="M0 0 C2.77186457 -0.00407866 5.54371203 -0.01258457 8.31556702 -0.02079773 C15.01589693 -0.03785193 21.71613253 -0.03885378 28.41647848 -0.03358483 C33.87204008 -0.02951627 39.32757415 -0.03101824 44.78313446 -0.03633308 C45.95514267 -0.03745572 45.95514267 -0.03745572 47.15082781 -0.03860103 C48.73896458 -0.04013277 50.32710135 -0.04167112 51.91523811 -0.043216 C66.75459758 -0.05689292 81.5939041 -0.0515376 96.43326232 -0.04003078 C109.9535031 -0.03010597 123.47360688 -0.04303466 136.99382654 -0.06696498 C150.93894279 -0.09145781 164.8839955 -0.10093883 178.8291328 -0.09431225 C186.63319176 -0.0908422 194.43714557 -0.09290371 202.24118805 -0.11056328 C208.88514064 -0.12541363 215.52891402 -0.12575596 222.17286357 -0.10849237 C225.5502548 -0.10008326 228.92707047 -0.09981894 232.30448341 -0.11314392 C252.83772843 -0.18789215 273.47570375 0.99968137 293.01074219 7.90405273 C293.97915039 8.23735596 294.94755859 8.57065918 295.9453125 8.9140625 C311.76501122 14.60685392 327.09303604 22.50269184 339.94824219 33.40405273 C341.09337515 34.33850542 342.23925148 35.27204763 343.38574219 36.20483398 C374.01908509 61.44886261 394.20616659 97.8804333 398.94824219 137.40405273 C399.41419852 143.92746797 399.30176311 150.46640839 399.24121094 157.00170898 C399.2355971 158.81586857 399.23133549 160.63003279 399.22834778 162.44419861 C399.2170394 167.15741124 399.18769772 171.87033462 399.15423584 176.58343506 C399.12322803 181.41748139 399.10977767 186.25157568 399.09472656 191.08569336 C399.0628106 200.52527171 399.01178997 209.96463792 398.94824219 219.40405273 C397.861492 219.19211273 396.77474182 218.98017273 395.65505981 218.7618103 C394.20871447 218.48400818 392.76233186 218.20640005 391.31591797 217.92895508 C390.24516777 217.71933388 390.24516777 217.71933388 389.15278625 217.50547791 C383.34789593 216.39830927 377.73704795 215.94853193 371.82324219 216.02905273 C370.9634375 216.01745117 370.10363281 216.00584961 369.21777344 215.99389648 C363.82511537 216.01772266 358.86490975 216.76028004 353.59716797 217.92895508 C351.72413498 218.34121841 351.72413498 218.34121841 349.81326294 218.7618103 C348.86780609 218.97375031 347.92234924 219.18569031 346.94824219 219.40405273 C346.94681717 218.44399826 346.94539215 217.48394379 346.94392395 216.49479675 C346.92711473 207.36176446 346.88392319 198.2291698 346.81615162 189.09636974 C346.78213931 184.4032139 346.75681233 179.71037466 346.75268555 175.01708984 C346.7483465 170.47150867 346.71943023 165.92663858 346.67481041 161.3812809 C346.66201171 159.66376226 346.65746356 157.94615774 346.66208839 156.22859764 C346.70116457 137.27589206 342.36404084 120.85517375 332.94824219 104.40405273 C332.36945312 103.38569336 331.79066406 102.36733398 331.19433594 101.31811523 C327.16584977 94.64447458 322.32018638 89.02810983 316.94824219 83.40405273 C316.41972656 82.80077148 315.89121094 82.19749023 315.34667969 81.57592773 C299.73818791 64.44660855 273.62915235 54.66248134 251.03979409 53.21808195 C248.05042246 53.14934572 245.06680578 53.13718345 242.07667542 53.15008545 C240.94445067 53.14696547 239.81222592 53.14384549 238.64569134 53.14063096 C234.88524051 53.13271001 231.12495372 53.13895154 227.36450195 53.14526367 C224.65479197 53.14365051 221.94508875 53.13906057 219.23538208 53.13464355 C212.65931247 53.12578391 206.08328871 53.12765629 199.50721736 53.13346884 C194.15864116 53.13799926 188.81007774 53.13859228 183.46150017 53.1364212 C182.69810438 53.13611474 181.93470859 53.13580827 181.1481796 53.13549252 C179.59698351 53.13485302 178.04578743 53.13420459 176.49459135 53.13354734 C161.97321952 53.12785398 147.451873 53.13438609 132.93050533 53.14514807 C120.49263866 53.15408087 108.05480935 53.15253183 95.61694336 53.14331055 C81.14644839 53.1325872 66.67597557 53.1284051 52.20547718 53.13453507 C50.65991811 53.13517212 49.11435904 53.13580086 47.56879997 53.1364212 C46.80851054 53.13672975 46.0482211 53.13703831 45.2648926 53.13735621 C39.92832976 53.13907709 34.59178106 53.13618113 29.25522041 53.1314621 C22.74365225 53.12583019 16.23213226 53.12741792 9.72056956 53.13802359 C6.4034687 53.14324969 3.08651367 53.14429792 -0.23059654 53.13872528 C-3.83821226 53.13322521 -7.44560567 53.14015795 -11.0532074 53.15008545 C-12.0849477 53.14562401 -13.116688 53.14116256 -14.17969316 53.13656592 C-44.748279 53.2986901 -69.98734501 65.40318798 -91.39550781 86.73999023 C-108.50256144 104.84300246 -117.95195151 130.00551148 -118.25708008 154.80810547 C-118.26697968 155.51138474 -118.27687927 156.214664 -118.28707886 156.93925476 C-118.31839193 159.23868571 -118.34333034 161.53813723 -118.36816406 163.83764648 C-118.38875975 165.44190474 -118.40975687 167.04615789 -118.43113708 168.65040588 C-118.48608791 172.85395141 -118.53561515 177.05754371 -118.58398438 181.26116943 C-118.63439763 185.55818803 -118.68997977 189.85513949 -118.74511719 194.15209961 C-118.85236818 202.5693604 -118.95388525 210.98667769 -119.05175781 219.40405273 C-118.37651566 219.59927017 -117.7012735 219.79448761 -117.00556946 219.99562073 C-116.11371445 220.25745651 -115.22185944 220.5192923 -114.30297852 220.7890625 C-113.42148636 221.04615494 -112.5399942 221.30324738 -111.63179016 221.56813049 C-107.92663286 222.76858963 -104.61593997 224.41900844 -101.23925781 226.34155273 C-100.56056641 226.72706299 -99.881875 227.11257324 -99.18261719 227.50976562 C-78.78981253 239.60189758 -65.30568293 259.88455412 -59.05175781 282.40405273 C-53.8009762 304.79260341 -58.11838289 328.96047602 -69.98535156 348.32592773 C-73.08381658 352.94141059 -76.35731854 357.25045753 -80.05175781 361.40405273 C-80.715625 362.16202148 -81.37949219 362.91999023 -82.06347656 363.70092773 C-94.9930371 377.5625638 -115.77492813 388.34341086 -134.76806641 389.58105469 C-160.59646788 390.12084892 -160.59646788 390.12084892 -173.05175781 385.40405273 C-174.21320313 384.99155273 -175.37464844 384.57905273 -176.57128906 384.15405273 C-198.52712538 375.63315485 -215.41282199 358.4744758 -225.01123047 337.1784668 C-234.46403344 314.98580617 -234.60415602 291.64868947 -225.77563477 269.23535156 C-216.05350756 246.11419257 -198.15635966 230.61934014 -175.69628906 220.40014648 C-173.05175781 219.40405273 -173.05175781 219.40405273 -170.05175781 219.40405273 C-170.05619904 218.4328952 -170.06064026 217.46173767 -170.06521606 216.46115112 C-170.1059786 207.2532209 -170.13584523 198.04530928 -170.15538216 188.83730888 C-170.16576432 184.10479815 -170.17982023 179.37236099 -170.20263672 174.63989258 C-170.22456566 170.06221939 -170.23636816 165.4846164 -170.2415123 160.90689468 C-170.24517242 159.17123435 -170.25231824 157.43557732 -170.26321793 155.69994736 C-170.34512056 142.10185997 -169.39273259 129.16353055 -165.80175781 115.96655273 C-165.58487305 115.16362793 -165.36798828 114.36070312 -165.14453125 113.53344727 C-154.5174154 75.43153333 -128.51854694 41.5485812 -94.21923828 21.77075195 C-63.59507947 4.8174662 -34.64838106 -0.06506883 0 0 Z " fill="#9CACFC" transform="translate(644.0517578125,195.595947265625)"/>
<path d="M0 0 C2.51585456 2.21644064 4.96803849 4.48349454 7.40234375 6.7890625 C8.24796875 7.58183594 9.09359375 8.37460937 9.96484375 9.19140625 C15.83387606 14.85466456 21.08455763 20.84200997 25.40234375 27.7890625 C25.40234375 28.4490625 25.40234375 29.1090625 25.40234375 29.7890625 C23.82947691 31.20344656 22.19094379 32.54510651 20.52734375 33.8515625 C16.71398813 36.89932115 13.00425566 39.99406591 9.40234375 43.2890625 C5.13625798 47.17773784 0.7158754 50.82126011 -3.78515625 54.43359375 C-5.79773694 56.11913008 -7.70392563 57.80479304 -9.59765625 59.61328125 C-10.33544312 60.31336304 -10.33544312 60.31336304 -11.08813477 61.02758789 C-12.46465365 62.34650989 -13.82650621 63.68068853 -15.1875 65.015625 C-17.59765625 66.7890625 -17.59765625 66.7890625 -19.6003418 66.58422852 C-22.98462782 65.23688472 -24.53620409 62.04221199 -26.47265625 59.1015625 C-29.04969725 55.23600099 -31.56603937 51.69578627 -34.91796875 48.45703125 C-35.80226563 47.57660156 -36.6865625 46.69617188 -37.59765625 45.7890625 C-37.59765625 45.1290625 -37.59765625 44.4690625 -37.59765625 43.7890625 C-38.18804688 43.52351563 -38.7784375 43.25796875 -39.38671875 42.984375 C-41.65481677 41.75815946 -43.13117723 40.45554662 -44.97265625 38.6640625 C-61.86336338 23.64663158 -83.34575948 18.38189254 -105.41015625 18.4140625 C-106.40086624 18.41537674 -106.40086624 18.41537674 -107.41159058 18.41671753 C-126.22192839 18.49901294 -142.41840576 22.96524526 -156.43359375 36.25 C-165.18305889 46.51561795 -166.55118373 57.86677863 -165.59765625 70.7890625 C-164.12880867 78.64091682 -160.15158594 85.17767709 -153.94921875 90.21875 C-139.24596418 100.03720238 -121.0320071 103.89622286 -104.03515625 107.7890625 C-102.53717334 108.137515 -101.03929057 108.48639828 -99.54150391 108.83569336 C-92.1212721 110.55914958 -84.69081997 112.21323771 -77.23413086 113.77246094 C-43.22014664 120.90544392 -5.0157786 131.69970694 15.66015625 161.984375 C29.27186319 183.89739201 31.67510793 209.86667501 26.23852539 234.82519531 C19.64712146 262.28149503 2.04271302 284.34947378 -21.53515625 299.3671875 C-36.59343903 308.58086441 -53.290106 314.57983828 -70.59765625 317.7890625 C-71.3131665 317.95752686 -72.02867676 318.12599121 -72.76586914 318.29956055 C-82.30390026 320.37272207 -91.94594726 320.22795554 -101.66015625 320.2265625 C-102.59051697 320.22796234 -103.52087769 320.22936218 -104.47943115 320.23080444 C-120.03162187 320.21158853 -134.52767141 318.89382837 -149.59765625 314.7890625 C-150.37093262 314.58619629 -151.14420898 314.38333008 -151.94091797 314.17431641 C-180.46776987 306.54037012 -206.28435123 292.16593057 -227.59765625 271.7890625 C-228.34144531 271.1084375 -229.08523438 270.4278125 -229.8515625 269.7265625 C-236.41864397 263.51353238 -241.75469184 256.40232388 -246.59765625 248.7890625 C-246.59765625 248.1290625 -246.59765625 247.4690625 -246.59765625 246.7890625 C-245.0078125 245.3359375 -245.0078125 245.3359375 -242.66015625 243.5390625 C-237.80952908 239.75337473 -233.03201869 235.89173011 -228.28515625 231.9765625 C-227.55659424 231.37634277 -226.82803223 230.77612305 -226.07739258 230.15771484 C-220.45499849 225.51694925 -214.88033203 220.82274211 -209.33203125 216.09375 C-208.4296875 215.33320312 -207.52734375 214.57265625 -206.59765625 213.7890625 C-205.7365625 213.00789062 -204.87546875 212.22671875 -203.98828125 211.421875 C-201.59765625 209.7890625 -201.59765625 209.7890625 -199.57421875 209.640625 C-196.49310587 211.43083683 -194.88689159 214.25045013 -192.97265625 217.1640625 C-176.10598681 241.63818577 -149.89517809 259.66620962 -120.59765625 265.7890625 C-93.67524816 269.57096355 -69.07740611 266.15751829 -46.41015625 250.6015625 C-37.96817304 242.15957929 -33.25233163 231.88070169 -33.13867188 219.97265625 C-33.14576172 219.08707031 -33.15285156 218.20148438 -33.16015625 217.2890625 C-33.14017578 216.40347656 -33.12019531 215.51789063 -33.09960938 214.60546875 C-33.10619913 205.63022887 -36.16329962 198.2894107 -42.33203125 191.7578125 C-61.94417289 174.7155377 -93.20670943 171.01907229 -117.60229492 165.5222168 C-152.76056825 157.57966848 -192.79004696 147.92810908 -214.765625 116.73828125 C-217.54398632 112.26565269 -219.67029877 107.67982732 -221.59765625 102.7890625 C-221.89285156 102.12648438 -222.18804688 101.46390625 -222.4921875 100.78125 C-231.33067983 79.96943061 -228.44382845 52.08597272 -220.21948242 31.53833008 C-208.74536931 4.40338602 -186.22680084 -14.09921694 -159.62451172 -25.39892578 C-154.40220156 -27.49112086 -149.06341064 -28.91702749 -143.59765625 -30.2109375 C-142.86836914 -30.38608887 -142.13908203 -30.56124023 -141.38769531 -30.74169922 C-139.02272168 -31.30560901 -136.65508886 -31.85576082 -134.28515625 -32.3984375 C-133.19182983 -32.64932129 -133.19182983 -32.64932129 -132.07641602 -32.90527344 C-87.39928563 -42.72664828 -34.7073437 -29.54038576 0 0 Z " fill="#0E0E0E" transform="translate(1566.59765625,373.2109375)"/>
<path d="M0 0 C1.70577396 1.47918608 3.39439844 2.97845689 5.0625 4.5 C5.82820313 5.18449219 6.59390625 5.86898438 7.3828125 6.57421875 C28.80964253 26.7691927 38.88194559 55.87501031 42.0625 84.5 C42.0625 96.71 42.0625 108.92 42.0625 121.5 C-16.0175 121.5 -74.0975 121.5 -133.9375 121.5 C-131.78388898 135.12903207 -131.78388898 135.12903207 -127.6875 147.875 C-127.23080933 148.99648438 -127.23080933 148.99648438 -126.76489258 150.140625 C-120.62248648 164.76223931 -111.20531204 176.22890348 -96.9375 183.5 C-96.174375 183.88929688 -95.41125 184.27859375 -94.625 184.6796875 C-80.15204316 191.56439266 -59.57683782 192.64059358 -44.4375 187.375 C-28.27829122 180.84528567 -17.6681786 171.28370494 -10.5 155.3125 C-9.96971382 154.04558197 -9.4448579 152.77627297 -8.9375 151.5 C-3.88050445 152.05964676 0.38388534 153.20231682 5.10546875 155.08203125 C6.08003777 155.4652076 6.08003777 155.4652076 7.07429504 155.85612488 C9.13575471 156.66782105 11.19304059 157.4894741 13.25 158.3125 C15.95014218 159.38579444 18.65207285 160.45445975 21.35546875 161.51953125 C22.00780487 161.77695099 22.66014099 162.03437073 23.33224487 162.29959106 C29.17145755 164.58373617 35.08680239 166.60117361 41.0625 168.5 C32.81549468 194.0681823 12.87048809 215.36461646 -10.796875 227.52734375 C-28.28866378 236.14980594 -45.87170007 240.09908502 -65.25 239.875 C-65.97083771 239.87034729 -66.69167542 239.86569458 -67.43435669 239.86090088 C-96.50819258 239.64134824 -122.2182485 232.14390554 -144.9375 213.5 C-146.21367187 212.45392578 -146.21367187 212.45392578 -147.515625 211.38671875 C-158.92886743 201.57061244 -167.12438165 190.53713021 -174.01660156 177.25976562 C-174.79224054 175.77757959 -175.60668207 174.31579298 -176.4296875 172.859375 C-185.26183394 156.73110759 -189.03028652 135.52190457 -189.140625 117.37109375 C-189.14632507 116.61893082 -189.15202515 115.86676788 -189.15789795 115.09181213 C-189.16728192 113.50775529 -189.17385539 111.9236795 -189.17773438 110.33959961 C-189.18737775 107.96757076 -189.21843814 105.59643348 -189.25 103.22460938 C-189.31898294 93.24525094 -188.30594623 84.20483562 -185.9375 74.5 C-185.63730957 73.21996094 -185.33711914 71.93992187 -185.02783203 70.62109375 C-177.68260438 40.06221522 -158.73286992 11.61280424 -131.94335938 -5.30761719 C-91.73375488 -29.21021071 -37.46014357 -29.81203092 0 0 Z " fill="#0E0E0E" transform="translate(2813.9375,453.5)"/>
<path d="M0 0 C1.20269531 -0.01160156 2.40539063 -0.02320313 3.64453125 -0.03515625 C28.78517726 0.0458555 50.43148181 10.86136715 67.97705078 28.4152832 C93.55845231 55.09419622 100.03432072 93.5256271 99.71484375 129.0703125 C99.24220487 151.57496874 94.3574934 173.15166713 84.5 193.375 C84.02820312 194.35855469 83.55640625 195.34210938 83.0703125 196.35546875 C71.2416768 219.51152678 51.19776312 235.41400001 26.6796875 243.515625 C17.95625562 245.87330929 9.79277392 246.73380874 0.75 246.6875 C-0.40089111 246.68186035 -1.55178223 246.6762207 -2.73754883 246.67041016 C-28.0292611 246.30927876 -49.213176 235.88848201 -66.87109375 217.96875 C-94.24901051 188.79026199 -99.49501018 149.43561454 -98.63183594 111.19433594 C-97.46802492 77.47829969 -85.01168295 45.21568497 -60.3984375 21.83203125 C-43.47769127 6.41712237 -22.65861626 -0.21857186 0 0 Z " fill="#FEFEFE" transform="translate(1775.5,392.625)"/>
<path d="M0 0 C19.14 0 38.28 0 58 0 C58.33 38.94 58.66 77.88 59 118 C61.97 115.03 64.94 112.06 68 109 C88.48832924 92.63358315 112.07108861 86.19257125 138 88 C159.52257197 90.74000523 179.95349273 100.33778776 193.5625 117.5 C201.83016195 128.9908938 207.11582812 141.13598566 210 155 C210.16716963 155.71117635 210.33433926 156.4223527 210.50657463 157.15507984 C212.38782056 165.97118196 212.26746319 174.71952382 212.22705078 183.68041992 C212.2264857 185.44556675 212.22680511 187.21071404 212.22793579 188.9758606 C212.22850654 193.73749588 212.21679747 198.49902915 212.20278788 203.26064086 C212.19023395 208.24808079 212.18910636 213.23552339 212.18673706 218.22297668 C212.18053594 227.65390485 212.16414373 237.08478631 212.14403808 246.51569396 C212.12163638 257.25818067 212.11067493 268.00066968 212.10064721 278.74317396 C212.07977622 300.82881445 212.04311717 322.91439096 212 345 C192.86 345 173.72 345 154 345 C153.97812622 337.69548706 153.97812622 337.69548706 153.95581055 330.2434082 C153.90542014 314.13416701 153.8389658 298.02502146 153.76428509 281.91587543 C153.71940735 272.15120336 153.67997434 262.3865671 153.65356445 252.62182617 C153.63051923 244.10632324 153.59704883 235.59093443 153.55129844 227.07552212 C153.52745388 222.57080652 153.50866786 218.06620333 153.50238609 213.56142616 C153.49629531 209.3120978 153.47615315 205.06305671 153.44572449 200.81383514 C153.43700776 199.26319824 153.4332083 197.7125237 153.43499184 196.16186333 C153.44604553 182.10352836 151.78232122 169.97132375 144 158 C143.57074219 157.33097656 143.14148437 156.66195312 142.69921875 155.97265625 C137.19048601 148.54642951 127.56415537 144.64937657 118.6328125 143.2421875 C102.89197555 141.79421734 89.97308779 144.77118469 77.08984375 154.109375 C67.81199453 162.00184402 61.44187291 173.00648821 59 185 C58.89877619 187.18337014 58.85377204 189.36955439 58.84178162 191.55523682 C58.83684364 192.21202289 58.83190566 192.86880897 58.82681805 193.54549766 C58.81147145 195.74419646 58.80309016 197.94286612 58.79467773 200.14160156 C58.78509698 201.7185288 58.77508678 203.29545349 58.76467896 204.87237549 C58.73764525 209.15297747 58.71662737 213.43359047 58.69667697 217.71423054 C58.67480797 222.18790505 58.64742375 226.66154569 58.62062073 231.13519287 C58.57070622 239.6065405 58.52576277 248.07790695 58.48259836 256.54929137 C58.43321539 266.19372117 58.37830119 275.83811698 58.32291877 285.4825139 C58.20911777 305.32164579 58.10300482 325.16080892 58 345 C38.86 345 19.72 345 0 345 C0 231.15 0 117.3 0 0 Z " fill="#0E0E0E" transform="translate(3127,343)"/>
<path d="M0 0 C1.27230469 0.28875 2.54460938 0.5775 3.85546875 0.875 C26.99669326 6.84005672 51.78331953 20.51729227 65.625 40.5 C67 43 67 43 67 45 C65.671875 46.33984375 65.671875 46.33984375 63.75 47.9375 C60.09025988 51.04568354 56.52670736 54.24248576 53 57.5 C49.05494221 61.13296043 45.07540972 64.7170498 41.0234375 68.23046875 C36.97315928 71.77250742 32.99194962 75.39252094 29 79 C26.14588905 76.25904763 23.74369943 73.41498562 21.375 70.25 C11.72878843 58.20106906 -2.9878859 49.6974281 -18 46 C-18.79921875 45.79761719 -19.5984375 45.59523438 -20.421875 45.38671875 C-34.92838616 42.23219635 -52.04518777 42.54601294 -64.99609375 50.48828125 C-70.81140255 54.87526859 -74.80104488 59.67305203 -76 67 C-76.50664634 72.57310978 -75.69266558 77.12018843 -73 82 C-62.0709877 94.04993664 -40.25537264 95.93297757 -25.1386261 99.05360413 C41.55002242 112.82162369 41.55002242 112.82162369 60 138 C70.62863646 154.88565052 72.49026768 174.75891974 68.16796875 194.09765625 C64.96880029 205.63530249 59.15908815 216.26757052 51 225 C50.21238281 225.88945313 49.42476562 226.77890625 48.61328125 227.6953125 C34.59019643 242.7454992 15.06501218 252.08302659 -5 256 C-5.72751465 256.16701416 -6.4550293 256.33402832 -7.20458984 256.50610352 C-15.73874219 258.31211598 -24.19782366 258.35477515 -32.875 258.3125 C-33.64801453 258.31067719 -34.42102905 258.30885437 -35.21746826 258.30697632 C-74.29231464 258.15199353 -110.68491258 246.63480679 -139.25 219 C-143.20092325 214.95111998 -146.63604783 210.54133543 -150 206 C-145.94739767 201.78150167 -141.59207236 198.07134779 -137.0625 194.375 C-136.31830811 193.76470947 -135.57411621 193.15441895 -134.80737305 192.52563477 C-129.47115407 188.16377174 -124.08510961 183.86887117 -118.64282227 179.64013672 C-115.45128631 177.16674275 -115.45128631 177.16674275 -112.38037109 174.54736328 C-110.9793469 173.2954484 -109.49427442 172.13899239 -108 171 C-104.06468758 172.31177081 -103.29101403 174.11709055 -100.9375 177.5 C-87.95435597 195.40374496 -67.58641457 206.26493456 -46 210 C-41.48947474 210.40389347 -37.02669814 210.47762514 -32.5 210.4375 C-31.31817139 210.43137695 -30.13634277 210.42525391 -28.91870117 210.41894531 C-20.61802794 210.26976614 -13.60548257 209.53068507 -6 206 C-5.22011719 205.66484375 -4.44023437 205.3296875 -3.63671875 204.984375 C3.2520128 201.8107729 7.77510028 198.08269814 11.046875 191.125 C12.2224265 187.27073278 12.51227951 183.76211005 12.5625 179.75 C12.57708252 179.07678711 12.59166504 178.40357422 12.60668945 177.70996094 C12.5044538 172.69607675 11.15611306 169.83280968 8 166 C-4.82999812 154.30085107 -26.33088493 152.64855127 -42.6875 149.625 C-70.56301596 144.42906522 -105.47633204 137.86814645 -123 113 C-132.66157197 96.34290304 -136.09191523 77.71163261 -131.5 58.8125 C-125.53328134 36.65079822 -111.29117111 20.48506804 -91.67578125 8.9140625 C-63.58781489 -6.21081887 -30.46211614 -7.02152091 0 0 Z " fill="#0E0E0E" transform="translate(3018,435)"/>
<path d="M0 0 C20.46 0 40.92 0 62 0 C62 96.03 62 192.06 62 291 C115.46 291 168.92 291 224 291 C224 308.82 224 326.64 224 345 C150.08 345 76.16 345 0 345 C0 231.15 0 117.3 0 0 Z " fill="#0F0F0F" transform="translate(1979,343)"/>
<path d="M0 0 C17.85461093 13.99025642 31.1434409 33.41652745 35 56 C36.83139388 83.30169169 33.2017223 106.20765658 15.04296875 127.703125 C14.36878906 128.46109375 13.69460938 129.2190625 13 130 C12.33613281 130.75796875 11.67226563 131.5159375 10.98828125 132.296875 C-1.94127929 146.15851107 -22.72317031 156.93935812 -41.71630859 158.17700195 C-67.54471006 158.71679619 -67.54471006 158.71679619 -80 154 C-81.16144531 153.5875 -82.32289063 153.175 -83.51953125 152.75 C-105.47536756 144.22910211 -122.36106418 127.07042307 -131.95947266 105.77441406 C-141.41227562 83.58175344 -141.5523982 60.24463674 -132.72387695 37.83129883 C-123.27880175 15.36902479 -105.59655539 -1.11660543 -83.37890625 -10.71484375 C-55.73912311 -21.22754739 -24.25881173 -17.08433943 0 0 Z " fill="#0830F7" transform="translate(551,427)"/>
<path d="M0 0 C1.29515282 0.31791 1.29515282 0.31791 2.61647034 0.64224243 C3.76469772 0.91708466 4.91292511 1.19192688 6.09594727 1.47509766 C7.79328758 1.88582016 7.79328758 1.88582016 9.5249176 2.30484009 C15.00521584 3.40112593 20.36717738 3.43551044 25.9375 3.375 C27.00162109 3.38660156 28.06574219 3.39820313 29.16210938 3.41015625 C35.11651701 3.38862132 40.59514928 2.77767884 46.41235352 1.47509766 C48.27211571 1.06283432 48.27211571 1.06283432 50.16944885 0.64224243 C51.10353073 0.43030243 52.03761261 0.21836243 53 0 C52.99333817 1.3251915 52.99333817 1.3251915 52.98654175 2.67715454 C52.94623067 11.06098366 52.91589761 19.44477956 52.89637566 27.82868385 C52.88600139 32.13745939 52.87196052 36.44615389 52.84912109 40.75488281 C52.82716321 44.92407385 52.81538377 49.09318764 52.81024551 53.2624321 C52.80659045 54.84179269 52.79945506 56.42114974 52.78853989 58.00047684 C52.69852431 71.58270849 53.63183287 84.48392926 58.125 97.4375 C58.43066895 98.33001465 58.73633789 99.2225293 59.05126953 100.14208984 C63.63896771 113.0875288 69.87382855 123.66137489 79 134 C79.77859375 134.9796875 80.5571875 135.959375 81.359375 136.96875 C84.08827962 140.24961499 87.19191728 142.83821982 90.5625 145.4375 C91.17746338 145.91340576 91.79242676 146.38931152 92.42602539 146.87963867 C117.59200571 166.01927649 143.66103817 168.62833828 174.10112953 167.99500656 C179.14279126 167.89162348 184.18442656 167.83212016 189.22685242 167.78067017 C203.54950721 167.62967456 217.87100474 167.45017615 232.19165039 167.16357422 C240.13575804 167.00494759 248.07888068 166.89723687 256.02442235 166.84544241 C260.21155943 166.81594857 264.39471561 166.76089116 268.58034706 166.64204025 C297.31083874 165.84790469 297.31083874 165.84790469 305.02701855 172.84159279 C307.15898487 175.19435215 308.98605637 177.64401629 310.73837852 180.28847122 C329.61185577 205.8924262 371.89241218 215.58711856 401 220 C401 220.33 401 220.66 401 221 C368.39645218 221.09151452 335.79294179 221.16217431 303.18929457 221.20426132 C299.32842599 221.20926334 295.46755766 221.21444071 291.60668945 221.21972656 C290.45388532 221.22130043 290.45388532 221.22130043 289.27779222 221.22290608 C276.88079282 221.24024788 264.48386862 221.27175069 252.08691364 221.30861118 C239.33913738 221.34619489 226.59140015 221.3682724 213.84357077 221.37635398 C205.99574094 221.3818059 198.14812381 221.39893913 190.30035955 221.43166587 C184.25334813 221.45557792 178.20651447 221.45777646 172.15945053 221.45243073 C169.70027303 221.45351976 167.24108652 221.46132128 164.78195763 221.4768219 C143.4937477 221.60428148 123.07445965 219.42445232 103 212 C102.32308105 211.75411133 101.64616211 211.50822266 100.94873047 211.25488281 C62.33459591 197.00368335 31.78543375 167.43799549 14.12255859 130.50585938 C10.85495659 123.21167344 8.36561121 115.62602961 6 108 C5.49339844 106.37578125 5.49339844 106.37578125 4.9765625 104.71875 C1.16931753 91.60071783 0.67154281 78.78455379 0.5859375 65.234375 C0.56719276 63.34579656 0.54761698 61.45722621 0.5272522 59.56866455 C0.47627389 54.63691001 0.43646626 49.70512841 0.39910889 44.77325439 C0.35885225 39.7250722 0.30785955 34.67699919 0.2578125 29.62890625 C0.16146024 19.75268125 0.07692731 9.8763941 0 0 Z " fill="#CED6FC" transform="translate(473,581)"/>
<path d="M0 0 C2.48361236 -0.00436658 4.96543045 -0.0408314 7.44873047 -0.07861328 C22.81386932 -0.18708759 37.41192295 2.59990196 51.93701172 7.62060547 C52.80801514 7.91797607 53.67901855 8.21534668 54.57641602 8.52172852 C78.62941171 16.99326543 100.09005335 31.54555633 117.24951172 50.37060547 C117.24951172 50.70060547 117.24951172 51.03060547 117.24951172 51.37060547 C116.62243222 51.37391562 115.99535273 51.37722576 115.34927082 51.38063622 C100.03953096 51.46211518 84.7298952 51.55428739 69.42029285 51.65813255 C62.01646266 51.70809913 54.61264265 51.75454281 47.20874023 51.79248047 C40.75001799 51.82558419 34.29137879 51.86551445 27.83274859 51.91339552 C24.41793559 51.93847939 21.00317638 51.96031232 17.58829689 51.97394943 C13.7614634 51.99095415 9.93489025 52.02002278 6.1081543 52.05175781 C4.43902481 52.05499809 4.43902481 52.05499809 2.73617554 52.05830383 C-28.1564471 52.3832764 -53.3880198 64.07267855 -75.09423828 85.70654297 C-92.20129191 103.8095552 -101.65068197 128.97206421 -101.95581055 153.7746582 C-101.96571014 154.47793747 -101.97560974 155.18121674 -101.98580933 155.9058075 C-102.0171224 158.20523844 -102.04206081 160.50468997 -102.06689453 162.80419922 C-102.08749022 164.40845748 -102.10848734 166.01271062 -102.12986755 167.61695862 C-102.18481838 171.82050415 -102.23434562 176.02409644 -102.28271484 180.22772217 C-102.3331281 184.52474076 -102.38871024 188.82169223 -102.44384766 193.11865234 C-102.55109865 201.53591313 -102.65261572 209.95323043 -102.75048828 218.37060547 C-103.83519913 218.1582576 -104.91990997 217.94590973 -106.03749084 217.72712708 C-107.48223048 217.44898656 -108.92701112 217.17105901 -110.37182617 216.89331055 C-111.08418678 216.75326851 -111.79654739 216.61322647 -112.53049469 216.46894073 C-118.44713507 215.33859338 -124.16201974 214.9470891 -130.18798828 215.05810547 C-131.0896875 215.05488281 -131.99138672 215.05166016 -132.92041016 215.04833984 C-138.08080174 215.08938417 -142.76891092 215.62798739 -147.76245117 216.9440918 C-149.75048828 217.37060547 -149.75048828 217.37060547 -153.75048828 217.37060547 C-153.79708824 207.31209475 -153.83249674 197.25361025 -153.85411263 187.19501305 C-153.86449375 182.52303596 -153.87854768 177.85113342 -153.90136719 173.17919922 C-153.92329994 168.65988063 -153.9350994 164.14063317 -153.94024277 159.62126541 C-153.94390222 157.90793363 -153.95104667 156.19460518 -153.96194839 154.48130417 C-154.0445312 140.94890312 -153.07390995 128.06557487 -149.50048828 114.93310547 C-149.28360352 114.13018066 -149.06671875 113.32725586 -148.84326172 112.5 C-138.21614587 74.39808606 -112.21727741 40.51513394 -77.91796875 20.73730469 C-65.53213835 13.88060951 -53.19719555 7.96685699 -39.50048828 4.24560547 C-38.38158203 3.93365234 -37.26267578 3.62169922 -36.10986328 3.30029297 C-24.17507291 0.53722612 -12.19178375 -0.00238447 0 0 Z " fill="#7F94FB" transform="translate(627.75048828125,196.62939453125)"/>
<path d="M0 0 C91.41 0 182.82 0 277 0 C277 0.33 277 0.66 277 1 C202.75 1.495 202.75 1.495 127 2 C130.3 6.29 133.6 10.58 137 15 C140.24872412 19.86355913 143.16399871 24.88849745 146 30 C146.53004639 30.94915283 146.53004639 30.94915283 147.07080078 31.91748047 C152.91049114 42.52701482 156.8109215 53.34034617 160 65 C160.195298 65.68851547 160.39059601 66.37703094 160.59181213 67.08641052 C165.71347152 85.91102404 164.46169836 105.66973582 164.2746582 124.99047852 C164.23317785 129.7377199 164.21535242 134.48505015 164.1953125 139.23242188 C164.15286617 148.48851027 164.08491948 157.74421036 164 167 C162.97505936 166.78806 161.95011871 166.57612 160.89411926 166.35775757 C159.53336699 166.0799842 158.17258132 165.80237443 156.81176758 165.52490234 C156.13813423 165.38515488 155.46450089 165.24540741 154.77045441 165.10142517 C149.68221726 164.06890558 144.86628086 163.53908474 139.6875 163.625 C138.99978516 163.61339844 138.31207031 163.60179687 137.60351562 163.58984375 C131.85426754 163.62023625 126.31276094 164.55427009 120.66333008 165.52490234 C119.82911781 165.66619064 118.99490555 165.80747894 118.13541412 165.95304871 C116.08989935 166.29981748 114.04489691 166.64960608 112 167 C111.99453156 165.61296371 111.99453156 165.61296371 111.98895264 164.19790649 C111.95078948 155.40305211 111.89362221 146.60855795 111.81609726 137.81395912 C111.77690233 133.29457965 111.74457888 128.77538687 111.72900391 124.25585938 C111.71365005 119.87892587 111.67888329 115.50250667 111.63169098 111.1258049 C111.61706722 109.47165827 111.60897018 107.81743813 111.60811615 106.16322708 C111.57733991 76.38949814 101.29684662 50.77245272 80.4453125 29.37890625 C66.04636737 15.66860632 48.22112696 7.30738508 29 3 C28.22648193 2.82654053 27.45296387 2.65308105 26.65600586 2.47436523 C23.83237419 1.97006187 21.12745377 1.79086725 18.26171875 1.68359375 C17.19501953 1.64169922 16.12832031 1.59980469 15.02929688 1.55664062 C13.92650391 1.51732422 12.82371094 1.47800781 11.6875 1.4375 C10.00430664 1.37272461 10.00430664 1.37272461 8.28710938 1.30664062 C5.52485431 1.20085213 2.7625137 1.09876328 0 1 C0 0.67 0 0.34 0 0 Z " fill="#CED6FD" transform="translate(621,248)"/>
<path d="M0 0 C8.49025072 8.14737521 13.2996484 17.61307213 16.03125 28.94921875 C16.03125 32.57921875 16.03125 36.20921875 16.03125 39.94921875 C-21.91875 39.94921875 -59.86875 39.94921875 -98.96875 39.94921875 C-97.58725638 33.04175063 -96.50965596 27.96737147 -93.40625 21.94921875 C-93.05691406 21.26351807 -92.70757813 20.57781738 -92.34765625 19.87133789 C-89.07492178 13.70812317 -85.01526297 8.77164144 -79.96875 3.94921875 C-79.35644531 3.31757813 -78.74414062 2.6859375 -78.11328125 2.03515625 C-58.17946565 -17.26111727 -21.07213068 -17.59828305 0 0 Z " fill="#FBFBFB" transform="translate(2781.96875,492.05078125)"/>
</svg>
