<?xml version="1.0" encoding="UTF-8"?>
<!-- Generated by Pixelmator Pro 3.6.17 -->
<svg width="400" height="400" viewBox="0 0 400 400" xmlns="http://www.w3.org/2000/svg">
    <g id="Group">
        <path id="Path" fill="#0830f7" stroke="none" d="M 133.260895 24.503235 C 134.864578 24.500854 136.468262 24.495941 138.07196 24.49118 C 141.948517 24.481323 145.825027 24.480743 149.701614 24.483795 C 152.858002 24.486145 156.014359 24.485291 159.170746 24.482208 C 159.848816 24.481537 159.848816 24.481537 160.540588 24.480927 C 161.459427 24.47998 162.378265 24.479126 163.297104 24.478241 C 171.882599 24.470306 180.468063 24.473419 189.053589 24.480072 C 196.875885 24.485809 204.698135 24.478333 212.520416 24.464478 C 220.588547 24.450317 228.656647 24.444824 236.724731 24.448669 C 241.239883 24.450684 245.754959 24.449493 250.270111 24.43927 C 254.114044 24.430664 257.957886 24.430481 261.801819 24.44043 C 263.755829 24.445313 265.709564 24.445496 267.663605 24.437775 C 279.543365 24.394531 291.483734 25.081604 302.78598 29.076233 C 303.346252 29.269073 303.906555 29.461914 304.483826 29.660583 C 313.636505 32.954224 322.5047 37.52243 329.942261 43.829559 C 330.604797 44.370209 331.267761 44.910309 331.931061 45.450012 C 349.654358 60.055237 361.333893 81.133209 364.077454 104.000092 C 364.347046 107.774323 364.282013 111.557495 364.246979 115.338562 C 364.243713 116.388153 364.241241 117.437775 364.239563 118.487396 C 364.232971 121.214264 364.216034 123.94101 364.196686 126.667816 C 364.178741 129.46463 364.170898 132.261444 364.162231 135.058289 C 364.143707 140.519684 364.114197 145.980957 364.077454 151.44223 C 364.46817 151.555161 364.858795 151.668137 365.261292 151.784485 C 366.035339 152.011719 366.035339 152.011719 366.824921 152.243546 C 367.33493 152.392288 367.84491 152.541031 368.370361 152.694275 C 370.514038 153.388809 372.429474 154.343704 374.383118 155.456009 C 374.775787 155.679047 375.168457 155.902084 375.572998 156.131897 C 386.713959 162.738052 394.322754 173.666367 398.264648 185.826035 C 400.851074 195.972061 400.774109 208.370972 396.47699 217.976944 C 396.30954 218.36412 396.142059 218.751282 395.969604 219.150177 C 393.579224 224.609695 390.711273 229.198471 386.641418 233.598145 C 386.244629 234.047867 385.84787 234.497574 385.439087 234.960922 C 379.982635 240.831619 372.001068 245.982056 364.077454 247.483643 C 364.081268 248.053589 364.085175 248.623535 364.089203 249.210754 C 364.124634 254.630875 364.150482 260.050964 364.167358 265.471161 C 364.176331 268.2565 364.188568 271.041748 364.208405 273.827026 C 364.227539 276.524292 364.237701 279.221436 364.242157 281.918762 C 364.24527 282.938354 364.251495 283.957886 364.260956 284.977417 C 364.349518 294.887024 363.250031 304.332367 359.991364 313.729065 C 359.765381 314.390747 359.539307 315.052429 359.306458 315.734131 C 355.393158 326.81543 349.546875 336.577515 341.518036 345.165833 C 340.522156 346.239227 339.606262 347.336182 338.693024 348.479004 C 336.318542 351.264496 333.394562 353.431763 330.520844 355.674866 C 329.983093 356.105927 329.445374 356.537048 328.891357 356.981171 C 320.897308 363.224121 312.211365 367.211365 302.749817 370.717499 C 302.105438 370.962128 301.46106 371.206757 300.79718 371.458801 C 281.583984 378.350464 258.956757 376.562286 240.265045 368.981812 C 239.86174 368.818787 239.458466 368.655701 239.042938 368.487732 C 229.167328 364.387604 220.327332 358.288635 212.494034 351.046387 C 212.181839 350.759521 211.869598 350.472656 211.547943 350.177124 C 195.77861 335.517303 184.834122 313.52301 183.906738 291.898041 C 183.692947 285.467926 183.68306 279.033722 183.677628 272.600708 C 183.67215 269.760803 183.650467 266.921021 183.63031 264.081177 C 183.593338 258.548645 183.573807 253.016251 183.565903 247.483643 C 183.007324 247.248322 182.448746 247.012985 181.87326 246.770523 C 181.134415 246.457138 180.395599 246.143692 179.656784 245.83017 C 179.289322 245.675613 178.92189 245.521072 178.543304 245.361847 C 166.668015 240.309769 157.829041 230.301407 152.902069 218.555511 C 152.016541 216.073807 151.258087 213.581879 150.58783 211.034195 C 150.381989 210.332397 150.176147 209.630585 149.964066 208.907532 C 147.026794 196.948273 150.199463 183.795273 156.373459 173.427612 C 163.498352 161.961731 174.471298 153.435135 187.649734 150.267029 C 196.213837 148.435074 205.258255 148.187683 213.651154 150.863678 C 214.009506 150.97554 214.367859 151.087418 214.737091 151.202667 C 228.420898 155.570709 238.91864 164.68512 245.613785 177.454391 C 251.484406 189.425949 251.804062 203.256821 247.74794 215.841232 C 242.729446 229.902985 232.772232 239.979477 219.400635 246.326523 C 217.394653 247.243515 216.505692 247.483643 214.229721 247.483643 C 214.265396 253.132385 214.310165 258.780975 214.366104 264.429565 C 214.391815 267.053406 214.414551 269.677185 214.430161 272.301086 C 214.445374 274.840881 214.468857 277.380493 214.497711 279.920166 C 214.507248 280.881378 214.513992 281.842621 214.517624 282.803894 C 214.589905 300.092224 220.093185 315.293274 232.020523 328.012329 C 239.439865 335.06073 248.906662 340.302765 258.779053 342.946503 C 259.409241 343.118774 260.039459 343.291046 260.688751 343.468567 C 275.957397 347.08963 292.210754 343.935974 305.642639 336.003754 C 319.987823 327.097534 328.978333 313.511169 332.835083 297.240051 C 333.324371 294.328857 333.508667 291.480865 333.53244 288.534607 C 333.538147 288.088226 333.543884 287.641846 333.549805 287.181915 C 333.567932 285.720062 333.582367 284.258209 333.59671 282.796326 C 333.608643 281.777344 333.620789 280.758392 333.633148 279.739441 C 333.664917 277.067719 333.693604 274.395996 333.721558 271.724243 C 333.750732 268.993835 333.782867 266.263489 333.814789 263.533112 C 333.876862 258.183319 333.935608 252.833496 333.992218 247.483643 C 333.634064 247.36554 333.275909 247.247421 332.906982 247.125732 C 332.437469 246.97023 331.968018 246.814713 331.484314 246.65451 C 331.018768 246.500595 330.553253 246.34668 330.073608 246.18811 C 319.079041 242.432236 309.844757 233.332062 304.485504 223.184006 C 303.105621 220.363388 302.017059 217.478973 301.01413 214.505569 C 300.718781 213.658707 300.718781 213.658707 300.41748 212.794739 C 296.837982 200.415634 298.927704 185.772156 305.064056 174.584747 C 311.590637 163.666992 321.112335 156.15863 332.835083 151.44223 C 333.216949 151.44223 333.598785 151.44223 333.992218 151.44223 C 333.983521 145.597137 333.959167 139.752289 333.915802 133.907349 C 333.896088 131.192047 333.88147 128.476959 333.879059 125.761597 C 333.876556 123.131683 333.859833 120.502197 333.834015 117.872437 C 333.826599 116.878723 333.823975 115.884979 333.82666 114.891266 C 333.849274 103.925934 331.339935 94.425537 325.892334 84.907532 C 325.557465 84.318329 325.222595 83.729126 324.877594 83.122101 C 322.546875 79.260986 319.743347 76.011566 316.635315 72.75769 C 316.329559 72.408661 316.023773 72.059631 315.70871 71.700012 C 306.678223 61.789612 291.57251 56.128906 278.503143 55.293213 C 276.773621 55.253479 275.047394 55.246429 273.317413 55.253876 C 272.662354 55.252075 272.007324 55.250275 271.332397 55.248413 C 269.156738 55.243835 266.981171 55.247467 264.805511 55.251099 C 263.237762 55.250183 261.670044 55.247498 260.102295 55.244965 C 256.297638 55.239838 252.492981 55.240936 248.688324 55.244293 C 245.593826 55.246887 242.499344 55.247253 239.404861 55.245972 C 238.963211 55.245789 238.521515 55.245636 238.066483 55.245453 C 237.169006 55.245056 236.27153 55.24472 235.3741 55.244324 C 226.972549 55.241028 218.57106 55.244812 210.16954 55.251038 C 202.973419 55.256195 195.777374 55.25531 188.581284 55.249969 C 180.209183 55.243744 171.837112 55.241364 163.465042 55.244873 C 162.570831 55.24527 161.676636 55.245636 160.78241 55.245972 C 160.34256 55.246155 159.902664 55.246338 159.449463 55.246521 C 156.361938 55.247528 153.274414 55.24585 150.18689 55.243103 C 146.41951 55.239868 142.652191 55.240784 138.884857 55.246887 C 136.965683 55.249939 135.046616 55.250519 133.127472 55.247314 C 131.040253 55.244141 128.953125 55.248138 126.865906 55.253876 C 126.268982 55.251312 125.672058 55.248718 125.057053 55.246094 C 107.371193 55.339874 92.768806 62.343079 80.382858 74.687744 C 70.485352 85.161499 65.01828 99.719574 64.841751 114.069427 C 64.836029 114.476288 64.830307 114.883209 64.824379 115.302429 C 64.806297 116.632813 64.791855 117.963165 64.777481 119.293579 C 64.765549 120.221741 64.753395 121.149902 64.741035 122.078064 C 64.709259 124.510071 64.68058 126.942139 64.652618 129.374176 C 64.623451 131.86026 64.591278 134.346313 64.559387 136.832397 C 64.497345 141.702301 64.438622 146.572266 64.381981 151.44223 C 64.772644 151.555161 65.163307 151.668137 65.565834 151.784485 C 66.081825 151.935974 66.597816 152.087463 67.129448 152.243546 C 67.639435 152.392288 68.149452 152.541031 68.674904 152.694275 C 70.818558 153.388809 72.733994 154.343704 74.68763 155.456009 C 75.080307 155.679047 75.472946 155.902084 75.877525 156.131897 C 87.676048 163.127975 95.477463 174.862732 99.095741 187.891693 C 102.133659 200.844864 99.635742 214.827499 92.769974 226.031631 C 90.977325 228.701965 89.083405 231.195023 86.945923 233.598145 C 86.561829 234.036667 86.177734 234.475204 85.782021 234.927032 C 78.301453 242.946854 66.277847 249.18425 55.289108 249.900299 C 40.34576 250.212616 40.34576 250.212616 33.139591 247.483643 C 32.467628 247.24498 31.795664 247.006317 31.103323 246.760437 C 18.400492 241.830566 8.631049 231.903198 3.077779 219.582123 C -2.39127 206.742279 -2.47233 193.24028 2.635523 180.272766 C 8.260372 166.895721 18.615 157.930969 31.609566 152.018539 C 33.139591 151.44223 33.139591 151.44223 34.875282 151.44223 C 34.872704 150.880341 34.870144 150.318481 34.867493 149.739594 C 34.843922 144.412231 34.826622 139.084839 34.815319 133.757446 C 34.809319 131.019409 34.801193 128.281403 34.787987 125.543365 C 34.775311 122.894897 34.768459 120.24646 34.765495 117.597931 C 34.763374 116.593781 34.759243 115.589569 34.752941 114.585419 C 34.705551 106.718079 35.256569 99.232422 37.334171 91.597168 C 37.459656 91.132629 37.58514 90.668091 37.71442 90.189453 C 43.862885 68.145081 58.904842 48.541687 78.749153 37.098969 C 96.46714 27.290436 113.21463 24.465576 133.260895 24.503235 Z"/>
        <path id="path1" fill="#9cacfc" stroke="none" d="M 133.260895 24.503235 C 134.864578 24.500854 136.468262 24.495941 138.07196 24.49118 C 141.948517 24.481323 145.825027 24.480743 149.701614 24.483795 C 152.858002 24.486145 156.014359 24.485291 159.170746 24.482208 C 159.848816 24.481537 159.848816 24.481537 160.540588 24.480927 C 161.459427 24.47998 162.378265 24.479126 163.297104 24.478241 C 171.882599 24.470306 180.468063 24.473419 189.053589 24.480072 C 196.875885 24.485809 204.698135 24.478333 212.520416 24.464478 C 220.588547 24.450317 228.656647 24.444824 236.724731 24.448669 C 241.239883 24.450684 245.754959 24.449493 250.270111 24.43927 C 254.114044 24.430664 257.957886 24.430481 261.801819 24.44043 C 263.755829 24.445313 265.709564 24.445496 267.663605 24.437775 C 279.543365 24.394531 291.483734 25.081604 302.78598 29.076233 C 303.346252 29.269073 303.906555 29.461914 304.483826 29.660583 C 313.636505 32.954224 322.5047 37.52243 329.942261 43.829559 C 330.604797 44.370209 331.267761 44.910309 331.931061 45.450012 C 349.654358 60.055237 361.333893 81.133209 364.077454 104.000092 C 364.347046 107.774323 364.282013 111.557495 364.246979 115.338562 C 364.243713 116.388153 364.241241 117.437775 364.239563 118.487396 C 364.232971 121.214264 364.216034 123.94101 364.196686 126.667816 C 364.178741 129.46463 364.170898 132.261444 364.162231 135.058289 C 364.143707 140.519684 364.114197 145.980957 364.077454 151.44223 C 363.4487 151.319626 362.819977 151.196991 362.17215 151.070679 C 361.335358 150.909927 360.498535 150.749329 359.661682 150.588806 C 359.042175 150.467529 359.042175 150.467529 358.410217 150.343796 C 355.051697 149.703232 351.805481 149.443008 348.383942 149.489578 C 347.886505 149.48288 347.389069 149.476166 346.876526 149.469238 C 343.7565 149.483017 340.886719 149.912628 337.83902 150.588806 C 336.755341 150.827301 336.755341 150.827301 335.64978 151.070679 C 335.102783 151.193283 334.555786 151.315887 333.992218 151.44223 C 333.991364 150.886765 333.99057 150.331329 333.989685 149.759064 C 333.97998 144.475006 333.954987 139.191254 333.915802 133.907349 C 333.896088 131.192047 333.88147 128.476959 333.879059 125.761597 C 333.876556 123.131683 333.859833 120.502197 333.834015 117.872437 C 333.826599 116.878723 333.823975 115.884979 333.82666 114.891266 C 333.849274 103.925934 331.339935 94.425537 325.892334 84.907532 C 325.557465 84.318329 325.222595 83.729126 324.877594 83.122101 C 322.546875 79.260986 319.743347 76.011566 316.635315 72.75769 C 316.329559 72.408661 316.023773 72.059631 315.70871 71.700012 C 306.678223 61.789612 291.57251 56.128906 278.503143 55.293213 C 276.773621 55.253479 275.047394 55.246429 273.317413 55.253876 C 272.662354 55.252075 272.007324 55.250275 271.332397 55.248413 C 269.156738 55.243835 266.981171 55.247467 264.805511 55.251099 C 263.237762 55.250183 261.670044 55.247498 260.102295 55.244965 C 256.297638 55.239838 252.492981 55.240936 248.688324 55.244293 C 245.593826 55.246887 242.499344 55.247253 239.404861 55.245972 C 238.963211 55.245789 238.521515 55.245636 238.066483 55.245453 C 237.169006 55.245056 236.27153 55.24472 235.3741 55.244324 C 226.972549 55.241028 218.57106 55.244812 210.16954 55.251038 C 202.973419 55.256195 195.777374 55.25531 188.581284 55.249969 C 180.209183 55.243744 171.837112 55.241364 163.465042 55.244873 C 162.570831 55.24527 161.676636 55.245636 160.78241 55.245972 C 160.34256 55.246155 159.902664 55.246338 159.449463 55.246521 C 156.361938 55.247528 153.274414 55.24585 150.18689 55.243103 C 146.41951 55.239868 142.652191 55.240784 138.884857 55.246887 C 136.965683 55.249939 135.046616 55.250519 133.127472 55.247314 C 131.040253 55.244141 128.953125 55.248138 126.865906 55.253876 C 126.268982 55.251312 125.672058 55.248718 125.057053 55.246094 C 107.371193 55.339874 92.768806 62.343079 80.382858 74.687744 C 70.485352 85.161499 65.01828 99.719574 64.841751 114.069427 C 64.836029 114.476288 64.830307 114.883209 64.824379 115.302429 C 64.806297 116.632813 64.791855 117.963165 64.777481 119.293579 C 64.765549 120.221741 64.753395 121.149902 64.741035 122.078064 C 64.709259 124.510071 64.68058 126.942139 64.652618 129.374176 C 64.623451 131.86026 64.591278 134.346313 64.559387 136.832397 C 64.497345 141.702301 64.438622 146.572266 64.381981 151.44223 C 64.772644 151.555161 65.163307 151.668137 65.565834 151.784485 C 66.081825 151.935974 66.597816 152.087463 67.129448 152.243546 C 67.639435 152.392288 68.149452 152.541031 68.674904 152.694275 C 70.818558 153.388809 72.733994 154.343704 74.68763 155.456009 C 75.080307 155.679047 75.472946 155.902084 75.877525 156.131897 C 87.676048 163.127975 95.477463 174.862732 99.095741 187.891693 C 102.133659 200.844864 99.635742 214.827499 92.769974 226.031631 C 90.977325 228.701965 89.083405 231.195023 86.945923 233.598145 C 86.561829 234.036667 86.177734 234.475204 85.782021 234.927032 C 78.301453 242.946854 66.277847 249.18425 55.289108 249.900299 C 40.34576 250.212616 40.34576 250.212616 33.139591 247.483643 C 32.467628 247.24498 31.795664 247.006317 31.103323 246.760437 C 18.400492 241.830566 8.631049 231.903198 3.077779 219.582123 C -2.39127 206.742279 -2.47233 193.24028 2.635523 180.272766 C 8.260372 166.895721 18.615 157.930969 31.609566 152.018539 C 33.139591 151.44223 33.139591 151.44223 34.875282 151.44223 C 34.872704 150.880341 34.870144 150.318481 34.867493 149.739594 C 34.843922 144.412231 34.826622 139.084839 34.815319 133.757446 C 34.809319 131.019409 34.801193 128.281403 34.787987 125.543365 C 34.775311 122.894897 34.768459 120.24646 34.765495 117.597931 C 34.763374 116.593781 34.759243 115.589569 34.752941 114.585419 C 34.705551 106.718079 35.256569 99.232422 37.334171 91.597168 C 37.459656 91.132629 37.58514 90.668091 37.71442 90.189453 C 43.862885 68.145081 58.904842 48.541687 78.749153 37.098969 C 96.46714 27.290436 113.21463 24.465576 133.260895 24.503235 Z"/>
        <path id="path2" fill="#0830f7" stroke="none" d="M 79.424614 158.384995 C 89.754623 166.479218 97.443039 177.718536 99.674309 190.7845 C 100.733894 206.580246 98.633888 219.832764 88.127914 232.269257 C 87.737846 232.707779 87.347786 233.146317 86.945923 233.598145 C 86.561829 234.036667 86.177734 234.475204 85.782021 234.927032 C 78.301453 242.946854 66.277847 249.18425 55.289108 249.900299 C 40.34576 250.212616 40.34576 250.212616 33.139591 247.483643 C 32.467628 247.24498 31.795664 247.006317 31.103323 246.760437 C 18.400492 241.830566 8.631066 231.903198 3.077779 219.582123 C -2.39127 206.742279 -2.47233 193.24028 2.635523 180.272766 C 8.100088 167.276932 18.330379 157.738983 31.184683 152.185776 C 47.176025 146.103531 65.389381 148.500626 79.424614 158.384995 Z"/>
        <path id="path3" fill="#ced6fc" stroke="none" d="M 34.296719 247.483643 C 35.046055 247.667572 35.046055 247.667572 35.810501 247.855225 C 36.474838 248.014236 37.13916 248.173248 37.823605 248.337082 C 38.805614 248.574722 38.805614 248.574722 39.807472 248.817139 C 42.97818 249.451416 46.080414 249.471313 49.303188 249.436295 C 49.918846 249.443008 50.534508 249.449707 51.168827 249.456635 C 54.613827 249.444168 57.783562 249.090714 61.149174 248.337082 C 62.225151 248.098557 62.225151 248.098557 63.322884 247.855225 C 63.863308 247.732605 64.403732 247.60997 64.960541 247.483643 C 64.956696 248.250351 64.956696 248.250351 64.952774 249.032547 C 64.929428 253.883118 64.91188 258.733673 64.900581 263.58429 C 64.894577 266.077179 64.886459 268.570038 64.873253 271.062897 C 64.860535 273.475037 64.853722 275.887146 64.850754 278.299286 C 64.848633 279.213074 64.844505 280.126831 64.838181 281.040558 C 64.786133 288.898743 65.326096 296.362915 67.925674 303.857361 C 68.102524 304.373718 68.279366 304.890106 68.461578 305.422119 C 71.11586 312.911865 74.723114 319.02951 80.003174 325.011047 C 80.453621 325.57785 80.904106 326.144684 81.368217 326.728668 C 82.947052 328.626862 84.742699 330.124512 86.692802 331.628357 C 87.048615 331.903687 87.404388 332.179047 87.770973 332.462738 C 102.331055 343.536194 117.41362 345.045715 135.025146 344.679291 C 137.942078 344.619476 140.858978 344.585052 143.776321 344.555298 C 152.062866 344.467926 160.34874 344.364075 168.634155 344.198242 C 173.230301 344.106476 177.825897 344.044159 182.422897 344.014191 C 184.845413 343.997131 187.26564 343.965271 189.687286 343.896515 C 206.309692 343.437073 206.309692 343.437073 210.773956 347.483337 C 212.007462 348.844574 213.064545 350.261841 214.078369 351.79184 C 224.997833 366.605316 249.459824 372.214325 266.300354 374.767456 C 266.300354 374.958374 266.300354 375.149292 266.300354 375.346008 C 247.437195 375.398956 228.574005 375.439819 209.710754 375.464172 C 207.47699 375.467072 205.24321 375.470093 203.009476 375.473145 C 202.342484 375.47403 202.342484 375.47403 201.662094 375.474976 C 194.489624 375.485016 187.31723 375.503235 180.144806 375.524567 C 172.769409 375.546295 165.394073 375.559082 158.018631 375.563751 C 153.478165 375.566895 148.937836 375.576813 144.397415 375.595764 C 140.898834 375.609589 137.400375 375.61087 133.901749 375.607758 C 132.478958 375.608398 131.056183 375.612915 129.633423 375.621887 C 117.316864 375.695618 105.503014 374.434448 93.88868 370.138947 C 93.497025 369.996674 93.105408 369.854431 92.701889 369.707855 C 70.361191 361.462616 52.686584 344.357025 42.467503 322.989471 C 40.576988 318.769318 39.136742 314.380554 37.768093 309.968414 C 37.474998 309.028717 37.474998 309.028717 37.175972 308.070007 C 34.97324 300.480408 34.685246 293.06543 34.635719 285.22583 C 34.624878 284.133179 34.613544 283.040497 34.601768 281.947845 C 34.572281 279.094513 34.54924 276.24118 34.527626 273.387787 C 34.504337 270.467102 34.474834 267.546448 34.445877 264.625824 C 34.390137 258.911804 34.341228 253.197769 34.296719 247.483643 Z"/>
        <path id="path4" fill="#7f94fb" stroke="none" d="M 123.829582 25.101135 C 125.266525 25.098602 126.702408 25.077515 128.139145 25.055664 C 137.028824 24.99292 145.474731 26.605347 153.878403 29.510132 C 154.382309 29.68219 154.886261 29.854218 155.405457 30.031494 C 169.321625 34.932831 181.737946 43.352203 191.665771 54.243713 C 191.665771 54.434631 191.665771 54.625549 191.665771 54.822266 C 191.302979 54.824158 190.94017 54.82608 190.566345 54.828064 C 181.70874 54.875183 172.851151 54.928528 163.993576 54.988617 C 159.710007 55.017548 155.426437 55.044373 151.142792 55.066345 C 147.406006 55.08548 143.669296 55.108612 139.932587 55.136292 C 137.956879 55.150818 135.981232 55.163452 134.005524 55.171326 C 131.791458 55.181183 129.57753 55.197998 127.363533 55.216339 C 126.397835 55.218231 126.397835 55.218231 125.412651 55.220123 C 107.539322 55.408173 92.941277 62.171204 80.382858 74.687744 C 70.485352 85.161499 65.01828 99.719574 64.841751 114.069427 C 64.836029 114.476288 64.830307 114.883209 64.824379 115.302429 C 64.806297 116.632813 64.791855 117.963165 64.777481 119.293579 C 64.765549 120.221741 64.753395 121.149902 64.741035 122.078064 C 64.709259 124.510071 64.68058 126.942139 64.652618 129.374176 C 64.623451 131.86026 64.591278 134.346313 64.559387 136.832397 C 64.497345 141.702301 64.438622 146.572266 64.381981 151.44223 C 63.754402 151.319382 63.126827 151.196533 62.480251 151.069931 C 61.644363 150.909012 60.808479 150.74823 59.972557 150.587524 C 59.560425 150.506516 59.148254 150.425476 58.723618 150.341995 C 55.30048 149.688049 51.994068 149.461517 48.507664 149.525742 C 47.985973 149.52388 47.464283 149.522003 46.926788 149.520096 C 43.941174 149.543823 41.228806 149.855453 38.339737 150.616913 C 37.189533 150.863678 37.189533 150.863678 34.875282 150.863678 C 34.84832 145.044174 34.82782 139.224731 34.815319 133.405182 C 34.809319 130.702179 34.801193 127.999176 34.787987 125.296173 C 34.775311 122.681488 34.768459 120.066803 34.765495 117.452057 C 34.763374 116.460815 34.759243 115.469513 34.752941 114.478271 C 34.705162 106.648926 35.266724 99.195099 37.334171 91.597168 C 37.459656 91.132629 37.58514 90.668091 37.71442 90.189453 C 43.862885 68.145081 58.904842 48.541687 78.749153 37.098969 C 85.915146 33.131958 93.051659 29.71048 100.976074 27.557495 C 101.623421 27.377014 102.270775 27.196533 102.937759 27.010559 C 109.842796 25.411957 116.775879 25.099762 123.829582 25.101135 Z"/>
        <path id="path5" fill="#ced6fd" stroke="none" d="M 119.924004 54.822266 C 172.81044 54.822266 225.696838 54.822266 280.185883 54.822266 C 280.185883 55.013184 280.185883 55.204102 280.185883 55.400818 C 237.227585 55.687195 237.227585 55.687195 193.401459 55.979401 C 195.310715 58.461395 197.219971 60.943451 199.187088 63.500702 C 201.066681 66.314606 202.753357 69.221802 204.39415 72.179138 C 204.700806 72.728302 204.700806 72.728302 205.013687 73.288513 C 208.392334 79.426819 210.648941 85.682983 212.494034 92.428833 C 212.60704 92.827209 212.720032 93.225525 212.836426 93.635956 C 215.799652 104.527161 215.075394 115.958832 214.967194 127.137085 C 214.943176 129.883667 214.932877 132.63031 214.92128 135.376953 C 214.896713 140.732178 214.857407 146.087173 214.808289 151.44223 C 214.215286 151.319626 213.622314 151.196991 213.011337 151.070679 C 212.224075 150.909927 211.436768 150.749329 210.649445 150.588806 C 210.259689 150.507935 209.869949 150.427109 209.468414 150.343796 C 206.524567 149.746414 203.73822 149.439865 200.741974 149.489578 C 200.34407 149.48288 199.946213 149.476166 199.53627 149.469238 C 196.209946 149.486832 193.003845 150.027222 189.735306 150.588806 C 189.252655 150.670547 188.770004 150.752289 188.272766 150.836517 C 187.089294 151.037125 185.906143 151.239502 184.723022 151.44223 C 184.719849 150.639755 184.719849 150.639755 184.716629 149.82103 C 184.694565 144.732681 184.661469 139.64447 184.616623 134.556274 C 184.593964 131.941528 184.575241 129.326904 184.566238 126.712067 C 184.557343 124.179718 184.537247 121.647705 184.509949 119.115509 C 184.50148 118.158508 184.49678 117.201416 184.496277 116.244324 C 184.478485 99.018402 178.530594 84.197327 166.46666 71.819794 C 158.135971 63.887512 147.822952 59.050049 136.702316 56.557953 C 136.254807 56.457581 135.807251 56.357239 135.346176 56.253845 C 133.71254 55.962036 132.147552 55.858398 130.489548 55.796326 C 129.872391 55.772095 129.255234 55.747833 128.619385 55.72287 C 127.981361 55.700134 127.34333 55.677399 126.685951 55.653931 C 125.712135 55.616486 125.712135 55.616486 124.718613 55.578247 C 123.120468 55.517029 121.522285 55.457947 119.924004 55.400818 C 119.924004 55.2099 119.924004 55.018982 119.924004 54.822266 Z"/>
    </g>
</svg>
