<?xml version="1.0" encoding="UTF-8"?>
<!-- Generated by Pixelmator Pro 3.2.3 -->
<svg width="400" height="400" viewBox="0 0 400 400" xmlns="http://www.w3.org/2000/svg" xmlns:xlink="http://www.w3.org/1999/xlink">
    <g id="Group-copy">
        <path id="Path" fill="#494848" stroke="none" d="M 297.578522 100.534973 C 263.275757 100.534973 231.69278 119.822723 201.155243 153.542053 C 171.15567 119.300232 139.035202 100.534973 103.13401 100.534973 C 43.718781 100.534973 0.364014 142.937653 0.364014 200.031723 C 0.364014 257.141754 43.718781 299.005981 103.13401 299.005981 C 139.665558 299.005981 167.974335 281.886017 199.572311 247.73613 C 230.094849 281.977936 261.154877 299.113861 297.578522 299.113861 C 357.009247 299.005981 400.364014 257.280579 400.364014 200.031723 C 400.364014 142.783813 356.993774 100.534973 297.578522 100.534973 Z M 103.549095 239.1147 C 78.359726 239.1147 63.344696 222.516281 63.344696 200.555145 C 63.344696 178.624023 78.359726 161.549072 103.549095 161.549072 C 124.757927 161.549072 142.093643 178.624023 160.843445 201.630127 C 143.154083 223.054703 124.435249 239.1147 103.549095 239.1147 Z M 295.764862 239.1147 C 274.879181 239.1147 257.220306 222.516281 238.455032 200.555145 C 257.75827 177.548096 274.341217 161.549072 295.764862 161.549072 C 320.938751 161.549072 335.800415 178.823822 335.800415 200.555145 C 335.800415 222.301468 320.938751 239.1147 295.764862 239.1147 Z"/>
        <path id="path1" fill="#20a7ca" stroke="none" d="M 244.449036 284.928986 L 284.422668 237.224579 C 268.51651 232.460327 253.8237 218.136627 238.608871 200.370346 L 199.695663 247.828995 C 212.443954 262.600159 227.570145 275.139709 244.449036 284.928986 Z"/>
        <path id="path2" fill="#20a7ca" stroke="none" d="M 201.232162 152.942657 C 188.575333 137.952942 173.551392 125.134796 156.755508 114.997498 L 116.719955 163.224396 C 131.934784 168.526138 145.397858 182.204483 159.721558 199.648071 L 161.319962 200.754944 L 201.232162 152.942657 Z"/>
    </g>
</svg>
