<svg width="400" height="400" viewBox="0 0 400 400" fill="none" xmlns="http://www.w3.org/2000/svg">
<path d="M162.246 162.326C162.327 162.615 162.409 162.904 162.494 163.192L204.655 314.458C214.274 348.97 251.174 369.45 287.073 360.203C322.972 350.956 344.277 315.482 334.657 280.971L309.671 191.325L345.106 182.198C381.005 172.95 402.309 137.477 392.69 102.965C383.071 68.4537 346.171 47.9731 310.272 57.2204L209.83 83.0935C173.931 92.3408 152.627 127.814 162.246 162.326Z" fill="#46D8A0"/>
<path d="M89.6863 247.988C53.8098 257.23 16.9221 236.723 7.30902 202.233C-2.30409 167.743 18.9757 132.253 54.8523 123.011C90.7288 113.77 127.616 134.277 137.23 168.767C146.843 203.256 125.563 238.747 89.6863 247.988Z" fill="#46D8A0"/>
</svg>
