<?xml version="1.0" encoding="UTF-8"?>

<svg width="400" height="400" viewBox="0 0 400 400" xmlns="http://www.w3.org/2000/svg">
    <g id="Group">
        <path id="Path" fill="#4285f4" stroke="none" d="M 392.592743 91.34079 L 145.057907 91.34079 C 143.324356 91.339966 141.664536 92.041992 140.457703 93.28653 C 139.2509 94.531067 138.600235 96.21167 138.654419 97.944397 L 138.654419 141.167938 C 138.654419 144.704514 141.521362 147.571426 145.057907 147.571426 L 392.592743 147.571426 C 394.456451 147.866409 396.355438 147.324371 397.782623 146.090027 C 399.209839 144.855713 400.02002 143.054749 399.996765 141.167938 L 399.996765 97.944397 C 400.05069 96.24588 399.427216 94.595551 398.263702 93.356934 C 397.100159 92.118378 395.492004 91.393066 393.793396 91.34079 Z M 169.67131 134.164154 C 161.935089 134.164154 155.663681 127.8927 155.663681 120.156494 C 155.663681 112.420288 161.935089 106.148895 169.67131 106.148895 C 177.407516 106.148895 183.67894 112.420288 183.67894 120.156494 L 183.67894 120.156494 C 183.67894 127.8927 177.407516 134.164154 169.67131 134.164154 Z"/>
        <path id="path1" fill="#4285f4" stroke="none" d="M 392.592743 172.184845 L 145.057907 172.184845 C 141.521362 172.184845 138.654419 175.051804 138.654419 178.588333 L 138.654419 221.611771 C 138.654419 225.148315 141.521362 228.015259 145.057907 228.015259 L 392.592743 228.015259 C 396.129272 228.015259 398.996246 225.148315 398.996246 221.611771 L 398.996246 178.588333 C 398.996246 175.051804 396.129272 172.184845 392.592743 172.184845 Z M 169.67131 215.008179 C 161.935089 215.008179 155.663681 208.73674 155.663681 201.000549 C 155.663681 193.264343 161.935089 186.99292 169.67131 186.99292 C 177.407516 186.99292 183.67894 193.264343 183.67894 201.000549 L 183.67894 201.000549 C 183.67894 208.73674 177.407516 215.008179 169.67131 215.008179 Z"/>
        <path id="path2" fill="#4285f4" stroke="none" d="M 393.593323 252.428574 L 146.258545 252.428574 C 142.722015 252.428574 139.855072 255.295486 139.855072 258.832031 L 139.855072 302.055603 C 139.800888 303.7883 140.451553 305.468933 141.658356 306.71347 C 142.865173 307.957977 144.525009 308.660034 146.258545 308.65921 L 393.593323 308.65921 C 395.326843 308.660034 396.986664 307.957977 398.193481 306.71347 C 399.400299 305.468933 400.050934 303.7883 399.996765 302.055603 L 399.996765 258.832031 C 399.996765 255.295486 397.129883 252.428574 393.593323 252.428574 Z M 170.67186 295.051788 C 162.903397 294.942352 156.663437 288.613251 156.66423 280.844055 C 157.516678 273.699036 163.576233 268.319489 170.771912 268.319489 C 177.967575 268.319489 184.027145 273.699036 184.879593 280.844055 C 184.879593 288.690735 178.518585 295.051788 170.67186 295.051788 Z"/>
        <path id="path3" fill="#669df6" stroke="none" d="M 94.630424 157.176666 L 52.007214 157.176666 C 43.11058 158.337097 34.957718 152.065674 33.797291 143.169037 C 32.63686 134.2724 38.908291 126.119537 47.804924 124.959106 L 94.630424 124.959106 C 103.527061 123.5224 111.9039 129.569855 113.34063 138.466492 C 114.777344 147.363113 108.729897 155.739944 99.83326 157.176666 Z"/>
        <path id="path4" fill="#aecbfa" stroke="none" d="M 94.630424 216.208832 L 18.188787 216.208832 C 9.6965 216.550598 2.348773 210.351227 1.256173 201.922607 C 0.163569 193.493958 5.687757 185.626022 13.986499 183.791168 L 94.030106 183.791168 C 102.981995 182.188675 111.53801 188.14653 113.140511 197.098419 C 114.743011 206.050323 108.785149 214.606339 99.83326 216.208832 Z"/>
        <path id="path5" fill="#669df6" stroke="none" d="M 94.630424 275.040894 L 52.007214 275.040894 C 43.11058 276.201324 34.957718 269.929871 33.797291 261.033264 C 32.63686 252.136612 38.908291 243.983749 47.804924 242.823334 L 94.630424 242.823334 C 103.527061 241.386597 111.9039 247.434067 113.34063 256.330688 C 114.777344 265.227325 108.729897 273.604156 99.83326 275.040894 Z"/>
    </g>
</svg>
