<?xml version="1.0" encoding="UTF-8"?>
<!-- Generated by Pixelmator Pro 3.6.17 -->
<svg width="400" height="400" viewBox="0 0 400 400" xmlns="http://www.w3.org/2000/svg">
    <g id="Layer2">
        <path id="Path" fill="#cdcccc" stroke="none" d="M 311.36087 194.54216 C 311.36087 184.033142 302.841614 175.513901 292.332611 175.513901 C 281.823608 175.513901 273.304352 184.033142 273.304352 194.54216 C 273.509094 201.955292 278.362579 208.435089 285.419006 210.716171 L 285.419006 239.702545 C 277.125519 218.464264 261.605225 200.832672 241.590607 189.911942 C 244.50827 183.569199 247.489365 178.114426 250.343597 173.103668 C 261.246277 156.976868 273.263397 141.632263 286.307007 127.182129 C 293.474304 118.682861 300.261047 110.69101 305.779236 103.713959 C 321.255585 84.305115 338.25415 55.635925 335.082764 38.637329 C 334.302551 33.812286 331.39032 29.595398 327.154327 27.156952 C 305.652405 14.471436 276.412323 55.699341 247.679642 95.468384 C 228.651398 121.727356 218.820129 158.895905 214.316788 179.76355 C 205.503784 177.833008 196.508896 176.854828 187.486938 176.845871 C 174.369339 176.804977 161.336487 178.948517 148.923004 183.188629 C 148.115356 159.911072 148.814514 136.605652 151.016113 113.418365 C 157.358871 53.098785 154.568054 17.706238 142.833969 5.591583 C 139.782257 1.900665 135.188217 -0.161957 130.402176 0.009979 C 95.770752 1.722534 99.703255 105.172791 100.274101 116.970306 C 101.66951 145.258972 112.95961 179.636703 119.809784 198.664948 C 103.825737 211.309921 92.185081 228.626785 86.510338 248.201843 L 84.036659 248.201843 C 78.771912 247.961472 73.629906 249.837875 69.757324 253.412567 C 65.884743 256.987244 63.603642 261.962952 63.422718 267.230103 L 63.422718 300.022095 C 63.620491 305.283356 65.90667 310.248962 69.775391 313.820068 C 73.644112 317.391205 78.776413 319.273438 84.036659 319.050354 L 88.222878 319.050354 C 92.989983 330.223846 100.10717 340.239838 109.09053 348.417297 L 102.74778 353.998932 C 99.670052 356.655121 99.302406 361.293152 101.923218 364.401062 C 120.951469 387.552063 152.094376 400.808441 187.042938 400.808441 C 221.991501 400.808441 253.261276 387.552063 272.162659 364.401062 C 274.783508 361.293152 274.415833 356.655121 271.338104 353.998932 L 264.995361 348.417297 C 274.005219 340.063995 281.120789 329.877258 285.863007 318.542969 L 290.620087 318.542969 C 295.88031 318.766052 301.012634 316.883759 304.881348 313.312653 C 308.750061 309.741516 311.036255 304.77594 311.234009 299.514709 L 311.234009 266.976379 C 311.04245 259.36908 306.247681 252.641388 299.119354 249.977798 L 299.119354 210.716171 C 306.237518 208.495575 311.156921 201.995834 311.36087 194.54216 Z"/>
        <path id="path1" fill="#ffffff" stroke="none" d="M 156.153748 353.554932 C 161.989075 349.685852 146.639618 351.144684 145.371063 348.544159 C 139.240921 348.001678 133.170609 346.91922 127.230804 345.309357 C 116.44812 342.455139 90.569695 325.075989 87.778885 308.394531 C 84.988075 291.713135 87.778885 260.062775 99.449547 241.034515 C 106.756691 229.441833 116.18129 219.328705 127.230804 211.223587 C 127.230804 211.223587 104.587173 157.373627 102.684349 116.716583 C 100.781525 76.05954 103.952904 3.688751 130.465607 2.420197 C 156.978302 1.151672 153.109222 68.892242 148.605881 112.974365 C 145.931961 142.244537 145.507858 171.676712 147.337311 201.011765 C 158.630783 197.424881 170.37645 195.460144 182.222458 195.176437 C 192.660583 194.934494 203.091217 195.913681 213.301926 198.094086 C 213.301926 198.094086 221.737793 135.681427 249.519043 96.610077 C 277.300293 57.538727 306.603821 17.642822 325.63208 28.996338 C 344.660309 40.349884 320.431 80.880066 303.622711 102.001404 C 286.814423 123.122772 257.701202 154.836548 247.996796 171.771683 C 241.634842 183.040619 236.019989 194.715256 231.188507 206.72023 C 248.495148 215.60228 262.646545 229.598648 271.718689 246.806427 C 285.419006 274.143677 286.433868 307.760284 279.076263 322.031464 C 271.596191 335.375122 258.546417 344.679779 243.493423 347.402466 C 235.057571 347.783051 199.601593 356.599457 199.601593 356.599457 Z"/>
        <path id="path2" fill="#dd00a1" stroke="none" d="M 218.249283 198.664948 C 218.249283 198.664948 239.434067 143.419586 258.398895 112.403503 C 277.363739 81.387482 302.798157 57.919281 310.790039 62.676331 C 318.781891 67.433411 294.489166 96.419769 273.177521 124.898743 C 255.817154 150.045898 240.076401 176.273422 226.050858 203.421997 Z"/>
        <path id="path3" fill="#dd00a1" stroke="none" d="M 133.192978 208.115646 L 139.535736 203.421997 C 139.535736 203.421997 138.647751 148.176651 139.535736 114.623505 C 140.423721 81.070343 142.136261 39.144745 130.909592 39.52533 C 119.682922 39.905853 111.88134 72.317322 116.257835 118.048584 C 119.40934 148.486603 125.073715 178.611694 133.192978 208.115646 Z"/>
        <path id="path4" fill="#f9d8d2" stroke="none" d="M 126.596527 314.229889 C 126.596527 321.025696 121.087418 326.534821 114.291588 326.534821 C 107.495758 326.534821 101.986649 321.025696 101.986649 314.229889 C 101.986649 307.434052 107.495758 301.924927 114.291588 301.924927 C 121.087418 301.924927 126.596527 307.434052 126.596527 314.229889 Z"/>
        <path id="path5" fill="#f9d8d2" stroke="none" d="M 272.035797 314.229889 C 272.035797 321.025696 266.526703 326.534821 259.730896 326.534821 C 252.935043 326.534821 247.425934 321.025696 247.425934 314.229889 C 247.425934 307.434052 252.935043 301.924927 259.730896 301.924927 C 266.526703 301.924927 272.035797 307.434052 272.035797 314.229889 Z"/>
        <path id="path6" fill="#10110e" stroke="none" d="M 207.403183 313.215057 C 207.135452 313.057281 206.815002 313.015472 206.515762 313.099274 C 206.216537 313.183044 205.964371 313.385193 205.81749 313.659027 C 205.81749 313.659027 202.138702 320.001801 196.810791 320.382324 C 193.163513 320.274841 189.721817 318.668732 187.296661 315.942444 L 187.296661 306.555176 C 190.721741 304.652313 196.239944 298.943848 196.239944 296.9776 C 195.245972 292.644409 191.219971 289.699219 186.789246 290.063995 C 180.446487 290.063995 176.006561 294.186768 176.006561 297.611847 C 176.006561 301.036957 182.983582 305.476868 184.949829 306.745422 L 184.949829 316.005859 C 182.925522 318.576263 179.905563 320.166931 176.640839 320.382324 C 171.630051 320.382324 167.824402 313.532166 167.760986 313.46875 C 167.452972 312.903015 166.754517 312.679504 166.175293 312.961334 C 165.6008 313.29364 165.379578 314.012634 165.667877 314.610443 C 165.667877 314.610443 170.171219 322.792603 176.640839 322.792603 C 180.334106 322.631348 183.79808 320.956726 186.218399 318.162384 C 188.850769 320.920929 192.43309 322.57605 196.239944 322.792603 L 197.001068 322.792603 C 201.628326 321.881622 205.606369 318.950439 207.847168 314.80072 C 208.004913 314.53302 208.046722 314.212524 207.962936 313.9133 C 207.879166 313.614075 207.677017 313.361908 207.403183 313.215057 Z"/>
        <path id="path7" fill="#e5e5e5" stroke="none" d="M 127.230804 211.350449 C 127.230804 211.350449 109.661377 166.951202 106.299721 143.736725 C 102.938065 120.522247 99.95697 81.768036 104.396896 55.953033 C 106.304504 44.060394 108.888077 32.286102 112.135048 20.687347 C 112.135048 20.687347 103.952904 80.880066 106.997421 107.202454 C 110.041939 133.524902 127.230804 211.350449 127.230804 211.350449 Z"/>
        <path id="path8" fill="#e5e5e5" stroke="none" d="M 213.301926 198.094086 C 213.301926 198.094086 225.987427 130.924377 244.444855 104.538513 C 262.902252 78.152679 285.799591 46.121796 297.40683 38.066498 L 309.014069 29.947754 C 309.014069 29.947754 262.458252 78.786926 244.444855 118.746277 C 226.431442 158.705627 213.301926 198.094086 213.301926 198.094086 Z"/>
        <path id="path9" fill="#10110e" stroke="none" d="M 139.535736 274.207092 C 135.630646 274.181396 132.095779 276.514038 130.583542 280.114502 C 129.071289 283.714966 129.880402 287.87207 132.632645 290.642548 C 135.384888 293.413025 139.536575 294.249542 143.146957 292.761108 C 146.757339 291.272644 149.113205 287.753235 149.113297 283.848083 C 149.113403 278.548218 144.83551 274.241974 139.535736 274.207092 Z M 142.263123 283.150391 C 140.826889 283.150391 139.662598 281.986084 139.662598 280.549866 C 139.662598 279.113647 140.826889 277.949341 142.263123 277.949341 C 143.699356 277.949341 144.863647 279.113647 144.863647 280.549866 C 144.864502 281.262115 144.573166 281.943542 144.057678 282.435059 C 143.542191 282.926575 142.847672 283.18512 142.136261 283.150391 Z"/>
        <path id="path10" fill="#10110e" stroke="none" d="M 234.169586 274.207092 C 228.845016 274.207092 224.52861 278.523529 224.52861 283.848083 C 224.52861 289.172668 228.845016 293.489075 234.169586 293.489075 C 239.494156 293.489075 243.810577 289.172668 243.810577 283.848083 C 243.810577 278.523529 239.494156 274.207092 234.169586 274.207092 Z M 236.896973 283.150391 C 235.474838 283.116943 234.329926 281.972015 234.296448 280.549866 C 234.498444 279.252472 235.615662 278.295746 236.92868 278.295746 C 238.241714 278.295746 239.358932 279.252472 239.560928 280.549866 C 239.526474 281.996307 238.343811 283.150818 236.896973 283.150391 Z"/>
        <path id="path11" fill="#8accce" stroke="none" opacity="0.2" d="M 277.998016 287.46347 C 277.998016 323.054016 237.957581 351.905823 188.565201 351.905823 C 139.172836 351.905823 99.132408 323.054016 99.132408 287.46347 C 99.132408 251.872925 139.172836 223.021103 188.565201 223.021103 C 237.957581 223.021103 277.998016 251.872925 277.998016 287.46347 Z"/>
        <path id="path12" fill="#ffffff" stroke="none" d="M 296.835968 251.626907 L 296.835968 209.32077 C 303.69809 207.808105 308.691223 201.878738 309.014069 194.859283 C 308.101196 186.316254 300.892578 179.836868 292.300903 179.836868 C 283.709229 179.836868 276.50061 186.316254 275.587769 194.859283 C 275.881653 201.868362 280.853333 207.803116 287.702423 209.32077 L 287.702423 250.548645 L 286.497284 250.548645 C 273.811768 206.529968 236.326126 179.192703 187.423508 179.192703 C 138.520905 179.192703 100.781525 206.276245 88.286308 250.548645 L 84.036659 250.548645 C 74.469978 250.080292 66.315353 257.413818 65.769539 266.976379 L 65.769539 299.768402 C 66.348671 309.305756 74.493286 316.601959 84.036659 316.13269 L 89.808563 316.13269 C 94.713097 328.573792 102.54586 339.648438 112.642471 348.417297 L 104.396896 355.774902 C 103.372406 356.636932 102.735519 357.873077 102.628273 359.207672 C 102.521027 360.542236 102.952354 361.864258 103.826042 362.878784 C 122.346878 385.268707 152.728653 398.398193 187.106369 398.398193 C 221.484085 398.398193 251.86586 385.712708 270.386719 362.878784 C 271.260376 361.864258 271.691711 360.542236 271.584473 359.207672 C 271.477234 357.873077 270.840332 356.636932 269.815857 355.774902 L 261.570282 348.417297 C 271.624725 339.610352 279.449707 328.546692 284.404175 316.13269 L 290.746948 316.13269 C 300.290314 316.601959 308.434906 309.305756 309.014069 299.768402 L 309.014069 266.976379 C 308.723511 259.756409 303.800751 253.551651 296.835968 251.626907 Z M 187.423508 225.938766 C 232.710754 225.938766 269.498718 255.74971 269.498718 292.347382 C 269.498718 331.989594 228.143967 349.432159 187.423508 349.432159 C 146.703049 349.432159 105.348305 331.672455 105.348305 292.347382 C 105.348305 255.74971 142.136261 225.938766 187.423508 225.938766 Z"/>
        <path id="path13" fill="#515151" stroke="none" d="M 299.880493 288.795441 L 287.702423 288.795441 C 287.702423 286.892609 287.702423 284.989807 287.702423 282.833252 C 287.695709 274.739288 286.888367 266.665833 285.292175 258.730804 L 290.42981 258.730804 C 292.743835 258.574768 295.022186 259.364136 296.743713 260.918274 C 298.465271 262.472443 299.482697 264.658478 299.563354 266.976379 Z"/>
        <path id="path14" fill="#515151" stroke="none" d="M 290.746948 307.950562 L 284.404175 307.950562 C 285.611237 303.469604 286.522308 298.914124 287.131561 294.31366 L 299.817078 294.31366 L 299.817078 299.768402 C 299.73645 302.069519 298.725677 304.23941 297.016022 305.781708 C 295.306366 307.323975 293.044128 308.106628 290.746948 307.950562 Z"/>
        <path id="path15" fill="#515151" stroke="none" d="M 187.423508 389.962341 C 156.978302 389.962341 129.958176 378.98938 112.896179 359.580536 L 121.458893 351.969269 C 140.949463 364.982697 163.996384 371.630829 187.423508 370.997528 C 210.84903 371.618286 233.892227 364.971222 253.388138 351.969269 L 261.887421 359.580536 C 244.88884 378.98938 217.805298 389.962341 187.423508 389.962341 Z"/>
        <path id="path16" fill="#515151" stroke="none" d="M 84.036659 258.730804 L 89.491425 258.730804 C 87.907753 266.667694 87.100525 274.739929 87.081184 282.833252 C 86.929817 284.817749 86.929817 286.810913 87.081184 288.795441 L 75.220238 288.795441 L 75.220238 266.976379 C 75.175713 264.674683 76.110443 262.462311 77.791809 260.889832 C 79.473183 259.317261 81.743088 258.532532 84.036659 258.730804 Z"/>
        <path id="path17" fill="#000000" stroke="none" d="M 187.423508 220.483994 C 177.120575 220.514587 166.872681 221.987732 156.978302 224.860504 L 156.978302 191.814774 C 166.880371 189.006226 177.131119 187.618103 187.423508 187.692001 C 197.694794 187.622406 207.923996 189.010483 217.805298 191.814774 L 217.805298 225.114227 C 207.971802 222.03743 197.727097 220.476135 187.423508 220.483994 Z"/>
        <path id="path18" fill="#515151" stroke="none" d="M 150.952698 193.717621 L 150.952698 227.08046 C 120.507484 238.243713 99.259262 263.424438 99.259262 292.347382 C 99.259262 329.833038 134.842102 355.204041 187.423508 355.204041 C 240.004929 355.204041 275.587769 329.833038 275.587769 292.347382 C 275.587769 263.424438 254.276108 238.243713 223.894333 227.08046 L 223.894333 193.717621 C 259.477173 206.403107 281.676788 239.321976 281.676788 283.086975 C 281.676788 332.306702 243.937424 365.542755 187.423508 365.542755 C 130.909592 365.542755 93.170227 332.497009 93.170227 283.086975 C 93.170227 239.321976 115.36985 206.529968 150.952698 193.717621 Z"/>
        <path id="path19" fill="#515151" stroke="none" d="M 74.903099 294.31366 L 87.5886 294.31366 C 88.167175 298.919189 89.07869 303.476746 90.315987 307.950562 L 83.973236 307.950562 C 81.669777 308.106506 79.40094 307.325714 77.681313 305.785217 C 75.961693 304.24472 74.937004 302.075073 74.839668 299.768402 Z"/>
        <path id="path20" fill="#515151" stroke="none" d="M 299.880493 194.54216 C 299.880493 198.325409 296.472778 201.392319 292.269196 201.392319 C 288.065582 201.392319 284.657898 198.325409 284.657898 194.54216 C 284.657898 190.758911 288.065582 187.692001 292.269196 187.692001 C 296.472778 187.692001 299.880493 190.758911 299.880493 194.54216 Z"/>
    </g>
</svg>
