<?xml version="1.0" encoding="UTF-8"?>

<svg width="400" height="400" viewBox="0 0 400 400" xmlns="http://www.w3.org/2000/svg">
    <g id="Group">
        <path id="Path" fill="#669df6" stroke="none" d="M 370.976013 240.600433 C 365.708832 234.276718 356.580017 232.816116 349.602661 237.180695 L 199.989288 347.039673 L 199.989288 351.741821 C 205.880539 351.043884 211.648346 353.794464 214.814163 358.811554 C 217.979996 363.828674 217.979996 370.218781 214.814163 375.235901 C 211.648346 380.253021 205.880539 383.003601 199.989288 382.305695 L 199.989288 382.305695 C 203.46022 382.32135 206.83992 381.194763 209.6073 379.099701 L 367.983734 262.1875 C 374.376373 256.827759 375.669769 247.496933 370.976013 240.600433 Z"/>
        <path id="path1" fill="#aecbfa" stroke="none" d="M 199.989288 382.305695 C 192.244751 381.388184 186.410919 374.822449 186.410919 367.023743 C 186.410919 359.225037 192.244751 352.659302 199.989288 351.741821 L 199.989288 351.741821 L 199.989288 347.039673 L 50.375916 237.180695 C 43.419113 232.7164 34.219151 234.188385 29.002569 240.600433 C 24.325592 247.511459 25.822485 256.867065 32.422298 261.973785 L 190.798752 378.885956 C 193.500412 380.950806 196.802658 382.07663 200.203033 382.091949 L 200.203033 382.091949 Z"/>
        <path id="path2" fill="#4285f4" stroke="none" d="M 199.989288 335.711792 C 182.637161 335.711792 168.57048 349.778503 168.57048 367.130585 C 168.57048 384.482727 182.637161 398.549438 199.989288 398.549438 C 217.341415 398.549438 231.408096 384.482727 231.408096 367.130585 C 231.408096 349.778503 217.341415 335.711792 199.989288 335.711792 Z M 199.989288 382.305695 C 193.745773 382.305084 188.121414 378.532196 185.752579 372.755463 C 183.383774 366.97879 184.740005 360.343353 189.185593 355.959534 C 193.631195 351.575684 200.284943 350.312347 206.027939 352.761749 C 211.770935 355.21109 215.464813 360.887695 215.378098 367.130585 C 215.378494 371.192596 213.750397 375.085175 210.858124 377.937286 C 207.965836 380.789368 204.050873 382.362885 199.989288 382.305695 Z"/>
        <path id="path3" fill="#aecbfa" stroke="none" d="M 71.749252 74.315857 C 62.944244 74.200714 55.834366 67.090851 55.719246 58.285858 L 55.719246 18.103973 C 55.003532 11.895386 57.913216 5.826752 63.202148 2.497162 C 68.491066 -0.832367 75.221161 -0.832367 80.510094 2.497162 C 85.799019 5.826752 88.708702 11.895386 87.992996 18.103973 L 87.992996 58.285858 C 87.876038 67.173431 80.637619 74.31662 71.749252 74.315857 Z"/>
        <path id="path4" fill="#aecbfa" stroke="none" d="M 87.565514 200.204819 C 87.565514 209.17601 80.292961 216.448563 71.321785 216.448563 C 62.350613 216.448563 55.078045 209.17601 55.078045 200.204819 C 55.078045 191.233627 62.350613 183.961075 71.321785 183.961075 C 80.292961 183.961075 87.565514 191.233627 87.565514 200.204819 Z"/>
        <path id="path5" fill="#aecbfa" stroke="none" d="M 87.565514 152.969742 C 87.565514 161.940918 80.292961 169.213486 71.321785 169.213486 C 62.350613 169.213486 55.078045 161.940918 55.078045 152.969742 C 55.078045 143.998566 62.350613 136.726013 71.321785 136.726013 C 80.292961 136.726013 87.565514 143.998566 87.565514 152.969742 Z"/>
        <path id="path6" fill="#aecbfa" stroke="none" d="M 87.565514 105.520905 C 87.565514 114.492065 80.292961 121.764679 71.321785 121.764679 C 62.350613 121.764679 55.078045 114.492065 55.078045 105.520905 C 55.078045 96.549744 62.350613 89.277191 71.321785 89.277191 C 80.292961 89.277191 87.565514 96.549744 87.565514 105.520905 Z"/>
        <path id="path7" fill="#4285f4" stroke="none" d="M 328.22934 121.337189 C 319.341705 121.220245 312.198547 113.981842 312.19931 105.093475 L 312.19931 64.911591 C 312.19931 56.058441 319.37619 48.881561 328.22934 48.881561 C 337.082458 48.881561 344.259338 56.058441 344.259338 64.911591 L 344.259338 105.093475 C 344.316498 109.381805 342.652924 113.514191 339.640503 116.566772 C 336.628052 119.619385 332.518036 121.337585 328.22934 121.337189 Z"/>
        <path id="path8" fill="#4285f4" stroke="none" d="M 344.900543 200.418564 C 344.900543 209.389709 337.627991 216.662308 328.656799 216.662308 C 319.685638 216.662308 312.413055 209.389709 312.413055 200.418564 C 312.413055 191.447372 319.685638 184.17482 328.656799 184.17482 C 337.627991 184.17482 344.900543 191.447372 344.900543 200.418564 Z"/>
        <path id="path9" fill="#4285f4" stroke="none" d="M 344.900543 152.328552 C 344.900543 161.299698 337.627991 168.572296 328.656799 168.572296 C 319.685638 168.572296 312.413055 161.299698 312.413055 152.328552 C 312.413055 143.357361 319.685638 136.084808 328.656799 136.084808 C 337.627991 136.084808 344.900543 143.357361 344.900543 152.328552 Z"/>
        <path id="path10" fill="#4285f4" stroke="none" d="M 344.900543 18.103973 C 344.900543 27.075134 337.627991 34.347687 328.656799 34.347687 C 319.685638 34.347687 312.413055 27.075134 312.413055 18.103973 C 312.413055 9.132813 319.685638 1.860229 328.656799 1.860229 C 337.627991 1.860229 344.900543 9.132813 344.900543 18.103973 Z"/>
        <path id="path11" fill="#669df6" stroke="none" d="M 199.989288 264.324829 C 191.18428 264.209747 184.074387 257.099854 183.95929 248.29483 L 183.95929 207.471756 C 184.904236 199.274567 191.844696 193.088211 200.096146 193.088211 C 208.347626 193.088211 215.288086 199.274567 216.233032 207.471756 L 216.233032 247.867355 C 216.290207 252.212387 214.604095 256.39917 211.551575 259.491852 C 208.499069 262.584534 204.334686 264.325195 199.989288 264.324829 Z"/>
        <path id="path12" fill="#669df6" stroke="none" d="M 216.233032 295.316193 C 216.233032 304.287354 208.96048 311.559906 199.989288 311.559906 C 191.018097 311.559906 183.745544 304.287354 183.745544 295.316193 C 183.745544 286.345032 191.018097 279.072449 199.989288 279.072449 C 208.96048 279.072449 216.233032 286.345032 216.233032 295.316193 Z"/>
        <path id="path13" fill="#669df6" stroke="none" d="M 216.233032 160.450409 C 216.233032 169.42157 208.96048 176.694138 199.989288 176.694138 C 191.018097 176.694138 183.745544 169.42157 183.745544 160.450409 C 183.745544 151.479248 191.018097 144.206665 199.989288 144.206665 C 208.96048 144.206665 216.233032 151.479248 216.233032 160.450409 Z"/>
        <path id="path14" fill="#669df6" stroke="none" d="M 216.233032 113.001587 C 216.233032 121.972748 208.96048 129.245331 199.989288 129.245331 C 191.018097 129.245331 183.745544 121.972748 183.745544 113.001587 C 183.745544 104.030426 191.018097 96.757874 199.989288 96.757874 C 208.96048 96.757874 216.233032 104.030426 216.233032 113.001587 Z"/>
        <path id="path15" fill="#4285f4" stroke="none" d="M 264.109314 168.999756 C 255.304291 168.884628 248.194397 161.774765 248.0793 152.969742 L 248.0793 112.787872 C 247.363586 106.579254 250.27327 100.510681 255.562195 97.181091 C 260.851135 93.851532 267.581207 93.851532 272.870148 97.181091 C 278.159088 100.510681 281.068756 106.579254 280.353027 112.787872 L 280.353027 152.969742 C 280.236084 161.857315 272.997681 169.000519 264.109314 168.999756 Z"/>
        <path id="path16" fill="#4285f4" stroke="none" d="M 280.566803 65.33905 C 280.566803 74.310211 273.294189 81.582794 264.323059 81.582794 C 255.351868 81.582794 248.0793 74.310211 248.0793 65.33905 C 248.0793 56.367889 255.351868 49.095306 264.323059 49.095306 C 273.294189 49.095306 280.566803 56.367889 280.566803 65.33905 Z"/>
        <path id="path17" fill="#4285f4" stroke="none" d="M 280.566803 247.012436 C 280.566803 255.983597 273.294189 263.256165 264.323059 263.256165 C 255.351868 263.256165 248.0793 255.983597 248.0793 247.012436 C 248.0793 238.041275 255.351868 230.768707 264.323059 230.768707 C 273.294189 230.768707 280.566803 238.041275 280.566803 247.012436 Z"/>
        <path id="path18" fill="#4285f4" stroke="none" d="M 280.566803 199.563614 C 280.566803 208.53479 273.294189 215.807343 264.323059 215.807343 C 255.351868 215.807343 248.0793 208.53479 248.0793 199.563614 C 248.0793 190.592453 255.351868 183.31987 264.323059 183.31987 C 273.294189 183.31987 280.566803 190.592453 280.566803 199.563614 Z"/>
        <path id="path19" fill="#aecbfa" stroke="none" d="M 151.899277 247.012436 C 151.899277 255.983597 144.626724 263.256165 135.655533 263.256165 C 126.684387 263.256165 119.411789 255.983597 119.411789 247.012436 C 119.411789 238.041275 126.684387 230.768707 135.655533 230.768707 C 144.626724 230.768707 151.899277 238.041275 151.899277 247.012436 Z"/>
        <path id="path20" fill="#aecbfa" stroke="none" d="M 151.899277 113.001587 C 151.899277 121.972748 144.626724 129.245331 135.655533 129.245331 C 126.684387 129.245331 119.411789 121.972748 119.411789 113.001587 C 119.411789 104.030426 126.684387 96.757874 135.655533 96.757874 C 144.626724 96.757874 151.899277 104.030426 151.899277 113.001587 Z"/>
        <path id="path21" fill="#aecbfa" stroke="none" d="M 151.899277 65.33905 C 151.899277 74.310211 144.626724 81.582794 135.655533 81.582794 C 126.684387 81.582794 119.411789 74.310211 119.411789 65.33905 C 119.411789 56.367889 126.684387 49.095306 135.655533 49.095306 C 144.626724 49.095306 151.899277 56.367889 151.899277 65.33905 Z"/>
        <path id="path22" fill="#aecbfa" stroke="none" d="M 135.869278 215.807343 C 127.142647 215.814148 119.970001 208.924637 119.625526 200.204819 L 119.625526 159.59549 C 119.625526 150.74234 126.802414 143.565491 135.655533 143.565491 C 144.508667 143.565491 151.685532 150.74234 151.685532 159.59549 L 151.685532 200.204819 C 151.456741 208.808228 144.475006 215.695648 135.869278 215.807343 Z"/>
    </g>
</svg>
