<?xml version="1.0" encoding="UTF-8"?>
<!-- Generated by Pixelmator Pro 3.6.17 -->
<svg width="400" height="400" viewBox="0 0 400 400" xmlns="http://www.w3.org/2000/svg">
    <g id="layer2">
        <path id="path3051" fill="#3071a9" stroke="none" d="M 289.573486 84.481415 C 253.520065 84.341705 213.554092 95.608032 192.015747 108.893219 C 183.96492 113.85907 175.703857 119.418976 167.42511 125.286957 C 167.42511 125.286957 92.721016 182.808334 69.509682 211.756592 C 66.400879 215.633743 63.570377 219.813217 61.104145 224.215836 C 60.937939 224.531906 60.760601 224.851044 60.597427 225.169662 C 60.366791 225.593536 60.135403 226.023636 59.911873 226.451355 C 59.85894 226.558594 59.815414 226.671768 59.762836 226.779236 C 56.095417 234.276398 53.300579 242.395096 51.923641 250.594879 C 51.912102 250.663879 51.905239 250.734543 51.893887 250.803528 C 51.852684 251.091583 51.812622 251.378662 51.774658 251.667938 C 50.526913 261.17627 51.040783 271.321716 54.934181 279.924805 C 59.667137 290.383057 67.545258 298.188843 78.958488 304.604858 C 89.964943 310.792236 110.106628 316.05069 110.106628 316.05069 L 109.778755 316.199707 C 126.565399 319.177155 143.954819 318.177277 160.927277 316.527588 C 169.249603 315.718689 177.575302 314.802704 185.905396 313.755554 C 185.911118 313.755676 185.929535 313.755432 185.93515 313.755554 C 185.992004 313.7565 186.172699 313.754639 186.233215 313.755554 C 185.68425 310.960114 184.797546 305.607056 185.875534 305.320221 C 197.285492 302.284119 204.078323 300.452393 212.96994 297.361816 C 221.472046 294.406616 227.694168 291.713989 234.579895 287.913025 C 236.300476 286.963287 237.662552 285.380341 239.468216 284.604492 C 245.169327 282.154846 251.516983 281.580841 257.650391 280.640167 C 262.550751 279.888672 267.50769 279.396149 272.464386 279.298859 C 275.679443 279.235809 278.934784 279.165253 282.09198 279.775757 C 284.510193 280.243378 286.956146 280.920654 289.066772 282.190125 C 290.478546 283.039276 291.787598 284.188751 292.703217 285.558289 C 293.191742 286.599274 293.595734 287.695007 293.984894 288.777435 C 312.011017 282.023102 330.320709 273.879089 344.239227 260.669617 C 364.82724 241.130341 381.184967 215.593918 389.277344 188.388031 C 393.673462 173.608627 394.436798 157.000809 390.260956 142.157623 C 387.679321 132.981079 383.699371 127.075195 374.821045 118.07373 C 356.65921 99.659973 330.200684 88.272369 304.506714 85.31601 C 299.749969 84.768707 294.723999 84.501373 289.573486 84.481415 Z M 167.42511 125.286957 C 163.736755 127.901306 160.036621 130.578491 156.366776 133.304993 L 167.42511 125.286957 Z M 245.191132 142.664337 C 256.871429 142.629822 263.343475 144.422958 263.343475 144.422958 C 263.343475 144.422958 244.126907 146.216324 233.447235 148.119003 C 224.988174 149.626053 211.381653 152.245911 200.778946 155.838974 C 180.104919 162.845032 160.437927 172.640594 141.016251 182.605515 C 126.088364 190.264755 111.784477 199.113129 97.498283 207.911499 C 87.734146 213.924911 68.675087 226.689804 68.675087 226.689804 C 68.675087 226.689804 84.917175 205.701553 128.109894 181.443039 C 140.459961 174.506851 153.06398 168.000275 165.994385 162.217636 C 176.098389 157.69899 186.34317 153.392197 196.933868 150.175674 C 204.980225 147.731934 213.2836 146.039169 221.584122 144.691223 C 227.63176 143.709106 234.060699 143.090607 239.855698 142.813385 C 241.732452 142.723602 243.522522 142.669312 245.191132 142.664337 Z M 97.021378 162.69455 C 93.195824 162.717072 89.915329 167.20726 87.90049 170.593353 C 85.318588 174.932404 84.17131 182.378647 83.638115 188.328415 C 91.927711 181.238464 100.200081 174.643127 105.933617 170.176056 C 103.718391 166.454453 100.943359 163.237015 97.796356 162.754166 C 97.53672 162.714279 97.276421 162.693039 97.021378 162.69455 Z M 264.029053 181.651688 C 264.029053 181.651688 227.964996 195.337051 210.048874 202.486664 C 189.409927 210.7229 168.836105 219.164917 148.408356 227.911896 C 134.118988 234.030441 119.911568 240.354553 105.784584 246.839218 C 92.796799 252.800995 67.035713 265.200256 67.035713 265.200256 C 67.035713 265.200256 88.972427 247.216171 129.659851 229.432037 C 153.40416 219.053619 169.415115 209.960846 194.966614 201.622269 C 206.897598 197.728683 218.672684 193.344406 230.734818 189.878372 C 241.719528 186.721939 264.029053 181.651688 264.029053 181.651688 Z M 276.547913 218.254471 C 276.547913 218.254471 271.48584 224.282318 260.18396 231.756973 C 254.533005 235.494293 249.578354 239.412613 244.028656 242.845108 C 236.845657 247.287842 229.472443 251.421265 221.882187 255.125519 C 212.473724 259.717102 202.704773 263.555267 192.969559 267.405945 C 183.426682 271.180573 173.828461 274.851715 164.056931 277.987366 C 152.000793 281.85614 139.827637 285.435455 127.454147 288.121704 C 118.475929 290.070831 100.240517 292.443665 100.240517 292.443665 C 100.240517 292.443665 122.741859 284.820984 133.952042 280.878632 C 145.788071 276.716217 157.011826 272.788269 169.362549 268.121307 C 182.129684 263.297028 191.258621 259.781982 202.120255 255.393784 C 211.001434 251.805725 219.943665 248.337372 228.61853 244.275833 C 235.253281 241.169464 241.69249 237.645966 248.141998 234.171326 C 257.699066 229.022491 276.547913 218.254471 276.547913 218.254471 Z M 302.748108 241.891296 C 302.748108 241.891296 302.446289 245.630249 292.941681 255.363983 C 289.104218 259.293945 282.34314 264.36554 278.038269 267.018433 C 261.35437 277.299988 252.463989 279.924805 252.463989 279.924805 C 252.463989 279.924805 268.934814 269.151733 276.905609 263.382019 C 281.599335 259.984375 286.226563 256.452393 290.676361 252.740982 C 294.831726 249.275177 302.748108 241.891296 302.748108 241.891296 Z M 46.85648 277.510437 C 41.252533 280.031342 34.500122 283.15863 30.075239 285.528503 C 21.87076 289.922668 5.726941 297.609222 6.259582 300.104034 C 7.073761 303.917511 25.350601 296.541473 34.874134 294.649384 C 40.933353 293.445587 46.958549 292.182343 52.996689 290.893738 C 50.56049 286.633392 48.442719 282.147705 46.85648 277.510437 Z M 270.258667 283.62085 C 267.832672 283.636414 265.239624 283.778564 262.091614 284.127563 C 252.447754 285.196838 249.837204 286.059021 242.121017 288.568787 C 239.372009 289.462952 237.749725 290.900635 235.593323 292.085999 C 231.718323 294.216064 228.068436 296.786621 224.028275 298.583893 C 218.222809 301.166473 212.046432 302.822266 205.965332 304.66449 C 200.951065 306.183533 200.257477 306.48053 190.793655 308.748016 C 189.150955 309.141602 190.695908 311.825165 192.16478 313.874786 C 214.617035 314.329803 282.527008 315.415497 283.433289 311.639282 L 288.440826 290.834106 C 288.887024 290.674652 289.335907 290.519348 289.782135 290.357208 C 289.594055 289.642181 289.350769 288.926575 289.066772 288.449554 C 288.239014 287.05896 287.030914 285.796997 285.579376 285.08139 C 283.140106 283.878937 280.245148 284.069244 277.531525 283.889099 C 274.967529 283.718933 272.684662 283.605377 270.258667 283.62085 Z M 282.539093 289.224548 C 285.230225 289.269257 287.411865 289.678925 287.397614 291.012939 C 287.366882 293.884644 281.196167 293.743591 278.366119 294.023438 C 260.112854 295.828369 253.711609 295.521362 241.375854 295.573395 C 239.00592 295.583405 234.28183 295.33493 234.28183 295.33493 C 234.28183 295.33493 246.135056 292.521637 256.666748 291.251404 C 262.790375 290.512817 268.762726 289.749359 274.640289 289.552429 C 276.656464 289.484894 279.847961 289.17984 282.539093 289.224548 Z M 268.559692 300.670349 C 270.753845 300.628387 272.950073 300.69696 275.117188 300.99823 C 276.830963 301.236511 278.764587 301.322632 280.09494 302.428955 C 280.688812 302.922821 281.377899 303.980499 281.138153 304.485657 C 280.651093 305.511993 278.816681 305.560913 274.908539 305.826935 C 270.222595 306.145966 265.652832 306.523315 261.018555 306.66153 C 249.528137 307.004272 226.532059 306.601929 226.532059 306.601929 C 226.532059 306.601929 233.703949 304.697083 237.351929 304.038544 C 245.489639 302.56955 253.718552 301.502441 261.972382 300.99823 C 264.156281 300.864868 266.365509 300.712341 268.559692 300.670349 Z"/>
    </g>
    <g id="layer3"/>
</svg>
