<?xml version="1.0" encoding="UTF-8"?>
<svg xmlns="http://www.w3.org/2000/svg" xmlns:xlink="http://www.w3.org/1999/xlink" width="400px" height="400px" viewBox="0 0 400 128" version="1.1">
<g id="surface1">
<path style=" stroke:none;fill-rule:nonzero;fill:rgb(27.843139%,32.941177%,63.137257%);fill-opacity:1;" d="M 17.261719 51.292969 C 17.261719 44.210938 17.261719 37.128906 17.261719 29.945312 C 17.363281 23.695312 20.484375 20.050781 26.617188 19.945312 C 41.488281 19.84375 56.355469 19.738281 71.222656 19.945312 C 78.605469 20.050781 83.078125 27.859375 80.269531 34.839844 C 79.335938 37.128906 77.464844 36.503906 75.902344 36.503906 C 66.234375 36.609375 56.5625 36.503906 46.789062 36.503906 C 35.039062 36.503906 33.792969 37.859375 33.792969 49.730469 C 33.792969 59.417969 33.6875 69.101562 33.898438 78.789062 C 34 82.226562 32.753906 83.164062 29.425781 83.164062 C 19.753906 83.164062 17.15625 80.765625 17.15625 70.976562 C 17.261719 64.519531 17.261719 57.960938 17.261719 51.292969 Z M 17.261719 51.292969 "/>
<path style=" stroke:none;fill-rule:nonzero;fill:rgb(27.843139%,32.941177%,63.137257%);fill-opacity:1;" d="M 79.855469 113.78125 C 72.574219 113.78125 65.296875 113.78125 58.019531 113.78125 C 50.222656 113.675781 45.230469 105.972656 48.140625 98.785156 C 49.078125 96.492188 50.949219 97.222656 52.613281 97.222656 C 63.738281 97.117188 74.757812 97.222656 85.886719 97.222656 C 92.125 97.222656 95.035156 94.304688 95.140625 88.058594 C 95.242188 77.121094 95.242188 66.1875 95.140625 55.355469 C 95.140625 52.023438 96.074219 50.878906 99.609375 50.878906 C 108.65625 50.980469 111.878906 53.898438 111.878906 62.855469 C 111.878906 75.976562 111.878906 89.203125 111.878906 102.324219 C 111.878906 110.761719 108.761719 113.78125 100.234375 113.78125 C 93.371094 113.78125 86.613281 113.78125 79.855469 113.78125 Z M 79.855469 113.78125 "/>
<path style=" stroke:none;fill-rule:nonzero;fill:rgb(15.686275%,4.313726%,29.019609%);fill-opacity:1;" d="M 311.621094 83.371094 C 305.796875 87.222656 299.558594 88.371094 292.800781 86.289062 C 285.210938 83.890625 280.425781 78.996094 279.28125 70.976562 C 278.140625 63.167969 280.21875 56.5 286.769531 51.917969 C 293.527344 47.234375 300.910156 46.710938 308.394531 50.042969 C 310.269531 50.878906 311.828125 54.3125 313.699219 49.316406 C 314.636719 46.816406 319.417969 48.378906 322.328125 48.585938 C 324.824219 48.691406 324.199219 51.085938 324.199219 52.648438 C 324.199219 63.375 324.511719 74.101562 323.890625 84.828125 C 323.265625 97.640625 316.609375 103.785156 303.820312 104.511719 C 297.167969 104.929688 290.71875 104.410156 284.585938 101.285156 C 282.402344 100.242188 280.21875 99.097656 282.503906 96.390625 C 284.066406 94.515625 283.441406 89.621094 288.746094 92.433594 C 293.734375 95.140625 299.351562 96.703125 305.277344 94.515625 C 310.578125 92.535156 312.453125 89.515625 311.621094 83.371094 Z M 311.621094 83.371094 "/>
<path style=" stroke:none;fill-rule:nonzero;fill:rgb(15.686275%,4.313726%,29.019609%);fill-opacity:1;" d="M 365.792969 82.953125 C 359.449219 87.121094 353.3125 88.472656 346.554688 86.390625 C 339.484375 84.203125 334.496094 79.933594 333.144531 72.75 C 331.6875 64.730469 332.832031 57.023438 340.214844 51.917969 C 346.972656 47.335938 354.355469 46.609375 361.839844 49.941406 C 363.816406 50.773438 365.273438 54.003906 367.039062 49.105469 C 367.871094 46.921875 372.757812 48.273438 375.773438 48.378906 C 378.269531 48.480469 377.539062 50.980469 377.539062 52.542969 C 377.539062 63.269531 377.644531 73.996094 377.539062 84.726562 C 377.332031 96.285156 370.679688 103.261719 359.03125 104.304688 C 351.859375 104.929688 344.890625 104.410156 338.238281 101.179688 C 335.949219 100.035156 334.183594 98.679688 336.367188 96.078125 C 337.925781 94.203125 337.71875 89.621094 342.398438 92.328125 C 345.515625 94.097656 349.15625 94.929688 352.792969 95.347656 C 360.695312 95.972656 365.273438 92.015625 365.792969 82.953125 Z M 365.792969 82.953125 "/>
<path style=" stroke:none;fill-rule:nonzero;fill:rgb(16.078432%,4.705882%,29.019609%);fill-opacity:1;" d="M 170.003906 78.894531 C 177.90625 78.894531 185.597656 79.101562 193.292969 78.789062 C 197.554688 78.582031 198.804688 79.832031 198.804688 84.203125 C 198.910156 88.890625 196.933594 89.515625 192.980469 89.515625 C 181.753906 89.308594 170.417969 89.515625 159.1875 89.410156 C 157.003906 89.410156 153.679688 90.871094 152.636719 88.058594 C 151.597656 84.933594 151.597656 81.289062 154.199219 78.269531 C 159.8125 71.914062 165.117188 65.355469 170.523438 58.792969 C 173.746094 54.9375 176.863281 51.085938 180.921875 46.191406 C 172.601562 46.191406 165.324219 45.878906 158.148438 46.296875 C 152.949219 46.609375 152.117188 44.421875 152.328125 39.941406 C 152.429688 36.816406 153.46875 35.777344 156.589844 35.777344 C 167.820312 35.878906 179.152344 35.777344 190.382812 35.878906 C 192.566406 35.878906 195.894531 34.316406 196.828125 37.234375 C 197.867188 40.359375 197.765625 43.898438 195.0625 46.921875 C 187.574219 55.5625 180.398438 64.417969 173.121094 73.269531 C 171.976562 74.832031 170.105469 76.082031 170.003906 78.894531 Z M 170.003906 78.894531 "/>
<path style=" stroke:none;fill-rule:nonzero;fill:rgb(15.686275%,4.705882%,29.019609%);fill-opacity:1;" d="M 228.855469 68.6875 C 228.855469 63.480469 228.75 58.273438 228.855469 53.066406 C 228.855469 51.292969 227.917969 48.585938 230.621094 48.378906 C 233.742188 48.167969 238.316406 46.398438 239.769531 49.417969 C 241.539062 52.855469 242.476562 51.085938 244.035156 50.253906 C 254.121094 44.941406 265.871094 48.480469 269.40625 57.960938 C 270.757812 61.707031 270.546875 65.769531 270.546875 69.726562 C 270.546875 74.621094 270.238281 79.414062 270.652344 84.203125 C 271.171875 89.621094 267.949219 89.308594 264.308594 89.515625 C 260.046875 89.722656 258.488281 88.371094 258.800781 83.996094 C 259.214844 78.683594 259.007812 73.269531 258.902344 67.957031 C 258.800781 61.292969 255.785156 57.960938 250.167969 58.0625 C 244.449219 58.167969 240.914062 61.917969 240.707031 68.164062 C 240.601562 73.996094 240.5 79.933594 240.707031 85.765625 C 240.914062 90.140625 238.003906 89.515625 235.507812 89.308594 C 232.910156 88.996094 228.75 91.285156 228.75 85.765625 C 228.855469 80.144531 228.855469 74.414062 228.855469 68.6875 Z M 228.855469 68.6875 "/>
<path style=" stroke:none;fill-rule:nonzero;fill:rgb(27.843139%,32.941177%,63.529414%);fill-opacity:1;" d="M 67.378906 50.878906 C 70.914062 51.292969 76.632812 49.003906 79.542969 51.710938 C 82.765625 54.730469 80.375 60.5625 80.6875 65.144531 C 80.894531 68.375 80.894531 71.707031 80.582031 75.039062 C 80.269531 79.832031 77.566406 82.953125 72.785156 83.058594 C 65.503906 83.371094 58.226562 83.164062 51.054688 83.265625 C 48.871094 83.265625 47.933594 82.328125 47.933594 80.144531 C 48.039062 73.0625 47.828125 65.980469 48.039062 58.898438 C 48.246094 54.210938 51.78125 51.085938 56.5625 50.980469 C 59.890625 50.878906 63.21875 50.878906 67.378906 50.878906 Z M 67.378906 50.878906 "/>
<path style=" stroke:none;fill-rule:nonzero;fill:rgb(17.254902%,5.882353%,30.19608%);fill-opacity:1;" d="M 205.769531 68.6875 C 205.769531 63.167969 205.980469 57.648438 205.667969 52.128906 C 205.457031 48.167969 207.746094 47.855469 210.554688 48.378906 C 213.257812 48.898438 217.726562 46.085938 217.726562 52.023438 C 217.726562 63.269531 217.726562 74.519531 217.726562 85.664062 C 217.726562 88.472656 216.6875 89.515625 213.777344 89.621094 C 205.769531 89.933594 205.769531 90.035156 205.667969 82.121094 C 205.667969 79.832031 205.667969 77.644531 205.667969 75.351562 C 205.769531 73.164062 205.769531 70.875 205.769531 68.6875 Z M 205.769531 68.6875 "/>
<path style=" stroke:none;fill-rule:nonzero;fill:rgb(89.803922%,90.588236%,94.901961%);fill-opacity:1;" d="M 130.386719 67.230469 C 130.386719 50.667969 130.386719 34.007812 130.386719 17.445312 C 130.386719 15.78125 129.347656 12.96875 132.257812 12.863281 C 135.691406 12.761719 134.441406 15.78125 134.441406 17.550781 C 134.546875 50.566406 134.546875 83.578125 134.441406 116.699219 C 134.441406 117.425781 134.441406 118.050781 134.441406 118.78125 C 134.441406 120.238281 134.234375 121.695312 132.257812 121.59375 C 130.285156 121.488281 130.285156 120.03125 130.285156 118.574219 C 130.285156 110.761719 130.285156 103.054688 130.285156 95.242188 C 130.386719 85.871094 130.386719 76.601562 130.386719 67.230469 Z M 130.386719 67.230469 "/>
<path style=" stroke:none;fill-rule:nonzero;fill:rgb(18.431373%,7.450981%,30.980393%);fill-opacity:1;" d="M 210.242188 29.839844 C 216.066406 29.734375 218.769531 32.027344 218.871094 35.984375 C 218.976562 39.839844 216.066406 42.441406 211.90625 42.546875 C 207.433594 42.648438 204.105469 39.941406 204.316406 35.984375 C 204.523438 31.507812 207.539062 29.945312 210.242188 29.839844 Z M 210.242188 29.839844 "/>
<path style=" stroke:none;fill-rule:nonzero;fill:rgb(97.647059%,97.647059%,97.647059%);fill-opacity:1;" d="M 301.324219 77.433594 C 295.191406 77.332031 290.824219 73.269531 290.824219 67.644531 C 290.824219 61.707031 295.710938 57.542969 302.367188 57.75 C 308.707031 57.960938 312.554688 61.8125 312.453125 67.851562 C 312.242188 73.894531 308.085938 77.539062 301.324219 77.433594 Z M 301.324219 77.433594 "/>
<path style=" stroke:none;fill-rule:nonzero;fill:rgb(97.647059%,97.647059%,97.647059%);fill-opacity:1;" d="M 354.875 77.433594 C 348.738281 77.332031 344.164062 73.164062 344.164062 67.644531 C 344.164062 61.8125 349.257812 57.542969 355.808594 57.75 C 361.839844 57.960938 366.3125 62.230469 366.101562 67.75 C 365.894531 73.582031 361.320312 77.539062 354.875 77.433594 Z M 354.875 77.433594 "/>
</g>
</svg>
