<?xml version="1.0" encoding="UTF-8"?>
<!-- Generated by Pixelmator Pro 3.6.17 -->
<svg width="400" height="400" viewBox="0 0 400 400" xmlns="http://www.w3.org/2000/svg">
    <g id="surface1">
        <path id="Path" fill="#4754a1" stroke="none" d="M -1.470448 133.833282 C -1.470448 103.712067 -1.470448 73.590851 -1.470448 43.037689 C -1.038484 16.455261 12.236112 0.954407 38.320114 0.505829 C 101.569656 0.073853 164.802597 -0.374725 228.035522 0.505829 C 259.436005 0.954407 278.459045 34.165802 266.51358 63.855042 C 262.542816 73.590851 254.584717 70.932617 247.939117 70.932617 C 206.819427 71.381195 165.683136 70.932617 124.114876 70.932617 C 74.139923 70.932617 68.840057 76.697693 68.840057 127.187653 C 68.840057 168.390411 68.391472 209.576553 69.288635 250.779312 C 69.720596 265.399658 64.420723 269.387024 50.265587 269.387024 C 9.129292 269.387024 -1.919027 259.186005 -1.919027 217.551285 C -1.470448 190.088318 -1.470448 162.19339 -1.470448 133.833282 Z M -1.470448 133.833282"/>
        <path id="path1" fill="#4754a1" stroke="none" d="M 264.752502 399.607635 C 233.783966 399.607635 202.832062 399.607635 171.880157 399.607635 C 138.718597 399.159058 117.485886 366.39624 129.863327 335.826447 C 133.850693 326.074005 141.808792 329.180847 148.886368 329.180847 C 196.203079 328.732239 243.071213 329.180847 290.404541 329.180847 C 316.937103 329.180847 329.314545 316.770172 329.763123 290.204346 C 330.195099 243.68512 330.195099 197.18251 329.763123 151.111847 C 329.763123 136.940094 333.733887 132.072174 348.769562 132.072174 C 387.24762 132.50415 400.954163 144.914825 400.954163 183.010757 C 400.954163 238.817215 400.954163 295.072266 400.954163 350.878723 C 400.954163 386.765015 387.696198 399.607635 351.427795 399.607635 C 322.236969 399.607635 293.49472 399.607635 264.752502 399.607635 Z M 264.752502 399.607635"/>
        <path id="path2" fill="#4754a2" stroke="none" d="M 211.687332 132.072174 C 226.723022 133.833282 251.045929 124.097473 263.42337 135.610962 C 277.129944 148.453598 266.962158 173.258331 268.29129 192.746567 C 269.171814 206.486343 269.171814 220.658096 267.842712 234.829849 C 266.51358 255.215256 255.016678 268.489868 234.681137 268.938416 C 203.712616 270.267548 172.760712 269.387024 142.25737 269.81897 C 132.970139 269.81897 128.982773 265.831604 128.982773 256.544373 C 129.431366 226.423172 128.534195 196.301956 129.431366 166.180756 C 130.311905 146.243942 145.34758 132.952728 165.683136 132.50415 C 179.838272 132.072174 193.993408 132.072174 211.687332 132.072174 Z M 211.687332 132.072174"/>
    </g>
</svg>
